%TF.GenerationSoftware,KiCad,Pcbnew,9.0.6*%
%TF.CreationDate,2026-05-29T12:26:48-07:00*%
%TF.ProjectId,juggling_machine_pcb,6a756767-6c69-46e6-975f-6d616368696e,rev?*%
%TF.SameCoordinates,Original*%
%TF.FileFunction,Legend,Top*%
%TF.FilePolarity,Positive*%
%FSLAX46Y46*%
G04 Gerber Fmt 4.6, Leading zero omitted, Abs format (unit mm)*
G04 Created by KiCad (PCBNEW 9.0.6) date 2026-05-29 12:26:48*
%MOMM*%
%LPD*%
G01*
G04 APERTURE LIST*
%ADD10C,0.100000*%
%ADD11C,0.150000*%
%ADD12C,0.120000*%
G04 APERTURE END LIST*
D10*
X130156265Y-90237657D02*
X130203884Y-90190038D01*
X130203884Y-90190038D02*
X130299122Y-90142419D01*
X130299122Y-90142419D02*
X130537217Y-90142419D01*
X130537217Y-90142419D02*
X130632455Y-90190038D01*
X130632455Y-90190038D02*
X130680074Y-90237657D01*
X130680074Y-90237657D02*
X130727693Y-90332895D01*
X130727693Y-90332895D02*
X130727693Y-90428133D01*
X130727693Y-90428133D02*
X130680074Y-90570990D01*
X130680074Y-90570990D02*
X130108646Y-91142419D01*
X130108646Y-91142419D02*
X130727693Y-91142419D01*
X131584836Y-90475752D02*
X131584836Y-91142419D01*
X131346741Y-90094800D02*
X131108646Y-90809085D01*
X131108646Y-90809085D02*
X131727693Y-90809085D01*
X131965789Y-90142419D02*
X132299122Y-91142419D01*
X132299122Y-91142419D02*
X132632455Y-90142419D01*
X83753884Y-93112419D02*
X83753884Y-92112419D01*
X83753884Y-92112419D02*
X84087217Y-92826704D01*
X84087217Y-92826704D02*
X84420550Y-92112419D01*
X84420550Y-92112419D02*
X84420550Y-93112419D01*
X85087217Y-92112419D02*
X85277693Y-92112419D01*
X85277693Y-92112419D02*
X85372931Y-92160038D01*
X85372931Y-92160038D02*
X85468169Y-92255276D01*
X85468169Y-92255276D02*
X85515788Y-92445752D01*
X85515788Y-92445752D02*
X85515788Y-92779085D01*
X85515788Y-92779085D02*
X85468169Y-92969561D01*
X85468169Y-92969561D02*
X85372931Y-93064800D01*
X85372931Y-93064800D02*
X85277693Y-93112419D01*
X85277693Y-93112419D02*
X85087217Y-93112419D01*
X85087217Y-93112419D02*
X84991979Y-93064800D01*
X84991979Y-93064800D02*
X84896741Y-92969561D01*
X84896741Y-92969561D02*
X84849122Y-92779085D01*
X84849122Y-92779085D02*
X84849122Y-92445752D01*
X84849122Y-92445752D02*
X84896741Y-92255276D01*
X84896741Y-92255276D02*
X84991979Y-92160038D01*
X84991979Y-92160038D02*
X85087217Y-92112419D01*
X85896741Y-93064800D02*
X86039598Y-93112419D01*
X86039598Y-93112419D02*
X86277693Y-93112419D01*
X86277693Y-93112419D02*
X86372931Y-93064800D01*
X86372931Y-93064800D02*
X86420550Y-93017180D01*
X86420550Y-93017180D02*
X86468169Y-92921942D01*
X86468169Y-92921942D02*
X86468169Y-92826704D01*
X86468169Y-92826704D02*
X86420550Y-92731466D01*
X86420550Y-92731466D02*
X86372931Y-92683847D01*
X86372931Y-92683847D02*
X86277693Y-92636228D01*
X86277693Y-92636228D02*
X86087217Y-92588609D01*
X86087217Y-92588609D02*
X85991979Y-92540990D01*
X85991979Y-92540990D02*
X85944360Y-92493371D01*
X85944360Y-92493371D02*
X85896741Y-92398133D01*
X85896741Y-92398133D02*
X85896741Y-92302895D01*
X85896741Y-92302895D02*
X85944360Y-92207657D01*
X85944360Y-92207657D02*
X85991979Y-92160038D01*
X85991979Y-92160038D02*
X86087217Y-92112419D01*
X86087217Y-92112419D02*
X86325312Y-92112419D01*
X86325312Y-92112419D02*
X86468169Y-92160038D01*
X86896741Y-93112419D02*
X86896741Y-92112419D01*
X100127693Y-108145038D02*
X100032455Y-108097419D01*
X100032455Y-108097419D02*
X99889598Y-108097419D01*
X99889598Y-108097419D02*
X99746741Y-108145038D01*
X99746741Y-108145038D02*
X99651503Y-108240276D01*
X99651503Y-108240276D02*
X99603884Y-108335514D01*
X99603884Y-108335514D02*
X99556265Y-108525990D01*
X99556265Y-108525990D02*
X99556265Y-108668847D01*
X99556265Y-108668847D02*
X99603884Y-108859323D01*
X99603884Y-108859323D02*
X99651503Y-108954561D01*
X99651503Y-108954561D02*
X99746741Y-109049800D01*
X99746741Y-109049800D02*
X99889598Y-109097419D01*
X99889598Y-109097419D02*
X99984836Y-109097419D01*
X99984836Y-109097419D02*
X100127693Y-109049800D01*
X100127693Y-109049800D02*
X100175312Y-109002180D01*
X100175312Y-109002180D02*
X100175312Y-108668847D01*
X100175312Y-108668847D02*
X99984836Y-108668847D01*
X100603884Y-109097419D02*
X100603884Y-108097419D01*
X100603884Y-108097419D02*
X101175312Y-109097419D01*
X101175312Y-109097419D02*
X101175312Y-108097419D01*
X101651503Y-109097419D02*
X101651503Y-108097419D01*
X101651503Y-108097419D02*
X101889598Y-108097419D01*
X101889598Y-108097419D02*
X102032455Y-108145038D01*
X102032455Y-108145038D02*
X102127693Y-108240276D01*
X102127693Y-108240276D02*
X102175312Y-108335514D01*
X102175312Y-108335514D02*
X102222931Y-108525990D01*
X102222931Y-108525990D02*
X102222931Y-108668847D01*
X102222931Y-108668847D02*
X102175312Y-108859323D01*
X102175312Y-108859323D02*
X102127693Y-108954561D01*
X102127693Y-108954561D02*
X102032455Y-109049800D01*
X102032455Y-109049800D02*
X101889598Y-109097419D01*
X101889598Y-109097419D02*
X101651503Y-109097419D01*
X90377693Y-28795038D02*
X90282455Y-28747419D01*
X90282455Y-28747419D02*
X90139598Y-28747419D01*
X90139598Y-28747419D02*
X89996741Y-28795038D01*
X89996741Y-28795038D02*
X89901503Y-28890276D01*
X89901503Y-28890276D02*
X89853884Y-28985514D01*
X89853884Y-28985514D02*
X89806265Y-29175990D01*
X89806265Y-29175990D02*
X89806265Y-29318847D01*
X89806265Y-29318847D02*
X89853884Y-29509323D01*
X89853884Y-29509323D02*
X89901503Y-29604561D01*
X89901503Y-29604561D02*
X89996741Y-29699800D01*
X89996741Y-29699800D02*
X90139598Y-29747419D01*
X90139598Y-29747419D02*
X90234836Y-29747419D01*
X90234836Y-29747419D02*
X90377693Y-29699800D01*
X90377693Y-29699800D02*
X90425312Y-29652180D01*
X90425312Y-29652180D02*
X90425312Y-29318847D01*
X90425312Y-29318847D02*
X90234836Y-29318847D01*
X90853884Y-29747419D02*
X90853884Y-28747419D01*
X90853884Y-28747419D02*
X91234836Y-28747419D01*
X91234836Y-28747419D02*
X91330074Y-28795038D01*
X91330074Y-28795038D02*
X91377693Y-28842657D01*
X91377693Y-28842657D02*
X91425312Y-28937895D01*
X91425312Y-28937895D02*
X91425312Y-29080752D01*
X91425312Y-29080752D02*
X91377693Y-29175990D01*
X91377693Y-29175990D02*
X91330074Y-29223609D01*
X91330074Y-29223609D02*
X91234836Y-29271228D01*
X91234836Y-29271228D02*
X90853884Y-29271228D01*
X91853884Y-29747419D02*
X91853884Y-28747419D01*
X92520550Y-28747419D02*
X92711026Y-28747419D01*
X92711026Y-28747419D02*
X92806264Y-28795038D01*
X92806264Y-28795038D02*
X92901502Y-28890276D01*
X92901502Y-28890276D02*
X92949121Y-29080752D01*
X92949121Y-29080752D02*
X92949121Y-29414085D01*
X92949121Y-29414085D02*
X92901502Y-29604561D01*
X92901502Y-29604561D02*
X92806264Y-29699800D01*
X92806264Y-29699800D02*
X92711026Y-29747419D01*
X92711026Y-29747419D02*
X92520550Y-29747419D01*
X92520550Y-29747419D02*
X92425312Y-29699800D01*
X92425312Y-29699800D02*
X92330074Y-29604561D01*
X92330074Y-29604561D02*
X92282455Y-29414085D01*
X92282455Y-29414085D02*
X92282455Y-29080752D01*
X92282455Y-29080752D02*
X92330074Y-28890276D01*
X92330074Y-28890276D02*
X92425312Y-28795038D01*
X92425312Y-28795038D02*
X92520550Y-28747419D01*
X74256265Y-41392657D02*
X74303884Y-41345038D01*
X74303884Y-41345038D02*
X74399122Y-41297419D01*
X74399122Y-41297419D02*
X74637217Y-41297419D01*
X74637217Y-41297419D02*
X74732455Y-41345038D01*
X74732455Y-41345038D02*
X74780074Y-41392657D01*
X74780074Y-41392657D02*
X74827693Y-41487895D01*
X74827693Y-41487895D02*
X74827693Y-41583133D01*
X74827693Y-41583133D02*
X74780074Y-41725990D01*
X74780074Y-41725990D02*
X74208646Y-42297419D01*
X74208646Y-42297419D02*
X74827693Y-42297419D01*
X75684836Y-41630752D02*
X75684836Y-42297419D01*
X75446741Y-41249800D02*
X75208646Y-41964085D01*
X75208646Y-41964085D02*
X75827693Y-41964085D01*
X76065789Y-41297419D02*
X76399122Y-42297419D01*
X76399122Y-42297419D02*
X76732455Y-41297419D01*
X77827694Y-42297419D02*
X77827694Y-41630752D01*
X77827694Y-41297419D02*
X77780075Y-41345038D01*
X77780075Y-41345038D02*
X77827694Y-41392657D01*
X77827694Y-41392657D02*
X77875313Y-41345038D01*
X77875313Y-41345038D02*
X77827694Y-41297419D01*
X77827694Y-41297419D02*
X77827694Y-41392657D01*
X78303884Y-41630752D02*
X78303884Y-42297419D01*
X78303884Y-41725990D02*
X78351503Y-41678371D01*
X78351503Y-41678371D02*
X78446741Y-41630752D01*
X78446741Y-41630752D02*
X78589598Y-41630752D01*
X78589598Y-41630752D02*
X78684836Y-41678371D01*
X78684836Y-41678371D02*
X78732455Y-41773609D01*
X78732455Y-41773609D02*
X78732455Y-42297419D01*
X79208646Y-41630752D02*
X79208646Y-42630752D01*
X79208646Y-41678371D02*
X79303884Y-41630752D01*
X79303884Y-41630752D02*
X79494360Y-41630752D01*
X79494360Y-41630752D02*
X79589598Y-41678371D01*
X79589598Y-41678371D02*
X79637217Y-41725990D01*
X79637217Y-41725990D02*
X79684836Y-41821228D01*
X79684836Y-41821228D02*
X79684836Y-42106942D01*
X79684836Y-42106942D02*
X79637217Y-42202180D01*
X79637217Y-42202180D02*
X79589598Y-42249800D01*
X79589598Y-42249800D02*
X79494360Y-42297419D01*
X79494360Y-42297419D02*
X79303884Y-42297419D01*
X79303884Y-42297419D02*
X79208646Y-42249800D01*
X80541979Y-41630752D02*
X80541979Y-42297419D01*
X80113408Y-41630752D02*
X80113408Y-42154561D01*
X80113408Y-42154561D02*
X80161027Y-42249800D01*
X80161027Y-42249800D02*
X80256265Y-42297419D01*
X80256265Y-42297419D02*
X80399122Y-42297419D01*
X80399122Y-42297419D02*
X80494360Y-42249800D01*
X80494360Y-42249800D02*
X80541979Y-42202180D01*
X80875313Y-41630752D02*
X81256265Y-41630752D01*
X81018170Y-41297419D02*
X81018170Y-42154561D01*
X81018170Y-42154561D02*
X81065789Y-42249800D01*
X81065789Y-42249800D02*
X81161027Y-42297419D01*
X81161027Y-42297419D02*
X81256265Y-42297419D01*
X131431265Y-53792657D02*
X131478884Y-53745038D01*
X131478884Y-53745038D02*
X131574122Y-53697419D01*
X131574122Y-53697419D02*
X131812217Y-53697419D01*
X131812217Y-53697419D02*
X131907455Y-53745038D01*
X131907455Y-53745038D02*
X131955074Y-53792657D01*
X131955074Y-53792657D02*
X132002693Y-53887895D01*
X132002693Y-53887895D02*
X132002693Y-53983133D01*
X132002693Y-53983133D02*
X131955074Y-54125990D01*
X131955074Y-54125990D02*
X131383646Y-54697419D01*
X131383646Y-54697419D02*
X132002693Y-54697419D01*
X132859836Y-54030752D02*
X132859836Y-54697419D01*
X132621741Y-53649800D02*
X132383646Y-54364085D01*
X132383646Y-54364085D02*
X133002693Y-54364085D01*
X133240789Y-53697419D02*
X133574122Y-54697419D01*
X133574122Y-54697419D02*
X133907455Y-53697419D01*
X135431265Y-54649800D02*
X135336027Y-54697419D01*
X135336027Y-54697419D02*
X135145551Y-54697419D01*
X135145551Y-54697419D02*
X135050313Y-54649800D01*
X135050313Y-54649800D02*
X135002694Y-54602180D01*
X135002694Y-54602180D02*
X134955075Y-54506942D01*
X134955075Y-54506942D02*
X134955075Y-54221228D01*
X134955075Y-54221228D02*
X135002694Y-54125990D01*
X135002694Y-54125990D02*
X135050313Y-54078371D01*
X135050313Y-54078371D02*
X135145551Y-54030752D01*
X135145551Y-54030752D02*
X135336027Y-54030752D01*
X135336027Y-54030752D02*
X135431265Y-54078371D01*
X136288408Y-54697419D02*
X136288408Y-54173609D01*
X136288408Y-54173609D02*
X136240789Y-54078371D01*
X136240789Y-54078371D02*
X136145551Y-54030752D01*
X136145551Y-54030752D02*
X135955075Y-54030752D01*
X135955075Y-54030752D02*
X135859837Y-54078371D01*
X136288408Y-54649800D02*
X136193170Y-54697419D01*
X136193170Y-54697419D02*
X135955075Y-54697419D01*
X135955075Y-54697419D02*
X135859837Y-54649800D01*
X135859837Y-54649800D02*
X135812218Y-54554561D01*
X135812218Y-54554561D02*
X135812218Y-54459323D01*
X135812218Y-54459323D02*
X135859837Y-54364085D01*
X135859837Y-54364085D02*
X135955075Y-54316466D01*
X135955075Y-54316466D02*
X136193170Y-54316466D01*
X136193170Y-54316466D02*
X136288408Y-54268847D01*
X136764599Y-54030752D02*
X136764599Y-55030752D01*
X136764599Y-54078371D02*
X136859837Y-54030752D01*
X136859837Y-54030752D02*
X137050313Y-54030752D01*
X137050313Y-54030752D02*
X137145551Y-54078371D01*
X137145551Y-54078371D02*
X137193170Y-54125990D01*
X137193170Y-54125990D02*
X137240789Y-54221228D01*
X137240789Y-54221228D02*
X137240789Y-54506942D01*
X137240789Y-54506942D02*
X137193170Y-54602180D01*
X137193170Y-54602180D02*
X137145551Y-54649800D01*
X137145551Y-54649800D02*
X137050313Y-54697419D01*
X137050313Y-54697419D02*
X136859837Y-54697419D01*
X136859837Y-54697419D02*
X136764599Y-54649800D01*
X114503884Y-93047419D02*
X114503884Y-92047419D01*
X114503884Y-92047419D02*
X114837217Y-92761704D01*
X114837217Y-92761704D02*
X115170550Y-92047419D01*
X115170550Y-92047419D02*
X115170550Y-93047419D01*
X115837217Y-92047419D02*
X116027693Y-92047419D01*
X116027693Y-92047419D02*
X116122931Y-92095038D01*
X116122931Y-92095038D02*
X116218169Y-92190276D01*
X116218169Y-92190276D02*
X116265788Y-92380752D01*
X116265788Y-92380752D02*
X116265788Y-92714085D01*
X116265788Y-92714085D02*
X116218169Y-92904561D01*
X116218169Y-92904561D02*
X116122931Y-92999800D01*
X116122931Y-92999800D02*
X116027693Y-93047419D01*
X116027693Y-93047419D02*
X115837217Y-93047419D01*
X115837217Y-93047419D02*
X115741979Y-92999800D01*
X115741979Y-92999800D02*
X115646741Y-92904561D01*
X115646741Y-92904561D02*
X115599122Y-92714085D01*
X115599122Y-92714085D02*
X115599122Y-92380752D01*
X115599122Y-92380752D02*
X115646741Y-92190276D01*
X115646741Y-92190276D02*
X115741979Y-92095038D01*
X115741979Y-92095038D02*
X115837217Y-92047419D01*
X116646741Y-92999800D02*
X116789598Y-93047419D01*
X116789598Y-93047419D02*
X117027693Y-93047419D01*
X117027693Y-93047419D02*
X117122931Y-92999800D01*
X117122931Y-92999800D02*
X117170550Y-92952180D01*
X117170550Y-92952180D02*
X117218169Y-92856942D01*
X117218169Y-92856942D02*
X117218169Y-92761704D01*
X117218169Y-92761704D02*
X117170550Y-92666466D01*
X117170550Y-92666466D02*
X117122931Y-92618847D01*
X117122931Y-92618847D02*
X117027693Y-92571228D01*
X117027693Y-92571228D02*
X116837217Y-92523609D01*
X116837217Y-92523609D02*
X116741979Y-92475990D01*
X116741979Y-92475990D02*
X116694360Y-92428371D01*
X116694360Y-92428371D02*
X116646741Y-92333133D01*
X116646741Y-92333133D02*
X116646741Y-92237895D01*
X116646741Y-92237895D02*
X116694360Y-92142657D01*
X116694360Y-92142657D02*
X116741979Y-92095038D01*
X116741979Y-92095038D02*
X116837217Y-92047419D01*
X116837217Y-92047419D02*
X117075312Y-92047419D01*
X117075312Y-92047419D02*
X117218169Y-92095038D01*
X117646741Y-93047419D02*
X117646741Y-92047419D01*
X115637217Y-116348609D02*
X115780074Y-116396228D01*
X115780074Y-116396228D02*
X115827693Y-116443847D01*
X115827693Y-116443847D02*
X115875312Y-116539085D01*
X115875312Y-116539085D02*
X115875312Y-116681942D01*
X115875312Y-116681942D02*
X115827693Y-116777180D01*
X115827693Y-116777180D02*
X115780074Y-116824800D01*
X115780074Y-116824800D02*
X115684836Y-116872419D01*
X115684836Y-116872419D02*
X115303884Y-116872419D01*
X115303884Y-116872419D02*
X115303884Y-115872419D01*
X115303884Y-115872419D02*
X115637217Y-115872419D01*
X115637217Y-115872419D02*
X115732455Y-115920038D01*
X115732455Y-115920038D02*
X115780074Y-115967657D01*
X115780074Y-115967657D02*
X115827693Y-116062895D01*
X115827693Y-116062895D02*
X115827693Y-116158133D01*
X115827693Y-116158133D02*
X115780074Y-116253371D01*
X115780074Y-116253371D02*
X115732455Y-116300990D01*
X115732455Y-116300990D02*
X115637217Y-116348609D01*
X115637217Y-116348609D02*
X115303884Y-116348609D01*
X116827693Y-116872419D02*
X116256265Y-116872419D01*
X116541979Y-116872419D02*
X116541979Y-115872419D01*
X116541979Y-115872419D02*
X116446741Y-116015276D01*
X116446741Y-116015276D02*
X116351503Y-116110514D01*
X116351503Y-116110514D02*
X116256265Y-116158133D01*
X103652693Y-33870038D02*
X103557455Y-33822419D01*
X103557455Y-33822419D02*
X103414598Y-33822419D01*
X103414598Y-33822419D02*
X103271741Y-33870038D01*
X103271741Y-33870038D02*
X103176503Y-33965276D01*
X103176503Y-33965276D02*
X103128884Y-34060514D01*
X103128884Y-34060514D02*
X103081265Y-34250990D01*
X103081265Y-34250990D02*
X103081265Y-34393847D01*
X103081265Y-34393847D02*
X103128884Y-34584323D01*
X103128884Y-34584323D02*
X103176503Y-34679561D01*
X103176503Y-34679561D02*
X103271741Y-34774800D01*
X103271741Y-34774800D02*
X103414598Y-34822419D01*
X103414598Y-34822419D02*
X103509836Y-34822419D01*
X103509836Y-34822419D02*
X103652693Y-34774800D01*
X103652693Y-34774800D02*
X103700312Y-34727180D01*
X103700312Y-34727180D02*
X103700312Y-34393847D01*
X103700312Y-34393847D02*
X103509836Y-34393847D01*
X104128884Y-34822419D02*
X104128884Y-33822419D01*
X104128884Y-33822419D02*
X104700312Y-34822419D01*
X104700312Y-34822419D02*
X104700312Y-33822419D01*
X105176503Y-34822419D02*
X105176503Y-33822419D01*
X105176503Y-33822419D02*
X105414598Y-33822419D01*
X105414598Y-33822419D02*
X105557455Y-33870038D01*
X105557455Y-33870038D02*
X105652693Y-33965276D01*
X105652693Y-33965276D02*
X105700312Y-34060514D01*
X105700312Y-34060514D02*
X105747931Y-34250990D01*
X105747931Y-34250990D02*
X105747931Y-34393847D01*
X105747931Y-34393847D02*
X105700312Y-34584323D01*
X105700312Y-34584323D02*
X105652693Y-34679561D01*
X105652693Y-34679561D02*
X105557455Y-34774800D01*
X105557455Y-34774800D02*
X105414598Y-34822419D01*
X105414598Y-34822419D02*
X105176503Y-34822419D01*
X68552693Y-35070038D02*
X68457455Y-35022419D01*
X68457455Y-35022419D02*
X68314598Y-35022419D01*
X68314598Y-35022419D02*
X68171741Y-35070038D01*
X68171741Y-35070038D02*
X68076503Y-35165276D01*
X68076503Y-35165276D02*
X68028884Y-35260514D01*
X68028884Y-35260514D02*
X67981265Y-35450990D01*
X67981265Y-35450990D02*
X67981265Y-35593847D01*
X67981265Y-35593847D02*
X68028884Y-35784323D01*
X68028884Y-35784323D02*
X68076503Y-35879561D01*
X68076503Y-35879561D02*
X68171741Y-35974800D01*
X68171741Y-35974800D02*
X68314598Y-36022419D01*
X68314598Y-36022419D02*
X68409836Y-36022419D01*
X68409836Y-36022419D02*
X68552693Y-35974800D01*
X68552693Y-35974800D02*
X68600312Y-35927180D01*
X68600312Y-35927180D02*
X68600312Y-35593847D01*
X68600312Y-35593847D02*
X68409836Y-35593847D01*
X69028884Y-36022419D02*
X69028884Y-35022419D01*
X69028884Y-35022419D02*
X69600312Y-36022419D01*
X69600312Y-36022419D02*
X69600312Y-35022419D01*
X70076503Y-36022419D02*
X70076503Y-35022419D01*
X70076503Y-35022419D02*
X70314598Y-35022419D01*
X70314598Y-35022419D02*
X70457455Y-35070038D01*
X70457455Y-35070038D02*
X70552693Y-35165276D01*
X70552693Y-35165276D02*
X70600312Y-35260514D01*
X70600312Y-35260514D02*
X70647931Y-35450990D01*
X70647931Y-35450990D02*
X70647931Y-35593847D01*
X70647931Y-35593847D02*
X70600312Y-35784323D01*
X70600312Y-35784323D02*
X70552693Y-35879561D01*
X70552693Y-35879561D02*
X70457455Y-35974800D01*
X70457455Y-35974800D02*
X70314598Y-36022419D01*
X70314598Y-36022419D02*
X70076503Y-36022419D01*
X91680074Y-31322419D02*
X91203884Y-31322419D01*
X91203884Y-31322419D02*
X91156265Y-31798609D01*
X91156265Y-31798609D02*
X91203884Y-31750990D01*
X91203884Y-31750990D02*
X91299122Y-31703371D01*
X91299122Y-31703371D02*
X91537217Y-31703371D01*
X91537217Y-31703371D02*
X91632455Y-31750990D01*
X91632455Y-31750990D02*
X91680074Y-31798609D01*
X91680074Y-31798609D02*
X91727693Y-31893847D01*
X91727693Y-31893847D02*
X91727693Y-32131942D01*
X91727693Y-32131942D02*
X91680074Y-32227180D01*
X91680074Y-32227180D02*
X91632455Y-32274800D01*
X91632455Y-32274800D02*
X91537217Y-32322419D01*
X91537217Y-32322419D02*
X91299122Y-32322419D01*
X91299122Y-32322419D02*
X91203884Y-32274800D01*
X91203884Y-32274800D02*
X91156265Y-32227180D01*
X92013408Y-31322419D02*
X92346741Y-32322419D01*
X92346741Y-32322419D02*
X92680074Y-31322419D01*
X99406265Y-90302657D02*
X99453884Y-90255038D01*
X99453884Y-90255038D02*
X99549122Y-90207419D01*
X99549122Y-90207419D02*
X99787217Y-90207419D01*
X99787217Y-90207419D02*
X99882455Y-90255038D01*
X99882455Y-90255038D02*
X99930074Y-90302657D01*
X99930074Y-90302657D02*
X99977693Y-90397895D01*
X99977693Y-90397895D02*
X99977693Y-90493133D01*
X99977693Y-90493133D02*
X99930074Y-90635990D01*
X99930074Y-90635990D02*
X99358646Y-91207419D01*
X99358646Y-91207419D02*
X99977693Y-91207419D01*
X100834836Y-90540752D02*
X100834836Y-91207419D01*
X100596741Y-90159800D02*
X100358646Y-90874085D01*
X100358646Y-90874085D02*
X100977693Y-90874085D01*
X101215789Y-90207419D02*
X101549122Y-91207419D01*
X101549122Y-91207419D02*
X101882455Y-90207419D01*
X103327693Y-28345038D02*
X103232455Y-28297419D01*
X103232455Y-28297419D02*
X103089598Y-28297419D01*
X103089598Y-28297419D02*
X102946741Y-28345038D01*
X102946741Y-28345038D02*
X102851503Y-28440276D01*
X102851503Y-28440276D02*
X102803884Y-28535514D01*
X102803884Y-28535514D02*
X102756265Y-28725990D01*
X102756265Y-28725990D02*
X102756265Y-28868847D01*
X102756265Y-28868847D02*
X102803884Y-29059323D01*
X102803884Y-29059323D02*
X102851503Y-29154561D01*
X102851503Y-29154561D02*
X102946741Y-29249800D01*
X102946741Y-29249800D02*
X103089598Y-29297419D01*
X103089598Y-29297419D02*
X103184836Y-29297419D01*
X103184836Y-29297419D02*
X103327693Y-29249800D01*
X103327693Y-29249800D02*
X103375312Y-29202180D01*
X103375312Y-29202180D02*
X103375312Y-28868847D01*
X103375312Y-28868847D02*
X103184836Y-28868847D01*
X103803884Y-29297419D02*
X103803884Y-28297419D01*
X103803884Y-28297419D02*
X104184836Y-28297419D01*
X104184836Y-28297419D02*
X104280074Y-28345038D01*
X104280074Y-28345038D02*
X104327693Y-28392657D01*
X104327693Y-28392657D02*
X104375312Y-28487895D01*
X104375312Y-28487895D02*
X104375312Y-28630752D01*
X104375312Y-28630752D02*
X104327693Y-28725990D01*
X104327693Y-28725990D02*
X104280074Y-28773609D01*
X104280074Y-28773609D02*
X104184836Y-28821228D01*
X104184836Y-28821228D02*
X103803884Y-28821228D01*
X104803884Y-29297419D02*
X104803884Y-28297419D01*
X105470550Y-28297419D02*
X105661026Y-28297419D01*
X105661026Y-28297419D02*
X105756264Y-28345038D01*
X105756264Y-28345038D02*
X105851502Y-28440276D01*
X105851502Y-28440276D02*
X105899121Y-28630752D01*
X105899121Y-28630752D02*
X105899121Y-28964085D01*
X105899121Y-28964085D02*
X105851502Y-29154561D01*
X105851502Y-29154561D02*
X105756264Y-29249800D01*
X105756264Y-29249800D02*
X105661026Y-29297419D01*
X105661026Y-29297419D02*
X105470550Y-29297419D01*
X105470550Y-29297419D02*
X105375312Y-29249800D01*
X105375312Y-29249800D02*
X105280074Y-29154561D01*
X105280074Y-29154561D02*
X105232455Y-28964085D01*
X105232455Y-28964085D02*
X105232455Y-28630752D01*
X105232455Y-28630752D02*
X105280074Y-28440276D01*
X105280074Y-28440276D02*
X105375312Y-28345038D01*
X105375312Y-28345038D02*
X105470550Y-28297419D01*
X83431265Y-35117657D02*
X83478884Y-35070038D01*
X83478884Y-35070038D02*
X83574122Y-35022419D01*
X83574122Y-35022419D02*
X83812217Y-35022419D01*
X83812217Y-35022419D02*
X83907455Y-35070038D01*
X83907455Y-35070038D02*
X83955074Y-35117657D01*
X83955074Y-35117657D02*
X84002693Y-35212895D01*
X84002693Y-35212895D02*
X84002693Y-35308133D01*
X84002693Y-35308133D02*
X83955074Y-35450990D01*
X83955074Y-35450990D02*
X83383646Y-36022419D01*
X83383646Y-36022419D02*
X84002693Y-36022419D01*
X84859836Y-35355752D02*
X84859836Y-36022419D01*
X84621741Y-34974800D02*
X84383646Y-35689085D01*
X84383646Y-35689085D02*
X85002693Y-35689085D01*
X85240789Y-35022419D02*
X85574122Y-36022419D01*
X85574122Y-36022419D02*
X85907455Y-35022419D01*
X87002694Y-36022419D02*
X87002694Y-35355752D01*
X87002694Y-35022419D02*
X86955075Y-35070038D01*
X86955075Y-35070038D02*
X87002694Y-35117657D01*
X87002694Y-35117657D02*
X87050313Y-35070038D01*
X87050313Y-35070038D02*
X87002694Y-35022419D01*
X87002694Y-35022419D02*
X87002694Y-35117657D01*
X87478884Y-35355752D02*
X87478884Y-36022419D01*
X87478884Y-35450990D02*
X87526503Y-35403371D01*
X87526503Y-35403371D02*
X87621741Y-35355752D01*
X87621741Y-35355752D02*
X87764598Y-35355752D01*
X87764598Y-35355752D02*
X87859836Y-35403371D01*
X87859836Y-35403371D02*
X87907455Y-35498609D01*
X87907455Y-35498609D02*
X87907455Y-36022419D01*
X90702693Y-34320038D02*
X90607455Y-34272419D01*
X90607455Y-34272419D02*
X90464598Y-34272419D01*
X90464598Y-34272419D02*
X90321741Y-34320038D01*
X90321741Y-34320038D02*
X90226503Y-34415276D01*
X90226503Y-34415276D02*
X90178884Y-34510514D01*
X90178884Y-34510514D02*
X90131265Y-34700990D01*
X90131265Y-34700990D02*
X90131265Y-34843847D01*
X90131265Y-34843847D02*
X90178884Y-35034323D01*
X90178884Y-35034323D02*
X90226503Y-35129561D01*
X90226503Y-35129561D02*
X90321741Y-35224800D01*
X90321741Y-35224800D02*
X90464598Y-35272419D01*
X90464598Y-35272419D02*
X90559836Y-35272419D01*
X90559836Y-35272419D02*
X90702693Y-35224800D01*
X90702693Y-35224800D02*
X90750312Y-35177180D01*
X90750312Y-35177180D02*
X90750312Y-34843847D01*
X90750312Y-34843847D02*
X90559836Y-34843847D01*
X91178884Y-35272419D02*
X91178884Y-34272419D01*
X91178884Y-34272419D02*
X91750312Y-35272419D01*
X91750312Y-35272419D02*
X91750312Y-34272419D01*
X92226503Y-35272419D02*
X92226503Y-34272419D01*
X92226503Y-34272419D02*
X92464598Y-34272419D01*
X92464598Y-34272419D02*
X92607455Y-34320038D01*
X92607455Y-34320038D02*
X92702693Y-34415276D01*
X92702693Y-34415276D02*
X92750312Y-34510514D01*
X92750312Y-34510514D02*
X92797931Y-34700990D01*
X92797931Y-34700990D02*
X92797931Y-34843847D01*
X92797931Y-34843847D02*
X92750312Y-35034323D01*
X92750312Y-35034323D02*
X92702693Y-35129561D01*
X92702693Y-35129561D02*
X92607455Y-35224800D01*
X92607455Y-35224800D02*
X92464598Y-35272419D01*
X92464598Y-35272419D02*
X92226503Y-35272419D01*
X80628884Y-117622419D02*
X80628884Y-118431942D01*
X80628884Y-118431942D02*
X80676503Y-118527180D01*
X80676503Y-118527180D02*
X80724122Y-118574800D01*
X80724122Y-118574800D02*
X80819360Y-118622419D01*
X80819360Y-118622419D02*
X81009836Y-118622419D01*
X81009836Y-118622419D02*
X81105074Y-118574800D01*
X81105074Y-118574800D02*
X81152693Y-118527180D01*
X81152693Y-118527180D02*
X81200312Y-118431942D01*
X81200312Y-118431942D02*
X81200312Y-117622419D01*
X81628884Y-118574800D02*
X81771741Y-118622419D01*
X81771741Y-118622419D02*
X82009836Y-118622419D01*
X82009836Y-118622419D02*
X82105074Y-118574800D01*
X82105074Y-118574800D02*
X82152693Y-118527180D01*
X82152693Y-118527180D02*
X82200312Y-118431942D01*
X82200312Y-118431942D02*
X82200312Y-118336704D01*
X82200312Y-118336704D02*
X82152693Y-118241466D01*
X82152693Y-118241466D02*
X82105074Y-118193847D01*
X82105074Y-118193847D02*
X82009836Y-118146228D01*
X82009836Y-118146228D02*
X81819360Y-118098609D01*
X81819360Y-118098609D02*
X81724122Y-118050990D01*
X81724122Y-118050990D02*
X81676503Y-118003371D01*
X81676503Y-118003371D02*
X81628884Y-117908133D01*
X81628884Y-117908133D02*
X81628884Y-117812895D01*
X81628884Y-117812895D02*
X81676503Y-117717657D01*
X81676503Y-117717657D02*
X81724122Y-117670038D01*
X81724122Y-117670038D02*
X81819360Y-117622419D01*
X81819360Y-117622419D02*
X82057455Y-117622419D01*
X82057455Y-117622419D02*
X82200312Y-117670038D01*
X82962217Y-118098609D02*
X83105074Y-118146228D01*
X83105074Y-118146228D02*
X83152693Y-118193847D01*
X83152693Y-118193847D02*
X83200312Y-118289085D01*
X83200312Y-118289085D02*
X83200312Y-118431942D01*
X83200312Y-118431942D02*
X83152693Y-118527180D01*
X83152693Y-118527180D02*
X83105074Y-118574800D01*
X83105074Y-118574800D02*
X83009836Y-118622419D01*
X83009836Y-118622419D02*
X82628884Y-118622419D01*
X82628884Y-118622419D02*
X82628884Y-117622419D01*
X82628884Y-117622419D02*
X82962217Y-117622419D01*
X82962217Y-117622419D02*
X83057455Y-117670038D01*
X83057455Y-117670038D02*
X83105074Y-117717657D01*
X83105074Y-117717657D02*
X83152693Y-117812895D01*
X83152693Y-117812895D02*
X83152693Y-117908133D01*
X83152693Y-117908133D02*
X83105074Y-118003371D01*
X83105074Y-118003371D02*
X83057455Y-118050990D01*
X83057455Y-118050990D02*
X82962217Y-118098609D01*
X82962217Y-118098609D02*
X82628884Y-118098609D01*
X84390789Y-117955752D02*
X84390789Y-118955752D01*
X84390789Y-118003371D02*
X84486027Y-117955752D01*
X84486027Y-117955752D02*
X84676503Y-117955752D01*
X84676503Y-117955752D02*
X84771741Y-118003371D01*
X84771741Y-118003371D02*
X84819360Y-118050990D01*
X84819360Y-118050990D02*
X84866979Y-118146228D01*
X84866979Y-118146228D02*
X84866979Y-118431942D01*
X84866979Y-118431942D02*
X84819360Y-118527180D01*
X84819360Y-118527180D02*
X84771741Y-118574800D01*
X84771741Y-118574800D02*
X84676503Y-118622419D01*
X84676503Y-118622419D02*
X84486027Y-118622419D01*
X84486027Y-118622419D02*
X84390789Y-118574800D01*
X85438408Y-118622419D02*
X85343170Y-118574800D01*
X85343170Y-118574800D02*
X85295551Y-118527180D01*
X85295551Y-118527180D02*
X85247932Y-118431942D01*
X85247932Y-118431942D02*
X85247932Y-118146228D01*
X85247932Y-118146228D02*
X85295551Y-118050990D01*
X85295551Y-118050990D02*
X85343170Y-118003371D01*
X85343170Y-118003371D02*
X85438408Y-117955752D01*
X85438408Y-117955752D02*
X85581265Y-117955752D01*
X85581265Y-117955752D02*
X85676503Y-118003371D01*
X85676503Y-118003371D02*
X85724122Y-118050990D01*
X85724122Y-118050990D02*
X85771741Y-118146228D01*
X85771741Y-118146228D02*
X85771741Y-118431942D01*
X85771741Y-118431942D02*
X85724122Y-118527180D01*
X85724122Y-118527180D02*
X85676503Y-118574800D01*
X85676503Y-118574800D02*
X85581265Y-118622419D01*
X85581265Y-118622419D02*
X85438408Y-118622419D01*
X86200313Y-118622419D02*
X86200313Y-117955752D01*
X86200313Y-118146228D02*
X86247932Y-118050990D01*
X86247932Y-118050990D02*
X86295551Y-118003371D01*
X86295551Y-118003371D02*
X86390789Y-117955752D01*
X86390789Y-117955752D02*
X86486027Y-117955752D01*
X86676504Y-117955752D02*
X87057456Y-117955752D01*
X86819361Y-117622419D02*
X86819361Y-118479561D01*
X86819361Y-118479561D02*
X86866980Y-118574800D01*
X86866980Y-118574800D02*
X86962218Y-118622419D01*
X86962218Y-118622419D02*
X87057456Y-118622419D01*
X88152695Y-118622419D02*
X88152695Y-117622419D01*
X88581266Y-118622419D02*
X88581266Y-118098609D01*
X88581266Y-118098609D02*
X88533647Y-118003371D01*
X88533647Y-118003371D02*
X88438409Y-117955752D01*
X88438409Y-117955752D02*
X88295552Y-117955752D01*
X88295552Y-117955752D02*
X88200314Y-118003371D01*
X88200314Y-118003371D02*
X88152695Y-118050990D01*
X89438409Y-118574800D02*
X89343171Y-118622419D01*
X89343171Y-118622419D02*
X89152695Y-118622419D01*
X89152695Y-118622419D02*
X89057457Y-118574800D01*
X89057457Y-118574800D02*
X89009838Y-118479561D01*
X89009838Y-118479561D02*
X89009838Y-118098609D01*
X89009838Y-118098609D02*
X89057457Y-118003371D01*
X89057457Y-118003371D02*
X89152695Y-117955752D01*
X89152695Y-117955752D02*
X89343171Y-117955752D01*
X89343171Y-117955752D02*
X89438409Y-118003371D01*
X89438409Y-118003371D02*
X89486028Y-118098609D01*
X89486028Y-118098609D02*
X89486028Y-118193847D01*
X89486028Y-118193847D02*
X89009838Y-118289085D01*
X89914600Y-118622419D02*
X89914600Y-117955752D01*
X89914600Y-118146228D02*
X89962219Y-118050990D01*
X89962219Y-118050990D02*
X90009838Y-118003371D01*
X90009838Y-118003371D02*
X90105076Y-117955752D01*
X90105076Y-117955752D02*
X90200314Y-117955752D01*
X90914600Y-118574800D02*
X90819362Y-118622419D01*
X90819362Y-118622419D02*
X90628886Y-118622419D01*
X90628886Y-118622419D02*
X90533648Y-118574800D01*
X90533648Y-118574800D02*
X90486029Y-118479561D01*
X90486029Y-118479561D02*
X90486029Y-118098609D01*
X90486029Y-118098609D02*
X90533648Y-118003371D01*
X90533648Y-118003371D02*
X90628886Y-117955752D01*
X90628886Y-117955752D02*
X90819362Y-117955752D01*
X90819362Y-117955752D02*
X90914600Y-118003371D01*
X90914600Y-118003371D02*
X90962219Y-118098609D01*
X90962219Y-118098609D02*
X90962219Y-118193847D01*
X90962219Y-118193847D02*
X90486029Y-118289085D01*
X135256265Y-116586704D02*
X135732455Y-116586704D01*
X135161027Y-116872419D02*
X135494360Y-115872419D01*
X135494360Y-115872419D02*
X135827693Y-116872419D01*
X136113408Y-115967657D02*
X136161027Y-115920038D01*
X136161027Y-115920038D02*
X136256265Y-115872419D01*
X136256265Y-115872419D02*
X136494360Y-115872419D01*
X136494360Y-115872419D02*
X136589598Y-115920038D01*
X136589598Y-115920038D02*
X136637217Y-115967657D01*
X136637217Y-115967657D02*
X136684836Y-116062895D01*
X136684836Y-116062895D02*
X136684836Y-116158133D01*
X136684836Y-116158133D02*
X136637217Y-116300990D01*
X136637217Y-116300990D02*
X136065789Y-116872419D01*
X136065789Y-116872419D02*
X136684836Y-116872419D01*
X141156265Y-89586704D02*
X141632455Y-89586704D01*
X141061027Y-89872419D02*
X141394360Y-88872419D01*
X141394360Y-88872419D02*
X141727693Y-89872419D01*
X142013408Y-88967657D02*
X142061027Y-88920038D01*
X142061027Y-88920038D02*
X142156265Y-88872419D01*
X142156265Y-88872419D02*
X142394360Y-88872419D01*
X142394360Y-88872419D02*
X142489598Y-88920038D01*
X142489598Y-88920038D02*
X142537217Y-88967657D01*
X142537217Y-88967657D02*
X142584836Y-89062895D01*
X142584836Y-89062895D02*
X142584836Y-89158133D01*
X142584836Y-89158133D02*
X142537217Y-89300990D01*
X142537217Y-89300990D02*
X141965789Y-89872419D01*
X141965789Y-89872419D02*
X142584836Y-89872419D01*
X84278884Y-100152419D02*
X84278884Y-99152419D01*
X84278884Y-99152419D02*
X84612217Y-99866704D01*
X84612217Y-99866704D02*
X84945550Y-99152419D01*
X84945550Y-99152419D02*
X84945550Y-100152419D01*
X85421741Y-100152419D02*
X85421741Y-99152419D01*
X85850312Y-100104800D02*
X85993169Y-100152419D01*
X85993169Y-100152419D02*
X86231264Y-100152419D01*
X86231264Y-100152419D02*
X86326502Y-100104800D01*
X86326502Y-100104800D02*
X86374121Y-100057180D01*
X86374121Y-100057180D02*
X86421740Y-99961942D01*
X86421740Y-99961942D02*
X86421740Y-99866704D01*
X86421740Y-99866704D02*
X86374121Y-99771466D01*
X86374121Y-99771466D02*
X86326502Y-99723847D01*
X86326502Y-99723847D02*
X86231264Y-99676228D01*
X86231264Y-99676228D02*
X86040788Y-99628609D01*
X86040788Y-99628609D02*
X85945550Y-99580990D01*
X85945550Y-99580990D02*
X85897931Y-99533371D01*
X85897931Y-99533371D02*
X85850312Y-99438133D01*
X85850312Y-99438133D02*
X85850312Y-99342895D01*
X85850312Y-99342895D02*
X85897931Y-99247657D01*
X85897931Y-99247657D02*
X85945550Y-99200038D01*
X85945550Y-99200038D02*
X86040788Y-99152419D01*
X86040788Y-99152419D02*
X86278883Y-99152419D01*
X86278883Y-99152419D02*
X86421740Y-99200038D01*
X87040788Y-99152419D02*
X87231264Y-99152419D01*
X87231264Y-99152419D02*
X87326502Y-99200038D01*
X87326502Y-99200038D02*
X87421740Y-99295276D01*
X87421740Y-99295276D02*
X87469359Y-99485752D01*
X87469359Y-99485752D02*
X87469359Y-99819085D01*
X87469359Y-99819085D02*
X87421740Y-100009561D01*
X87421740Y-100009561D02*
X87326502Y-100104800D01*
X87326502Y-100104800D02*
X87231264Y-100152419D01*
X87231264Y-100152419D02*
X87040788Y-100152419D01*
X87040788Y-100152419D02*
X86945550Y-100104800D01*
X86945550Y-100104800D02*
X86850312Y-100009561D01*
X86850312Y-100009561D02*
X86802693Y-99819085D01*
X86802693Y-99819085D02*
X86802693Y-99485752D01*
X86802693Y-99485752D02*
X86850312Y-99295276D01*
X86850312Y-99295276D02*
X86945550Y-99200038D01*
X86945550Y-99200038D02*
X87040788Y-99152419D01*
X115028884Y-100087419D02*
X115028884Y-99087419D01*
X115028884Y-99087419D02*
X115362217Y-99801704D01*
X115362217Y-99801704D02*
X115695550Y-99087419D01*
X115695550Y-99087419D02*
X115695550Y-100087419D01*
X116171741Y-100087419D02*
X116171741Y-99087419D01*
X116600312Y-100039800D02*
X116743169Y-100087419D01*
X116743169Y-100087419D02*
X116981264Y-100087419D01*
X116981264Y-100087419D02*
X117076502Y-100039800D01*
X117076502Y-100039800D02*
X117124121Y-99992180D01*
X117124121Y-99992180D02*
X117171740Y-99896942D01*
X117171740Y-99896942D02*
X117171740Y-99801704D01*
X117171740Y-99801704D02*
X117124121Y-99706466D01*
X117124121Y-99706466D02*
X117076502Y-99658847D01*
X117076502Y-99658847D02*
X116981264Y-99611228D01*
X116981264Y-99611228D02*
X116790788Y-99563609D01*
X116790788Y-99563609D02*
X116695550Y-99515990D01*
X116695550Y-99515990D02*
X116647931Y-99468371D01*
X116647931Y-99468371D02*
X116600312Y-99373133D01*
X116600312Y-99373133D02*
X116600312Y-99277895D01*
X116600312Y-99277895D02*
X116647931Y-99182657D01*
X116647931Y-99182657D02*
X116695550Y-99135038D01*
X116695550Y-99135038D02*
X116790788Y-99087419D01*
X116790788Y-99087419D02*
X117028883Y-99087419D01*
X117028883Y-99087419D02*
X117171740Y-99135038D01*
X117790788Y-99087419D02*
X117981264Y-99087419D01*
X117981264Y-99087419D02*
X118076502Y-99135038D01*
X118076502Y-99135038D02*
X118171740Y-99230276D01*
X118171740Y-99230276D02*
X118219359Y-99420752D01*
X118219359Y-99420752D02*
X118219359Y-99754085D01*
X118219359Y-99754085D02*
X118171740Y-99944561D01*
X118171740Y-99944561D02*
X118076502Y-100039800D01*
X118076502Y-100039800D02*
X117981264Y-100087419D01*
X117981264Y-100087419D02*
X117790788Y-100087419D01*
X117790788Y-100087419D02*
X117695550Y-100039800D01*
X117695550Y-100039800D02*
X117600312Y-99944561D01*
X117600312Y-99944561D02*
X117552693Y-99754085D01*
X117552693Y-99754085D02*
X117552693Y-99420752D01*
X117552693Y-99420752D02*
X117600312Y-99230276D01*
X117600312Y-99230276D02*
X117695550Y-99135038D01*
X117695550Y-99135038D02*
X117790788Y-99087419D01*
X130877693Y-108080038D02*
X130782455Y-108032419D01*
X130782455Y-108032419D02*
X130639598Y-108032419D01*
X130639598Y-108032419D02*
X130496741Y-108080038D01*
X130496741Y-108080038D02*
X130401503Y-108175276D01*
X130401503Y-108175276D02*
X130353884Y-108270514D01*
X130353884Y-108270514D02*
X130306265Y-108460990D01*
X130306265Y-108460990D02*
X130306265Y-108603847D01*
X130306265Y-108603847D02*
X130353884Y-108794323D01*
X130353884Y-108794323D02*
X130401503Y-108889561D01*
X130401503Y-108889561D02*
X130496741Y-108984800D01*
X130496741Y-108984800D02*
X130639598Y-109032419D01*
X130639598Y-109032419D02*
X130734836Y-109032419D01*
X130734836Y-109032419D02*
X130877693Y-108984800D01*
X130877693Y-108984800D02*
X130925312Y-108937180D01*
X130925312Y-108937180D02*
X130925312Y-108603847D01*
X130925312Y-108603847D02*
X130734836Y-108603847D01*
X131353884Y-109032419D02*
X131353884Y-108032419D01*
X131353884Y-108032419D02*
X131925312Y-109032419D01*
X131925312Y-109032419D02*
X131925312Y-108032419D01*
X132401503Y-109032419D02*
X132401503Y-108032419D01*
X132401503Y-108032419D02*
X132639598Y-108032419D01*
X132639598Y-108032419D02*
X132782455Y-108080038D01*
X132782455Y-108080038D02*
X132877693Y-108175276D01*
X132877693Y-108175276D02*
X132925312Y-108270514D01*
X132925312Y-108270514D02*
X132972931Y-108460990D01*
X132972931Y-108460990D02*
X132972931Y-108603847D01*
X132972931Y-108603847D02*
X132925312Y-108794323D01*
X132925312Y-108794323D02*
X132877693Y-108889561D01*
X132877693Y-108889561D02*
X132782455Y-108984800D01*
X132782455Y-108984800D02*
X132639598Y-109032419D01*
X132639598Y-109032419D02*
X132401503Y-109032419D01*
X104630074Y-30872419D02*
X104153884Y-30872419D01*
X104153884Y-30872419D02*
X104106265Y-31348609D01*
X104106265Y-31348609D02*
X104153884Y-31300990D01*
X104153884Y-31300990D02*
X104249122Y-31253371D01*
X104249122Y-31253371D02*
X104487217Y-31253371D01*
X104487217Y-31253371D02*
X104582455Y-31300990D01*
X104582455Y-31300990D02*
X104630074Y-31348609D01*
X104630074Y-31348609D02*
X104677693Y-31443847D01*
X104677693Y-31443847D02*
X104677693Y-31681942D01*
X104677693Y-31681942D02*
X104630074Y-31777180D01*
X104630074Y-31777180D02*
X104582455Y-31824800D01*
X104582455Y-31824800D02*
X104487217Y-31872419D01*
X104487217Y-31872419D02*
X104249122Y-31872419D01*
X104249122Y-31872419D02*
X104153884Y-31824800D01*
X104153884Y-31824800D02*
X104106265Y-31777180D01*
X104963408Y-30872419D02*
X105296741Y-31872419D01*
X105296741Y-31872419D02*
X105630074Y-30872419D01*
X92181265Y-39249800D02*
X92324122Y-39297419D01*
X92324122Y-39297419D02*
X92562217Y-39297419D01*
X92562217Y-39297419D02*
X92657455Y-39249800D01*
X92657455Y-39249800D02*
X92705074Y-39202180D01*
X92705074Y-39202180D02*
X92752693Y-39106942D01*
X92752693Y-39106942D02*
X92752693Y-39011704D01*
X92752693Y-39011704D02*
X92705074Y-38916466D01*
X92705074Y-38916466D02*
X92657455Y-38868847D01*
X92657455Y-38868847D02*
X92562217Y-38821228D01*
X92562217Y-38821228D02*
X92371741Y-38773609D01*
X92371741Y-38773609D02*
X92276503Y-38725990D01*
X92276503Y-38725990D02*
X92228884Y-38678371D01*
X92228884Y-38678371D02*
X92181265Y-38583133D01*
X92181265Y-38583133D02*
X92181265Y-38487895D01*
X92181265Y-38487895D02*
X92228884Y-38392657D01*
X92228884Y-38392657D02*
X92276503Y-38345038D01*
X92276503Y-38345038D02*
X92371741Y-38297419D01*
X92371741Y-38297419D02*
X92609836Y-38297419D01*
X92609836Y-38297419D02*
X92752693Y-38345038D01*
X93562217Y-39249800D02*
X93466979Y-39297419D01*
X93466979Y-39297419D02*
X93276503Y-39297419D01*
X93276503Y-39297419D02*
X93181265Y-39249800D01*
X93181265Y-39249800D02*
X93133646Y-39154561D01*
X93133646Y-39154561D02*
X93133646Y-38773609D01*
X93133646Y-38773609D02*
X93181265Y-38678371D01*
X93181265Y-38678371D02*
X93276503Y-38630752D01*
X93276503Y-38630752D02*
X93466979Y-38630752D01*
X93466979Y-38630752D02*
X93562217Y-38678371D01*
X93562217Y-38678371D02*
X93609836Y-38773609D01*
X93609836Y-38773609D02*
X93609836Y-38868847D01*
X93609836Y-38868847D02*
X93133646Y-38964085D01*
X94038408Y-39297419D02*
X94038408Y-38630752D01*
X94038408Y-38821228D02*
X94086027Y-38725990D01*
X94086027Y-38725990D02*
X94133646Y-38678371D01*
X94133646Y-38678371D02*
X94228884Y-38630752D01*
X94228884Y-38630752D02*
X94324122Y-38630752D01*
X94562218Y-38630752D02*
X94800313Y-39297419D01*
X94800313Y-39297419D02*
X95038408Y-38630752D01*
X95562218Y-39297419D02*
X95466980Y-39249800D01*
X95466980Y-39249800D02*
X95419361Y-39202180D01*
X95419361Y-39202180D02*
X95371742Y-39106942D01*
X95371742Y-39106942D02*
X95371742Y-38821228D01*
X95371742Y-38821228D02*
X95419361Y-38725990D01*
X95419361Y-38725990D02*
X95466980Y-38678371D01*
X95466980Y-38678371D02*
X95562218Y-38630752D01*
X95562218Y-38630752D02*
X95705075Y-38630752D01*
X95705075Y-38630752D02*
X95800313Y-38678371D01*
X95800313Y-38678371D02*
X95847932Y-38725990D01*
X95847932Y-38725990D02*
X95895551Y-38821228D01*
X95895551Y-38821228D02*
X95895551Y-39106942D01*
X95895551Y-39106942D02*
X95847932Y-39202180D01*
X95847932Y-39202180D02*
X95800313Y-39249800D01*
X95800313Y-39249800D02*
X95705075Y-39297419D01*
X95705075Y-39297419D02*
X95562218Y-39297419D01*
X97609837Y-39297419D02*
X97038409Y-39297419D01*
X97324123Y-39297419D02*
X97324123Y-38297419D01*
X97324123Y-38297419D02*
X97228885Y-38440276D01*
X97228885Y-38440276D02*
X97133647Y-38535514D01*
X97133647Y-38535514D02*
X97038409Y-38583133D01*
X132777693Y-38770038D02*
X132682455Y-38722419D01*
X132682455Y-38722419D02*
X132539598Y-38722419D01*
X132539598Y-38722419D02*
X132396741Y-38770038D01*
X132396741Y-38770038D02*
X132301503Y-38865276D01*
X132301503Y-38865276D02*
X132253884Y-38960514D01*
X132253884Y-38960514D02*
X132206265Y-39150990D01*
X132206265Y-39150990D02*
X132206265Y-39293847D01*
X132206265Y-39293847D02*
X132253884Y-39484323D01*
X132253884Y-39484323D02*
X132301503Y-39579561D01*
X132301503Y-39579561D02*
X132396741Y-39674800D01*
X132396741Y-39674800D02*
X132539598Y-39722419D01*
X132539598Y-39722419D02*
X132634836Y-39722419D01*
X132634836Y-39722419D02*
X132777693Y-39674800D01*
X132777693Y-39674800D02*
X132825312Y-39627180D01*
X132825312Y-39627180D02*
X132825312Y-39293847D01*
X132825312Y-39293847D02*
X132634836Y-39293847D01*
X133253884Y-39722419D02*
X133253884Y-38722419D01*
X133253884Y-38722419D02*
X133825312Y-39722419D01*
X133825312Y-39722419D02*
X133825312Y-38722419D01*
X134301503Y-39722419D02*
X134301503Y-38722419D01*
X134301503Y-38722419D02*
X134539598Y-38722419D01*
X134539598Y-38722419D02*
X134682455Y-38770038D01*
X134682455Y-38770038D02*
X134777693Y-38865276D01*
X134777693Y-38865276D02*
X134825312Y-38960514D01*
X134825312Y-38960514D02*
X134872931Y-39150990D01*
X134872931Y-39150990D02*
X134872931Y-39293847D01*
X134872931Y-39293847D02*
X134825312Y-39484323D01*
X134825312Y-39484323D02*
X134777693Y-39579561D01*
X134777693Y-39579561D02*
X134682455Y-39674800D01*
X134682455Y-39674800D02*
X134539598Y-39722419D01*
X134539598Y-39722419D02*
X134301503Y-39722419D01*
X136491979Y-39674800D02*
X136396741Y-39722419D01*
X136396741Y-39722419D02*
X136206265Y-39722419D01*
X136206265Y-39722419D02*
X136111027Y-39674800D01*
X136111027Y-39674800D02*
X136063408Y-39627180D01*
X136063408Y-39627180D02*
X136015789Y-39531942D01*
X136015789Y-39531942D02*
X136015789Y-39246228D01*
X136015789Y-39246228D02*
X136063408Y-39150990D01*
X136063408Y-39150990D02*
X136111027Y-39103371D01*
X136111027Y-39103371D02*
X136206265Y-39055752D01*
X136206265Y-39055752D02*
X136396741Y-39055752D01*
X136396741Y-39055752D02*
X136491979Y-39103371D01*
X137349122Y-39722419D02*
X137349122Y-39198609D01*
X137349122Y-39198609D02*
X137301503Y-39103371D01*
X137301503Y-39103371D02*
X137206265Y-39055752D01*
X137206265Y-39055752D02*
X137015789Y-39055752D01*
X137015789Y-39055752D02*
X136920551Y-39103371D01*
X137349122Y-39674800D02*
X137253884Y-39722419D01*
X137253884Y-39722419D02*
X137015789Y-39722419D01*
X137015789Y-39722419D02*
X136920551Y-39674800D01*
X136920551Y-39674800D02*
X136872932Y-39579561D01*
X136872932Y-39579561D02*
X136872932Y-39484323D01*
X136872932Y-39484323D02*
X136920551Y-39389085D01*
X136920551Y-39389085D02*
X137015789Y-39341466D01*
X137015789Y-39341466D02*
X137253884Y-39341466D01*
X137253884Y-39341466D02*
X137349122Y-39293847D01*
X137825313Y-39055752D02*
X137825313Y-40055752D01*
X137825313Y-39103371D02*
X137920551Y-39055752D01*
X137920551Y-39055752D02*
X138111027Y-39055752D01*
X138111027Y-39055752D02*
X138206265Y-39103371D01*
X138206265Y-39103371D02*
X138253884Y-39150990D01*
X138253884Y-39150990D02*
X138301503Y-39246228D01*
X138301503Y-39246228D02*
X138301503Y-39531942D01*
X138301503Y-39531942D02*
X138253884Y-39627180D01*
X138253884Y-39627180D02*
X138206265Y-39674800D01*
X138206265Y-39674800D02*
X138111027Y-39722419D01*
X138111027Y-39722419D02*
X137920551Y-39722419D01*
X137920551Y-39722419D02*
X137825313Y-39674800D01*
X98106265Y-59442657D02*
X98153884Y-59395038D01*
X98153884Y-59395038D02*
X98249122Y-59347419D01*
X98249122Y-59347419D02*
X98487217Y-59347419D01*
X98487217Y-59347419D02*
X98582455Y-59395038D01*
X98582455Y-59395038D02*
X98630074Y-59442657D01*
X98630074Y-59442657D02*
X98677693Y-59537895D01*
X98677693Y-59537895D02*
X98677693Y-59633133D01*
X98677693Y-59633133D02*
X98630074Y-59775990D01*
X98630074Y-59775990D02*
X98058646Y-60347419D01*
X98058646Y-60347419D02*
X98677693Y-60347419D01*
X99534836Y-59680752D02*
X99534836Y-60347419D01*
X99296741Y-59299800D02*
X99058646Y-60014085D01*
X99058646Y-60014085D02*
X99677693Y-60014085D01*
X99915789Y-59347419D02*
X100249122Y-60347419D01*
X100249122Y-60347419D02*
X100582455Y-59347419D01*
X102106265Y-60347419D02*
X102106265Y-59347419D01*
X102106265Y-60299800D02*
X102011027Y-60347419D01*
X102011027Y-60347419D02*
X101820551Y-60347419D01*
X101820551Y-60347419D02*
X101725313Y-60299800D01*
X101725313Y-60299800D02*
X101677694Y-60252180D01*
X101677694Y-60252180D02*
X101630075Y-60156942D01*
X101630075Y-60156942D02*
X101630075Y-59871228D01*
X101630075Y-59871228D02*
X101677694Y-59775990D01*
X101677694Y-59775990D02*
X101725313Y-59728371D01*
X101725313Y-59728371D02*
X101820551Y-59680752D01*
X101820551Y-59680752D02*
X102011027Y-59680752D01*
X102011027Y-59680752D02*
X102106265Y-59728371D01*
X102582456Y-60347419D02*
X102582456Y-59680752D01*
X102582456Y-59347419D02*
X102534837Y-59395038D01*
X102534837Y-59395038D02*
X102582456Y-59442657D01*
X102582456Y-59442657D02*
X102630075Y-59395038D01*
X102630075Y-59395038D02*
X102582456Y-59347419D01*
X102582456Y-59347419D02*
X102582456Y-59442657D01*
X103201503Y-60347419D02*
X103106265Y-60299800D01*
X103106265Y-60299800D02*
X103058646Y-60252180D01*
X103058646Y-60252180D02*
X103011027Y-60156942D01*
X103011027Y-60156942D02*
X103011027Y-59871228D01*
X103011027Y-59871228D02*
X103058646Y-59775990D01*
X103058646Y-59775990D02*
X103106265Y-59728371D01*
X103106265Y-59728371D02*
X103201503Y-59680752D01*
X103201503Y-59680752D02*
X103344360Y-59680752D01*
X103344360Y-59680752D02*
X103439598Y-59728371D01*
X103439598Y-59728371D02*
X103487217Y-59775990D01*
X103487217Y-59775990D02*
X103534836Y-59871228D01*
X103534836Y-59871228D02*
X103534836Y-60156942D01*
X103534836Y-60156942D02*
X103487217Y-60252180D01*
X103487217Y-60252180D02*
X103439598Y-60299800D01*
X103439598Y-60299800D02*
X103344360Y-60347419D01*
X103344360Y-60347419D02*
X103201503Y-60347419D01*
X104391979Y-60347419D02*
X104391979Y-59347419D01*
X104391979Y-60299800D02*
X104296741Y-60347419D01*
X104296741Y-60347419D02*
X104106265Y-60347419D01*
X104106265Y-60347419D02*
X104011027Y-60299800D01*
X104011027Y-60299800D02*
X103963408Y-60252180D01*
X103963408Y-60252180D02*
X103915789Y-60156942D01*
X103915789Y-60156942D02*
X103915789Y-59871228D01*
X103915789Y-59871228D02*
X103963408Y-59775990D01*
X103963408Y-59775990D02*
X104011027Y-59728371D01*
X104011027Y-59728371D02*
X104106265Y-59680752D01*
X104106265Y-59680752D02*
X104296741Y-59680752D01*
X104296741Y-59680752D02*
X104391979Y-59728371D01*
X105249122Y-60299800D02*
X105153884Y-60347419D01*
X105153884Y-60347419D02*
X104963408Y-60347419D01*
X104963408Y-60347419D02*
X104868170Y-60299800D01*
X104868170Y-60299800D02*
X104820551Y-60204561D01*
X104820551Y-60204561D02*
X104820551Y-59823609D01*
X104820551Y-59823609D02*
X104868170Y-59728371D01*
X104868170Y-59728371D02*
X104963408Y-59680752D01*
X104963408Y-59680752D02*
X105153884Y-59680752D01*
X105153884Y-59680752D02*
X105249122Y-59728371D01*
X105249122Y-59728371D02*
X105296741Y-59823609D01*
X105296741Y-59823609D02*
X105296741Y-59918847D01*
X105296741Y-59918847D02*
X104820551Y-60014085D01*
X138327693Y-73945038D02*
X138232455Y-73897419D01*
X138232455Y-73897419D02*
X138089598Y-73897419D01*
X138089598Y-73897419D02*
X137946741Y-73945038D01*
X137946741Y-73945038D02*
X137851503Y-74040276D01*
X137851503Y-74040276D02*
X137803884Y-74135514D01*
X137803884Y-74135514D02*
X137756265Y-74325990D01*
X137756265Y-74325990D02*
X137756265Y-74468847D01*
X137756265Y-74468847D02*
X137803884Y-74659323D01*
X137803884Y-74659323D02*
X137851503Y-74754561D01*
X137851503Y-74754561D02*
X137946741Y-74849800D01*
X137946741Y-74849800D02*
X138089598Y-74897419D01*
X138089598Y-74897419D02*
X138184836Y-74897419D01*
X138184836Y-74897419D02*
X138327693Y-74849800D01*
X138327693Y-74849800D02*
X138375312Y-74802180D01*
X138375312Y-74802180D02*
X138375312Y-74468847D01*
X138375312Y-74468847D02*
X138184836Y-74468847D01*
X138803884Y-74897419D02*
X138803884Y-73897419D01*
X138803884Y-73897419D02*
X139375312Y-74897419D01*
X139375312Y-74897419D02*
X139375312Y-73897419D01*
X139851503Y-74897419D02*
X139851503Y-73897419D01*
X139851503Y-73897419D02*
X140089598Y-73897419D01*
X140089598Y-73897419D02*
X140232455Y-73945038D01*
X140232455Y-73945038D02*
X140327693Y-74040276D01*
X140327693Y-74040276D02*
X140375312Y-74135514D01*
X140375312Y-74135514D02*
X140422931Y-74325990D01*
X140422931Y-74325990D02*
X140422931Y-74468847D01*
X140422931Y-74468847D02*
X140375312Y-74659323D01*
X140375312Y-74659323D02*
X140327693Y-74754561D01*
X140327693Y-74754561D02*
X140232455Y-74849800D01*
X140232455Y-74849800D02*
X140089598Y-74897419D01*
X140089598Y-74897419D02*
X139851503Y-74897419D01*
X126431265Y-71567657D02*
X126478884Y-71520038D01*
X126478884Y-71520038D02*
X126574122Y-71472419D01*
X126574122Y-71472419D02*
X126812217Y-71472419D01*
X126812217Y-71472419D02*
X126907455Y-71520038D01*
X126907455Y-71520038D02*
X126955074Y-71567657D01*
X126955074Y-71567657D02*
X127002693Y-71662895D01*
X127002693Y-71662895D02*
X127002693Y-71758133D01*
X127002693Y-71758133D02*
X126955074Y-71900990D01*
X126955074Y-71900990D02*
X126383646Y-72472419D01*
X126383646Y-72472419D02*
X127002693Y-72472419D01*
X127859836Y-71805752D02*
X127859836Y-72472419D01*
X127621741Y-71424800D02*
X127383646Y-72139085D01*
X127383646Y-72139085D02*
X128002693Y-72139085D01*
X128240789Y-71472419D02*
X128574122Y-72472419D01*
X128574122Y-72472419D02*
X128907455Y-71472419D01*
X130145551Y-72472419D02*
X130050313Y-72424800D01*
X130050313Y-72424800D02*
X130002694Y-72377180D01*
X130002694Y-72377180D02*
X129955075Y-72281942D01*
X129955075Y-72281942D02*
X129955075Y-71996228D01*
X129955075Y-71996228D02*
X130002694Y-71900990D01*
X130002694Y-71900990D02*
X130050313Y-71853371D01*
X130050313Y-71853371D02*
X130145551Y-71805752D01*
X130145551Y-71805752D02*
X130288408Y-71805752D01*
X130288408Y-71805752D02*
X130383646Y-71853371D01*
X130383646Y-71853371D02*
X130431265Y-71900990D01*
X130431265Y-71900990D02*
X130478884Y-71996228D01*
X130478884Y-71996228D02*
X130478884Y-72281942D01*
X130478884Y-72281942D02*
X130431265Y-72377180D01*
X130431265Y-72377180D02*
X130383646Y-72424800D01*
X130383646Y-72424800D02*
X130288408Y-72472419D01*
X130288408Y-72472419D02*
X130145551Y-72472419D01*
X131336027Y-71805752D02*
X131336027Y-72472419D01*
X130907456Y-71805752D02*
X130907456Y-72329561D01*
X130907456Y-72329561D02*
X130955075Y-72424800D01*
X130955075Y-72424800D02*
X131050313Y-72472419D01*
X131050313Y-72472419D02*
X131193170Y-72472419D01*
X131193170Y-72472419D02*
X131288408Y-72424800D01*
X131288408Y-72424800D02*
X131336027Y-72377180D01*
X131669361Y-71805752D02*
X132050313Y-71805752D01*
X131812218Y-71472419D02*
X131812218Y-72329561D01*
X131812218Y-72329561D02*
X131859837Y-72424800D01*
X131859837Y-72424800D02*
X131955075Y-72472419D01*
X131955075Y-72472419D02*
X132050313Y-72472419D01*
X132431266Y-72424800D02*
X132431266Y-72472419D01*
X132431266Y-72472419D02*
X132383647Y-72567657D01*
X132383647Y-72567657D02*
X132336028Y-72615276D01*
X133621742Y-72472419D02*
X133621742Y-71805752D01*
X133621742Y-71472419D02*
X133574123Y-71520038D01*
X133574123Y-71520038D02*
X133621742Y-71567657D01*
X133621742Y-71567657D02*
X133669361Y-71520038D01*
X133669361Y-71520038D02*
X133621742Y-71472419D01*
X133621742Y-71472419D02*
X133621742Y-71567657D01*
X134097932Y-71805752D02*
X134097932Y-72472419D01*
X134097932Y-71900990D02*
X134145551Y-71853371D01*
X134145551Y-71853371D02*
X134240789Y-71805752D01*
X134240789Y-71805752D02*
X134383646Y-71805752D01*
X134383646Y-71805752D02*
X134478884Y-71853371D01*
X134478884Y-71853371D02*
X134526503Y-71948609D01*
X134526503Y-71948609D02*
X134526503Y-72472419D01*
X135002694Y-71805752D02*
X135002694Y-72805752D01*
X135002694Y-71853371D02*
X135097932Y-71805752D01*
X135097932Y-71805752D02*
X135288408Y-71805752D01*
X135288408Y-71805752D02*
X135383646Y-71853371D01*
X135383646Y-71853371D02*
X135431265Y-71900990D01*
X135431265Y-71900990D02*
X135478884Y-71996228D01*
X135478884Y-71996228D02*
X135478884Y-72281942D01*
X135478884Y-72281942D02*
X135431265Y-72377180D01*
X135431265Y-72377180D02*
X135383646Y-72424800D01*
X135383646Y-72424800D02*
X135288408Y-72472419D01*
X135288408Y-72472419D02*
X135097932Y-72472419D01*
X135097932Y-72472419D02*
X135002694Y-72424800D01*
X136336027Y-71805752D02*
X136336027Y-72472419D01*
X135907456Y-71805752D02*
X135907456Y-72329561D01*
X135907456Y-72329561D02*
X135955075Y-72424800D01*
X135955075Y-72424800D02*
X136050313Y-72472419D01*
X136050313Y-72472419D02*
X136193170Y-72472419D01*
X136193170Y-72472419D02*
X136288408Y-72424800D01*
X136288408Y-72424800D02*
X136336027Y-72377180D01*
X136669361Y-71805752D02*
X137050313Y-71805752D01*
X136812218Y-71472419D02*
X136812218Y-72329561D01*
X136812218Y-72329561D02*
X136859837Y-72424800D01*
X136859837Y-72424800D02*
X136955075Y-72472419D01*
X136955075Y-72472419D02*
X137050313Y-72472419D01*
X138002695Y-71805752D02*
X138383647Y-71805752D01*
X138145552Y-72472419D02*
X138145552Y-71615276D01*
X138145552Y-71615276D02*
X138193171Y-71520038D01*
X138193171Y-71520038D02*
X138288409Y-71472419D01*
X138288409Y-71472419D02*
X138383647Y-71472419D01*
X138859838Y-72472419D02*
X138764600Y-72424800D01*
X138764600Y-72424800D02*
X138716981Y-72377180D01*
X138716981Y-72377180D02*
X138669362Y-72281942D01*
X138669362Y-72281942D02*
X138669362Y-71996228D01*
X138669362Y-71996228D02*
X138716981Y-71900990D01*
X138716981Y-71900990D02*
X138764600Y-71853371D01*
X138764600Y-71853371D02*
X138859838Y-71805752D01*
X138859838Y-71805752D02*
X139002695Y-71805752D01*
X139002695Y-71805752D02*
X139097933Y-71853371D01*
X139097933Y-71853371D02*
X139145552Y-71900990D01*
X139145552Y-71900990D02*
X139193171Y-71996228D01*
X139193171Y-71996228D02*
X139193171Y-72281942D01*
X139193171Y-72281942D02*
X139145552Y-72377180D01*
X139145552Y-72377180D02*
X139097933Y-72424800D01*
X139097933Y-72424800D02*
X139002695Y-72472419D01*
X139002695Y-72472419D02*
X138859838Y-72472419D01*
X139621743Y-72472419D02*
X139621743Y-71805752D01*
X139621743Y-71996228D02*
X139669362Y-71900990D01*
X139669362Y-71900990D02*
X139716981Y-71853371D01*
X139716981Y-71853371D02*
X139812219Y-71805752D01*
X139812219Y-71805752D02*
X139907457Y-71805752D01*
X141002696Y-72472419D02*
X141002696Y-71472419D01*
X141002696Y-71853371D02*
X141097934Y-71805752D01*
X141097934Y-71805752D02*
X141288410Y-71805752D01*
X141288410Y-71805752D02*
X141383648Y-71853371D01*
X141383648Y-71853371D02*
X141431267Y-71900990D01*
X141431267Y-71900990D02*
X141478886Y-71996228D01*
X141478886Y-71996228D02*
X141478886Y-72281942D01*
X141478886Y-72281942D02*
X141431267Y-72377180D01*
X141431267Y-72377180D02*
X141383648Y-72424800D01*
X141383648Y-72424800D02*
X141288410Y-72472419D01*
X141288410Y-72472419D02*
X141097934Y-72472419D01*
X141097934Y-72472419D02*
X141002696Y-72424800D01*
X142336029Y-71805752D02*
X142336029Y-72472419D01*
X141907458Y-71805752D02*
X141907458Y-72329561D01*
X141907458Y-72329561D02*
X141955077Y-72424800D01*
X141955077Y-72424800D02*
X142050315Y-72472419D01*
X142050315Y-72472419D02*
X142193172Y-72472419D01*
X142193172Y-72472419D02*
X142288410Y-72424800D01*
X142288410Y-72424800D02*
X142336029Y-72377180D01*
X143240791Y-72424800D02*
X143145553Y-72472419D01*
X143145553Y-72472419D02*
X142955077Y-72472419D01*
X142955077Y-72472419D02*
X142859839Y-72424800D01*
X142859839Y-72424800D02*
X142812220Y-72377180D01*
X142812220Y-72377180D02*
X142764601Y-72281942D01*
X142764601Y-72281942D02*
X142764601Y-71996228D01*
X142764601Y-71996228D02*
X142812220Y-71900990D01*
X142812220Y-71900990D02*
X142859839Y-71853371D01*
X142859839Y-71853371D02*
X142955077Y-71805752D01*
X142955077Y-71805752D02*
X143145553Y-71805752D01*
X143145553Y-71805752D02*
X143240791Y-71853371D01*
X143669363Y-72472419D02*
X143669363Y-71472419D01*
X143764601Y-72091466D02*
X144050315Y-72472419D01*
X144050315Y-71805752D02*
X143669363Y-72186704D01*
X138808765Y-56967657D02*
X138856384Y-56920038D01*
X138856384Y-56920038D02*
X138951622Y-56872419D01*
X138951622Y-56872419D02*
X139189717Y-56872419D01*
X139189717Y-56872419D02*
X139284955Y-56920038D01*
X139284955Y-56920038D02*
X139332574Y-56967657D01*
X139332574Y-56967657D02*
X139380193Y-57062895D01*
X139380193Y-57062895D02*
X139380193Y-57158133D01*
X139380193Y-57158133D02*
X139332574Y-57300990D01*
X139332574Y-57300990D02*
X138761146Y-57872419D01*
X138761146Y-57872419D02*
X139380193Y-57872419D01*
X140237336Y-57205752D02*
X140237336Y-57872419D01*
X139999241Y-56824800D02*
X139761146Y-57539085D01*
X139761146Y-57539085D02*
X140380193Y-57539085D01*
X140618289Y-56872419D02*
X140951622Y-57872419D01*
X140951622Y-57872419D02*
X141284955Y-56872419D01*
X141637217Y-108348609D02*
X141780074Y-108396228D01*
X141780074Y-108396228D02*
X141827693Y-108443847D01*
X141827693Y-108443847D02*
X141875312Y-108539085D01*
X141875312Y-108539085D02*
X141875312Y-108681942D01*
X141875312Y-108681942D02*
X141827693Y-108777180D01*
X141827693Y-108777180D02*
X141780074Y-108824800D01*
X141780074Y-108824800D02*
X141684836Y-108872419D01*
X141684836Y-108872419D02*
X141303884Y-108872419D01*
X141303884Y-108872419D02*
X141303884Y-107872419D01*
X141303884Y-107872419D02*
X141637217Y-107872419D01*
X141637217Y-107872419D02*
X141732455Y-107920038D01*
X141732455Y-107920038D02*
X141780074Y-107967657D01*
X141780074Y-107967657D02*
X141827693Y-108062895D01*
X141827693Y-108062895D02*
X141827693Y-108158133D01*
X141827693Y-108158133D02*
X141780074Y-108253371D01*
X141780074Y-108253371D02*
X141732455Y-108300990D01*
X141732455Y-108300990D02*
X141637217Y-108348609D01*
X141637217Y-108348609D02*
X141303884Y-108348609D01*
X142827693Y-108872419D02*
X142256265Y-108872419D01*
X142541979Y-108872419D02*
X142541979Y-107872419D01*
X142541979Y-107872419D02*
X142446741Y-108015276D01*
X142446741Y-108015276D02*
X142351503Y-108110514D01*
X142351503Y-108110514D02*
X142256265Y-108158133D01*
X117080074Y-59647419D02*
X116603884Y-59647419D01*
X116603884Y-59647419D02*
X116556265Y-60123609D01*
X116556265Y-60123609D02*
X116603884Y-60075990D01*
X116603884Y-60075990D02*
X116699122Y-60028371D01*
X116699122Y-60028371D02*
X116937217Y-60028371D01*
X116937217Y-60028371D02*
X117032455Y-60075990D01*
X117032455Y-60075990D02*
X117080074Y-60123609D01*
X117080074Y-60123609D02*
X117127693Y-60218847D01*
X117127693Y-60218847D02*
X117127693Y-60456942D01*
X117127693Y-60456942D02*
X117080074Y-60552180D01*
X117080074Y-60552180D02*
X117032455Y-60599800D01*
X117032455Y-60599800D02*
X116937217Y-60647419D01*
X116937217Y-60647419D02*
X116699122Y-60647419D01*
X116699122Y-60647419D02*
X116603884Y-60599800D01*
X116603884Y-60599800D02*
X116556265Y-60552180D01*
X117413408Y-59647419D02*
X117746741Y-60647419D01*
X117746741Y-60647419D02*
X118080074Y-59647419D01*
X119603884Y-60647419D02*
X119603884Y-59647419D01*
X119603884Y-60599800D02*
X119508646Y-60647419D01*
X119508646Y-60647419D02*
X119318170Y-60647419D01*
X119318170Y-60647419D02*
X119222932Y-60599800D01*
X119222932Y-60599800D02*
X119175313Y-60552180D01*
X119175313Y-60552180D02*
X119127694Y-60456942D01*
X119127694Y-60456942D02*
X119127694Y-60171228D01*
X119127694Y-60171228D02*
X119175313Y-60075990D01*
X119175313Y-60075990D02*
X119222932Y-60028371D01*
X119222932Y-60028371D02*
X119318170Y-59980752D01*
X119318170Y-59980752D02*
X119508646Y-59980752D01*
X119508646Y-59980752D02*
X119603884Y-60028371D01*
X120080075Y-60647419D02*
X120080075Y-59980752D01*
X120080075Y-59647419D02*
X120032456Y-59695038D01*
X120032456Y-59695038D02*
X120080075Y-59742657D01*
X120080075Y-59742657D02*
X120127694Y-59695038D01*
X120127694Y-59695038D02*
X120080075Y-59647419D01*
X120080075Y-59647419D02*
X120080075Y-59742657D01*
X120699122Y-60647419D02*
X120603884Y-60599800D01*
X120603884Y-60599800D02*
X120556265Y-60552180D01*
X120556265Y-60552180D02*
X120508646Y-60456942D01*
X120508646Y-60456942D02*
X120508646Y-60171228D01*
X120508646Y-60171228D02*
X120556265Y-60075990D01*
X120556265Y-60075990D02*
X120603884Y-60028371D01*
X120603884Y-60028371D02*
X120699122Y-59980752D01*
X120699122Y-59980752D02*
X120841979Y-59980752D01*
X120841979Y-59980752D02*
X120937217Y-60028371D01*
X120937217Y-60028371D02*
X120984836Y-60075990D01*
X120984836Y-60075990D02*
X121032455Y-60171228D01*
X121032455Y-60171228D02*
X121032455Y-60456942D01*
X121032455Y-60456942D02*
X120984836Y-60552180D01*
X120984836Y-60552180D02*
X120937217Y-60599800D01*
X120937217Y-60599800D02*
X120841979Y-60647419D01*
X120841979Y-60647419D02*
X120699122Y-60647419D01*
X121889598Y-60647419D02*
X121889598Y-59647419D01*
X121889598Y-60599800D02*
X121794360Y-60647419D01*
X121794360Y-60647419D02*
X121603884Y-60647419D01*
X121603884Y-60647419D02*
X121508646Y-60599800D01*
X121508646Y-60599800D02*
X121461027Y-60552180D01*
X121461027Y-60552180D02*
X121413408Y-60456942D01*
X121413408Y-60456942D02*
X121413408Y-60171228D01*
X121413408Y-60171228D02*
X121461027Y-60075990D01*
X121461027Y-60075990D02*
X121508646Y-60028371D01*
X121508646Y-60028371D02*
X121603884Y-59980752D01*
X121603884Y-59980752D02*
X121794360Y-59980752D01*
X121794360Y-59980752D02*
X121889598Y-60028371D01*
X122746741Y-60599800D02*
X122651503Y-60647419D01*
X122651503Y-60647419D02*
X122461027Y-60647419D01*
X122461027Y-60647419D02*
X122365789Y-60599800D01*
X122365789Y-60599800D02*
X122318170Y-60504561D01*
X122318170Y-60504561D02*
X122318170Y-60123609D01*
X122318170Y-60123609D02*
X122365789Y-60028371D01*
X122365789Y-60028371D02*
X122461027Y-59980752D01*
X122461027Y-59980752D02*
X122651503Y-59980752D01*
X122651503Y-59980752D02*
X122746741Y-60028371D01*
X122746741Y-60028371D02*
X122794360Y-60123609D01*
X122794360Y-60123609D02*
X122794360Y-60218847D01*
X122794360Y-60218847D02*
X122318170Y-60314085D01*
D11*
X104481666Y-86899819D02*
X104481666Y-87614104D01*
X104481666Y-87614104D02*
X104434047Y-87756961D01*
X104434047Y-87756961D02*
X104338809Y-87852200D01*
X104338809Y-87852200D02*
X104195952Y-87899819D01*
X104195952Y-87899819D02*
X104100714Y-87899819D01*
X104910238Y-86995057D02*
X104957857Y-86947438D01*
X104957857Y-86947438D02*
X105053095Y-86899819D01*
X105053095Y-86899819D02*
X105291190Y-86899819D01*
X105291190Y-86899819D02*
X105386428Y-86947438D01*
X105386428Y-86947438D02*
X105434047Y-86995057D01*
X105434047Y-86995057D02*
X105481666Y-87090295D01*
X105481666Y-87090295D02*
X105481666Y-87185533D01*
X105481666Y-87185533D02*
X105434047Y-87328390D01*
X105434047Y-87328390D02*
X104862619Y-87899819D01*
X104862619Y-87899819D02*
X105481666Y-87899819D01*
X107941666Y-26019819D02*
X107941666Y-26734104D01*
X107941666Y-26734104D02*
X107894047Y-26876961D01*
X107894047Y-26876961D02*
X107798809Y-26972200D01*
X107798809Y-26972200D02*
X107655952Y-27019819D01*
X107655952Y-27019819D02*
X107560714Y-27019819D01*
X108846428Y-26019819D02*
X108655952Y-26019819D01*
X108655952Y-26019819D02*
X108560714Y-26067438D01*
X108560714Y-26067438D02*
X108513095Y-26115057D01*
X108513095Y-26115057D02*
X108417857Y-26257914D01*
X108417857Y-26257914D02*
X108370238Y-26448390D01*
X108370238Y-26448390D02*
X108370238Y-26829342D01*
X108370238Y-26829342D02*
X108417857Y-26924580D01*
X108417857Y-26924580D02*
X108465476Y-26972200D01*
X108465476Y-26972200D02*
X108560714Y-27019819D01*
X108560714Y-27019819D02*
X108751190Y-27019819D01*
X108751190Y-27019819D02*
X108846428Y-26972200D01*
X108846428Y-26972200D02*
X108894047Y-26924580D01*
X108894047Y-26924580D02*
X108941666Y-26829342D01*
X108941666Y-26829342D02*
X108941666Y-26591247D01*
X108941666Y-26591247D02*
X108894047Y-26496009D01*
X108894047Y-26496009D02*
X108846428Y-26448390D01*
X108846428Y-26448390D02*
X108751190Y-26400771D01*
X108751190Y-26400771D02*
X108560714Y-26400771D01*
X108560714Y-26400771D02*
X108465476Y-26448390D01*
X108465476Y-26448390D02*
X108417857Y-26496009D01*
X108417857Y-26496009D02*
X108370238Y-26591247D01*
X94666666Y-26574819D02*
X94666666Y-27289104D01*
X94666666Y-27289104D02*
X94619047Y-27431961D01*
X94619047Y-27431961D02*
X94523809Y-27527200D01*
X94523809Y-27527200D02*
X94380952Y-27574819D01*
X94380952Y-27574819D02*
X94285714Y-27574819D01*
X95619047Y-26574819D02*
X95142857Y-26574819D01*
X95142857Y-26574819D02*
X95095238Y-27051009D01*
X95095238Y-27051009D02*
X95142857Y-27003390D01*
X95142857Y-27003390D02*
X95238095Y-26955771D01*
X95238095Y-26955771D02*
X95476190Y-26955771D01*
X95476190Y-26955771D02*
X95571428Y-27003390D01*
X95571428Y-27003390D02*
X95619047Y-27051009D01*
X95619047Y-27051009D02*
X95666666Y-27146247D01*
X95666666Y-27146247D02*
X95666666Y-27384342D01*
X95666666Y-27384342D02*
X95619047Y-27479580D01*
X95619047Y-27479580D02*
X95571428Y-27527200D01*
X95571428Y-27527200D02*
X95476190Y-27574819D01*
X95476190Y-27574819D02*
X95238095Y-27574819D01*
X95238095Y-27574819D02*
X95142857Y-27527200D01*
X95142857Y-27527200D02*
X95095238Y-27479580D01*
X118581905Y-54359819D02*
X118581905Y-53359819D01*
X118581905Y-53359819D02*
X118820000Y-53359819D01*
X118820000Y-53359819D02*
X118962857Y-53407438D01*
X118962857Y-53407438D02*
X119058095Y-53502676D01*
X119058095Y-53502676D02*
X119105714Y-53597914D01*
X119105714Y-53597914D02*
X119153333Y-53788390D01*
X119153333Y-53788390D02*
X119153333Y-53931247D01*
X119153333Y-53931247D02*
X119105714Y-54121723D01*
X119105714Y-54121723D02*
X119058095Y-54216961D01*
X119058095Y-54216961D02*
X118962857Y-54312200D01*
X118962857Y-54312200D02*
X118820000Y-54359819D01*
X118820000Y-54359819D02*
X118581905Y-54359819D01*
X120105714Y-54359819D02*
X119534286Y-54359819D01*
X119820000Y-54359819D02*
X119820000Y-53359819D01*
X119820000Y-53359819D02*
X119724762Y-53502676D01*
X119724762Y-53502676D02*
X119629524Y-53597914D01*
X119629524Y-53597914D02*
X119534286Y-53645533D01*
X113978095Y-54729819D02*
X113978095Y-53729819D01*
X114549523Y-54729819D02*
X114120952Y-54158390D01*
X114549523Y-53729819D02*
X113978095Y-54301247D01*
X119666666Y-87074819D02*
X119666666Y-87789104D01*
X119666666Y-87789104D02*
X119619047Y-87931961D01*
X119619047Y-87931961D02*
X119523809Y-88027200D01*
X119523809Y-88027200D02*
X119380952Y-88074819D01*
X119380952Y-88074819D02*
X119285714Y-88074819D01*
X120047619Y-87074819D02*
X120666666Y-87074819D01*
X120666666Y-87074819D02*
X120333333Y-87455771D01*
X120333333Y-87455771D02*
X120476190Y-87455771D01*
X120476190Y-87455771D02*
X120571428Y-87503390D01*
X120571428Y-87503390D02*
X120619047Y-87551009D01*
X120619047Y-87551009D02*
X120666666Y-87646247D01*
X120666666Y-87646247D02*
X120666666Y-87884342D01*
X120666666Y-87884342D02*
X120619047Y-87979580D01*
X120619047Y-87979580D02*
X120571428Y-88027200D01*
X120571428Y-88027200D02*
X120476190Y-88074819D01*
X120476190Y-88074819D02*
X120190476Y-88074819D01*
X120190476Y-88074819D02*
X120095238Y-88027200D01*
X120095238Y-88027200D02*
X120047619Y-87979580D01*
X55388339Y-68990895D02*
X54912149Y-68990895D01*
X55483577Y-68705180D02*
X55150244Y-69705180D01*
X55150244Y-69705180D02*
X54816911Y-68705180D01*
X53959768Y-68705180D02*
X54531196Y-68705180D01*
X54245482Y-68705180D02*
X54245482Y-69705180D01*
X54245482Y-69705180D02*
X54340720Y-69562323D01*
X54340720Y-69562323D02*
X54435958Y-69467085D01*
X54435958Y-69467085D02*
X54531196Y-69419466D01*
X135583333Y-42434580D02*
X135535714Y-42482200D01*
X135535714Y-42482200D02*
X135392857Y-42529819D01*
X135392857Y-42529819D02*
X135297619Y-42529819D01*
X135297619Y-42529819D02*
X135154762Y-42482200D01*
X135154762Y-42482200D02*
X135059524Y-42386961D01*
X135059524Y-42386961D02*
X135011905Y-42291723D01*
X135011905Y-42291723D02*
X134964286Y-42101247D01*
X134964286Y-42101247D02*
X134964286Y-41958390D01*
X134964286Y-41958390D02*
X135011905Y-41767914D01*
X135011905Y-41767914D02*
X135059524Y-41672676D01*
X135059524Y-41672676D02*
X135154762Y-41577438D01*
X135154762Y-41577438D02*
X135297619Y-41529819D01*
X135297619Y-41529819D02*
X135392857Y-41529819D01*
X135392857Y-41529819D02*
X135535714Y-41577438D01*
X135535714Y-41577438D02*
X135583333Y-41625057D01*
X135964286Y-41625057D02*
X136011905Y-41577438D01*
X136011905Y-41577438D02*
X136107143Y-41529819D01*
X136107143Y-41529819D02*
X136345238Y-41529819D01*
X136345238Y-41529819D02*
X136440476Y-41577438D01*
X136440476Y-41577438D02*
X136488095Y-41625057D01*
X136488095Y-41625057D02*
X136535714Y-41720295D01*
X136535714Y-41720295D02*
X136535714Y-41815533D01*
X136535714Y-41815533D02*
X136488095Y-41958390D01*
X136488095Y-41958390D02*
X135916667Y-42529819D01*
X135916667Y-42529819D02*
X136535714Y-42529819D01*
X100381905Y-53709819D02*
X100381905Y-52709819D01*
X100381905Y-52709819D02*
X100620000Y-52709819D01*
X100620000Y-52709819D02*
X100762857Y-52757438D01*
X100762857Y-52757438D02*
X100858095Y-52852676D01*
X100858095Y-52852676D02*
X100905714Y-52947914D01*
X100905714Y-52947914D02*
X100953333Y-53138390D01*
X100953333Y-53138390D02*
X100953333Y-53281247D01*
X100953333Y-53281247D02*
X100905714Y-53471723D01*
X100905714Y-53471723D02*
X100858095Y-53566961D01*
X100858095Y-53566961D02*
X100762857Y-53662200D01*
X100762857Y-53662200D02*
X100620000Y-53709819D01*
X100620000Y-53709819D02*
X100381905Y-53709819D01*
X101334286Y-52805057D02*
X101381905Y-52757438D01*
X101381905Y-52757438D02*
X101477143Y-52709819D01*
X101477143Y-52709819D02*
X101715238Y-52709819D01*
X101715238Y-52709819D02*
X101810476Y-52757438D01*
X101810476Y-52757438D02*
X101858095Y-52805057D01*
X101858095Y-52805057D02*
X101905714Y-52900295D01*
X101905714Y-52900295D02*
X101905714Y-52995533D01*
X101905714Y-52995533D02*
X101858095Y-53138390D01*
X101858095Y-53138390D02*
X101286667Y-53709819D01*
X101286667Y-53709819D02*
X101905714Y-53709819D01*
X95778095Y-54079819D02*
X95778095Y-53079819D01*
X96349523Y-54079819D02*
X95920952Y-53508390D01*
X96349523Y-53079819D02*
X95778095Y-53651247D01*
X81982319Y-65483333D02*
X82696604Y-65483333D01*
X82696604Y-65483333D02*
X82839461Y-65530952D01*
X82839461Y-65530952D02*
X82934700Y-65626190D01*
X82934700Y-65626190D02*
X82982319Y-65769047D01*
X82982319Y-65769047D02*
X82982319Y-65864285D01*
X82410890Y-64864285D02*
X82363271Y-64959523D01*
X82363271Y-64959523D02*
X82315652Y-65007142D01*
X82315652Y-65007142D02*
X82220414Y-65054761D01*
X82220414Y-65054761D02*
X82172795Y-65054761D01*
X82172795Y-65054761D02*
X82077557Y-65007142D01*
X82077557Y-65007142D02*
X82029938Y-64959523D01*
X82029938Y-64959523D02*
X81982319Y-64864285D01*
X81982319Y-64864285D02*
X81982319Y-64673809D01*
X81982319Y-64673809D02*
X82029938Y-64578571D01*
X82029938Y-64578571D02*
X82077557Y-64530952D01*
X82077557Y-64530952D02*
X82172795Y-64483333D01*
X82172795Y-64483333D02*
X82220414Y-64483333D01*
X82220414Y-64483333D02*
X82315652Y-64530952D01*
X82315652Y-64530952D02*
X82363271Y-64578571D01*
X82363271Y-64578571D02*
X82410890Y-64673809D01*
X82410890Y-64673809D02*
X82410890Y-64864285D01*
X82410890Y-64864285D02*
X82458509Y-64959523D01*
X82458509Y-64959523D02*
X82506128Y-65007142D01*
X82506128Y-65007142D02*
X82601366Y-65054761D01*
X82601366Y-65054761D02*
X82791842Y-65054761D01*
X82791842Y-65054761D02*
X82887080Y-65007142D01*
X82887080Y-65007142D02*
X82934700Y-64959523D01*
X82934700Y-64959523D02*
X82982319Y-64864285D01*
X82982319Y-64864285D02*
X82982319Y-64673809D01*
X82982319Y-64673809D02*
X82934700Y-64578571D01*
X82934700Y-64578571D02*
X82887080Y-64530952D01*
X82887080Y-64530952D02*
X82791842Y-64483333D01*
X82791842Y-64483333D02*
X82601366Y-64483333D01*
X82601366Y-64483333D02*
X82506128Y-64530952D01*
X82506128Y-64530952D02*
X82458509Y-64578571D01*
X82458509Y-64578571D02*
X82410890Y-64673809D01*
X124940476Y-117454819D02*
X124940476Y-118169104D01*
X124940476Y-118169104D02*
X124892857Y-118311961D01*
X124892857Y-118311961D02*
X124797619Y-118407200D01*
X124797619Y-118407200D02*
X124654762Y-118454819D01*
X124654762Y-118454819D02*
X124559524Y-118454819D01*
X125940476Y-118454819D02*
X125369048Y-118454819D01*
X125654762Y-118454819D02*
X125654762Y-117454819D01*
X125654762Y-117454819D02*
X125559524Y-117597676D01*
X125559524Y-117597676D02*
X125464286Y-117692914D01*
X125464286Y-117692914D02*
X125369048Y-117740533D01*
X126559524Y-117454819D02*
X126654762Y-117454819D01*
X126654762Y-117454819D02*
X126750000Y-117502438D01*
X126750000Y-117502438D02*
X126797619Y-117550057D01*
X126797619Y-117550057D02*
X126845238Y-117645295D01*
X126845238Y-117645295D02*
X126892857Y-117835771D01*
X126892857Y-117835771D02*
X126892857Y-118073866D01*
X126892857Y-118073866D02*
X126845238Y-118264342D01*
X126845238Y-118264342D02*
X126797619Y-118359580D01*
X126797619Y-118359580D02*
X126750000Y-118407200D01*
X126750000Y-118407200D02*
X126654762Y-118454819D01*
X126654762Y-118454819D02*
X126559524Y-118454819D01*
X126559524Y-118454819D02*
X126464286Y-118407200D01*
X126464286Y-118407200D02*
X126416667Y-118359580D01*
X126416667Y-118359580D02*
X126369048Y-118264342D01*
X126369048Y-118264342D02*
X126321429Y-118073866D01*
X126321429Y-118073866D02*
X126321429Y-117835771D01*
X126321429Y-117835771D02*
X126369048Y-117645295D01*
X126369048Y-117645295D02*
X126416667Y-117550057D01*
X126416667Y-117550057D02*
X126464286Y-117502438D01*
X126464286Y-117502438D02*
X126559524Y-117454819D01*
X135833333Y-29099580D02*
X135785714Y-29147200D01*
X135785714Y-29147200D02*
X135642857Y-29194819D01*
X135642857Y-29194819D02*
X135547619Y-29194819D01*
X135547619Y-29194819D02*
X135404762Y-29147200D01*
X135404762Y-29147200D02*
X135309524Y-29051961D01*
X135309524Y-29051961D02*
X135261905Y-28956723D01*
X135261905Y-28956723D02*
X135214286Y-28766247D01*
X135214286Y-28766247D02*
X135214286Y-28623390D01*
X135214286Y-28623390D02*
X135261905Y-28432914D01*
X135261905Y-28432914D02*
X135309524Y-28337676D01*
X135309524Y-28337676D02*
X135404762Y-28242438D01*
X135404762Y-28242438D02*
X135547619Y-28194819D01*
X135547619Y-28194819D02*
X135642857Y-28194819D01*
X135642857Y-28194819D02*
X135785714Y-28242438D01*
X135785714Y-28242438D02*
X135833333Y-28290057D01*
X136785714Y-29194819D02*
X136214286Y-29194819D01*
X136500000Y-29194819D02*
X136500000Y-28194819D01*
X136500000Y-28194819D02*
X136404762Y-28337676D01*
X136404762Y-28337676D02*
X136309524Y-28432914D01*
X136309524Y-28432914D02*
X136214286Y-28480533D01*
X89241666Y-86899819D02*
X89241666Y-87614104D01*
X89241666Y-87614104D02*
X89194047Y-87756961D01*
X89194047Y-87756961D02*
X89098809Y-87852200D01*
X89098809Y-87852200D02*
X88955952Y-87899819D01*
X88955952Y-87899819D02*
X88860714Y-87899819D01*
X90241666Y-87899819D02*
X89670238Y-87899819D01*
X89955952Y-87899819D02*
X89955952Y-86899819D01*
X89955952Y-86899819D02*
X89860714Y-87042676D01*
X89860714Y-87042676D02*
X89765476Y-87137914D01*
X89765476Y-87137914D02*
X89670238Y-87185533D01*
X142754819Y-57883333D02*
X143469104Y-57883333D01*
X143469104Y-57883333D02*
X143611961Y-57930952D01*
X143611961Y-57930952D02*
X143707200Y-58026190D01*
X143707200Y-58026190D02*
X143754819Y-58169047D01*
X143754819Y-58169047D02*
X143754819Y-58264285D01*
X143754819Y-57359523D02*
X143754819Y-57169047D01*
X143754819Y-57169047D02*
X143707200Y-57073809D01*
X143707200Y-57073809D02*
X143659580Y-57026190D01*
X143659580Y-57026190D02*
X143516723Y-56930952D01*
X143516723Y-56930952D02*
X143326247Y-56883333D01*
X143326247Y-56883333D02*
X142945295Y-56883333D01*
X142945295Y-56883333D02*
X142850057Y-56930952D01*
X142850057Y-56930952D02*
X142802438Y-56978571D01*
X142802438Y-56978571D02*
X142754819Y-57073809D01*
X142754819Y-57073809D02*
X142754819Y-57264285D01*
X142754819Y-57264285D02*
X142802438Y-57359523D01*
X142802438Y-57359523D02*
X142850057Y-57407142D01*
X142850057Y-57407142D02*
X142945295Y-57454761D01*
X142945295Y-57454761D02*
X143183390Y-57454761D01*
X143183390Y-57454761D02*
X143278628Y-57407142D01*
X143278628Y-57407142D02*
X143326247Y-57359523D01*
X143326247Y-57359523D02*
X143373866Y-57264285D01*
X143373866Y-57264285D02*
X143373866Y-57073809D01*
X143373866Y-57073809D02*
X143326247Y-56978571D01*
X143326247Y-56978571D02*
X143278628Y-56930952D01*
X143278628Y-56930952D02*
X143183390Y-56883333D01*
X134906666Y-87074819D02*
X134906666Y-87789104D01*
X134906666Y-87789104D02*
X134859047Y-87931961D01*
X134859047Y-87931961D02*
X134763809Y-88027200D01*
X134763809Y-88027200D02*
X134620952Y-88074819D01*
X134620952Y-88074819D02*
X134525714Y-88074819D01*
X135811428Y-87408152D02*
X135811428Y-88074819D01*
X135573333Y-87027200D02*
X135335238Y-87741485D01*
X135335238Y-87741485D02*
X135954285Y-87741485D01*
X76841666Y-39624819D02*
X76841666Y-40339104D01*
X76841666Y-40339104D02*
X76794047Y-40481961D01*
X76794047Y-40481961D02*
X76698809Y-40577200D01*
X76698809Y-40577200D02*
X76555952Y-40624819D01*
X76555952Y-40624819D02*
X76460714Y-40624819D01*
X77222619Y-39624819D02*
X77889285Y-39624819D01*
X77889285Y-39624819D02*
X77460714Y-40624819D01*
D12*
%TO.C,J2*%
X103435000Y-88445000D02*
X104815000Y-88445000D01*
X103435000Y-89825000D02*
X103435000Y-88445000D01*
X103435000Y-91095000D02*
X103435000Y-108985000D01*
X103435000Y-91095000D02*
X106195000Y-91095000D01*
X103435000Y-108985000D02*
X106195000Y-108985000D01*
X106195000Y-91095000D02*
X106195000Y-108985000D01*
%TO.C,J6*%
X106895000Y-27565000D02*
X108275000Y-27565000D01*
X106895000Y-28945000D02*
X106895000Y-27565000D01*
X106895000Y-30215000D02*
X106895000Y-35405000D01*
X106895000Y-30215000D02*
X109655000Y-30215000D01*
X106895000Y-35405000D02*
X109655000Y-35405000D01*
X109655000Y-30215000D02*
X109655000Y-35405000D01*
%TO.C,J11*%
X145520000Y-91780000D02*
X145520000Y-106720000D01*
X139900000Y-91780000D02*
X139900000Y-106720000D01*
X138280000Y-91780000D02*
X145520000Y-91780000D01*
X138280000Y-93700000D02*
X138280000Y-91780000D01*
X145520000Y-106720000D02*
X138280000Y-106720000D01*
X138280000Y-106720000D02*
X138280000Y-94300000D01*
X138280000Y-94000000D02*
X137670000Y-94440000D01*
X137670000Y-93560000D01*
X138280000Y-94000000D01*
G36*
X138280000Y-94000000D02*
G01*
X137670000Y-94440000D01*
X137670000Y-93560000D01*
X138280000Y-94000000D01*
G37*
%TO.C,J5*%
X93620000Y-28120000D02*
X95000000Y-28120000D01*
X93620000Y-29500000D02*
X93620000Y-28120000D01*
X93620000Y-30770000D02*
X93620000Y-35960000D01*
X93620000Y-30770000D02*
X96380000Y-30770000D01*
X93620000Y-35960000D02*
X96380000Y-35960000D01*
X96380000Y-30770000D02*
X96380000Y-35960000D01*
%TO.C,D1*%
X115580000Y-56375000D02*
X116600000Y-56375000D01*
X117380000Y-54905000D02*
X117380000Y-57845000D01*
X117500000Y-54905000D02*
X117500000Y-57845000D01*
X117620000Y-54905000D02*
X117620000Y-57845000D01*
X123060000Y-56375000D02*
X122040000Y-56375000D01*
X116600000Y-54905000D02*
X122040000Y-54905000D01*
X122040000Y-57845000D01*
X116600000Y-57845000D01*
X116600000Y-54905000D01*
%TO.C,J3*%
X118620000Y-88620000D02*
X120000000Y-88620000D01*
X118620000Y-90000000D02*
X118620000Y-88620000D01*
X118620000Y-91270000D02*
X118620000Y-109160000D01*
X118620000Y-91270000D02*
X121380000Y-91270000D01*
X118620000Y-109160000D02*
X121380000Y-109160000D01*
X121380000Y-91270000D02*
X121380000Y-109160000D01*
%TO.C,A1*%
X78035000Y-116995000D02*
X78515000Y-116995000D01*
X78035000Y-116995000D02*
X78035000Y-116575000D01*
X78035000Y-114455000D02*
X78035000Y-114035000D01*
X78035000Y-111915000D02*
X78035000Y-111495000D01*
X78035000Y-109375000D02*
X78035000Y-108955000D01*
X78035000Y-106835000D02*
X78035000Y-106415000D01*
X78035000Y-104295000D02*
X78035000Y-103875000D01*
X78035000Y-101755000D02*
X78035000Y-101335000D01*
X78035000Y-99215000D02*
X78035000Y-98795000D01*
X78035000Y-96675000D02*
X78035000Y-96255000D01*
X78035000Y-94135000D02*
X78035000Y-93715000D01*
X78035000Y-91595000D02*
X78035000Y-91175000D01*
X78035000Y-89055000D02*
X78035000Y-88635000D01*
X78035000Y-86515000D02*
X78035000Y-86095000D01*
X78035000Y-83975000D02*
X78035000Y-83555000D01*
X78035000Y-81435000D02*
X78035000Y-81015000D01*
X78035000Y-78895000D02*
X78035000Y-78475000D01*
X78035000Y-76355000D02*
X78035000Y-75935000D01*
X78035000Y-73815000D02*
X78035000Y-73395000D01*
X78035000Y-71275000D02*
X78035000Y-70855000D01*
X78004676Y-119115000D02*
X78515000Y-119115000D01*
X77695000Y-119114937D02*
X77695000Y-119472000D01*
X77695000Y-116995000D02*
X77695000Y-116575000D01*
X77695000Y-114455000D02*
X77695000Y-114035000D01*
X77695000Y-111915000D02*
X77695000Y-111495000D01*
X77695000Y-109375000D02*
X77695000Y-108955000D01*
X77695000Y-106835000D02*
X77695000Y-106415000D01*
X77695000Y-104295000D02*
X77695000Y-103875000D01*
X77695000Y-101755000D02*
X77695000Y-101335000D01*
X77695000Y-99215000D02*
X77695000Y-98795000D01*
X77695000Y-96675000D02*
X77695000Y-96255000D01*
X77695000Y-94135000D02*
X77695000Y-93715000D01*
X77695000Y-91595000D02*
X77695000Y-91175000D01*
X77695000Y-89055000D02*
X77695000Y-88635000D01*
X77695000Y-86515000D02*
X77695000Y-86095000D01*
X77695000Y-83975000D02*
X77695000Y-83555000D01*
X77695000Y-81435000D02*
X77695000Y-81015000D01*
X77695000Y-78895000D02*
X77695000Y-78475000D01*
X77695000Y-76355000D02*
X77695000Y-75935000D01*
X77695000Y-73815000D02*
X77695000Y-73395000D01*
X77695000Y-71275000D02*
X77695000Y-70855000D01*
X77695000Y-68735063D02*
X77695000Y-68378000D01*
X77425000Y-119535000D02*
X74935000Y-119535000D01*
X77425000Y-68315000D02*
X73587061Y-68315000D01*
X74935000Y-119535000D02*
X74935000Y-118621480D01*
X74935000Y-119535000D02*
X73587060Y-119535000D01*
X74935000Y-116228520D02*
X74935000Y-71621480D01*
X74935000Y-69228520D02*
X74935000Y-68315000D01*
X72662939Y-119535000D02*
X71660000Y-119535000D01*
X71660000Y-119535000D02*
X63190000Y-119535000D01*
X71325000Y-119535000D02*
X71325000Y-118619000D01*
X71325000Y-116231000D02*
X71325000Y-115015000D01*
X71325000Y-115015000D02*
X71028910Y-115015000D01*
X71025000Y-68315000D02*
X72662939Y-68315000D01*
X68671090Y-115015000D02*
X66178910Y-115015000D01*
X63825000Y-68315000D02*
X71025000Y-68315000D01*
X63821090Y-115015000D02*
X63525000Y-115015000D01*
X63525000Y-119535000D02*
X63525000Y-118619000D01*
X63525000Y-116231000D02*
X63525000Y-115015000D01*
X63190000Y-119535000D02*
X62187061Y-119535000D01*
X62187061Y-68315000D02*
X63825000Y-68315000D01*
X61262939Y-119535000D02*
X59915000Y-119535000D01*
X61262939Y-68315000D02*
X57425000Y-68315000D01*
X59915000Y-119535000D02*
X59915000Y-118621480D01*
X59915000Y-116228520D02*
X59915000Y-71621480D01*
X59915000Y-69228520D02*
X59915000Y-68315000D01*
X57425000Y-119535000D02*
X59915000Y-119535000D01*
X57155000Y-119114937D02*
X57155000Y-119472000D01*
X57155000Y-116995000D02*
X57155000Y-116575000D01*
X57155000Y-114455000D02*
X57155000Y-114035000D01*
X57155000Y-111915000D02*
X57155000Y-111495000D01*
X57155000Y-109375000D02*
X57155000Y-108955000D01*
X57155000Y-106835000D02*
X57155000Y-106415000D01*
X57155000Y-104295000D02*
X57155000Y-103875000D01*
X57155000Y-101755000D02*
X57155000Y-101335000D01*
X57155000Y-99215000D02*
X57155000Y-98795000D01*
X57155000Y-96675000D02*
X57155000Y-96255000D01*
X57155000Y-94135000D02*
X57155000Y-93715000D01*
X57155000Y-91595000D02*
X57155000Y-91175000D01*
X57155000Y-89055000D02*
X57155000Y-88635000D01*
X57155000Y-86515000D02*
X57155000Y-86095000D01*
X57155000Y-83975000D02*
X57155000Y-83555000D01*
X57155000Y-81435000D02*
X57155000Y-81015000D01*
X57155000Y-78895000D02*
X57155000Y-78475000D01*
X57155000Y-76355000D02*
X57155000Y-75935000D01*
X57155000Y-73815000D02*
X57155000Y-73395000D01*
X57155000Y-71275000D02*
X57155000Y-70855000D01*
X57155000Y-68735063D02*
X57155000Y-68378000D01*
X56815000Y-116995000D02*
X56815000Y-116575000D01*
X56815000Y-114455000D02*
X56815000Y-114035000D01*
X56815000Y-111915000D02*
X56815000Y-111495000D01*
X56815000Y-109375000D02*
X56815000Y-108955000D01*
X56815000Y-106835000D02*
X56815000Y-106415000D01*
X56815000Y-104295000D02*
X56815000Y-103875000D01*
X56815000Y-101755000D02*
X56815000Y-101335000D01*
X56815000Y-99215000D02*
X56815000Y-98795000D01*
X56815000Y-96675000D02*
X56815000Y-96255000D01*
X56815000Y-94135000D02*
X56815000Y-93715000D01*
X56815000Y-91595000D02*
X56815000Y-91175000D01*
X56815000Y-89055000D02*
X56815000Y-88635000D01*
X56815000Y-86515000D02*
X56815000Y-86095000D01*
X56815000Y-83975000D02*
X56815000Y-83555000D01*
X56815000Y-81435000D02*
X56815000Y-81015000D01*
X56815000Y-78895000D02*
X56815000Y-78475000D01*
X56815000Y-76355000D02*
X56815000Y-75935000D01*
X56815000Y-73815000D02*
X56815000Y-73395000D01*
X56815000Y-71275000D02*
X56815000Y-70855000D01*
X78004676Y-119115000D02*
G75*
G02*
X77425000Y-119535000I-579692J190051D01*
G01*
X77425000Y-68315000D02*
G75*
G02*
X78004676Y-68735063I-1J-610002D01*
G01*
X57425000Y-119535000D02*
G75*
G02*
X56845324Y-119114937I0J610000D01*
G01*
X56845324Y-68735063D02*
G75*
G02*
X57425000Y-68314931I579676J-189837D01*
G01*
%TO.C,C2*%
X131340302Y-45010000D02*
X132140302Y-45010000D01*
X131740302Y-44610000D02*
X131740302Y-45410000D01*
X135750000Y-43245000D02*
X135750000Y-51405000D01*
X135790000Y-43245000D02*
X135790000Y-51405000D01*
X135830000Y-43246000D02*
X135830000Y-51404000D01*
X135870000Y-43247000D02*
X135870000Y-51403000D01*
X135910000Y-43248000D02*
X135910000Y-51402000D01*
X135950000Y-43250000D02*
X135950000Y-51400000D01*
X135990000Y-43252000D02*
X135990000Y-51398000D01*
X136030000Y-43255000D02*
X136030000Y-51395000D01*
X136070000Y-43257000D02*
X136070000Y-51393000D01*
X136110000Y-43261000D02*
X136110000Y-51389000D01*
X136150000Y-43264000D02*
X136150000Y-51386000D01*
X136190000Y-43269000D02*
X136190000Y-51381000D01*
X136230000Y-43273000D02*
X136230000Y-51377000D01*
X136270000Y-43278000D02*
X136270000Y-51372000D01*
X136310000Y-43283000D02*
X136310000Y-51367000D01*
X136350000Y-43289000D02*
X136350000Y-51361000D01*
X136390000Y-43295000D02*
X136390000Y-51355000D01*
X136430000Y-43302000D02*
X136430000Y-51348000D01*
X136470000Y-43308000D02*
X136470000Y-46285000D01*
X136470000Y-48365000D02*
X136470000Y-51342000D01*
X136510000Y-43316000D02*
X136510000Y-46285000D01*
X136510000Y-48365000D02*
X136510000Y-51334000D01*
X136550000Y-43323000D02*
X136550000Y-46285000D01*
X136550000Y-48365000D02*
X136550000Y-51327000D01*
X136590000Y-43332000D02*
X136590000Y-46285000D01*
X136590000Y-48365000D02*
X136590000Y-51318000D01*
X136630000Y-43340000D02*
X136630000Y-46285000D01*
X136630000Y-48365000D02*
X136630000Y-51310000D01*
X136670000Y-43349000D02*
X136670000Y-46285000D01*
X136670000Y-48365000D02*
X136670000Y-51301000D01*
X136710000Y-43358000D02*
X136710000Y-46285000D01*
X136710000Y-48365000D02*
X136710000Y-51292000D01*
X136750000Y-43368000D02*
X136750000Y-46285000D01*
X136750000Y-48365000D02*
X136750000Y-51282000D01*
X136790000Y-43378000D02*
X136790000Y-46285000D01*
X136790000Y-48365000D02*
X136790000Y-51272000D01*
X136830000Y-43389000D02*
X136830000Y-46285000D01*
X136830000Y-48365000D02*
X136830000Y-51261000D01*
X136870000Y-43400000D02*
X136870000Y-46285000D01*
X136870000Y-48365000D02*
X136870000Y-51250000D01*
X136910000Y-43412000D02*
X136910000Y-46285000D01*
X136910000Y-48365000D02*
X136910000Y-51238000D01*
X136950000Y-43424000D02*
X136950000Y-46285000D01*
X136950000Y-48365000D02*
X136950000Y-51226000D01*
X136990000Y-43436000D02*
X136990000Y-46285000D01*
X136990000Y-48365000D02*
X136990000Y-51214000D01*
X137030000Y-43449000D02*
X137030000Y-46285000D01*
X137030000Y-48365000D02*
X137030000Y-51201000D01*
X137070000Y-43462000D02*
X137070000Y-46285000D01*
X137070000Y-48365000D02*
X137070000Y-51188000D01*
X137110000Y-43476000D02*
X137110000Y-46285000D01*
X137110000Y-48365000D02*
X137110000Y-51174000D01*
X137150000Y-43490000D02*
X137150000Y-46285000D01*
X137150000Y-48365000D02*
X137150000Y-51160000D01*
X137190000Y-43505000D02*
X137190000Y-46285000D01*
X137190000Y-48365000D02*
X137190000Y-51145000D01*
X137230000Y-43520000D02*
X137230000Y-46285000D01*
X137230000Y-48365000D02*
X137230000Y-51130000D01*
X137270000Y-43536000D02*
X137270000Y-46285000D01*
X137270000Y-48365000D02*
X137270000Y-51114000D01*
X137310000Y-43552000D02*
X137310000Y-46285000D01*
X137310000Y-48365000D02*
X137310000Y-51098000D01*
X137350000Y-43568000D02*
X137350000Y-46285000D01*
X137350000Y-48365000D02*
X137350000Y-51082000D01*
X137390000Y-43585000D02*
X137390000Y-46285000D01*
X137390000Y-48365000D02*
X137390000Y-51065000D01*
X137430000Y-43603000D02*
X137430000Y-46285000D01*
X137430000Y-48365000D02*
X137430000Y-51047000D01*
X137470000Y-43621000D02*
X137470000Y-46285000D01*
X137470000Y-48365000D02*
X137470000Y-51029000D01*
X137510000Y-43640000D02*
X137510000Y-46285000D01*
X137510000Y-48365000D02*
X137510000Y-51010000D01*
X137550000Y-43659000D02*
X137550000Y-46285000D01*
X137550000Y-48365000D02*
X137550000Y-50991000D01*
X137590000Y-43679000D02*
X137590000Y-46285000D01*
X137590000Y-48365000D02*
X137590000Y-50971000D01*
X137630000Y-43699000D02*
X137630000Y-46285000D01*
X137630000Y-48365000D02*
X137630000Y-50951000D01*
X137670000Y-43720000D02*
X137670000Y-46285000D01*
X137670000Y-48365000D02*
X137670000Y-50930000D01*
X137710000Y-43741000D02*
X137710000Y-46285000D01*
X137710000Y-48365000D02*
X137710000Y-50909000D01*
X137750000Y-43763000D02*
X137750000Y-46285000D01*
X137750000Y-48365000D02*
X137750000Y-50887000D01*
X137790000Y-43786000D02*
X137790000Y-46285000D01*
X137790000Y-48365000D02*
X137790000Y-50864000D01*
X137830000Y-43809000D02*
X137830000Y-46285000D01*
X137830000Y-48365000D02*
X137830000Y-50841000D01*
X137870000Y-43832000D02*
X137870000Y-46285000D01*
X137870000Y-48365000D02*
X137870000Y-50818000D01*
X137910000Y-43857000D02*
X137910000Y-46285000D01*
X137910000Y-48365000D02*
X137910000Y-50793000D01*
X137950000Y-43882000D02*
X137950000Y-46285000D01*
X137950000Y-48365000D02*
X137950000Y-50768000D01*
X137990000Y-43907000D02*
X137990000Y-46285000D01*
X137990000Y-48365000D02*
X137990000Y-50743000D01*
X138030000Y-43933000D02*
X138030000Y-46285000D01*
X138030000Y-48365000D02*
X138030000Y-50717000D01*
X138070000Y-43960000D02*
X138070000Y-46285000D01*
X138070000Y-48365000D02*
X138070000Y-50690000D01*
X138110000Y-43988000D02*
X138110000Y-46285000D01*
X138110000Y-48365000D02*
X138110000Y-50662000D01*
X138150000Y-44016000D02*
X138150000Y-46285000D01*
X138150000Y-48365000D02*
X138150000Y-50634000D01*
X138190000Y-44045000D02*
X138190000Y-46285000D01*
X138190000Y-48365000D02*
X138190000Y-50605000D01*
X138230000Y-44075000D02*
X138230000Y-46285000D01*
X138230000Y-48365000D02*
X138230000Y-50575000D01*
X138270000Y-44106000D02*
X138270000Y-46285000D01*
X138270000Y-48365000D02*
X138270000Y-50544000D01*
X138310000Y-44137000D02*
X138310000Y-46285000D01*
X138310000Y-48365000D02*
X138310000Y-50513000D01*
X138350000Y-44169000D02*
X138350000Y-46285000D01*
X138350000Y-48365000D02*
X138350000Y-50481000D01*
X138390000Y-44202000D02*
X138390000Y-46285000D01*
X138390000Y-48365000D02*
X138390000Y-50448000D01*
X138430000Y-44236000D02*
X138430000Y-46285000D01*
X138430000Y-48365000D02*
X138430000Y-50414000D01*
X138470000Y-44270000D02*
X138470000Y-46285000D01*
X138470000Y-48365000D02*
X138470000Y-50380000D01*
X138510000Y-44306000D02*
X138510000Y-46285000D01*
X138510000Y-48365000D02*
X138510000Y-50344000D01*
X138550000Y-44343000D02*
X138550000Y-50307000D01*
X138590000Y-44380000D02*
X138590000Y-50270000D01*
X138630000Y-44419000D02*
X138630000Y-50231000D01*
X138670000Y-44458000D02*
X138670000Y-50192000D01*
X138710000Y-44499000D02*
X138710000Y-50151000D01*
X138750000Y-44541000D02*
X138750000Y-50109000D01*
X138790000Y-44584000D02*
X138790000Y-50066000D01*
X138830000Y-44629000D02*
X138830000Y-50021000D01*
X138870000Y-44674000D02*
X138870000Y-49976000D01*
X138910000Y-44721000D02*
X138910000Y-49929000D01*
X138950000Y-44770000D02*
X138950000Y-49880000D01*
X138990000Y-44820000D02*
X138990000Y-49830000D01*
X139030000Y-44872000D02*
X139030000Y-49778000D01*
X139070000Y-44925000D02*
X139070000Y-49725000D01*
X139110000Y-44981000D02*
X139110000Y-49669000D01*
X139150000Y-45038000D02*
X139150000Y-49612000D01*
X139190000Y-45098000D02*
X139190000Y-49552000D01*
X139230000Y-45160000D02*
X139230000Y-49490000D01*
X139270000Y-45224000D02*
X139270000Y-49426000D01*
X139310000Y-45291000D02*
X139310000Y-49359000D01*
X139350000Y-45361000D02*
X139350000Y-49289000D01*
X139390000Y-45435000D02*
X139390000Y-49215000D01*
X139430000Y-45512000D02*
X139430000Y-49138000D01*
X139470000Y-45594000D02*
X139470000Y-49056000D01*
X139510000Y-45681000D02*
X139510000Y-48969000D01*
X139550000Y-45773000D02*
X139550000Y-48877000D01*
X139590000Y-45872000D02*
X139590000Y-48778000D01*
X139630000Y-45979000D02*
X139630000Y-48671000D01*
X139670000Y-46097000D02*
X139670000Y-48553000D01*
X139710000Y-46228000D02*
X139710000Y-48422000D01*
X139750000Y-46378000D02*
X139750000Y-48272000D01*
X139790000Y-46557000D02*
X139790000Y-48093000D01*
X139830000Y-46792000D02*
X139830000Y-47858000D01*
X139870000Y-47325000D02*
G75*
G02*
X131630000Y-47325000I-4120000J0D01*
G01*
X131630000Y-47325000D02*
G75*
G02*
X139870000Y-47325000I4120000J0D01*
G01*
%TO.C,D2*%
X97380000Y-55725000D02*
X98400000Y-55725000D01*
X99180000Y-54255000D02*
X99180000Y-57195000D01*
X99300000Y-54255000D02*
X99300000Y-57195000D01*
X99420000Y-54255000D02*
X99420000Y-57195000D01*
X104860000Y-55725000D02*
X103840000Y-55725000D01*
X98400000Y-54255000D02*
X103840000Y-54255000D01*
X103840000Y-57195000D01*
X98400000Y-57195000D01*
X98400000Y-54255000D01*
%TO.C,J8*%
X83527500Y-70270000D02*
X83527500Y-60030000D01*
X86547500Y-70270000D02*
X86547500Y-60030000D01*
X91447500Y-70270000D02*
X91447500Y-60030000D01*
X92947500Y-70270000D02*
X92947500Y-60030000D01*
X93567500Y-70270000D02*
X83527500Y-70270000D01*
X93567500Y-67950000D02*
X93567500Y-70270000D01*
X83527500Y-60030000D02*
X93567500Y-60030000D01*
X93567500Y-60030000D02*
X93567500Y-67350000D01*
X94177500Y-68090000D02*
X93567500Y-67650000D01*
X94177500Y-67210000D01*
X94177500Y-68090000D01*
G36*
X94177500Y-68090000D02*
G01*
X93567500Y-67650000D01*
X94177500Y-67210000D01*
X94177500Y-68090000D01*
G37*
%TO.C,J10*%
X133220000Y-119520000D02*
X118280000Y-119520000D01*
X133220000Y-113900000D02*
X118280000Y-113900000D01*
X133220000Y-112280000D02*
X133220000Y-119520000D01*
X131300000Y-112280000D02*
X133220000Y-112280000D01*
X118280000Y-119520000D02*
X118280000Y-112280000D01*
X118280000Y-112280000D02*
X130700000Y-112280000D01*
X131000000Y-112280000D02*
X130560000Y-111670000D01*
X131440000Y-111670000D01*
X131000000Y-112280000D01*
G36*
X131000000Y-112280000D02*
G01*
X130560000Y-111670000D01*
X131440000Y-111670000D01*
X131000000Y-112280000D01*
G37*
%TO.C,C1*%
X131590302Y-31675000D02*
X132390302Y-31675000D01*
X131990302Y-31275000D02*
X131990302Y-32075000D01*
X136000000Y-29910000D02*
X136000000Y-38070000D01*
X136040000Y-29910000D02*
X136040000Y-38070000D01*
X136080000Y-29911000D02*
X136080000Y-38069000D01*
X136120000Y-29912000D02*
X136120000Y-38068000D01*
X136160000Y-29913000D02*
X136160000Y-38067000D01*
X136200000Y-29915000D02*
X136200000Y-38065000D01*
X136240000Y-29917000D02*
X136240000Y-38063000D01*
X136280000Y-29920000D02*
X136280000Y-38060000D01*
X136320000Y-29922000D02*
X136320000Y-38058000D01*
X136360000Y-29926000D02*
X136360000Y-38054000D01*
X136400000Y-29929000D02*
X136400000Y-38051000D01*
X136440000Y-29934000D02*
X136440000Y-38046000D01*
X136480000Y-29938000D02*
X136480000Y-38042000D01*
X136520000Y-29943000D02*
X136520000Y-38037000D01*
X136560000Y-29948000D02*
X136560000Y-38032000D01*
X136600000Y-29954000D02*
X136600000Y-38026000D01*
X136640000Y-29960000D02*
X136640000Y-38020000D01*
X136680000Y-29967000D02*
X136680000Y-38013000D01*
X136720000Y-29973000D02*
X136720000Y-32950000D01*
X136720000Y-35030000D02*
X136720000Y-38007000D01*
X136760000Y-29981000D02*
X136760000Y-32950000D01*
X136760000Y-35030000D02*
X136760000Y-37999000D01*
X136800000Y-29988000D02*
X136800000Y-32950000D01*
X136800000Y-35030000D02*
X136800000Y-37992000D01*
X136840000Y-29997000D02*
X136840000Y-32950000D01*
X136840000Y-35030000D02*
X136840000Y-37983000D01*
X136880000Y-30005000D02*
X136880000Y-32950000D01*
X136880000Y-35030000D02*
X136880000Y-37975000D01*
X136920000Y-30014000D02*
X136920000Y-32950000D01*
X136920000Y-35030000D02*
X136920000Y-37966000D01*
X136960000Y-30023000D02*
X136960000Y-32950000D01*
X136960000Y-35030000D02*
X136960000Y-37957000D01*
X137000000Y-30033000D02*
X137000000Y-32950000D01*
X137000000Y-35030000D02*
X137000000Y-37947000D01*
X137040000Y-30043000D02*
X137040000Y-32950000D01*
X137040000Y-35030000D02*
X137040000Y-37937000D01*
X137080000Y-30054000D02*
X137080000Y-32950000D01*
X137080000Y-35030000D02*
X137080000Y-37926000D01*
X137120000Y-30065000D02*
X137120000Y-32950000D01*
X137120000Y-35030000D02*
X137120000Y-37915000D01*
X137160000Y-30077000D02*
X137160000Y-32950000D01*
X137160000Y-35030000D02*
X137160000Y-37903000D01*
X137200000Y-30089000D02*
X137200000Y-32950000D01*
X137200000Y-35030000D02*
X137200000Y-37891000D01*
X137240000Y-30101000D02*
X137240000Y-32950000D01*
X137240000Y-35030000D02*
X137240000Y-37879000D01*
X137280000Y-30114000D02*
X137280000Y-32950000D01*
X137280000Y-35030000D02*
X137280000Y-37866000D01*
X137320000Y-30127000D02*
X137320000Y-32950000D01*
X137320000Y-35030000D02*
X137320000Y-37853000D01*
X137360000Y-30141000D02*
X137360000Y-32950000D01*
X137360000Y-35030000D02*
X137360000Y-37839000D01*
X137400000Y-30155000D02*
X137400000Y-32950000D01*
X137400000Y-35030000D02*
X137400000Y-37825000D01*
X137440000Y-30170000D02*
X137440000Y-32950000D01*
X137440000Y-35030000D02*
X137440000Y-37810000D01*
X137480000Y-30185000D02*
X137480000Y-32950000D01*
X137480000Y-35030000D02*
X137480000Y-37795000D01*
X137520000Y-30201000D02*
X137520000Y-32950000D01*
X137520000Y-35030000D02*
X137520000Y-37779000D01*
X137560000Y-30217000D02*
X137560000Y-32950000D01*
X137560000Y-35030000D02*
X137560000Y-37763000D01*
X137600000Y-30233000D02*
X137600000Y-32950000D01*
X137600000Y-35030000D02*
X137600000Y-37747000D01*
X137640000Y-30250000D02*
X137640000Y-32950000D01*
X137640000Y-35030000D02*
X137640000Y-37730000D01*
X137680000Y-30268000D02*
X137680000Y-32950000D01*
X137680000Y-35030000D02*
X137680000Y-37712000D01*
X137720000Y-30286000D02*
X137720000Y-32950000D01*
X137720000Y-35030000D02*
X137720000Y-37694000D01*
X137760000Y-30305000D02*
X137760000Y-32950000D01*
X137760000Y-35030000D02*
X137760000Y-37675000D01*
X137800000Y-30324000D02*
X137800000Y-32950000D01*
X137800000Y-35030000D02*
X137800000Y-37656000D01*
X137840000Y-30344000D02*
X137840000Y-32950000D01*
X137840000Y-35030000D02*
X137840000Y-37636000D01*
X137880000Y-30364000D02*
X137880000Y-32950000D01*
X137880000Y-35030000D02*
X137880000Y-37616000D01*
X137920000Y-30385000D02*
X137920000Y-32950000D01*
X137920000Y-35030000D02*
X137920000Y-37595000D01*
X137960000Y-30406000D02*
X137960000Y-32950000D01*
X137960000Y-35030000D02*
X137960000Y-37574000D01*
X138000000Y-30428000D02*
X138000000Y-32950000D01*
X138000000Y-35030000D02*
X138000000Y-37552000D01*
X138040000Y-30451000D02*
X138040000Y-32950000D01*
X138040000Y-35030000D02*
X138040000Y-37529000D01*
X138080000Y-30474000D02*
X138080000Y-32950000D01*
X138080000Y-35030000D02*
X138080000Y-37506000D01*
X138120000Y-30497000D02*
X138120000Y-32950000D01*
X138120000Y-35030000D02*
X138120000Y-37483000D01*
X138160000Y-30522000D02*
X138160000Y-32950000D01*
X138160000Y-35030000D02*
X138160000Y-37458000D01*
X138200000Y-30547000D02*
X138200000Y-32950000D01*
X138200000Y-35030000D02*
X138200000Y-37433000D01*
X138240000Y-30572000D02*
X138240000Y-32950000D01*
X138240000Y-35030000D02*
X138240000Y-37408000D01*
X138280000Y-30598000D02*
X138280000Y-32950000D01*
X138280000Y-35030000D02*
X138280000Y-37382000D01*
X138320000Y-30625000D02*
X138320000Y-32950000D01*
X138320000Y-35030000D02*
X138320000Y-37355000D01*
X138360000Y-30653000D02*
X138360000Y-32950000D01*
X138360000Y-35030000D02*
X138360000Y-37327000D01*
X138400000Y-30681000D02*
X138400000Y-32950000D01*
X138400000Y-35030000D02*
X138400000Y-37299000D01*
X138440000Y-30710000D02*
X138440000Y-32950000D01*
X138440000Y-35030000D02*
X138440000Y-37270000D01*
X138480000Y-30740000D02*
X138480000Y-32950000D01*
X138480000Y-35030000D02*
X138480000Y-37240000D01*
X138520000Y-30771000D02*
X138520000Y-32950000D01*
X138520000Y-35030000D02*
X138520000Y-37209000D01*
X138560000Y-30802000D02*
X138560000Y-32950000D01*
X138560000Y-35030000D02*
X138560000Y-37178000D01*
X138600000Y-30834000D02*
X138600000Y-32950000D01*
X138600000Y-35030000D02*
X138600000Y-37146000D01*
X138640000Y-30867000D02*
X138640000Y-32950000D01*
X138640000Y-35030000D02*
X138640000Y-37113000D01*
X138680000Y-30901000D02*
X138680000Y-32950000D01*
X138680000Y-35030000D02*
X138680000Y-37079000D01*
X138720000Y-30935000D02*
X138720000Y-32950000D01*
X138720000Y-35030000D02*
X138720000Y-37045000D01*
X138760000Y-30971000D02*
X138760000Y-32950000D01*
X138760000Y-35030000D02*
X138760000Y-37009000D01*
X138800000Y-31008000D02*
X138800000Y-36972000D01*
X138840000Y-31045000D02*
X138840000Y-36935000D01*
X138880000Y-31084000D02*
X138880000Y-36896000D01*
X138920000Y-31123000D02*
X138920000Y-36857000D01*
X138960000Y-31164000D02*
X138960000Y-36816000D01*
X139000000Y-31206000D02*
X139000000Y-36774000D01*
X139040000Y-31249000D02*
X139040000Y-36731000D01*
X139080000Y-31294000D02*
X139080000Y-36686000D01*
X139120000Y-31339000D02*
X139120000Y-36641000D01*
X139160000Y-31386000D02*
X139160000Y-36594000D01*
X139200000Y-31435000D02*
X139200000Y-36545000D01*
X139240000Y-31485000D02*
X139240000Y-36495000D01*
X139280000Y-31537000D02*
X139280000Y-36443000D01*
X139320000Y-31590000D02*
X139320000Y-36390000D01*
X139360000Y-31646000D02*
X139360000Y-36334000D01*
X139400000Y-31703000D02*
X139400000Y-36277000D01*
X139440000Y-31763000D02*
X139440000Y-36217000D01*
X139480000Y-31825000D02*
X139480000Y-36155000D01*
X139520000Y-31889000D02*
X139520000Y-36091000D01*
X139560000Y-31956000D02*
X139560000Y-36024000D01*
X139600000Y-32026000D02*
X139600000Y-35954000D01*
X139640000Y-32100000D02*
X139640000Y-35880000D01*
X139680000Y-32177000D02*
X139680000Y-35803000D01*
X139720000Y-32259000D02*
X139720000Y-35721000D01*
X139760000Y-32346000D02*
X139760000Y-35634000D01*
X139800000Y-32438000D02*
X139800000Y-35542000D01*
X139840000Y-32537000D02*
X139840000Y-35443000D01*
X139880000Y-32644000D02*
X139880000Y-35336000D01*
X139920000Y-32762000D02*
X139920000Y-35218000D01*
X139960000Y-32893000D02*
X139960000Y-35087000D01*
X140000000Y-33043000D02*
X140000000Y-34937000D01*
X140040000Y-33222000D02*
X140040000Y-34758000D01*
X140080000Y-33457000D02*
X140080000Y-34523000D01*
X140120000Y-33990000D02*
G75*
G02*
X131880000Y-33990000I-4120000J0D01*
G01*
X131880000Y-33990000D02*
G75*
G02*
X140120000Y-33990000I4120000J0D01*
G01*
%TO.C,J1*%
X88195000Y-88445000D02*
X89575000Y-88445000D01*
X88195000Y-89825000D02*
X88195000Y-88445000D01*
X88195000Y-91095000D02*
X88195000Y-108985000D01*
X88195000Y-91095000D02*
X90955000Y-91095000D01*
X88195000Y-108985000D02*
X90955000Y-108985000D01*
X90955000Y-91095000D02*
X90955000Y-108985000D01*
%TO.C,J9*%
X144145000Y-58730000D02*
X144145000Y-68970000D01*
X141125000Y-58730000D02*
X141125000Y-68970000D01*
X136225000Y-58730000D02*
X136225000Y-68970000D01*
X134725000Y-58730000D02*
X134725000Y-68970000D01*
X134105000Y-58730000D02*
X144145000Y-58730000D01*
X134105000Y-61050000D02*
X134105000Y-58730000D01*
X144145000Y-68970000D02*
X134105000Y-68970000D01*
X134105000Y-68970000D02*
X134105000Y-61650000D01*
X134105000Y-61350000D02*
X133495000Y-61790000D01*
X133495000Y-60910000D01*
X134105000Y-61350000D01*
G36*
X134105000Y-61350000D02*
G01*
X133495000Y-61790000D01*
X133495000Y-60910000D01*
X134105000Y-61350000D01*
G37*
%TO.C,J4*%
X133860000Y-88620000D02*
X135240000Y-88620000D01*
X133860000Y-90000000D02*
X133860000Y-88620000D01*
X133860000Y-91270000D02*
X133860000Y-109160000D01*
X133860000Y-91270000D02*
X136620000Y-91270000D01*
X133860000Y-109160000D02*
X136620000Y-109160000D01*
X136620000Y-91270000D02*
X136620000Y-109160000D01*
%TO.C,J7*%
X82295000Y-39170000D02*
X72055000Y-39170000D01*
X82295000Y-36150000D02*
X72055000Y-36150000D01*
X82295000Y-31250000D02*
X72055000Y-31250000D01*
X82295000Y-29750000D02*
X72055000Y-29750000D01*
X82295000Y-29130000D02*
X82295000Y-39170000D01*
X79975000Y-29130000D02*
X82295000Y-29130000D01*
X72055000Y-39170000D02*
X72055000Y-29130000D01*
X72055000Y-29130000D02*
X79375000Y-29130000D01*
X79675000Y-29130000D02*
X79235000Y-28520000D01*
X80115000Y-28520000D01*
X79675000Y-29130000D01*
G36*
X79675000Y-29130000D02*
G01*
X79235000Y-28520000D01*
X80115000Y-28520000D01*
X79675000Y-29130000D01*
G37*
%TD*%
M02*
