%TF.GenerationSoftware,KiCad,Pcbnew,9.0.6*%
%TF.CreationDate,2026-05-29T12:26:48-07:00*%
%TF.ProjectId,juggling_machine_pcb,6a756767-6c69-46e6-975f-6d616368696e,rev?*%
%TF.SameCoordinates,Original*%
%TF.FileFunction,Copper,L2,Bot*%
%TF.FilePolarity,Positive*%
%FSLAX46Y46*%
G04 Gerber Fmt 4.6, Leading zero omitted, Abs format (unit mm)*
G04 Created by KiCad (PCBNEW 9.0.6) date 2026-05-29 12:26:48*
%MOMM*%
%LPD*%
G01*
G04 APERTURE LIST*
G04 Aperture macros list*
%AMRoundRect*
0 Rectangle with rounded corners*
0 $1 Rounding radius*
0 $2 $3 $4 $5 $6 $7 $8 $9 X,Y pos of 4 corners*
0 Add a 4 corners polygon primitive as box body*
4,1,4,$2,$3,$4,$5,$6,$7,$8,$9,$2,$3,0*
0 Add four circle primitives for the rounded corners*
1,1,$1+$1,$2,$3*
1,1,$1+$1,$4,$5*
1,1,$1+$1,$6,$7*
1,1,$1+$1,$8,$9*
0 Add four rect primitives between the rounded corners*
20,1,$1+$1,$2,$3,$4,$5,0*
20,1,$1+$1,$4,$5,$6,$7,0*
20,1,$1+$1,$6,$7,$8,$9,0*
20,1,$1+$1,$8,$9,$2,$3,0*%
%AMFreePoly0*
4,1,37,0.603843,0.796157,0.639018,0.796157,0.711114,0.766294,0.766294,0.711114,0.796157,0.639018,0.796157,0.603843,0.800000,0.600000,0.800000,-0.600000,0.796157,-0.603843,0.796157,-0.639018,0.766294,-0.711114,0.711114,-0.766294,0.639018,-0.796157,0.603843,-0.796157,0.600000,-0.800000,0.000000,-0.800000,0.000000,-0.796148,-0.078414,-0.796148,-0.232228,-0.765552,-0.377117,-0.705537,
-0.507515,-0.618408,-0.618408,-0.507515,-0.705537,-0.377117,-0.765552,-0.232228,-0.796148,-0.078414,-0.796148,0.078414,-0.765552,0.232228,-0.705537,0.377117,-0.618408,0.507515,-0.507515,0.618408,-0.377117,0.705537,-0.232228,0.765552,-0.078414,0.796148,0.000000,0.796148,0.000000,0.800000,0.600000,0.800000,0.603843,0.796157,0.603843,0.796157,$1*%
%AMFreePoly1*
4,1,37,0.000000,0.796148,0.078414,0.796148,0.232228,0.765552,0.377117,0.705537,0.507515,0.618408,0.618408,0.507515,0.705537,0.377117,0.765552,0.232228,0.796148,0.078414,0.796148,-0.078414,0.765552,-0.232228,0.705537,-0.377117,0.618408,-0.507515,0.507515,-0.618408,0.377117,-0.705537,0.232228,-0.765552,0.078414,-0.796148,0.000000,-0.796148,0.000000,-0.800000,-0.600000,-0.800000,
-0.603843,-0.796157,-0.639018,-0.796157,-0.711114,-0.766294,-0.766294,-0.711114,-0.796157,-0.639018,-0.796157,-0.603843,-0.800000,-0.600000,-0.800000,0.600000,-0.796157,0.603843,-0.796157,0.639018,-0.766294,0.711114,-0.711114,0.766294,-0.639018,0.796157,-0.603843,0.796157,-0.600000,0.800000,0.000000,0.800000,0.000000,0.796148,0.000000,0.796148,$1*%
G04 Aperture macros list end*
%TA.AperFunction,ComponentPad*%
%ADD10R,1.700000X1.700000*%
%TD*%
%TA.AperFunction,ComponentPad*%
%ADD11C,1.700000*%
%TD*%
%TA.AperFunction,ComponentPad*%
%ADD12RoundRect,0.250001X-0.949999X0.949999X-0.949999X-0.949999X0.949999X-0.949999X0.949999X0.949999X0*%
%TD*%
%TA.AperFunction,ComponentPad*%
%ADD13C,2.400000*%
%TD*%
%TA.AperFunction,ComponentPad*%
%ADD14RoundRect,0.249999X-0.850001X-0.850001X0.850001X-0.850001X0.850001X0.850001X-0.850001X0.850001X0*%
%TD*%
%TA.AperFunction,ComponentPad*%
%ADD15C,2.200000*%
%TD*%
%TA.AperFunction,ComponentPad*%
%ADD16RoundRect,0.200000X0.600000X0.600000X-0.600000X0.600000X-0.600000X-0.600000X0.600000X-0.600000X0*%
%TD*%
%TA.AperFunction,ComponentPad*%
%ADD17C,1.600000*%
%TD*%
%TA.AperFunction,ComponentPad*%
%ADD18FreePoly0,180.000000*%
%TD*%
%TA.AperFunction,ComponentPad*%
%ADD19FreePoly1,180.000000*%
%TD*%
%TA.AperFunction,ComponentPad*%
%ADD20RoundRect,0.250000X-0.550000X-0.550000X0.550000X-0.550000X0.550000X0.550000X-0.550000X0.550000X0*%
%TD*%
%TA.AperFunction,ComponentPad*%
%ADD21RoundRect,0.250000X1.050000X-1.050000X1.050000X1.050000X-1.050000X1.050000X-1.050000X-1.050000X0*%
%TD*%
%TA.AperFunction,ComponentPad*%
%ADD22C,2.600000*%
%TD*%
%TA.AperFunction,ComponentPad*%
%ADD23RoundRect,0.250001X0.949999X0.949999X-0.949999X0.949999X-0.949999X-0.949999X0.949999X-0.949999X0*%
%TD*%
%TA.AperFunction,ComponentPad*%
%ADD24RoundRect,0.250000X-1.050000X1.050000X-1.050000X-1.050000X1.050000X-1.050000X1.050000X1.050000X0*%
%TD*%
%TA.AperFunction,ComponentPad*%
%ADD25RoundRect,0.250000X1.050000X1.050000X-1.050000X1.050000X-1.050000X-1.050000X1.050000X-1.050000X0*%
%TD*%
%TA.AperFunction,ViaPad*%
%ADD26C,0.600000*%
%TD*%
%TA.AperFunction,Conductor*%
%ADD27C,0.200000*%
%TD*%
%TA.AperFunction,Conductor*%
%ADD28C,0.500000*%
%TD*%
G04 APERTURE END LIST*
D10*
%TO.P,J2,1,Pin_1*%
%TO.N,+24V*%
X104815000Y-89825000D03*
D11*
%TO.P,J2,2,Pin_2*%
%TO.N,GND*%
X104815000Y-92365000D03*
%TO.P,J2,3,Pin_3*%
%TO.N,Net-(J10-Pin_1)*%
X104815000Y-94905000D03*
%TO.P,J2,4,Pin_4*%
%TO.N,Net-(J10-Pin_2)*%
X104815000Y-97445000D03*
%TO.P,J2,5,Pin_5*%
%TO.N,Net-(J10-Pin_3)*%
X104815000Y-99985000D03*
%TO.P,J2,6,Pin_6*%
%TO.N,Net-(J10-Pin_4)*%
X104815000Y-102525000D03*
%TO.P,J2,7,Pin_7*%
%TO.N,unconnected-(J2-Pin_7-Pad7)*%
X104815000Y-105065000D03*
%TO.P,J2,8,Pin_8*%
%TO.N,GND*%
X104815000Y-107605000D03*
%TD*%
D10*
%TO.P,J6,1,Pin_1*%
%TO.N,Net-(A1-GPIO21)*%
X108275000Y-28945000D03*
D11*
%TO.P,J6,2,Pin_2*%
%TO.N,+5V*%
X108275000Y-31485000D03*
%TO.P,J6,3,Pin_3*%
%TO.N,GND*%
X108275000Y-34025000D03*
%TD*%
D12*
%TO.P,J11,1,Pin_1*%
%TO.N,Net-(J11-Pin_1)*%
X142000000Y-94000000D03*
D13*
%TO.P,J11,2,Pin_2*%
%TO.N,Net-(J11-Pin_2)*%
X142000000Y-97500000D03*
%TO.P,J11,3,Pin_3*%
%TO.N,Net-(J11-Pin_3)*%
X142000000Y-101000000D03*
%TO.P,J11,4,Pin_4*%
%TO.N,Net-(J11-Pin_4)*%
X142000000Y-104500000D03*
%TD*%
D10*
%TO.P,J5,1,Pin_1*%
%TO.N,Net-(A1-GPIO22)*%
X95000000Y-29500000D03*
D11*
%TO.P,J5,2,Pin_2*%
%TO.N,+5V*%
X95000000Y-32040000D03*
%TO.P,J5,3,Pin_3*%
%TO.N,GND*%
X95000000Y-34580000D03*
%TD*%
D14*
%TO.P,D1,1,K*%
%TO.N,+5V*%
X114240000Y-56375000D03*
D15*
%TO.P,D1,2,A*%
%TO.N,Net-(D1-A)*%
X124400000Y-56375000D03*
%TD*%
D10*
%TO.P,J3,1,Pin_1*%
%TO.N,Net-(A1-GPIO8)*%
X120000000Y-90000000D03*
D11*
%TO.P,J3,2,Pin_2*%
%TO.N,MOSI*%
X120000000Y-92540000D03*
%TO.P,J3,3,Pin_3*%
%TO.N,SCK*%
X120000000Y-95080000D03*
%TO.P,J3,4,Pin_4*%
%TO.N,Net-(A1-GPIO13)*%
X120000000Y-97620000D03*
%TO.P,J3,5,Pin_5*%
%TO.N,MISO*%
X120000000Y-100160000D03*
%TO.P,J3,6,Pin_6*%
%TO.N,GND*%
X120000000Y-102700000D03*
%TO.P,J3,7,Pin_7*%
%TO.N,Net-(A1-GPIO15)*%
X120000000Y-105240000D03*
%TO.P,J3,8,Pin_8*%
%TO.N,Net-(A1-GPIO14)*%
X120000000Y-107780000D03*
%TD*%
D16*
%TO.P,A1,1,GPIO0*%
%TO.N,unconnected-(A1-GPIO0-Pad1)*%
X76315000Y-118055000D03*
D17*
%TO.P,A1,2,GPIO1*%
%TO.N,unconnected-(A1-GPIO1-Pad2)*%
X76315000Y-115515000D03*
D18*
%TO.P,A1,3,GND*%
%TO.N,GND*%
X76315000Y-112975000D03*
D17*
%TO.P,A1,4,GPIO2*%
%TO.N,unconnected-(A1-GPIO2-Pad4)*%
X76315000Y-110435000D03*
%TO.P,A1,5,GPIO3*%
%TO.N,unconnected-(A1-GPIO3-Pad5)*%
X76315000Y-107895000D03*
%TO.P,A1,6,GPIO4*%
%TO.N,unconnected-(A1-GPIO4-Pad6)*%
X76315000Y-105355000D03*
%TO.P,A1,7,GPIO5*%
%TO.N,unconnected-(A1-GPIO5-Pad7)*%
X76315000Y-102815000D03*
D18*
%TO.P,A1,8,GND*%
%TO.N,GND*%
X76315000Y-100275000D03*
D17*
%TO.P,A1,9,GPIO6*%
%TO.N,unconnected-(A1-GPIO6-Pad9)*%
X76315000Y-97735000D03*
%TO.P,A1,10,GPIO7*%
%TO.N,unconnected-(A1-GPIO7-Pad10)*%
X76315000Y-95195000D03*
%TO.P,A1,11,GPIO8*%
%TO.N,Net-(A1-GPIO8)*%
X76315000Y-92655000D03*
%TO.P,A1,12,GPIO9*%
%TO.N,unconnected-(A1-GPIO9-Pad12)*%
X76315000Y-90115000D03*
D18*
%TO.P,A1,13,GND*%
%TO.N,GND*%
X76315000Y-87575000D03*
D17*
%TO.P,A1,14,GPIO10*%
%TO.N,Net-(A1-GPIO10)*%
X76315000Y-85035000D03*
%TO.P,A1,15,GPIO11*%
%TO.N,Net-(A1-GPIO11)*%
X76315000Y-82495000D03*
%TO.P,A1,16,GPIO12*%
%TO.N,unconnected-(A1-GPIO12-Pad16)*%
X76315000Y-79955000D03*
%TO.P,A1,17,GPIO13*%
%TO.N,Net-(A1-GPIO13)*%
X76315000Y-77415000D03*
D18*
%TO.P,A1,18,GND*%
%TO.N,GND*%
X76315000Y-74875000D03*
D17*
%TO.P,A1,19,GPIO14*%
%TO.N,Net-(A1-GPIO14)*%
X76315000Y-72335000D03*
%TO.P,A1,20,GPIO15*%
%TO.N,Net-(A1-GPIO15)*%
X76315000Y-69795000D03*
%TO.P,A1,21,GPIO16*%
%TO.N,MISO*%
X58535000Y-69795000D03*
%TO.P,A1,22,GPIO17*%
%TO.N,Net-(A1-GPIO17)*%
X58535000Y-72335000D03*
D19*
%TO.P,A1,23,GND*%
%TO.N,GND*%
X58535000Y-74875000D03*
D17*
%TO.P,A1,24,GPIO18*%
%TO.N,SCK*%
X58535000Y-77415000D03*
%TO.P,A1,25,GPIO19*%
%TO.N,MOSI*%
X58535000Y-79955000D03*
%TO.P,A1,26,GPIO20*%
%TO.N,Net-(A1-GPIO20)*%
X58535000Y-82495000D03*
%TO.P,A1,27,GPIO21*%
%TO.N,Net-(A1-GPIO21)*%
X58535000Y-85035000D03*
D19*
%TO.P,A1,28,GND*%
%TO.N,GND*%
X58535000Y-87575000D03*
D17*
%TO.P,A1,29,GPIO22*%
%TO.N,Net-(A1-GPIO22)*%
X58535000Y-90115000D03*
%TO.P,A1,30,RUN*%
%TO.N,unconnected-(A1-RUN-Pad30)*%
X58535000Y-92655000D03*
%TO.P,A1,31,GPIO26_ADC0*%
%TO.N,unconnected-(A1-GPIO26_ADC0-Pad31)*%
X58535000Y-95195000D03*
%TO.P,A1,32,GPIO27_ADC1*%
%TO.N,unconnected-(A1-GPIO27_ADC1-Pad32)*%
X58535000Y-97735000D03*
D19*
%TO.P,A1,33,AGND*%
%TO.N,unconnected-(A1-AGND-Pad33)*%
X58535000Y-100275000D03*
D17*
%TO.P,A1,34,GPIO28_ADC2*%
%TO.N,unconnected-(A1-GPIO28_ADC2-Pad34)*%
X58535000Y-102815000D03*
%TO.P,A1,35,ADC_VREF*%
%TO.N,unconnected-(A1-ADC_VREF-Pad35)*%
X58535000Y-105355000D03*
%TO.P,A1,36,3V3*%
%TO.N,+3V3*%
X58535000Y-107895000D03*
%TO.P,A1,37,3V3_EN*%
%TO.N,unconnected-(A1-3V3_EN-Pad37)*%
X58535000Y-110435000D03*
D19*
%TO.P,A1,38,GND*%
%TO.N,GND*%
X58535000Y-112975000D03*
D17*
%TO.P,A1,39,VSYS*%
%TO.N,+5V*%
X58535000Y-115515000D03*
%TO.P,A1,40,VBUS*%
%TO.N,unconnected-(A1-VBUS-Pad40)*%
X58535000Y-118055000D03*
%TD*%
D20*
%TO.P,C2,1*%
%TO.N,Net-(J7-Pin_1)*%
X134000000Y-47325000D03*
D17*
%TO.P,C2,2*%
%TO.N,Net-(D2-K)*%
X137500000Y-47325000D03*
%TD*%
D14*
%TO.P,D2,1,K*%
%TO.N,Net-(D2-K)*%
X96040000Y-55725000D03*
D15*
%TO.P,D2,2,A*%
%TO.N,+24V*%
X106200000Y-55725000D03*
%TD*%
D21*
%TO.P,J8,1,Pin_1*%
%TO.N,Net-(D1-A)*%
X88847500Y-67650000D03*
D22*
%TO.P,J8,2,Pin_2*%
%TO.N,GND*%
X88847500Y-62650000D03*
%TD*%
D23*
%TO.P,J10,1,Pin_1*%
%TO.N,Net-(J10-Pin_1)*%
X131000000Y-116000000D03*
D13*
%TO.P,J10,2,Pin_2*%
%TO.N,Net-(J10-Pin_2)*%
X127500000Y-116000000D03*
%TO.P,J10,3,Pin_3*%
%TO.N,Net-(J10-Pin_3)*%
X124000000Y-116000000D03*
%TO.P,J10,4,Pin_4*%
%TO.N,Net-(J10-Pin_4)*%
X120500000Y-116000000D03*
%TD*%
D20*
%TO.P,C1,1*%
%TO.N,Net-(J7-Pin_2)*%
X134250000Y-33990000D03*
D17*
%TO.P,C1,2*%
%TO.N,GND*%
X137750000Y-33990000D03*
%TD*%
D10*
%TO.P,J1,1,Pin_1*%
%TO.N,Net-(A1-GPIO20)*%
X89575000Y-89825000D03*
D11*
%TO.P,J1,2,Pin_2*%
%TO.N,MOSI*%
X89575000Y-92365000D03*
%TO.P,J1,3,Pin_3*%
%TO.N,SCK*%
X89575000Y-94905000D03*
%TO.P,J1,4,Pin_4*%
%TO.N,Net-(A1-GPIO17)*%
X89575000Y-97445000D03*
%TO.P,J1,5,Pin_5*%
%TO.N,MISO*%
X89575000Y-99985000D03*
%TO.P,J1,6,Pin_6*%
%TO.N,GND*%
X89575000Y-102525000D03*
%TO.P,J1,7,Pin_7*%
%TO.N,Net-(A1-GPIO10)*%
X89575000Y-105065000D03*
%TO.P,J1,8,Pin_8*%
%TO.N,Net-(A1-GPIO11)*%
X89575000Y-107605000D03*
%TD*%
D24*
%TO.P,J9,1,Pin_1*%
%TO.N,+24V*%
X138825000Y-61350000D03*
D22*
%TO.P,J9,2,Pin_2*%
%TO.N,GND*%
X138825000Y-66350000D03*
%TD*%
D10*
%TO.P,J4,1,Pin_1*%
%TO.N,+24V*%
X135240000Y-90000000D03*
D11*
%TO.P,J4,2,Pin_2*%
%TO.N,GND*%
X135240000Y-92540000D03*
%TO.P,J4,3,Pin_3*%
%TO.N,Net-(J11-Pin_1)*%
X135240000Y-95080000D03*
%TO.P,J4,4,Pin_4*%
%TO.N,Net-(J11-Pin_2)*%
X135240000Y-97620000D03*
%TO.P,J4,5,Pin_5*%
%TO.N,Net-(J11-Pin_3)*%
X135240000Y-100160000D03*
%TO.P,J4,6,Pin_6*%
%TO.N,Net-(J11-Pin_4)*%
X135240000Y-102700000D03*
%TO.P,J4,7,Pin_7*%
%TO.N,unconnected-(J4-Pin_7-Pad7)*%
X135240000Y-105240000D03*
%TO.P,J4,8,Pin_8*%
%TO.N,GND*%
X135240000Y-107780000D03*
%TD*%
D25*
%TO.P,J7,1,Pin_1*%
%TO.N,Net-(J7-Pin_1)*%
X79675000Y-33850000D03*
D22*
%TO.P,J7,2,Pin_2*%
%TO.N,Net-(J7-Pin_2)*%
X74675000Y-33850000D03*
%TD*%
D26*
%TO.N,GND*%
X53500000Y-99500000D03*
%TO.N,SCK*%
X107800000Y-78100000D03*
X112000000Y-69900000D03*
%TO.N,Net-(A1-GPIO14)*%
X79800000Y-74200000D03*
%TO.N,Net-(A1-GPIO13)*%
X84450000Y-80725000D03*
%TO.N,MOSI*%
X54700000Y-84275000D03*
X88750000Y-75475000D03*
X112000000Y-94100000D03*
%TO.N,Net-(A1-GPIO17)*%
X87250000Y-96400000D03*
%TO.N,Net-(A1-GPIO8)*%
X127025000Y-99875000D03*
%TO.N,Net-(A1-GPIO15)*%
X78325000Y-58875000D03*
X113900000Y-77900000D03*
X129925000Y-109900000D03*
%TO.N,Net-(A1-GPIO20)*%
X70825000Y-58525000D03*
X103875000Y-65850000D03*
X94525000Y-84925000D03*
%TO.N,Net-(A1-GPIO10)*%
X83700000Y-99375000D03*
%TO.N,Net-(A1-GPIO11)*%
X85100000Y-103275000D03*
%TO.N,Net-(J7-Pin_2)*%
X88600000Y-37800000D03*
%TO.N,SCK*%
X110450000Y-81975000D03*
%TO.N,Net-(J10-Pin_2)*%
X114600000Y-107000000D03*
%TO.N,Net-(J10-Pin_3)*%
X109000000Y-112800000D03*
%TO.N,Net-(J10-Pin_4)*%
X110000000Y-107000000D03*
X113000000Y-111000000D03*
%TO.N,Net-(J10-Pin_1)*%
X117000000Y-108000000D03*
%TO.N,Net-(A1-GPIO21)*%
X101400000Y-29850000D03*
X89575000Y-45075000D03*
X70225000Y-54000000D03*
%TO.N,+5V*%
X87250000Y-87875000D03*
X114875000Y-32275000D03*
X96900000Y-83800000D03*
X114925000Y-42925000D03*
X81825657Y-74700657D03*
%TO.N,Net-(D2-K)*%
X110375000Y-50775000D03*
%TO.N,Net-(D1-A)*%
X117350000Y-62725000D03*
%TD*%
D27*
%TO.N,MOSI*%
X54700000Y-84275000D02*
X54700000Y-67400000D01*
X54700000Y-67400000D02*
X64827000Y-57273000D01*
X82588571Y-57273000D02*
X86946500Y-61630929D01*
X64827000Y-57273000D02*
X82588571Y-57273000D01*
X86946500Y-61630929D02*
X86946500Y-73671500D01*
X86946500Y-73671500D02*
X88750000Y-75475000D01*
%TO.N,Net-(J10-Pin_2)*%
X114600000Y-107000000D02*
X114500000Y-107000000D01*
X114500000Y-107000000D02*
X104945000Y-97445000D01*
X104945000Y-97445000D02*
X104815000Y-97445000D01*
%TO.N,MOSI*%
X112000000Y-94100000D02*
X109433000Y-91533000D01*
X109433000Y-91533000D02*
X109433000Y-89633000D01*
X106900000Y-87100000D02*
X96042081Y-87100000D01*
X96042081Y-87100000D02*
X90777081Y-92365000D01*
X109433000Y-89633000D02*
X106900000Y-87100000D01*
X90777081Y-92365000D02*
X89575000Y-92365000D01*
%TO.N,Net-(A1-GPIO14)*%
X120000000Y-107780000D02*
X116625000Y-111155000D01*
X116625000Y-111155000D02*
X115845000Y-111155000D01*
X115845000Y-111155000D02*
X113300000Y-113700000D01*
X89100000Y-113700000D02*
X80000000Y-104600000D01*
X113300000Y-113700000D02*
X89100000Y-113700000D01*
X80000000Y-74400000D02*
X79800000Y-74200000D01*
X80000000Y-104600000D02*
X80000000Y-74400000D01*
%TO.N,+5V*%
X82000000Y-88800000D02*
X83000000Y-89800000D01*
X83000000Y-89800000D02*
X85200000Y-89800000D01*
X81825657Y-74700657D02*
X81825657Y-74750657D01*
X85200000Y-89800000D02*
X87125000Y-87875000D01*
X82000000Y-74925000D02*
X82000000Y-88800000D01*
X81825657Y-74750657D02*
X82000000Y-74925000D01*
X87125000Y-87875000D02*
X87250000Y-87875000D01*
X97125000Y-83825000D02*
X103800000Y-83825000D01*
X118975000Y-60225000D02*
X116150000Y-60225000D01*
X96900000Y-83800000D02*
X97100000Y-83800000D01*
X121775000Y-65850000D02*
X121775000Y-63025000D01*
X121775000Y-63025000D02*
X118975000Y-60225000D01*
X116150000Y-60225000D02*
X114240000Y-58315000D01*
X103800000Y-83825000D02*
X121775000Y-65850000D01*
X114240000Y-58315000D02*
X114240000Y-56375000D01*
X97100000Y-83800000D02*
X97125000Y-83825000D01*
%TO.N,Net-(A1-GPIO20)*%
X94525000Y-84925000D02*
X94525000Y-80775000D01*
X94525000Y-80775000D02*
X105400000Y-69900000D01*
X105400000Y-67300000D02*
X103950000Y-65850000D01*
X105400000Y-69900000D02*
X105400000Y-67300000D01*
X103950000Y-65850000D02*
X103875000Y-65850000D01*
%TO.N,SCK*%
X107800000Y-78100000D02*
X112000000Y-73900000D01*
X112000000Y-73900000D02*
X112000000Y-69900000D01*
%TO.N,Net-(A1-GPIO15)*%
X78325000Y-58875000D02*
X77125000Y-58875000D01*
X77125000Y-58875000D02*
X75500000Y-60500000D01*
X75500000Y-60500000D02*
X75500000Y-66600000D01*
X75500000Y-66600000D02*
X76315000Y-67415000D01*
X76315000Y-67415000D02*
X76315000Y-69795000D01*
D28*
%TO.N,Net-(D2-K)*%
X110625000Y-50775000D02*
X110700000Y-50700000D01*
X110700000Y-50700000D02*
X134125000Y-50700000D01*
X110375000Y-50775000D02*
X110625000Y-50775000D01*
X134125000Y-50700000D02*
X137500000Y-47325000D01*
D27*
%TO.N,+5V*%
X114875000Y-32275000D02*
X116200000Y-33600000D01*
X116200000Y-33600000D02*
X116200000Y-41650000D01*
X116200000Y-41650000D02*
X114925000Y-42925000D01*
%TO.N,Net-(A1-GPIO21)*%
X101400000Y-29850000D02*
X98700000Y-32550000D01*
X98700000Y-32550000D02*
X98700000Y-35950000D01*
X98700000Y-35950000D02*
X89575000Y-45075000D01*
D28*
%TO.N,Net-(J7-Pin_1)*%
X134000000Y-47325000D02*
X133125000Y-48200000D01*
X77900000Y-40900000D02*
X69900000Y-40900000D01*
X133125000Y-48200000D02*
X85200000Y-48200000D01*
X85200000Y-48200000D02*
X77900000Y-40900000D01*
X69900000Y-40900000D02*
X64500000Y-35500000D01*
X64500000Y-35500000D02*
X64500000Y-30600000D01*
X79675000Y-30875000D02*
X79675000Y-33850000D01*
X64500000Y-30600000D02*
X66900000Y-28200000D01*
X66900000Y-28200000D02*
X77000000Y-28200000D01*
X77000000Y-28200000D02*
X79675000Y-30875000D01*
D27*
%TO.N,Net-(A1-GPIO13)*%
X91750000Y-85850000D02*
X89575000Y-85850000D01*
X110000000Y-85850000D02*
X110000000Y-87620000D01*
X91750000Y-85850000D02*
X110000000Y-85850000D01*
X110000000Y-87620000D02*
X120000000Y-97620000D01*
X89575000Y-85850000D02*
X84450000Y-80725000D01*
%TO.N,MOSI*%
X54500000Y-84075000D02*
X54700000Y-84275000D01*
%TO.N,Net-(A1-GPIO17)*%
X84433636Y-96400000D02*
X80726000Y-92692364D01*
X80726000Y-71667496D02*
X85026000Y-67367496D01*
X80726000Y-92692364D02*
X80726000Y-71667496D01*
X85026000Y-60701793D02*
X82298207Y-57974000D01*
X85026000Y-67367496D02*
X85026000Y-60701793D01*
X87250000Y-96400000D02*
X84433636Y-96400000D01*
X72896000Y-57974000D02*
X58535000Y-72335000D01*
X82298207Y-57974000D02*
X72896000Y-57974000D01*
%TO.N,Net-(A1-GPIO8)*%
X77721000Y-103312364D02*
X77721000Y-94061000D01*
X127025000Y-104975000D02*
X117000000Y-115000000D01*
X89408636Y-115000000D02*
X77721000Y-103312364D01*
X127025000Y-99875000D02*
X127025000Y-104975000D01*
X117000000Y-115000000D02*
X89408636Y-115000000D01*
X77721000Y-94061000D02*
X76315000Y-92655000D01*
%TO.N,Net-(A1-GPIO15)*%
X129925000Y-109900000D02*
X129925000Y-93925000D01*
X129925000Y-93925000D02*
X113900000Y-77900000D01*
%TO.N,Net-(A1-GPIO20)*%
X69175000Y-58525000D02*
X67275000Y-60425000D01*
X55425000Y-70923686D02*
X55425000Y-81400000D01*
X55450000Y-81400000D02*
X56545000Y-82495000D01*
X55425000Y-81400000D02*
X55450000Y-81400000D01*
X67275000Y-60425000D02*
X65923686Y-60425000D01*
X70825000Y-58525000D02*
X69175000Y-58525000D01*
X65923686Y-60425000D02*
X55425000Y-70923686D01*
X56545000Y-82495000D02*
X58535000Y-82495000D01*
%TO.N,Net-(A1-GPIO10)*%
X83700000Y-99375000D02*
X83885000Y-99375000D01*
X83885000Y-99375000D02*
X89575000Y-105065000D01*
%TO.N,Net-(A1-GPIO11)*%
X85100000Y-103275000D02*
X85245000Y-103275000D01*
X85245000Y-103275000D02*
X89575000Y-107605000D01*
D28*
%TO.N,Net-(J7-Pin_2)*%
X88600000Y-37800000D02*
X81602500Y-37800000D01*
X76998750Y-36173750D02*
X74675000Y-33850000D01*
X79976250Y-36173750D02*
X76998750Y-36173750D01*
X81602500Y-37800000D02*
X79976250Y-36173750D01*
D27*
%TO.N,SCK*%
X116125000Y-87650000D02*
X116125000Y-91205000D01*
X116125000Y-91205000D02*
X120000000Y-95080000D01*
X110450000Y-81975000D02*
X116125000Y-87650000D01*
%TO.N,Net-(J10-Pin_3)*%
X109000000Y-112800000D02*
X109000000Y-104170000D01*
X109000000Y-104170000D02*
X104815000Y-99985000D01*
%TO.N,Net-(J10-Pin_4)*%
X110000000Y-107000000D02*
X113000000Y-110000000D01*
X113000000Y-110000000D02*
X113000000Y-111000000D01*
%TO.N,Net-(J10-Pin_1)*%
X113000000Y-104000000D02*
X117000000Y-108000000D01*
X113000000Y-103090000D02*
X104815000Y-94905000D01*
X113000000Y-104000000D02*
X113000000Y-103090000D01*
%TO.N,Net-(A1-GPIO21)*%
X51875000Y-60909429D02*
X51875000Y-83600000D01*
X70225000Y-54000000D02*
X58784429Y-54000000D01*
X54185793Y-85035000D02*
X54326793Y-85176000D01*
X58784429Y-54000000D02*
X51875000Y-60909429D01*
X55214207Y-85035000D02*
X58535000Y-85035000D01*
X53310000Y-85035000D02*
X54185793Y-85035000D01*
X54326793Y-85176000D02*
X55073207Y-85176000D01*
X51875000Y-83600000D02*
X53310000Y-85035000D01*
X55073207Y-85176000D02*
X55214207Y-85035000D01*
%TO.N,Net-(D1-A)*%
X90775000Y-72225000D02*
X88847500Y-70297500D01*
X95275000Y-72225000D02*
X90775000Y-72225000D01*
X104775000Y-62725000D02*
X95275000Y-72225000D01*
X117350000Y-62725000D02*
X104775000Y-62725000D01*
X88847500Y-70297500D02*
X88847500Y-67650000D01*
%TD*%
%TA.AperFunction,Conductor*%
%TO.N,GND*%
G36*
X51045203Y-83665211D02*
G01*
X51082977Y-83723989D01*
X51085617Y-83734733D01*
X51105261Y-83833489D01*
X51105264Y-83833501D01*
X51165602Y-83979172D01*
X51165609Y-83979185D01*
X51253210Y-84110288D01*
X51253213Y-84110292D01*
X52688211Y-85545289D01*
X52799711Y-85656789D01*
X52930821Y-85744394D01*
X53033833Y-85787062D01*
X53076502Y-85804737D01*
X53160438Y-85821433D01*
X53231152Y-85835499D01*
X53231155Y-85835500D01*
X53231157Y-85835500D01*
X53231158Y-85835500D01*
X53835328Y-85835500D01*
X53902367Y-85855185D01*
X53904179Y-85856371D01*
X53947614Y-85885394D01*
X54093296Y-85945737D01*
X54247946Y-85976499D01*
X54247949Y-85976500D01*
X54247951Y-85976500D01*
X55152051Y-85976500D01*
X55152052Y-85976499D01*
X55306704Y-85945737D01*
X55452386Y-85885394D01*
X55495782Y-85856397D01*
X55562458Y-85835520D01*
X55564672Y-85835500D01*
X57198696Y-85835500D01*
X57265735Y-85855185D01*
X57299013Y-85886613D01*
X57390483Y-86012510D01*
X57557490Y-86179517D01*
X57748567Y-86318343D01*
X57748573Y-86318347D01*
X57752719Y-86320888D01*
X57751476Y-86322915D01*
X57795145Y-86364263D01*
X57811855Y-86432105D01*
X57811379Y-86438794D01*
X57806085Y-86492534D01*
X58405589Y-87092037D01*
X58342007Y-87109075D01*
X58227993Y-87174901D01*
X58134901Y-87267993D01*
X58069075Y-87382007D01*
X58052037Y-87445588D01*
X57452534Y-86846085D01*
X57452534Y-86846086D01*
X57406158Y-86915493D01*
X57359490Y-87002801D01*
X57299185Y-87148387D01*
X57270444Y-87243135D01*
X57239701Y-87397697D01*
X57239701Y-87397700D01*
X57230000Y-87496210D01*
X57230000Y-87653789D01*
X57239701Y-87752299D01*
X57239701Y-87752302D01*
X57270444Y-87906864D01*
X57299185Y-88001612D01*
X57359490Y-88147198D01*
X57406155Y-88234501D01*
X57406161Y-88234511D01*
X57452534Y-88303912D01*
X58052037Y-87704410D01*
X58069075Y-87767993D01*
X58134901Y-87882007D01*
X58227993Y-87975099D01*
X58342007Y-88040925D01*
X58405589Y-88057962D01*
X57806085Y-88657465D01*
X57811378Y-88711209D01*
X57798358Y-88779854D01*
X57752306Y-88828439D01*
X57752719Y-88829112D01*
X57748573Y-88831652D01*
X57672730Y-88886756D01*
X57557490Y-88970483D01*
X57557488Y-88970485D01*
X57557487Y-88970485D01*
X57390485Y-89137487D01*
X57390485Y-89137488D01*
X57390483Y-89137490D01*
X57380666Y-89151002D01*
X57251657Y-89328566D01*
X57144433Y-89539003D01*
X57071446Y-89763631D01*
X57034500Y-89996902D01*
X57034500Y-90233097D01*
X57071446Y-90466368D01*
X57144433Y-90690996D01*
X57237385Y-90873422D01*
X57251657Y-90901433D01*
X57390483Y-91092510D01*
X57557490Y-91259517D01*
X57592127Y-91284683D01*
X57634792Y-91340013D01*
X57640771Y-91409626D01*
X57608165Y-91471421D01*
X57592130Y-91485315D01*
X57584324Y-91490987D01*
X57557488Y-91510484D01*
X57390485Y-91677487D01*
X57390485Y-91677488D01*
X57390483Y-91677490D01*
X57330862Y-91759550D01*
X57251657Y-91868566D01*
X57144433Y-92079003D01*
X57071446Y-92303631D01*
X57034500Y-92536902D01*
X57034500Y-92773097D01*
X57071446Y-93006368D01*
X57144433Y-93230996D01*
X57238041Y-93414711D01*
X57251657Y-93441433D01*
X57390483Y-93632510D01*
X57557490Y-93799517D01*
X57592127Y-93824683D01*
X57634792Y-93880013D01*
X57640771Y-93949626D01*
X57608165Y-94011421D01*
X57592130Y-94025315D01*
X57574365Y-94038222D01*
X57557488Y-94050484D01*
X57390485Y-94217487D01*
X57390485Y-94217488D01*
X57390483Y-94217490D01*
X57349058Y-94274506D01*
X57251657Y-94408566D01*
X57144433Y-94619003D01*
X57071446Y-94843631D01*
X57034500Y-95076902D01*
X57034500Y-95313097D01*
X57071446Y-95546368D01*
X57144433Y-95770996D01*
X57223456Y-95926086D01*
X57251657Y-95981433D01*
X57390483Y-96172510D01*
X57557490Y-96339517D01*
X57592127Y-96364683D01*
X57634792Y-96420013D01*
X57640771Y-96489626D01*
X57608165Y-96551421D01*
X57592130Y-96565315D01*
X57574365Y-96578222D01*
X57557488Y-96590484D01*
X57390485Y-96757487D01*
X57390485Y-96757488D01*
X57390483Y-96757490D01*
X57330862Y-96839550D01*
X57251657Y-96948566D01*
X57144433Y-97159003D01*
X57071446Y-97383631D01*
X57034500Y-97616902D01*
X57034500Y-97853097D01*
X57071446Y-98086368D01*
X57144433Y-98310996D01*
X57234811Y-98488371D01*
X57251657Y-98521433D01*
X57390483Y-98712510D01*
X57390485Y-98712512D01*
X57557490Y-98879517D01*
X57588900Y-98902338D01*
X57631565Y-98957668D01*
X57637543Y-99027282D01*
X57604936Y-99089076D01*
X57594678Y-99098508D01*
X57526160Y-99154739D01*
X57414740Y-99266159D01*
X57326997Y-99373075D01*
X57326987Y-99373088D01*
X57239457Y-99504087D01*
X57239445Y-99504107D01*
X57174252Y-99626073D01*
X57113945Y-99771666D01*
X57073798Y-99904016D01*
X57073798Y-99904018D01*
X57043054Y-100058584D01*
X57033841Y-100152136D01*
X57029500Y-100196207D01*
X57029500Y-100353793D01*
X57031638Y-100375500D01*
X57043054Y-100491415D01*
X57043055Y-100491423D01*
X57043056Y-100491427D01*
X57060711Y-100580185D01*
X57073798Y-100645981D01*
X57073798Y-100645983D01*
X57113945Y-100778333D01*
X57174252Y-100923926D01*
X57239445Y-101045892D01*
X57239457Y-101045912D01*
X57326987Y-101176911D01*
X57326997Y-101176924D01*
X57369440Y-101228642D01*
X57414740Y-101283840D01*
X57526159Y-101395259D01*
X57526164Y-101395263D01*
X57526166Y-101395265D01*
X57568491Y-101430000D01*
X57594677Y-101451490D01*
X57634012Y-101509236D01*
X57635883Y-101579081D01*
X57599696Y-101638849D01*
X57588902Y-101647660D01*
X57557487Y-101670485D01*
X57390485Y-101837487D01*
X57390485Y-101837488D01*
X57390483Y-101837490D01*
X57330862Y-101919550D01*
X57251657Y-102028566D01*
X57144433Y-102239003D01*
X57071446Y-102463631D01*
X57034500Y-102696902D01*
X57034500Y-102933097D01*
X57071446Y-103166368D01*
X57144433Y-103390996D01*
X57251657Y-103601433D01*
X57390483Y-103792510D01*
X57557490Y-103959517D01*
X57592127Y-103984683D01*
X57634792Y-104040013D01*
X57640771Y-104109626D01*
X57608165Y-104171421D01*
X57592130Y-104185315D01*
X57574365Y-104198222D01*
X57557488Y-104210484D01*
X57390485Y-104377487D01*
X57390485Y-104377488D01*
X57390483Y-104377490D01*
X57330862Y-104459550D01*
X57251657Y-104568566D01*
X57144433Y-104779003D01*
X57071446Y-105003631D01*
X57034500Y-105236902D01*
X57034500Y-105473097D01*
X57071446Y-105706368D01*
X57144433Y-105930996D01*
X57217846Y-106075076D01*
X57251657Y-106141433D01*
X57390483Y-106332510D01*
X57557490Y-106499517D01*
X57592127Y-106524683D01*
X57634792Y-106580013D01*
X57640771Y-106649626D01*
X57608165Y-106711421D01*
X57592130Y-106725315D01*
X57574365Y-106738222D01*
X57557488Y-106750484D01*
X57390485Y-106917487D01*
X57390485Y-106917488D01*
X57390483Y-106917490D01*
X57344264Y-106981105D01*
X57251657Y-107108566D01*
X57144433Y-107319003D01*
X57071446Y-107543631D01*
X57034500Y-107776902D01*
X57034500Y-108013097D01*
X57071446Y-108246368D01*
X57144433Y-108470996D01*
X57229417Y-108637785D01*
X57251657Y-108681433D01*
X57390483Y-108872510D01*
X57557490Y-109039517D01*
X57592127Y-109064683D01*
X57634792Y-109120013D01*
X57640771Y-109189626D01*
X57608165Y-109251421D01*
X57592130Y-109265315D01*
X57574365Y-109278222D01*
X57557488Y-109290484D01*
X57390485Y-109457487D01*
X57390485Y-109457488D01*
X57390483Y-109457490D01*
X57367076Y-109489707D01*
X57251657Y-109648566D01*
X57144433Y-109859003D01*
X57071446Y-110083631D01*
X57034500Y-110316902D01*
X57034500Y-110553097D01*
X57071446Y-110786368D01*
X57144433Y-111010996D01*
X57189040Y-111098541D01*
X57251657Y-111221433D01*
X57390483Y-111412510D01*
X57557490Y-111579517D01*
X57748567Y-111718343D01*
X57748573Y-111718347D01*
X57752719Y-111720888D01*
X57751476Y-111722915D01*
X57795145Y-111764263D01*
X57811855Y-111832105D01*
X57811379Y-111838794D01*
X57806085Y-111892534D01*
X58405589Y-112492037D01*
X58342007Y-112509075D01*
X58227993Y-112574901D01*
X58134901Y-112667993D01*
X58069075Y-112782007D01*
X58052037Y-112845588D01*
X57452534Y-112246085D01*
X57452534Y-112246086D01*
X57406158Y-112315493D01*
X57359490Y-112402801D01*
X57299185Y-112548387D01*
X57270444Y-112643135D01*
X57239701Y-112797697D01*
X57239701Y-112797700D01*
X57230000Y-112896210D01*
X57230000Y-113053789D01*
X57239701Y-113152299D01*
X57239701Y-113152302D01*
X57270444Y-113306864D01*
X57299185Y-113401612D01*
X57359490Y-113547198D01*
X57406155Y-113634501D01*
X57406161Y-113634511D01*
X57452534Y-113703912D01*
X58052037Y-113104410D01*
X58069075Y-113167993D01*
X58134901Y-113282007D01*
X58227993Y-113375099D01*
X58342007Y-113440925D01*
X58405589Y-113457962D01*
X57806085Y-114057465D01*
X57811378Y-114111209D01*
X57798358Y-114179854D01*
X57752306Y-114228439D01*
X57752719Y-114229112D01*
X57748573Y-114231652D01*
X57645482Y-114306552D01*
X57557490Y-114370483D01*
X57557488Y-114370485D01*
X57557487Y-114370485D01*
X57390485Y-114537487D01*
X57390485Y-114537488D01*
X57390483Y-114537490D01*
X57330862Y-114619550D01*
X57251657Y-114728566D01*
X57144433Y-114939003D01*
X57071446Y-115163631D01*
X57034500Y-115396902D01*
X57034500Y-115633097D01*
X57071446Y-115866368D01*
X57144433Y-116090996D01*
X57161543Y-116124575D01*
X57251657Y-116301433D01*
X57390483Y-116492510D01*
X57557490Y-116659517D01*
X57592127Y-116684683D01*
X57634792Y-116740013D01*
X57640771Y-116809626D01*
X57608165Y-116871421D01*
X57592130Y-116885315D01*
X57574365Y-116898222D01*
X57557488Y-116910484D01*
X57390485Y-117077487D01*
X57390485Y-117077488D01*
X57390483Y-117077490D01*
X57351960Y-117130512D01*
X57251657Y-117268566D01*
X57144433Y-117479003D01*
X57071446Y-117703631D01*
X57034500Y-117936902D01*
X57034500Y-118173097D01*
X57071446Y-118406368D01*
X57144433Y-118630996D01*
X57228835Y-118796642D01*
X57251657Y-118841433D01*
X57336905Y-118958767D01*
X57350962Y-118978114D01*
X57374442Y-119043921D01*
X57358617Y-119111975D01*
X57308511Y-119160670D01*
X57250644Y-119175000D01*
X50964000Y-119175000D01*
X50896961Y-119155315D01*
X50851206Y-119102511D01*
X50840000Y-119051000D01*
X50840000Y-83758924D01*
X50859685Y-83691885D01*
X50912489Y-83646130D01*
X50981647Y-83636186D01*
X51045203Y-83665211D01*
G37*
%TD.AperFunction*%
%TA.AperFunction,Conductor*%
G36*
X75861099Y-58794185D02*
G01*
X75906854Y-58846989D01*
X75916798Y-58916147D01*
X75887773Y-58979703D01*
X75881741Y-58986181D01*
X74989711Y-59878211D01*
X74933960Y-59933962D01*
X74878209Y-59989712D01*
X74790609Y-60120814D01*
X74790602Y-60120827D01*
X74730264Y-60266498D01*
X74730261Y-60266510D01*
X74699500Y-60421153D01*
X74699500Y-66678846D01*
X74730261Y-66833489D01*
X74730264Y-66833501D01*
X74790602Y-66979172D01*
X74790609Y-66979185D01*
X74878210Y-67110288D01*
X74878213Y-67110292D01*
X75478181Y-67710259D01*
X75511666Y-67771582D01*
X75514500Y-67797940D01*
X75514500Y-68458695D01*
X75494815Y-68525734D01*
X75463386Y-68559012D01*
X75337496Y-68650478D01*
X75337487Y-68650485D01*
X75170485Y-68817487D01*
X75170485Y-68817488D01*
X75170483Y-68817490D01*
X75133387Y-68868548D01*
X75031657Y-69008566D01*
X74924433Y-69219003D01*
X74851446Y-69443631D01*
X74814500Y-69676902D01*
X74814500Y-69913097D01*
X74851446Y-70146368D01*
X74924433Y-70370996D01*
X75009639Y-70538220D01*
X75031657Y-70581433D01*
X75170483Y-70772510D01*
X75337490Y-70939517D01*
X75372127Y-70964683D01*
X75414792Y-71020013D01*
X75420771Y-71089626D01*
X75388165Y-71151421D01*
X75372130Y-71165315D01*
X75354365Y-71178222D01*
X75337488Y-71190484D01*
X75170485Y-71357487D01*
X75170485Y-71357488D01*
X75170483Y-71357490D01*
X75148185Y-71388181D01*
X75031657Y-71548566D01*
X74924433Y-71759003D01*
X74851446Y-71983631D01*
X74814500Y-72216902D01*
X74814500Y-72453097D01*
X74851446Y-72686368D01*
X74924433Y-72910996D01*
X75008253Y-73075500D01*
X75031657Y-73121433D01*
X75170483Y-73312510D01*
X75337490Y-73479517D01*
X75337493Y-73479519D01*
X75376571Y-73507911D01*
X75419237Y-73563241D01*
X75425239Y-73631687D01*
X76185589Y-74392037D01*
X76122007Y-74409075D01*
X76007993Y-74474901D01*
X75914901Y-74567993D01*
X75849075Y-74682007D01*
X75832037Y-74745589D01*
X75071863Y-73985415D01*
X75071862Y-73985415D01*
X75048446Y-74041947D01*
X75048431Y-74041987D01*
X75030457Y-74092939D01*
X75030455Y-74092946D01*
X75010000Y-74235219D01*
X75010000Y-75514785D01*
X75012893Y-75568762D01*
X75012893Y-75568764D01*
X75048438Y-75708030D01*
X75048442Y-75708043D01*
X75071862Y-75764584D01*
X75832037Y-75004410D01*
X75849075Y-75067993D01*
X75914901Y-75182007D01*
X76007993Y-75275099D01*
X76122007Y-75340925D01*
X76185589Y-75357962D01*
X75425238Y-76118311D01*
X75419075Y-76187170D01*
X75376574Y-76242085D01*
X75337493Y-76270480D01*
X75337487Y-76270485D01*
X75170485Y-76437487D01*
X75170485Y-76437488D01*
X75170483Y-76437490D01*
X75142867Y-76475500D01*
X75031657Y-76628566D01*
X74924433Y-76839003D01*
X74851446Y-77063631D01*
X74814500Y-77296902D01*
X74814500Y-77533097D01*
X74851446Y-77766368D01*
X74924433Y-77990996D01*
X75026767Y-78191835D01*
X75031657Y-78201433D01*
X75170483Y-78392510D01*
X75337490Y-78559517D01*
X75372127Y-78584683D01*
X75414792Y-78640013D01*
X75420771Y-78709626D01*
X75388165Y-78771421D01*
X75372130Y-78785315D01*
X75370318Y-78786632D01*
X75337488Y-78810484D01*
X75170485Y-78977487D01*
X75170485Y-78977488D01*
X75170483Y-78977490D01*
X75125494Y-79039412D01*
X75031657Y-79168566D01*
X74924433Y-79379003D01*
X74851446Y-79603631D01*
X74814500Y-79836902D01*
X74814500Y-80073097D01*
X74851446Y-80306368D01*
X74924433Y-80530996D01*
X75008588Y-80696158D01*
X75031657Y-80741433D01*
X75170483Y-80932510D01*
X75337490Y-81099517D01*
X75372127Y-81124683D01*
X75414792Y-81180013D01*
X75420771Y-81249626D01*
X75388165Y-81311421D01*
X75372130Y-81325315D01*
X75355753Y-81337214D01*
X75337488Y-81350484D01*
X75170485Y-81517487D01*
X75170485Y-81517488D01*
X75170483Y-81517490D01*
X75110862Y-81599550D01*
X75031657Y-81708566D01*
X74924433Y-81919003D01*
X74851446Y-82143631D01*
X74814500Y-82376902D01*
X74814500Y-82613097D01*
X74851446Y-82846368D01*
X74924433Y-83070996D01*
X74992405Y-83204397D01*
X75031657Y-83281433D01*
X75170483Y-83472510D01*
X75337490Y-83639517D01*
X75372127Y-83664683D01*
X75414792Y-83720013D01*
X75420771Y-83789626D01*
X75388165Y-83851421D01*
X75372130Y-83865315D01*
X75354365Y-83878222D01*
X75337488Y-83890484D01*
X75170485Y-84057487D01*
X75170485Y-84057488D01*
X75170483Y-84057490D01*
X75132123Y-84110288D01*
X75031657Y-84248566D01*
X74924433Y-84459003D01*
X74851446Y-84683631D01*
X74814500Y-84916902D01*
X74814500Y-85153097D01*
X74851446Y-85386368D01*
X74924433Y-85610996D01*
X75014144Y-85787062D01*
X75031657Y-85821433D01*
X75170483Y-86012510D01*
X75337490Y-86179517D01*
X75337493Y-86179519D01*
X75376571Y-86207911D01*
X75419237Y-86263241D01*
X75425239Y-86331687D01*
X76185589Y-87092037D01*
X76122007Y-87109075D01*
X76007993Y-87174901D01*
X75914901Y-87267993D01*
X75849075Y-87382007D01*
X75832037Y-87445589D01*
X75071863Y-86685415D01*
X75071862Y-86685415D01*
X75048446Y-86741947D01*
X75048431Y-86741987D01*
X75030457Y-86792939D01*
X75030455Y-86792946D01*
X75010000Y-86935219D01*
X75010000Y-88214785D01*
X75012893Y-88268762D01*
X75012893Y-88268764D01*
X75048438Y-88408030D01*
X75048442Y-88408043D01*
X75071862Y-88464584D01*
X75832037Y-87704410D01*
X75849075Y-87767993D01*
X75914901Y-87882007D01*
X76007993Y-87975099D01*
X76122007Y-88040925D01*
X76185589Y-88057962D01*
X75425238Y-88818311D01*
X75419075Y-88887170D01*
X75376574Y-88942085D01*
X75337493Y-88970480D01*
X75337487Y-88970485D01*
X75170485Y-89137487D01*
X75170485Y-89137488D01*
X75170483Y-89137490D01*
X75160666Y-89151002D01*
X75031657Y-89328566D01*
X74924433Y-89539003D01*
X74851446Y-89763631D01*
X74814500Y-89996902D01*
X74814500Y-90233097D01*
X74851446Y-90466368D01*
X74924433Y-90690996D01*
X75017385Y-90873422D01*
X75031657Y-90901433D01*
X75170483Y-91092510D01*
X75337490Y-91259517D01*
X75372127Y-91284683D01*
X75414792Y-91340013D01*
X75420771Y-91409626D01*
X75388165Y-91471421D01*
X75372130Y-91485315D01*
X75364324Y-91490987D01*
X75337488Y-91510484D01*
X75170485Y-91677487D01*
X75170485Y-91677488D01*
X75170483Y-91677490D01*
X75110862Y-91759550D01*
X75031657Y-91868566D01*
X74924433Y-92079003D01*
X74851446Y-92303631D01*
X74814500Y-92536902D01*
X74814500Y-92773097D01*
X74851446Y-93006368D01*
X74924433Y-93230996D01*
X75018041Y-93414711D01*
X75031657Y-93441433D01*
X75170483Y-93632510D01*
X75337490Y-93799517D01*
X75372127Y-93824683D01*
X75414792Y-93880013D01*
X75420771Y-93949626D01*
X75388165Y-94011421D01*
X75372130Y-94025315D01*
X75354365Y-94038222D01*
X75337488Y-94050484D01*
X75170485Y-94217487D01*
X75170485Y-94217488D01*
X75170483Y-94217490D01*
X75129058Y-94274506D01*
X75031657Y-94408566D01*
X74924433Y-94619003D01*
X74851446Y-94843631D01*
X74814500Y-95076902D01*
X74814500Y-95313097D01*
X74851446Y-95546368D01*
X74924433Y-95770996D01*
X75003456Y-95926086D01*
X75031657Y-95981433D01*
X75170483Y-96172510D01*
X75337490Y-96339517D01*
X75372127Y-96364683D01*
X75414792Y-96420013D01*
X75420771Y-96489626D01*
X75388165Y-96551421D01*
X75372130Y-96565315D01*
X75354365Y-96578222D01*
X75337488Y-96590484D01*
X75170485Y-96757487D01*
X75170485Y-96757488D01*
X75170483Y-96757490D01*
X75110862Y-96839550D01*
X75031657Y-96948566D01*
X74924433Y-97159003D01*
X74851446Y-97383631D01*
X74814500Y-97616902D01*
X74814500Y-97853097D01*
X74851446Y-98086368D01*
X74924433Y-98310996D01*
X75014811Y-98488371D01*
X75031657Y-98521433D01*
X75170483Y-98712510D01*
X75337490Y-98879517D01*
X75367187Y-98901093D01*
X75376571Y-98907911D01*
X75419237Y-98963241D01*
X75425239Y-99031687D01*
X76185589Y-99792037D01*
X76122007Y-99809075D01*
X76007993Y-99874901D01*
X75914901Y-99967993D01*
X75849075Y-100082007D01*
X75832037Y-100145589D01*
X75071863Y-99385415D01*
X75071862Y-99385415D01*
X75048446Y-99441947D01*
X75048431Y-99441987D01*
X75030457Y-99492939D01*
X75030455Y-99492946D01*
X75010000Y-99635219D01*
X75010000Y-100914785D01*
X75012893Y-100968762D01*
X75012893Y-100968764D01*
X75048438Y-101108030D01*
X75048442Y-101108043D01*
X75071862Y-101164584D01*
X75832037Y-100404410D01*
X75849075Y-100467993D01*
X75914901Y-100582007D01*
X76007993Y-100675099D01*
X76122007Y-100740925D01*
X76185587Y-100757961D01*
X75425238Y-101518311D01*
X75419075Y-101587170D01*
X75376574Y-101642085D01*
X75337493Y-101670480D01*
X75337487Y-101670485D01*
X75170485Y-101837487D01*
X75170485Y-101837488D01*
X75170483Y-101837490D01*
X75110862Y-101919550D01*
X75031657Y-102028566D01*
X74924433Y-102239003D01*
X74851446Y-102463631D01*
X74814500Y-102696902D01*
X74814500Y-102933097D01*
X74851446Y-103166368D01*
X74924433Y-103390996D01*
X75031657Y-103601433D01*
X75170483Y-103792510D01*
X75337490Y-103959517D01*
X75372127Y-103984683D01*
X75414792Y-104040013D01*
X75420771Y-104109626D01*
X75388165Y-104171421D01*
X75372130Y-104185315D01*
X75354365Y-104198222D01*
X75337488Y-104210484D01*
X75170485Y-104377487D01*
X75170485Y-104377488D01*
X75170483Y-104377490D01*
X75110862Y-104459550D01*
X75031657Y-104568566D01*
X74924433Y-104779003D01*
X74851446Y-105003631D01*
X74814500Y-105236902D01*
X74814500Y-105473097D01*
X74851446Y-105706368D01*
X74924433Y-105930996D01*
X74997846Y-106075076D01*
X75031657Y-106141433D01*
X75170483Y-106332510D01*
X75337490Y-106499517D01*
X75372127Y-106524683D01*
X75414792Y-106580013D01*
X75420771Y-106649626D01*
X75388165Y-106711421D01*
X75372130Y-106725315D01*
X75354365Y-106738222D01*
X75337488Y-106750484D01*
X75170485Y-106917487D01*
X75170485Y-106917488D01*
X75170483Y-106917490D01*
X75124264Y-106981105D01*
X75031657Y-107108566D01*
X74924433Y-107319003D01*
X74851446Y-107543631D01*
X74814500Y-107776902D01*
X74814500Y-108013097D01*
X74851446Y-108246368D01*
X74924433Y-108470996D01*
X75009417Y-108637785D01*
X75031657Y-108681433D01*
X75170483Y-108872510D01*
X75337490Y-109039517D01*
X75372127Y-109064683D01*
X75414792Y-109120013D01*
X75420771Y-109189626D01*
X75388165Y-109251421D01*
X75372130Y-109265315D01*
X75354365Y-109278222D01*
X75337488Y-109290484D01*
X75170485Y-109457487D01*
X75170485Y-109457488D01*
X75170483Y-109457490D01*
X75147076Y-109489707D01*
X75031657Y-109648566D01*
X74924433Y-109859003D01*
X74851446Y-110083631D01*
X74814500Y-110316902D01*
X74814500Y-110553097D01*
X74851446Y-110786368D01*
X74924433Y-111010996D01*
X74969040Y-111098541D01*
X75031657Y-111221433D01*
X75170483Y-111412510D01*
X75337490Y-111579517D01*
X75337493Y-111579519D01*
X75376571Y-111607911D01*
X75419237Y-111663241D01*
X75425239Y-111731687D01*
X76185589Y-112492037D01*
X76122007Y-112509075D01*
X76007993Y-112574901D01*
X75914901Y-112667993D01*
X75849075Y-112782007D01*
X75832037Y-112845589D01*
X75071863Y-112085415D01*
X75071862Y-112085415D01*
X75048446Y-112141947D01*
X75048431Y-112141987D01*
X75030457Y-112192939D01*
X75030455Y-112192946D01*
X75010000Y-112335219D01*
X75010000Y-113614785D01*
X75012893Y-113668762D01*
X75012893Y-113668764D01*
X75048438Y-113808030D01*
X75048442Y-113808043D01*
X75071862Y-113864584D01*
X75832037Y-113104410D01*
X75849075Y-113167993D01*
X75914901Y-113282007D01*
X76007993Y-113375099D01*
X76122007Y-113440925D01*
X76185589Y-113457962D01*
X75425238Y-114218311D01*
X75419075Y-114287170D01*
X75376574Y-114342085D01*
X75337493Y-114370480D01*
X75337487Y-114370485D01*
X75170485Y-114537487D01*
X75170485Y-114537488D01*
X75170483Y-114537490D01*
X75110862Y-114619550D01*
X75031657Y-114728566D01*
X74924433Y-114939003D01*
X74851446Y-115163631D01*
X74814500Y-115396902D01*
X74814500Y-115633097D01*
X74851446Y-115866368D01*
X74924433Y-116090996D01*
X74941543Y-116124575D01*
X75031657Y-116301433D01*
X75170483Y-116492510D01*
X75170485Y-116492512D01*
X75208314Y-116530341D01*
X75241799Y-116591664D01*
X75236815Y-116661356D01*
X75198670Y-116714387D01*
X75074743Y-116814742D01*
X74955614Y-116961853D01*
X74869680Y-117130512D01*
X74820687Y-117313356D01*
X74820687Y-117313357D01*
X74814500Y-117391973D01*
X74814500Y-118718010D01*
X74814501Y-118718029D01*
X74820687Y-118796643D01*
X74851747Y-118912562D01*
X74869680Y-118979488D01*
X74877434Y-118994706D01*
X74890330Y-119063375D01*
X74864053Y-119128115D01*
X74806947Y-119168372D01*
X74766949Y-119175000D01*
X71108444Y-119175000D01*
X71041405Y-119155315D01*
X70995650Y-119102511D01*
X70985706Y-119033353D01*
X71014731Y-118969797D01*
X71027905Y-118956716D01*
X71029785Y-118955108D01*
X71029792Y-118955104D01*
X71180104Y-118804792D01*
X71180106Y-118804788D01*
X71180109Y-118804786D01*
X71305048Y-118632820D01*
X71305047Y-118632820D01*
X71305051Y-118632816D01*
X71401557Y-118443412D01*
X71467246Y-118241243D01*
X71500500Y-118031287D01*
X71500500Y-117818713D01*
X71467246Y-117608757D01*
X71401557Y-117406588D01*
X71305051Y-117217184D01*
X71305049Y-117217181D01*
X71305048Y-117217179D01*
X71180109Y-117045213D01*
X71029786Y-116894890D01*
X70857820Y-116769951D01*
X70668414Y-116673444D01*
X70668413Y-116673443D01*
X70668412Y-116673443D01*
X70466243Y-116607754D01*
X70466241Y-116607753D01*
X70466240Y-116607753D01*
X70304957Y-116582208D01*
X70256287Y-116574500D01*
X70043713Y-116574500D01*
X69995042Y-116582208D01*
X69833760Y-116607753D01*
X69833757Y-116607754D01*
X69674442Y-116659519D01*
X69631585Y-116673444D01*
X69442179Y-116769951D01*
X69270213Y-116894890D01*
X69119890Y-117045213D01*
X68994951Y-117217179D01*
X68898444Y-117406585D01*
X68832753Y-117608760D01*
X68799500Y-117818713D01*
X68799500Y-118031286D01*
X68832753Y-118241239D01*
X68898444Y-118443414D01*
X68994951Y-118632820D01*
X69119890Y-118804786D01*
X69270208Y-118955104D01*
X69272095Y-118956716D01*
X69272611Y-118957507D01*
X69273653Y-118958549D01*
X69273434Y-118958767D01*
X69310284Y-119015227D01*
X69310777Y-119085095D01*
X69273418Y-119144138D01*
X69210069Y-119173610D01*
X69191556Y-119175000D01*
X65658444Y-119175000D01*
X65591405Y-119155315D01*
X65545650Y-119102511D01*
X65535706Y-119033353D01*
X65564731Y-118969797D01*
X65577905Y-118956716D01*
X65579785Y-118955108D01*
X65579792Y-118955104D01*
X65730104Y-118804792D01*
X65730106Y-118804788D01*
X65730109Y-118804786D01*
X65855048Y-118632820D01*
X65855047Y-118632820D01*
X65855051Y-118632816D01*
X65951557Y-118443412D01*
X66017246Y-118241243D01*
X66050500Y-118031287D01*
X66050500Y-117818713D01*
X66017246Y-117608757D01*
X65951557Y-117406588D01*
X65855051Y-117217184D01*
X65855049Y-117217181D01*
X65855048Y-117217179D01*
X65730109Y-117045213D01*
X65579786Y-116894890D01*
X65407820Y-116769951D01*
X65218414Y-116673444D01*
X65218413Y-116673443D01*
X65218412Y-116673443D01*
X65016243Y-116607754D01*
X65016241Y-116607753D01*
X65016240Y-116607753D01*
X64854957Y-116582208D01*
X64806287Y-116574500D01*
X64593713Y-116574500D01*
X64545042Y-116582208D01*
X64383760Y-116607753D01*
X64383757Y-116607754D01*
X64224442Y-116659519D01*
X64181585Y-116673444D01*
X63992179Y-116769951D01*
X63820213Y-116894890D01*
X63669890Y-117045213D01*
X63544951Y-117217179D01*
X63448444Y-117406585D01*
X63382753Y-117608760D01*
X63349500Y-117818713D01*
X63349500Y-118031286D01*
X63382753Y-118241239D01*
X63448444Y-118443414D01*
X63544951Y-118632820D01*
X63669890Y-118804786D01*
X63820208Y-118955104D01*
X63822095Y-118956716D01*
X63822611Y-118957507D01*
X63823653Y-118958549D01*
X63823434Y-118958767D01*
X63860284Y-119015227D01*
X63860777Y-119085095D01*
X63823418Y-119144138D01*
X63760069Y-119173610D01*
X63741556Y-119175000D01*
X59819356Y-119175000D01*
X59752317Y-119155315D01*
X59706562Y-119102511D01*
X59696618Y-119033353D01*
X59719038Y-118978114D01*
X59725081Y-118969797D01*
X59818343Y-118841433D01*
X59925568Y-118630992D01*
X59998553Y-118406368D01*
X60035500Y-118173097D01*
X60035500Y-117936902D01*
X59998553Y-117703631D01*
X59925566Y-117479003D01*
X59869002Y-117367991D01*
X59818343Y-117268567D01*
X59679517Y-117077490D01*
X59512510Y-116910483D01*
X59477872Y-116885317D01*
X59435207Y-116829989D01*
X59429228Y-116760375D01*
X59461833Y-116698580D01*
X59477873Y-116684682D01*
X59512510Y-116659517D01*
X59679517Y-116492510D01*
X59818343Y-116301433D01*
X59925568Y-116090992D01*
X59998553Y-115866368D01*
X60035500Y-115633097D01*
X60035500Y-115396902D01*
X59998553Y-115163631D01*
X59943716Y-114994863D01*
X59925568Y-114939008D01*
X59925566Y-114939005D01*
X59925566Y-114939003D01*
X59882208Y-114853909D01*
X59872494Y-114834844D01*
X59856007Y-114802486D01*
X63824500Y-114802486D01*
X63824500Y-114987513D01*
X63853445Y-115170265D01*
X63910619Y-115346232D01*
X63910620Y-115346235D01*
X63936440Y-115396908D01*
X63994622Y-115511096D01*
X64103379Y-115660787D01*
X64234213Y-115791621D01*
X64383904Y-115900378D01*
X64464763Y-115941577D01*
X64548764Y-115984379D01*
X64548767Y-115984380D01*
X64636750Y-116012967D01*
X64724736Y-116041555D01*
X64907486Y-116070500D01*
X64907487Y-116070500D01*
X65092513Y-116070500D01*
X65092514Y-116070500D01*
X65275264Y-116041555D01*
X65451235Y-115984379D01*
X65616096Y-115900378D01*
X65765787Y-115791621D01*
X65896621Y-115660787D01*
X66005378Y-115511096D01*
X66089379Y-115346235D01*
X66146555Y-115170264D01*
X66175500Y-114987514D01*
X66175500Y-114802486D01*
X68674500Y-114802486D01*
X68674500Y-114987513D01*
X68703445Y-115170265D01*
X68760619Y-115346232D01*
X68760620Y-115346235D01*
X68786440Y-115396908D01*
X68844622Y-115511096D01*
X68953379Y-115660787D01*
X69084213Y-115791621D01*
X69233904Y-115900378D01*
X69314763Y-115941577D01*
X69398764Y-115984379D01*
X69398767Y-115984380D01*
X69486750Y-116012967D01*
X69574736Y-116041555D01*
X69757486Y-116070500D01*
X69757487Y-116070500D01*
X69942513Y-116070500D01*
X69942514Y-116070500D01*
X70125264Y-116041555D01*
X70301235Y-115984379D01*
X70466096Y-115900378D01*
X70615787Y-115791621D01*
X70746621Y-115660787D01*
X70855378Y-115511096D01*
X70939379Y-115346235D01*
X70996555Y-115170264D01*
X71025500Y-114987514D01*
X71025500Y-114802486D01*
X70996555Y-114619736D01*
X70939379Y-114443765D01*
X70939379Y-114443764D01*
X70887570Y-114342085D01*
X70855378Y-114278904D01*
X70746621Y-114129213D01*
X70615787Y-113998379D01*
X70466096Y-113889622D01*
X70301235Y-113805620D01*
X70301232Y-113805619D01*
X70125265Y-113748445D01*
X70033889Y-113733972D01*
X69942514Y-113719500D01*
X69757486Y-113719500D01*
X69696569Y-113729148D01*
X69574734Y-113748445D01*
X69398767Y-113805619D01*
X69398764Y-113805620D01*
X69233903Y-113889622D01*
X69148499Y-113951672D01*
X69084213Y-113998379D01*
X69084211Y-113998381D01*
X69084210Y-113998381D01*
X68953381Y-114129210D01*
X68953381Y-114129211D01*
X68953379Y-114129213D01*
X68916586Y-114179854D01*
X68844622Y-114278903D01*
X68760620Y-114443764D01*
X68760619Y-114443767D01*
X68703445Y-114619734D01*
X68674500Y-114802486D01*
X66175500Y-114802486D01*
X66146555Y-114619736D01*
X66089379Y-114443765D01*
X66089379Y-114443764D01*
X66037570Y-114342085D01*
X66005378Y-114278904D01*
X65896621Y-114129213D01*
X65765787Y-113998379D01*
X65616096Y-113889622D01*
X65451235Y-113805620D01*
X65451232Y-113805619D01*
X65275265Y-113748445D01*
X65183889Y-113733972D01*
X65092514Y-113719500D01*
X64907486Y-113719500D01*
X64846569Y-113729148D01*
X64724734Y-113748445D01*
X64548767Y-113805619D01*
X64548764Y-113805620D01*
X64383903Y-113889622D01*
X64298499Y-113951672D01*
X64234213Y-113998379D01*
X64234211Y-113998381D01*
X64234210Y-113998381D01*
X64103381Y-114129210D01*
X64103381Y-114129211D01*
X64103379Y-114129213D01*
X64066586Y-114179854D01*
X63994622Y-114278903D01*
X63910620Y-114443764D01*
X63910619Y-114443767D01*
X63853445Y-114619734D01*
X63824500Y-114802486D01*
X59856007Y-114802486D01*
X59818343Y-114728567D01*
X59679517Y-114537490D01*
X59512510Y-114370483D01*
X59473424Y-114342085D01*
X59430761Y-114286756D01*
X59424759Y-114218310D01*
X58664410Y-113457962D01*
X58727993Y-113440925D01*
X58842007Y-113375099D01*
X58935099Y-113282007D01*
X59000925Y-113167993D01*
X59017962Y-113104410D01*
X59778135Y-113864584D01*
X59778136Y-113864584D01*
X59801552Y-113808053D01*
X59819544Y-113757053D01*
X59839999Y-113614780D01*
X59840000Y-113614779D01*
X59840000Y-112335224D01*
X59839999Y-112335204D01*
X59837106Y-112281237D01*
X59837106Y-112281235D01*
X59801561Y-112141969D01*
X59801559Y-112141962D01*
X59778135Y-112085414D01*
X59017962Y-112845588D01*
X59000925Y-112782007D01*
X58935099Y-112667993D01*
X58842007Y-112574901D01*
X58727993Y-112509075D01*
X58664410Y-112492037D01*
X59424760Y-111731686D01*
X59430922Y-111662831D01*
X59473424Y-111607914D01*
X59512510Y-111579517D01*
X59679517Y-111412510D01*
X59818343Y-111221433D01*
X59925568Y-111010992D01*
X59998553Y-110786368D01*
X60035500Y-110553097D01*
X60035500Y-110316902D01*
X59998553Y-110083631D01*
X59945762Y-109921158D01*
X59925568Y-109859008D01*
X59925566Y-109859005D01*
X59925566Y-109859003D01*
X59818342Y-109648566D01*
X59798179Y-109620814D01*
X59679517Y-109457490D01*
X59512510Y-109290483D01*
X59477872Y-109265317D01*
X59435207Y-109209989D01*
X59429228Y-109140375D01*
X59461833Y-109078580D01*
X59477873Y-109064682D01*
X59512510Y-109039517D01*
X59679517Y-108872510D01*
X59818343Y-108681433D01*
X59925568Y-108470992D01*
X59998553Y-108246368D01*
X60012861Y-108156033D01*
X60035500Y-108013097D01*
X60035500Y-107776902D01*
X59998553Y-107543631D01*
X59939608Y-107362218D01*
X59925568Y-107319008D01*
X59925566Y-107319005D01*
X59925566Y-107319003D01*
X59857192Y-107184812D01*
X59818343Y-107108567D01*
X59679517Y-106917490D01*
X59512510Y-106750483D01*
X59477872Y-106725317D01*
X59435207Y-106669989D01*
X59429228Y-106600375D01*
X59461833Y-106538580D01*
X59477873Y-106524682D01*
X59498081Y-106510000D01*
X59512510Y-106499517D01*
X59679517Y-106332510D01*
X59818343Y-106141433D01*
X59921630Y-105938719D01*
X59925566Y-105930996D01*
X59925566Y-105930995D01*
X59925568Y-105930992D01*
X59998553Y-105706368D01*
X60014913Y-105603076D01*
X60035500Y-105473097D01*
X60035500Y-105236902D01*
X59998553Y-105003631D01*
X59925566Y-104779003D01*
X59857192Y-104644812D01*
X59818343Y-104568567D01*
X59679517Y-104377490D01*
X59512510Y-104210483D01*
X59477872Y-104185317D01*
X59435207Y-104129989D01*
X59429228Y-104060375D01*
X59461833Y-103998580D01*
X59477873Y-103984682D01*
X59512510Y-103959517D01*
X59679517Y-103792510D01*
X59818343Y-103601433D01*
X59925568Y-103390992D01*
X59998553Y-103166368D01*
X60009049Y-103100099D01*
X60035500Y-102933097D01*
X60035500Y-102696902D01*
X59998553Y-102463631D01*
X59931016Y-102255776D01*
X59925568Y-102239008D01*
X59925566Y-102239005D01*
X59925566Y-102239003D01*
X59853799Y-102098154D01*
X59818343Y-102028567D01*
X59679517Y-101837490D01*
X59643311Y-101801284D01*
X59609826Y-101739961D01*
X59614810Y-101670269D01*
X59654519Y-101615992D01*
X59701632Y-101579081D01*
X59747155Y-101543416D01*
X59803416Y-101487155D01*
X59872800Y-101406411D01*
X59956350Y-101258271D01*
X59986798Y-101184762D01*
X60019999Y-101083619D01*
X60033945Y-100968764D01*
X60040500Y-100914784D01*
X60040500Y-99635226D01*
X60040500Y-99635218D01*
X60032469Y-99529069D01*
X59993649Y-99389815D01*
X59986799Y-99365241D01*
X59986798Y-99365239D01*
X59979393Y-99347361D01*
X59956350Y-99291729D01*
X59908306Y-99196727D01*
X59905527Y-99193180D01*
X59803413Y-99062841D01*
X59747174Y-99006602D01*
X59747146Y-99006576D01*
X59666411Y-98937200D01*
X59662930Y-98934758D01*
X59619353Y-98880143D01*
X59612221Y-98810638D01*
X59643799Y-98748311D01*
X59646463Y-98745564D01*
X59679512Y-98712515D01*
X59679512Y-98712514D01*
X59679517Y-98712510D01*
X59818343Y-98521433D01*
X59925568Y-98310992D01*
X59998553Y-98086368D01*
X60014913Y-97983076D01*
X60035500Y-97853097D01*
X60035500Y-97616902D01*
X59998553Y-97383631D01*
X59945840Y-97221398D01*
X59925568Y-97159008D01*
X59925566Y-97159005D01*
X59925566Y-97159003D01*
X59818342Y-96948566D01*
X59790532Y-96910289D01*
X59679517Y-96757490D01*
X59512510Y-96590483D01*
X59477872Y-96565317D01*
X59435207Y-96509989D01*
X59429228Y-96440375D01*
X59461833Y-96378580D01*
X59477873Y-96364682D01*
X59512510Y-96339517D01*
X59679517Y-96172510D01*
X59818343Y-95981433D01*
X59925568Y-95770992D01*
X59998553Y-95546368D01*
X60005868Y-95500185D01*
X60035500Y-95313097D01*
X60035500Y-95076902D01*
X59998553Y-94843631D01*
X59925566Y-94619003D01*
X59818342Y-94408566D01*
X59806182Y-94391829D01*
X59679517Y-94217490D01*
X59512510Y-94050483D01*
X59477872Y-94025317D01*
X59435207Y-93969989D01*
X59429228Y-93900375D01*
X59461833Y-93838580D01*
X59477873Y-93824682D01*
X59498081Y-93810000D01*
X59512510Y-93799517D01*
X59679517Y-93632510D01*
X59818343Y-93441433D01*
X59925568Y-93230992D01*
X59998553Y-93006368D01*
X60001654Y-92986789D01*
X60035500Y-92773097D01*
X60035500Y-92536902D01*
X59998553Y-92303631D01*
X59935502Y-92109582D01*
X59925568Y-92079008D01*
X59925566Y-92079005D01*
X59925566Y-92079003D01*
X59840561Y-91912172D01*
X59818343Y-91868567D01*
X59679517Y-91677490D01*
X59512510Y-91510483D01*
X59477872Y-91485317D01*
X59435207Y-91429989D01*
X59429228Y-91360375D01*
X59461833Y-91298580D01*
X59477873Y-91284682D01*
X59479024Y-91283846D01*
X59512510Y-91259517D01*
X59679517Y-91092510D01*
X59818343Y-90901433D01*
X59925568Y-90690992D01*
X59998553Y-90466368D01*
X60005614Y-90421786D01*
X60035500Y-90233097D01*
X60035500Y-89996902D01*
X59998553Y-89763631D01*
X59956823Y-89635202D01*
X59925568Y-89539008D01*
X59925566Y-89539005D01*
X59925566Y-89539003D01*
X59818342Y-89328566D01*
X59679517Y-89137490D01*
X59512510Y-88970483D01*
X59473424Y-88942085D01*
X59430761Y-88886756D01*
X59424759Y-88818310D01*
X58664410Y-88057962D01*
X58727993Y-88040925D01*
X58842007Y-87975099D01*
X58935099Y-87882007D01*
X59000925Y-87767993D01*
X59017962Y-87704410D01*
X59778135Y-88464584D01*
X59778136Y-88464584D01*
X59801552Y-88408053D01*
X59819544Y-88357053D01*
X59839999Y-88214780D01*
X59840000Y-88214779D01*
X59840000Y-86935224D01*
X59839999Y-86935204D01*
X59837106Y-86881237D01*
X59837106Y-86881235D01*
X59801561Y-86741969D01*
X59801559Y-86741962D01*
X59778135Y-86685414D01*
X59017962Y-87445588D01*
X59000925Y-87382007D01*
X58935099Y-87267993D01*
X58842007Y-87174901D01*
X58727993Y-87109075D01*
X58664410Y-87092037D01*
X59424760Y-86331686D01*
X59430922Y-86262831D01*
X59473424Y-86207914D01*
X59512510Y-86179517D01*
X59679517Y-86012510D01*
X59818343Y-85821433D01*
X59925568Y-85610992D01*
X59998553Y-85386368D01*
X60005943Y-85339707D01*
X60035500Y-85153097D01*
X60035500Y-84916902D01*
X59998553Y-84683631D01*
X59925566Y-84459003D01*
X59818342Y-84248566D01*
X59679517Y-84057490D01*
X59512510Y-83890483D01*
X59477872Y-83865317D01*
X59435207Y-83809989D01*
X59429228Y-83740375D01*
X59461833Y-83678580D01*
X59477873Y-83664682D01*
X59512510Y-83639517D01*
X59679517Y-83472510D01*
X59818343Y-83281433D01*
X59925568Y-83070992D01*
X59998553Y-82846368D01*
X60012359Y-82759202D01*
X60035500Y-82613097D01*
X60035500Y-82376902D01*
X59998553Y-82143631D01*
X59925566Y-81919003D01*
X59836342Y-81743893D01*
X59818343Y-81708567D01*
X59679517Y-81517490D01*
X59512510Y-81350483D01*
X59477872Y-81325317D01*
X59435207Y-81269989D01*
X59429228Y-81200375D01*
X59461833Y-81138580D01*
X59477873Y-81124682D01*
X59512510Y-81099517D01*
X59679517Y-80932510D01*
X59818343Y-80741433D01*
X59925568Y-80530992D01*
X59998553Y-80306368D01*
X60007310Y-80251079D01*
X60035500Y-80073097D01*
X60035500Y-79836902D01*
X59998553Y-79603631D01*
X59925566Y-79379003D01*
X59818342Y-79168566D01*
X59812724Y-79160833D01*
X59679517Y-78977490D01*
X59512510Y-78810483D01*
X59477872Y-78785317D01*
X59435207Y-78729989D01*
X59429228Y-78660375D01*
X59461833Y-78598580D01*
X59477873Y-78584682D01*
X59512510Y-78559517D01*
X59679517Y-78392510D01*
X59818343Y-78201433D01*
X59925568Y-77990992D01*
X59998553Y-77766368D01*
X60005027Y-77725492D01*
X60035500Y-77533097D01*
X60035500Y-77296902D01*
X59998553Y-77063631D01*
X59957715Y-76937947D01*
X59925568Y-76839008D01*
X59925566Y-76839005D01*
X59925566Y-76839003D01*
X59818342Y-76628566D01*
X59679517Y-76437490D01*
X59512510Y-76270483D01*
X59473424Y-76242085D01*
X59430761Y-76186756D01*
X59424759Y-76118310D01*
X58664410Y-75357962D01*
X58727993Y-75340925D01*
X58842007Y-75275099D01*
X58935099Y-75182007D01*
X59000925Y-75067993D01*
X59017962Y-75004410D01*
X59778135Y-75764584D01*
X59778136Y-75764584D01*
X59801552Y-75708053D01*
X59819544Y-75657053D01*
X59839999Y-75514780D01*
X59840000Y-75514779D01*
X59840000Y-74235214D01*
X59837106Y-74181237D01*
X59837106Y-74181235D01*
X59801561Y-74041969D01*
X59801559Y-74041962D01*
X59778135Y-73985414D01*
X59017962Y-74745588D01*
X59000925Y-74682007D01*
X58935099Y-74567993D01*
X58842007Y-74474901D01*
X58727993Y-74409075D01*
X58664410Y-74392037D01*
X59424760Y-73631686D01*
X59430922Y-73562831D01*
X59473424Y-73507914D01*
X59512510Y-73479517D01*
X59679517Y-73312510D01*
X59818343Y-73121433D01*
X59925568Y-72910992D01*
X59998553Y-72686368D01*
X60014592Y-72585104D01*
X60325000Y-72585104D01*
X60325000Y-72585105D01*
X60325000Y-76925000D01*
X74525000Y-76925000D01*
X74525000Y-72585105D01*
X74524999Y-72585104D01*
X69872944Y-68972338D01*
X69832069Y-68915672D01*
X69825000Y-68874402D01*
X69825000Y-67925000D01*
X65025000Y-67925000D01*
X65025000Y-68874402D01*
X65005315Y-68941441D01*
X64977056Y-68972338D01*
X60325000Y-72585104D01*
X60014592Y-72585104D01*
X60022214Y-72536984D01*
X60022214Y-72536983D01*
X60035500Y-72453098D01*
X60035500Y-72216910D01*
X60035499Y-72216902D01*
X60011155Y-72063205D01*
X60020109Y-71993915D01*
X60045944Y-71956132D01*
X73191259Y-58810819D01*
X73252582Y-58777334D01*
X73278940Y-58774500D01*
X75794060Y-58774500D01*
X75861099Y-58794185D01*
G37*
%TD.AperFunction*%
%TA.AperFunction,Conductor*%
G36*
X144413039Y-25520185D02*
G01*
X144458794Y-25572989D01*
X144470000Y-25624500D01*
X144470000Y-119051000D01*
X144450315Y-119118039D01*
X144397511Y-119163794D01*
X144346000Y-119175000D01*
X77863051Y-119175000D01*
X77796012Y-119155315D01*
X77750257Y-119102511D01*
X77740313Y-119033353D01*
X77752566Y-118994706D01*
X77760320Y-118979488D01*
X77809312Y-118796645D01*
X77815500Y-118718021D01*
X77815499Y-117391980D01*
X77809312Y-117313355D01*
X77760320Y-117130512D01*
X77707674Y-117027188D01*
X77674385Y-116961853D01*
X77640849Y-116920440D01*
X77555257Y-116814743D01*
X77464652Y-116741372D01*
X77431330Y-116714388D01*
X77391618Y-116656900D01*
X77389291Y-116587069D01*
X77421685Y-116530341D01*
X77459517Y-116492510D01*
X77598343Y-116301433D01*
X77705568Y-116090992D01*
X77775607Y-115875435D01*
X118599500Y-115875435D01*
X118599500Y-116124565D01*
X118632018Y-116371565D01*
X118664426Y-116492512D01*
X118696498Y-116612207D01*
X118791830Y-116842361D01*
X118791837Y-116842376D01*
X118916400Y-117058126D01*
X119068060Y-117255774D01*
X119068066Y-117255781D01*
X119244218Y-117431933D01*
X119244225Y-117431939D01*
X119441873Y-117583599D01*
X119657623Y-117708162D01*
X119657638Y-117708169D01*
X119753150Y-117747731D01*
X119887793Y-117803502D01*
X120128435Y-117867982D01*
X120375435Y-117900500D01*
X120375442Y-117900500D01*
X120624558Y-117900500D01*
X120624565Y-117900500D01*
X120871565Y-117867982D01*
X121112207Y-117803502D01*
X121342373Y-117708164D01*
X121558127Y-117583599D01*
X121755776Y-117431938D01*
X121931938Y-117255776D01*
X122083599Y-117058127D01*
X122142613Y-116955910D01*
X122193179Y-116907696D01*
X122261786Y-116894472D01*
X122326651Y-116920440D01*
X122357386Y-116955910D01*
X122385806Y-117005135D01*
X122416401Y-117058128D01*
X122568060Y-117255774D01*
X122568066Y-117255781D01*
X122744218Y-117431933D01*
X122744225Y-117431939D01*
X122941873Y-117583599D01*
X123157623Y-117708162D01*
X123157638Y-117708169D01*
X123253150Y-117747731D01*
X123387793Y-117803502D01*
X123628435Y-117867982D01*
X123875435Y-117900500D01*
X123875442Y-117900500D01*
X124124558Y-117900500D01*
X124124565Y-117900500D01*
X124371565Y-117867982D01*
X124612207Y-117803502D01*
X124842373Y-117708164D01*
X125058127Y-117583599D01*
X125255776Y-117431938D01*
X125431938Y-117255776D01*
X125583599Y-117058127D01*
X125642613Y-116955910D01*
X125693179Y-116907696D01*
X125761786Y-116894472D01*
X125826651Y-116920440D01*
X125857386Y-116955910D01*
X125885806Y-117005135D01*
X125916401Y-117058128D01*
X126068060Y-117255774D01*
X126068066Y-117255781D01*
X126244218Y-117431933D01*
X126244225Y-117431939D01*
X126441873Y-117583599D01*
X126657623Y-117708162D01*
X126657638Y-117708169D01*
X126753150Y-117747731D01*
X126887793Y-117803502D01*
X127128435Y-117867982D01*
X127375435Y-117900500D01*
X127375442Y-117900500D01*
X127624558Y-117900500D01*
X127624565Y-117900500D01*
X127871565Y-117867982D01*
X128112207Y-117803502D01*
X128342373Y-117708164D01*
X128558127Y-117583599D01*
X128755776Y-117431938D01*
X128931938Y-117255776D01*
X128940060Y-117245190D01*
X128996485Y-117203984D01*
X129066231Y-117199825D01*
X129127153Y-117234034D01*
X129157655Y-117286556D01*
X129162761Y-117304401D01*
X129162762Y-117304402D01*
X129162763Y-117304405D01*
X129252266Y-117475750D01*
X129254923Y-117479008D01*
X129374428Y-117625571D01*
X129463648Y-117698319D01*
X129524250Y-117747734D01*
X129695595Y-117837237D01*
X129881449Y-117890417D01*
X129994863Y-117900500D01*
X132005136Y-117900499D01*
X132118551Y-117890417D01*
X132304405Y-117837237D01*
X132475750Y-117747734D01*
X132625571Y-117625571D01*
X132747734Y-117475750D01*
X132837237Y-117304405D01*
X132890417Y-117118551D01*
X132900500Y-117005137D01*
X132900499Y-114994864D01*
X132890417Y-114881449D01*
X132837237Y-114695595D01*
X132747734Y-114524250D01*
X132659794Y-114416400D01*
X132625571Y-114374428D01*
X132475752Y-114252268D01*
X132475753Y-114252268D01*
X132475750Y-114252266D01*
X132304405Y-114162763D01*
X132118551Y-114109583D01*
X132118550Y-114109582D01*
X132118547Y-114109582D01*
X132051431Y-114103615D01*
X132005137Y-114099500D01*
X132005132Y-114099500D01*
X129994871Y-114099500D01*
X129994863Y-114099501D01*
X129881453Y-114109582D01*
X129881449Y-114109582D01*
X129881449Y-114109583D01*
X129856038Y-114116854D01*
X129695597Y-114162762D01*
X129695595Y-114162762D01*
X129695595Y-114162763D01*
X129524250Y-114252266D01*
X129524248Y-114252267D01*
X129524247Y-114252268D01*
X129374428Y-114374428D01*
X129252268Y-114524247D01*
X129252266Y-114524250D01*
X129202389Y-114619734D01*
X129162759Y-114695602D01*
X129157654Y-114713444D01*
X129120285Y-114772481D01*
X129056930Y-114801942D01*
X128987705Y-114792474D01*
X128940062Y-114754812D01*
X128931935Y-114744220D01*
X128755781Y-114568066D01*
X128755774Y-114568060D01*
X128558126Y-114416400D01*
X128342376Y-114291837D01*
X128342361Y-114291830D01*
X128112207Y-114196498D01*
X128049945Y-114179815D01*
X127871565Y-114132018D01*
X127871564Y-114132017D01*
X127871561Y-114132017D01*
X127624575Y-114099501D01*
X127624570Y-114099500D01*
X127624565Y-114099500D01*
X127375435Y-114099500D01*
X127375429Y-114099500D01*
X127375424Y-114099501D01*
X127128438Y-114132017D01*
X126887792Y-114196498D01*
X126657638Y-114291830D01*
X126657623Y-114291837D01*
X126441873Y-114416400D01*
X126244225Y-114568060D01*
X126244218Y-114568066D01*
X126068066Y-114744218D01*
X126068060Y-114744225D01*
X125916400Y-114941873D01*
X125857387Y-115044088D01*
X125806820Y-115092303D01*
X125738213Y-115105527D01*
X125673348Y-115079559D01*
X125642613Y-115044088D01*
X125583599Y-114941873D01*
X125431939Y-114744225D01*
X125431933Y-114744218D01*
X125255781Y-114568066D01*
X125255774Y-114568060D01*
X125058126Y-114416400D01*
X124842376Y-114291837D01*
X124842361Y-114291830D01*
X124612207Y-114196498D01*
X124549945Y-114179815D01*
X124371565Y-114132018D01*
X124371564Y-114132017D01*
X124371561Y-114132017D01*
X124124575Y-114099501D01*
X124124570Y-114099500D01*
X124124565Y-114099500D01*
X123875435Y-114099500D01*
X123875429Y-114099500D01*
X123875424Y-114099501D01*
X123628438Y-114132017D01*
X123387792Y-114196498D01*
X123157638Y-114291830D01*
X123157623Y-114291837D01*
X122941873Y-114416400D01*
X122744225Y-114568060D01*
X122744218Y-114568066D01*
X122568066Y-114744218D01*
X122568060Y-114744225D01*
X122416400Y-114941873D01*
X122357387Y-115044088D01*
X122306820Y-115092303D01*
X122238213Y-115105527D01*
X122173348Y-115079559D01*
X122142613Y-115044088D01*
X122083599Y-114941873D01*
X121931939Y-114744225D01*
X121931933Y-114744218D01*
X121755781Y-114568066D01*
X121755774Y-114568060D01*
X121558126Y-114416400D01*
X121342376Y-114291837D01*
X121342361Y-114291830D01*
X121112207Y-114196498D01*
X121049945Y-114179815D01*
X120871565Y-114132018D01*
X120871564Y-114132017D01*
X120871561Y-114132017D01*
X120624575Y-114099501D01*
X120624570Y-114099500D01*
X120624565Y-114099500D01*
X120375435Y-114099500D01*
X120375429Y-114099500D01*
X120375424Y-114099501D01*
X120128438Y-114132017D01*
X119887792Y-114196498D01*
X119657638Y-114291830D01*
X119657623Y-114291837D01*
X119441873Y-114416400D01*
X119244225Y-114568060D01*
X119244218Y-114568066D01*
X119068066Y-114744218D01*
X119068060Y-114744225D01*
X118916400Y-114941873D01*
X118791837Y-115157623D01*
X118791830Y-115157638D01*
X118696498Y-115387792D01*
X118632017Y-115628438D01*
X118599501Y-115875424D01*
X118599500Y-115875435D01*
X77775607Y-115875435D01*
X77778553Y-115866368D01*
X77815500Y-115633097D01*
X77815500Y-115396902D01*
X77778553Y-115163631D01*
X77723716Y-114994863D01*
X77705568Y-114939008D01*
X77705566Y-114939005D01*
X77705566Y-114939003D01*
X77649002Y-114827991D01*
X77598343Y-114728567D01*
X77459517Y-114537490D01*
X77292510Y-114370483D01*
X77101433Y-114231657D01*
X77101432Y-114231656D01*
X77101426Y-114231652D01*
X77097281Y-114229112D01*
X77098408Y-114227272D01*
X77054334Y-114184834D01*
X77038194Y-114116854D01*
X77038620Y-114111206D01*
X77043912Y-114057464D01*
X76444410Y-113457962D01*
X76507993Y-113440925D01*
X76622007Y-113375099D01*
X76715099Y-113282007D01*
X76780925Y-113167993D01*
X76797962Y-113104410D01*
X77397465Y-113703913D01*
X77443837Y-113634515D01*
X77443838Y-113634511D01*
X77490509Y-113547198D01*
X77550814Y-113401612D01*
X77579555Y-113306864D01*
X77610298Y-113152302D01*
X77610298Y-113152299D01*
X77620000Y-113053789D01*
X77620000Y-112896210D01*
X77610298Y-112797700D01*
X77610298Y-112797697D01*
X77579555Y-112643135D01*
X77550814Y-112548387D01*
X77490509Y-112402801D01*
X77443844Y-112315498D01*
X77443838Y-112315488D01*
X77397465Y-112246085D01*
X76797962Y-112845588D01*
X76780925Y-112782007D01*
X76715099Y-112667993D01*
X76622007Y-112574901D01*
X76507993Y-112509075D01*
X76444410Y-112492037D01*
X77043912Y-111892534D01*
X77038619Y-111838794D01*
X77051638Y-111770148D01*
X77097695Y-111721553D01*
X77097285Y-111720884D01*
X77101418Y-111718350D01*
X77101433Y-111718343D01*
X77292510Y-111579517D01*
X77459517Y-111412510D01*
X77598343Y-111221433D01*
X77705568Y-111010992D01*
X77778553Y-110786368D01*
X77815500Y-110553097D01*
X77815500Y-110316902D01*
X77778553Y-110083631D01*
X77725762Y-109921158D01*
X77705568Y-109859008D01*
X77705566Y-109859005D01*
X77705566Y-109859003D01*
X77598342Y-109648566D01*
X77578179Y-109620814D01*
X77459517Y-109457490D01*
X77292510Y-109290483D01*
X77257872Y-109265317D01*
X77215207Y-109209989D01*
X77209228Y-109140375D01*
X77241833Y-109078580D01*
X77257873Y-109064682D01*
X77292510Y-109039517D01*
X77459517Y-108872510D01*
X77598343Y-108681433D01*
X77705568Y-108470992D01*
X77778553Y-108246368D01*
X77792861Y-108156033D01*
X77815500Y-108013097D01*
X77815500Y-107776902D01*
X77778553Y-107543631D01*
X77719608Y-107362218D01*
X77705568Y-107319008D01*
X77705566Y-107319005D01*
X77705566Y-107319003D01*
X77637192Y-107184812D01*
X77598343Y-107108567D01*
X77459517Y-106917490D01*
X77292510Y-106750483D01*
X77257872Y-106725317D01*
X77215207Y-106669989D01*
X77209228Y-106600375D01*
X77241833Y-106538580D01*
X77257873Y-106524682D01*
X77278081Y-106510000D01*
X77292510Y-106499517D01*
X77459517Y-106332510D01*
X77598343Y-106141433D01*
X77701630Y-105938719D01*
X77705566Y-105930996D01*
X77705566Y-105930995D01*
X77705568Y-105930992D01*
X77778553Y-105706368D01*
X77794913Y-105603076D01*
X77815500Y-105473097D01*
X77815500Y-105236902D01*
X77778553Y-105003631D01*
X77705566Y-104779003D01*
X77697407Y-104762991D01*
X77684511Y-104694322D01*
X77710787Y-104629582D01*
X77767893Y-104589324D01*
X77837699Y-104586332D01*
X77895573Y-104619015D01*
X88786847Y-115510289D01*
X88898344Y-115621786D01*
X88898348Y-115621790D01*
X89029451Y-115709390D01*
X89029457Y-115709394D01*
X89132469Y-115752062D01*
X89175138Y-115769737D01*
X89285156Y-115791621D01*
X89329788Y-115800499D01*
X89329791Y-115800500D01*
X89329793Y-115800500D01*
X117078844Y-115800500D01*
X117078845Y-115800499D01*
X117233497Y-115769737D01*
X117379179Y-115709394D01*
X117510289Y-115621789D01*
X127646789Y-105485289D01*
X127734394Y-105354179D01*
X127794737Y-105208497D01*
X127825500Y-105053842D01*
X127825500Y-104896158D01*
X127825500Y-100515434D01*
X127845185Y-100448395D01*
X127846398Y-100446543D01*
X127875647Y-100402769D01*
X127911632Y-100348914D01*
X127987051Y-100166835D01*
X128017694Y-100012785D01*
X128025500Y-99973543D01*
X128025500Y-99776456D01*
X127987052Y-99583170D01*
X127987051Y-99583169D01*
X127987051Y-99583165D01*
X127964643Y-99529067D01*
X127911635Y-99401092D01*
X127911628Y-99401079D01*
X127802139Y-99237218D01*
X127802136Y-99237214D01*
X127662785Y-99097863D01*
X127662781Y-99097860D01*
X127498920Y-98988371D01*
X127498907Y-98988364D01*
X127316839Y-98912950D01*
X127316829Y-98912947D01*
X127123543Y-98874500D01*
X127123541Y-98874500D01*
X126926459Y-98874500D01*
X126926457Y-98874500D01*
X126733170Y-98912947D01*
X126733160Y-98912950D01*
X126551092Y-98988364D01*
X126551079Y-98988371D01*
X126387218Y-99097860D01*
X126387214Y-99097863D01*
X126247863Y-99237214D01*
X126247860Y-99237218D01*
X126138371Y-99401079D01*
X126138364Y-99401092D01*
X126062950Y-99583160D01*
X126062947Y-99583170D01*
X126024500Y-99776456D01*
X126024500Y-99776459D01*
X126024500Y-99973541D01*
X126024500Y-99973543D01*
X126024499Y-99973543D01*
X126062947Y-100166829D01*
X126062950Y-100166839D01*
X126138364Y-100348907D01*
X126138371Y-100348919D01*
X126203602Y-100446543D01*
X126224480Y-100513220D01*
X126224500Y-100515434D01*
X126224500Y-104592060D01*
X126204815Y-104659099D01*
X126188181Y-104679741D01*
X116704741Y-114163181D01*
X116643418Y-114196666D01*
X116617060Y-114199500D01*
X114231940Y-114199500D01*
X114164901Y-114179815D01*
X114119146Y-114127011D01*
X114109202Y-114057853D01*
X114138227Y-113994297D01*
X114144259Y-113987819D01*
X116140259Y-111991819D01*
X116201582Y-111958334D01*
X116227940Y-111955500D01*
X116703844Y-111955500D01*
X116703845Y-111955499D01*
X116858497Y-111924737D01*
X117004179Y-111864394D01*
X117135289Y-111776789D01*
X119577429Y-109334647D01*
X119638750Y-109301164D01*
X119684504Y-109299857D01*
X119877973Y-109330500D01*
X119877974Y-109330500D01*
X120122026Y-109330500D01*
X120122027Y-109330500D01*
X120363076Y-109292321D01*
X120595185Y-109216904D01*
X120812639Y-109106106D01*
X121010083Y-108962655D01*
X121182655Y-108790083D01*
X121326106Y-108592639D01*
X121436904Y-108375185D01*
X121512321Y-108143076D01*
X121550500Y-107902027D01*
X121550500Y-107657973D01*
X121512321Y-107416924D01*
X121436904Y-107184815D01*
X121326106Y-106967361D01*
X121267586Y-106886815D01*
X121182660Y-106769923D01*
X121182656Y-106769918D01*
X121010419Y-106597681D01*
X120976934Y-106536358D01*
X120981918Y-106466666D01*
X121010419Y-106422319D01*
X121071380Y-106361358D01*
X121182655Y-106250083D01*
X121326106Y-106052639D01*
X121436904Y-105835185D01*
X121512321Y-105603076D01*
X121550500Y-105362027D01*
X121550500Y-105117973D01*
X121512321Y-104876924D01*
X121436904Y-104644815D01*
X121326106Y-104427361D01*
X121215773Y-104275500D01*
X121182660Y-104229923D01*
X121182656Y-104229918D01*
X121010081Y-104057343D01*
X121010076Y-104057339D01*
X120813310Y-103914381D01*
X120770644Y-103859052D01*
X120764617Y-103818170D01*
X120129408Y-103182962D01*
X120192993Y-103165925D01*
X120307007Y-103100099D01*
X120400099Y-103007007D01*
X120465925Y-102892993D01*
X120482962Y-102829409D01*
X121115270Y-103461717D01*
X121115270Y-103461716D01*
X121154622Y-103407554D01*
X121251095Y-103218217D01*
X121316757Y-103016130D01*
X121316757Y-103016127D01*
X121350000Y-102806246D01*
X121350000Y-102593753D01*
X121316757Y-102383872D01*
X121316757Y-102383869D01*
X121251095Y-102181782D01*
X121154624Y-101992449D01*
X121115270Y-101938282D01*
X121115269Y-101938282D01*
X120482962Y-102570590D01*
X120465925Y-102507007D01*
X120400099Y-102392993D01*
X120307007Y-102299901D01*
X120192993Y-102234075D01*
X120129409Y-102217037D01*
X120765714Y-101580730D01*
X120776940Y-101527289D01*
X120813306Y-101485621D01*
X121010083Y-101342655D01*
X121182655Y-101170083D01*
X121326106Y-100972639D01*
X121436904Y-100755185D01*
X121512321Y-100523076D01*
X121550500Y-100282027D01*
X121550500Y-100037973D01*
X121512321Y-99796924D01*
X121436904Y-99564815D01*
X121326106Y-99347361D01*
X121267115Y-99266166D01*
X121182660Y-99149923D01*
X121182656Y-99149918D01*
X121010419Y-98977681D01*
X120976934Y-98916358D01*
X120981918Y-98846666D01*
X121010419Y-98802319D01*
X121075524Y-98737214D01*
X121182655Y-98630083D01*
X121326106Y-98432639D01*
X121436904Y-98215185D01*
X121512321Y-97983076D01*
X121550500Y-97742027D01*
X121550500Y-97497973D01*
X121512321Y-97256924D01*
X121436904Y-97024815D01*
X121326106Y-96807361D01*
X121242172Y-96691835D01*
X121182660Y-96609923D01*
X121182656Y-96609918D01*
X121010419Y-96437681D01*
X120976934Y-96376358D01*
X120981918Y-96306666D01*
X121010419Y-96262319D01*
X121071380Y-96201358D01*
X121182655Y-96090083D01*
X121326106Y-95892639D01*
X121436904Y-95675185D01*
X121512321Y-95443076D01*
X121550500Y-95202027D01*
X121550500Y-94957973D01*
X121512321Y-94716924D01*
X121436904Y-94484815D01*
X121326106Y-94267361D01*
X121212230Y-94110623D01*
X121182660Y-94069923D01*
X121182656Y-94069918D01*
X121010419Y-93897681D01*
X120976934Y-93836358D01*
X120981918Y-93766666D01*
X121010419Y-93722319D01*
X121089642Y-93643096D01*
X121182655Y-93550083D01*
X121326106Y-93352639D01*
X121436904Y-93135185D01*
X121512321Y-92903076D01*
X121550500Y-92662027D01*
X121550500Y-92417973D01*
X121512321Y-92176924D01*
X121436904Y-91944815D01*
X121326106Y-91727361D01*
X121326104Y-91727358D01*
X121326103Y-91727356D01*
X121230449Y-91595698D01*
X121206969Y-91529891D01*
X121222795Y-91461838D01*
X121266621Y-91416694D01*
X121278313Y-91409626D01*
X121285185Y-91405472D01*
X121405472Y-91285185D01*
X121493478Y-91139606D01*
X121544086Y-90977196D01*
X121550500Y-90906616D01*
X121550500Y-89093384D01*
X121544086Y-89022804D01*
X121493478Y-88860394D01*
X121405472Y-88714815D01*
X121405470Y-88714813D01*
X121405469Y-88714811D01*
X121285188Y-88594530D01*
X121139606Y-88506522D01*
X121017336Y-88468422D01*
X120977196Y-88455914D01*
X120977194Y-88455913D01*
X120977192Y-88455913D01*
X120927778Y-88451423D01*
X120906616Y-88449500D01*
X119093384Y-88449500D01*
X119074145Y-88451248D01*
X119022807Y-88455913D01*
X118860393Y-88506522D01*
X118714811Y-88594530D01*
X118594530Y-88714811D01*
X118506522Y-88860393D01*
X118455913Y-89022807D01*
X118449500Y-89093386D01*
X118449500Y-90906613D01*
X118455913Y-90977192D01*
X118455913Y-90977194D01*
X118455914Y-90977196D01*
X118506522Y-91139606D01*
X118568238Y-91241697D01*
X118594530Y-91285188D01*
X118714813Y-91405471D01*
X118714817Y-91405474D01*
X118733382Y-91416697D01*
X118780570Y-91468224D01*
X118792409Y-91537084D01*
X118769551Y-91595699D01*
X118673896Y-91727357D01*
X118563097Y-91944812D01*
X118486771Y-92179718D01*
X118447333Y-92237394D01*
X118382975Y-92264592D01*
X118314128Y-92252677D01*
X118281159Y-92229081D01*
X116961819Y-90909741D01*
X116928334Y-90848418D01*
X116925500Y-90822060D01*
X116925500Y-87571155D01*
X116925499Y-87571153D01*
X116919533Y-87541158D01*
X116894737Y-87416503D01*
X116886947Y-87397697D01*
X116834397Y-87270827D01*
X116834390Y-87270814D01*
X116746790Y-87139712D01*
X116704938Y-87097860D01*
X116635289Y-87028211D01*
X111468893Y-81861815D01*
X111435408Y-81800492D01*
X111434986Y-81798468D01*
X111412051Y-81683165D01*
X111343426Y-81517488D01*
X111336635Y-81501092D01*
X111336628Y-81501079D01*
X111227139Y-81337218D01*
X111227136Y-81337214D01*
X111087785Y-81197863D01*
X111087781Y-81197860D01*
X110923920Y-81088371D01*
X110923907Y-81088364D01*
X110741839Y-81012950D01*
X110741829Y-81012947D01*
X110548543Y-80974500D01*
X110548541Y-80974500D01*
X110351459Y-80974500D01*
X110351457Y-80974500D01*
X110158170Y-81012947D01*
X110158160Y-81012950D01*
X109976092Y-81088364D01*
X109976079Y-81088371D01*
X109812218Y-81197860D01*
X109812214Y-81197863D01*
X109672863Y-81337214D01*
X109672860Y-81337218D01*
X109563371Y-81501079D01*
X109563364Y-81501092D01*
X109487950Y-81683160D01*
X109487947Y-81683170D01*
X109449500Y-81876456D01*
X109449500Y-81876459D01*
X109449500Y-82073541D01*
X109449500Y-82073543D01*
X109449499Y-82073543D01*
X109487947Y-82266829D01*
X109487950Y-82266839D01*
X109563364Y-82448907D01*
X109563371Y-82448920D01*
X109672860Y-82612781D01*
X109672863Y-82612785D01*
X109812214Y-82752136D01*
X109812218Y-82752139D01*
X109976079Y-82861628D01*
X109976092Y-82861635D01*
X110025114Y-82881940D01*
X110158165Y-82937051D01*
X110273328Y-82959958D01*
X110335235Y-82992341D01*
X110336815Y-82993893D01*
X115288181Y-87945259D01*
X115321666Y-88006582D01*
X115324500Y-88032940D01*
X115324500Y-91283846D01*
X115355261Y-91438489D01*
X115355264Y-91438501D01*
X115402858Y-91553405D01*
X115410327Y-91622875D01*
X115379051Y-91685354D01*
X115318962Y-91721005D01*
X115249137Y-91718511D01*
X115200616Y-91688538D01*
X110836819Y-87324741D01*
X110803334Y-87263418D01*
X110800500Y-87237060D01*
X110800500Y-85771155D01*
X110800499Y-85771153D01*
X110795175Y-85744390D01*
X110769737Y-85616503D01*
X110767454Y-85610992D01*
X110709397Y-85470827D01*
X110709390Y-85470814D01*
X110621789Y-85339711D01*
X110621786Y-85339707D01*
X110510292Y-85228213D01*
X110510288Y-85228210D01*
X110379185Y-85140609D01*
X110379172Y-85140602D01*
X110233501Y-85080264D01*
X110233489Y-85080261D01*
X110078845Y-85049500D01*
X110078842Y-85049500D01*
X95649500Y-85049500D01*
X95582461Y-85029815D01*
X95536706Y-84977011D01*
X95525500Y-84925500D01*
X95525500Y-84826456D01*
X95487052Y-84633170D01*
X95487051Y-84633169D01*
X95487051Y-84633165D01*
X95471133Y-84594735D01*
X95411633Y-84451088D01*
X95402744Y-84437785D01*
X95346398Y-84353456D01*
X95325520Y-84286778D01*
X95325500Y-84284565D01*
X95325500Y-83898543D01*
X95899499Y-83898543D01*
X95937947Y-84091829D01*
X95937950Y-84091839D01*
X96013364Y-84273907D01*
X96013371Y-84273920D01*
X96122860Y-84437781D01*
X96122863Y-84437785D01*
X96262214Y-84577136D01*
X96262218Y-84577139D01*
X96426079Y-84686628D01*
X96426092Y-84686635D01*
X96608160Y-84762049D01*
X96608165Y-84762051D01*
X96608169Y-84762051D01*
X96608170Y-84762052D01*
X96801456Y-84800500D01*
X96801459Y-84800500D01*
X96998543Y-84800500D01*
X97128582Y-84774632D01*
X97191835Y-84762051D01*
X97373914Y-84686632D01*
X97434129Y-84646397D01*
X97500805Y-84625520D01*
X97503019Y-84625500D01*
X103878844Y-84625500D01*
X103878845Y-84625499D01*
X104033497Y-84594737D01*
X104179179Y-84534394D01*
X104310289Y-84446789D01*
X107677337Y-81079741D01*
X110758536Y-77998543D01*
X112899499Y-77998543D01*
X112937947Y-78191829D01*
X112937950Y-78191839D01*
X113013364Y-78373907D01*
X113013371Y-78373920D01*
X113122860Y-78537781D01*
X113122863Y-78537785D01*
X113262214Y-78677136D01*
X113262218Y-78677139D01*
X113426079Y-78786628D01*
X113426092Y-78786635D01*
X113511250Y-78821908D01*
X113608165Y-78862051D01*
X113723328Y-78884958D01*
X113785235Y-78917341D01*
X113786815Y-78918893D01*
X129088181Y-94220259D01*
X129121666Y-94281582D01*
X129124500Y-94307940D01*
X129124500Y-109259565D01*
X129104815Y-109326604D01*
X129103602Y-109328456D01*
X129038366Y-109426088D01*
X128962950Y-109608160D01*
X128962947Y-109608170D01*
X128924500Y-109801456D01*
X128924500Y-109801459D01*
X128924500Y-109998541D01*
X128924500Y-109998543D01*
X128924499Y-109998543D01*
X128962947Y-110191829D01*
X128962950Y-110191839D01*
X129038364Y-110373907D01*
X129038371Y-110373920D01*
X129147860Y-110537781D01*
X129147863Y-110537785D01*
X129287214Y-110677136D01*
X129287218Y-110677139D01*
X129451079Y-110786628D01*
X129451092Y-110786635D01*
X129633160Y-110862049D01*
X129633165Y-110862051D01*
X129633169Y-110862051D01*
X129633170Y-110862052D01*
X129826456Y-110900500D01*
X129826459Y-110900500D01*
X130023543Y-110900500D01*
X130153582Y-110874632D01*
X130216835Y-110862051D01*
X130398914Y-110786632D01*
X130562782Y-110677139D01*
X130702139Y-110537782D01*
X130811632Y-110373914D01*
X130819674Y-110354500D01*
X130887049Y-110191839D01*
X130887051Y-110191835D01*
X130925500Y-109998541D01*
X130925500Y-109801459D01*
X130925500Y-109801456D01*
X130887052Y-109608170D01*
X130887051Y-109608169D01*
X130887051Y-109608165D01*
X130837986Y-109489711D01*
X130811633Y-109426088D01*
X130746398Y-109328456D01*
X130725520Y-109261778D01*
X130725500Y-109259565D01*
X130725500Y-93846160D01*
X130721478Y-93825935D01*
X130721478Y-93825934D01*
X130694738Y-93691506D01*
X130694737Y-93691504D01*
X130694737Y-93691502D01*
X130670301Y-93632510D01*
X130634394Y-93545821D01*
X130563160Y-93439212D01*
X130546790Y-93414712D01*
X130507154Y-93375076D01*
X130435289Y-93303211D01*
X126225464Y-89093386D01*
X133689500Y-89093386D01*
X133689500Y-90906613D01*
X133695913Y-90977192D01*
X133695913Y-90977194D01*
X133695914Y-90977196D01*
X133746522Y-91139606D01*
X133808238Y-91241697D01*
X133834530Y-91285188D01*
X133954811Y-91405469D01*
X133954813Y-91405470D01*
X133954815Y-91405472D01*
X134100394Y-91493478D01*
X134123926Y-91500810D01*
X134182074Y-91539546D01*
X134210050Y-91603570D01*
X134198970Y-91672556D01*
X134187357Y-91692081D01*
X134085376Y-91832446D01*
X133988904Y-92021782D01*
X133923242Y-92223869D01*
X133923242Y-92223872D01*
X133890000Y-92433753D01*
X133890000Y-92646246D01*
X133923242Y-92856127D01*
X133923242Y-92856130D01*
X133988904Y-93058217D01*
X134085375Y-93247550D01*
X134124728Y-93301716D01*
X134757036Y-92669407D01*
X134774075Y-92732993D01*
X134839901Y-92847007D01*
X134932993Y-92940099D01*
X135047007Y-93005925D01*
X135110590Y-93022962D01*
X134474283Y-93659268D01*
X134463056Y-93712712D01*
X134426689Y-93754381D01*
X134229918Y-93897343D01*
X134057343Y-94069918D01*
X134057339Y-94069923D01*
X133913896Y-94267357D01*
X133803097Y-94484812D01*
X133727678Y-94716927D01*
X133689500Y-94957973D01*
X133689500Y-95202026D01*
X133726866Y-95437947D01*
X133727679Y-95443076D01*
X133803096Y-95675185D01*
X133908259Y-95881580D01*
X133913896Y-95892642D01*
X134057339Y-96090076D01*
X134057343Y-96090081D01*
X134229581Y-96262319D01*
X134263066Y-96323642D01*
X134258082Y-96393334D01*
X134229581Y-96437681D01*
X134057343Y-96609918D01*
X134057339Y-96609923D01*
X133913896Y-96807357D01*
X133803097Y-97024812D01*
X133727678Y-97256927D01*
X133711028Y-97362051D01*
X133689500Y-97497973D01*
X133689500Y-97742027D01*
X133727679Y-97983076D01*
X133803096Y-98215185D01*
X133903861Y-98412949D01*
X133913896Y-98432642D01*
X134057339Y-98630076D01*
X134057343Y-98630081D01*
X134229581Y-98802319D01*
X134263066Y-98863642D01*
X134258082Y-98933334D01*
X134229581Y-98977681D01*
X134057343Y-99149918D01*
X134057339Y-99149923D01*
X133913896Y-99347357D01*
X133803097Y-99564812D01*
X133727678Y-99796927D01*
X133693490Y-100012781D01*
X133689500Y-100037973D01*
X133689500Y-100282027D01*
X133698014Y-100335781D01*
X133726468Y-100515434D01*
X133727679Y-100523076D01*
X133803096Y-100755185D01*
X133884415Y-100914784D01*
X133913896Y-100972642D01*
X134057339Y-101170076D01*
X134057343Y-101170081D01*
X134229581Y-101342319D01*
X134263066Y-101403642D01*
X134258082Y-101473334D01*
X134229581Y-101517681D01*
X134057343Y-101689918D01*
X134057339Y-101689923D01*
X133913896Y-101887357D01*
X133803097Y-102104812D01*
X133727678Y-102336927D01*
X133689500Y-102577973D01*
X133689500Y-102822026D01*
X133726170Y-103053554D01*
X133727679Y-103063076D01*
X133803096Y-103295185D01*
X133898365Y-103482162D01*
X133913896Y-103512642D01*
X134057339Y-103710076D01*
X134057343Y-103710081D01*
X134229581Y-103882319D01*
X134263066Y-103943642D01*
X134258082Y-104013334D01*
X134229581Y-104057681D01*
X134057343Y-104229918D01*
X134057339Y-104229923D01*
X133913896Y-104427357D01*
X133803097Y-104644812D01*
X133727678Y-104876927D01*
X133689500Y-105117973D01*
X133689500Y-105362026D01*
X133720559Y-105558127D01*
X133727679Y-105603076D01*
X133803096Y-105835185D01*
X133906409Y-106037949D01*
X133913896Y-106052642D01*
X134057339Y-106250076D01*
X134057343Y-106250081D01*
X134229918Y-106422656D01*
X134229923Y-106422660D01*
X134426688Y-106565618D01*
X134469354Y-106620948D01*
X134475380Y-106661826D01*
X135110591Y-107297037D01*
X135047007Y-107314075D01*
X134932993Y-107379901D01*
X134839901Y-107472993D01*
X134774075Y-107587007D01*
X134757037Y-107650591D01*
X134124728Y-107018282D01*
X134124727Y-107018282D01*
X134085380Y-107072439D01*
X133988904Y-107261782D01*
X133923242Y-107463869D01*
X133923242Y-107463872D01*
X133890000Y-107673753D01*
X133890000Y-107886246D01*
X133923242Y-108096127D01*
X133923242Y-108096130D01*
X133988904Y-108298217D01*
X134085375Y-108487550D01*
X134124728Y-108541716D01*
X134757037Y-107909408D01*
X134774075Y-107972993D01*
X134839901Y-108087007D01*
X134932993Y-108180099D01*
X135047007Y-108245925D01*
X135110590Y-108262962D01*
X134478282Y-108895269D01*
X134478282Y-108895270D01*
X134532449Y-108934624D01*
X134721782Y-109031095D01*
X134923870Y-109096757D01*
X135133754Y-109130000D01*
X135346246Y-109130000D01*
X135556127Y-109096757D01*
X135556130Y-109096757D01*
X135758217Y-109031095D01*
X135947554Y-108934622D01*
X136001716Y-108895270D01*
X136001717Y-108895270D01*
X135369408Y-108262962D01*
X135432993Y-108245925D01*
X135547007Y-108180099D01*
X135640099Y-108087007D01*
X135705925Y-107972993D01*
X135722962Y-107909408D01*
X136355270Y-108541717D01*
X136355270Y-108541716D01*
X136394622Y-108487554D01*
X136491095Y-108298217D01*
X136556757Y-108096130D01*
X136556757Y-108096127D01*
X136590000Y-107886246D01*
X136590000Y-107673753D01*
X136556757Y-107463872D01*
X136556757Y-107463869D01*
X136491095Y-107261782D01*
X136394624Y-107072449D01*
X136355270Y-107018282D01*
X136355269Y-107018282D01*
X135722962Y-107650590D01*
X135705925Y-107587007D01*
X135640099Y-107472993D01*
X135547007Y-107379901D01*
X135432993Y-107314075D01*
X135369409Y-107297037D01*
X136005714Y-106660730D01*
X136016940Y-106607289D01*
X136053306Y-106565621D01*
X136250083Y-106422655D01*
X136422655Y-106250083D01*
X136566106Y-106052639D01*
X136676904Y-105835185D01*
X136752321Y-105603076D01*
X136790500Y-105362027D01*
X136790500Y-105117973D01*
X136752321Y-104876924D01*
X136676904Y-104644815D01*
X136566106Y-104427361D01*
X136455773Y-104275500D01*
X136422660Y-104229923D01*
X136422656Y-104229918D01*
X136250419Y-104057681D01*
X136216934Y-103996358D01*
X136221918Y-103926666D01*
X136250419Y-103882319D01*
X136329642Y-103803096D01*
X136422655Y-103710083D01*
X136566106Y-103512639D01*
X136676904Y-103295185D01*
X136752321Y-103063076D01*
X136790500Y-102822027D01*
X136790500Y-102577973D01*
X136752321Y-102336924D01*
X136676904Y-102104815D01*
X136566106Y-101887361D01*
X136459014Y-101739961D01*
X136422660Y-101689923D01*
X136422656Y-101689918D01*
X136250419Y-101517681D01*
X136216934Y-101456358D01*
X136221918Y-101386666D01*
X136250419Y-101342319D01*
X136334478Y-101258260D01*
X136422655Y-101170083D01*
X136566106Y-100972639D01*
X136676904Y-100755185D01*
X136752321Y-100523076D01*
X136790500Y-100282027D01*
X136790500Y-100037973D01*
X136752321Y-99796924D01*
X136676904Y-99564815D01*
X136566106Y-99347361D01*
X136507115Y-99266166D01*
X136422660Y-99149923D01*
X136422656Y-99149918D01*
X136250419Y-98977681D01*
X136216934Y-98916358D01*
X136221918Y-98846666D01*
X136250419Y-98802319D01*
X136315524Y-98737214D01*
X136422655Y-98630083D01*
X136566106Y-98432639D01*
X136676904Y-98215185D01*
X136752321Y-97983076D01*
X136790500Y-97742027D01*
X136790500Y-97497973D01*
X136752321Y-97256924D01*
X136676904Y-97024815D01*
X136566106Y-96807361D01*
X136482172Y-96691835D01*
X136422660Y-96609923D01*
X136422656Y-96609918D01*
X136250419Y-96437681D01*
X136216934Y-96376358D01*
X136221918Y-96306666D01*
X136250419Y-96262319D01*
X136311380Y-96201358D01*
X136422655Y-96090083D01*
X136566106Y-95892639D01*
X136676904Y-95675185D01*
X136752321Y-95443076D01*
X136790500Y-95202027D01*
X136790500Y-94957973D01*
X136752321Y-94716924D01*
X136676904Y-94484815D01*
X136566106Y-94267361D01*
X136452230Y-94110623D01*
X136422660Y-94069923D01*
X136422656Y-94069918D01*
X136250081Y-93897343D01*
X136250076Y-93897339D01*
X136053310Y-93754381D01*
X136010644Y-93699052D01*
X136004617Y-93658170D01*
X135369408Y-93022962D01*
X135432993Y-93005925D01*
X135547007Y-92940099D01*
X135640099Y-92847007D01*
X135705925Y-92732993D01*
X135722962Y-92669409D01*
X136355270Y-93301717D01*
X136355270Y-93301716D01*
X136394622Y-93247554D01*
X136491095Y-93058217D01*
X136511680Y-92994864D01*
X140099500Y-92994864D01*
X140099500Y-95005128D01*
X140099501Y-95005136D01*
X140109582Y-95118546D01*
X140109582Y-95118548D01*
X140109583Y-95118551D01*
X140162763Y-95304405D01*
X140252266Y-95475750D01*
X140252268Y-95475752D01*
X140374428Y-95625571D01*
X140435278Y-95675187D01*
X140524250Y-95747734D01*
X140695595Y-95837237D01*
X140713440Y-95842343D01*
X140772477Y-95879710D01*
X140801941Y-95943064D01*
X140792476Y-96012290D01*
X140754816Y-96059933D01*
X140744230Y-96068055D01*
X140744218Y-96068066D01*
X140568066Y-96244218D01*
X140568060Y-96244225D01*
X140416400Y-96441873D01*
X140291837Y-96657623D01*
X140291830Y-96657638D01*
X140196498Y-96887792D01*
X140132017Y-97128438D01*
X140099501Y-97375424D01*
X140099500Y-97375441D01*
X140099500Y-97624558D01*
X140099501Y-97624575D01*
X140132017Y-97871561D01*
X140196498Y-98112207D01*
X140291830Y-98342361D01*
X140291837Y-98342376D01*
X140416400Y-98558126D01*
X140568060Y-98755774D01*
X140568066Y-98755781D01*
X140744218Y-98931933D01*
X140744225Y-98931939D01*
X140941873Y-99083599D01*
X141044088Y-99142613D01*
X141092303Y-99193180D01*
X141105527Y-99261787D01*
X141079559Y-99326652D01*
X141044088Y-99357387D01*
X140941873Y-99416400D01*
X140744225Y-99568060D01*
X140744218Y-99568066D01*
X140568066Y-99744218D01*
X140568060Y-99744225D01*
X140416400Y-99941873D01*
X140291837Y-100157623D01*
X140291830Y-100157638D01*
X140196498Y-100387792D01*
X140132017Y-100628438D01*
X140099501Y-100875424D01*
X140099500Y-100875441D01*
X140099500Y-101124558D01*
X140099501Y-101124575D01*
X140131278Y-101365948D01*
X140132018Y-101371565D01*
X140187622Y-101579081D01*
X140196498Y-101612207D01*
X140291830Y-101842361D01*
X140291837Y-101842376D01*
X140416400Y-102058126D01*
X140568060Y-102255774D01*
X140568066Y-102255781D01*
X140744218Y-102431933D01*
X140744225Y-102431939D01*
X140941873Y-102583599D01*
X141044088Y-102642613D01*
X141092303Y-102693180D01*
X141105527Y-102761787D01*
X141079559Y-102826652D01*
X141044088Y-102857387D01*
X140941873Y-102916400D01*
X140744225Y-103068060D01*
X140744218Y-103068066D01*
X140568066Y-103244218D01*
X140568060Y-103244225D01*
X140416400Y-103441873D01*
X140291837Y-103657623D01*
X140291830Y-103657638D01*
X140196498Y-103887792D01*
X140132017Y-104128438D01*
X140099501Y-104375424D01*
X140099500Y-104375441D01*
X140099500Y-104624558D01*
X140099501Y-104624575D01*
X140132017Y-104871561D01*
X140196498Y-105112207D01*
X140291830Y-105342361D01*
X140291837Y-105342376D01*
X140416400Y-105558126D01*
X140568060Y-105755774D01*
X140568066Y-105755781D01*
X140744218Y-105931933D01*
X140744225Y-105931939D01*
X140941873Y-106083599D01*
X141157623Y-106208162D01*
X141157638Y-106208169D01*
X141193113Y-106222863D01*
X141387793Y-106303502D01*
X141628435Y-106367982D01*
X141875435Y-106400500D01*
X141875442Y-106400500D01*
X142124558Y-106400500D01*
X142124565Y-106400500D01*
X142371565Y-106367982D01*
X142612207Y-106303502D01*
X142842373Y-106208164D01*
X143058127Y-106083599D01*
X143255776Y-105931938D01*
X143431938Y-105755776D01*
X143583599Y-105558127D01*
X143708164Y-105342373D01*
X143803502Y-105112207D01*
X143867982Y-104871565D01*
X143900500Y-104624565D01*
X143900500Y-104375435D01*
X143867982Y-104128435D01*
X143803502Y-103887793D01*
X143729889Y-103710076D01*
X143708169Y-103657638D01*
X143708162Y-103657623D01*
X143583599Y-103441873D01*
X143431939Y-103244225D01*
X143431933Y-103244218D01*
X143255781Y-103068066D01*
X143255774Y-103068060D01*
X143058128Y-102916401D01*
X143004225Y-102885281D01*
X142955910Y-102857386D01*
X142907696Y-102806821D01*
X142894472Y-102738214D01*
X142920440Y-102673349D01*
X142955910Y-102642613D01*
X143058127Y-102583599D01*
X143255776Y-102431938D01*
X143431938Y-102255776D01*
X143583599Y-102058127D01*
X143708164Y-101842373D01*
X143803502Y-101612207D01*
X143867982Y-101371565D01*
X143900500Y-101124565D01*
X143900500Y-100875435D01*
X143867982Y-100628435D01*
X143803502Y-100387793D01*
X143747631Y-100252908D01*
X143708169Y-100157638D01*
X143708162Y-100157623D01*
X143583599Y-99941873D01*
X143431939Y-99744225D01*
X143431933Y-99744218D01*
X143255781Y-99568066D01*
X143255774Y-99568060D01*
X143058128Y-99416401D01*
X142983106Y-99373088D01*
X142955910Y-99357386D01*
X142907696Y-99306821D01*
X142894472Y-99238214D01*
X142920440Y-99173349D01*
X142955910Y-99142613D01*
X143058127Y-99083599D01*
X143255776Y-98931938D01*
X143431938Y-98755776D01*
X143583599Y-98558127D01*
X143708164Y-98342373D01*
X143803502Y-98112207D01*
X143867982Y-97871565D01*
X143900500Y-97624565D01*
X143900500Y-97375435D01*
X143867982Y-97128435D01*
X143803502Y-96887793D01*
X143749253Y-96756825D01*
X143708169Y-96657638D01*
X143708162Y-96657623D01*
X143583599Y-96441873D01*
X143431939Y-96244225D01*
X143431933Y-96244218D01*
X143255777Y-96068062D01*
X143245186Y-96059936D01*
X143203982Y-96003509D01*
X143199827Y-95933763D01*
X143234038Y-95872842D01*
X143286561Y-95842343D01*
X143291010Y-95841069D01*
X143304405Y-95837237D01*
X143475750Y-95747734D01*
X143625571Y-95625571D01*
X143747734Y-95475750D01*
X143837237Y-95304405D01*
X143890417Y-95118551D01*
X143900500Y-95005137D01*
X143900499Y-92994864D01*
X143890417Y-92881449D01*
X143837237Y-92695595D01*
X143747734Y-92524250D01*
X143687927Y-92450903D01*
X143625571Y-92374428D01*
X143504738Y-92275903D01*
X143475750Y-92252266D01*
X143304405Y-92162763D01*
X143118551Y-92109583D01*
X143118550Y-92109582D01*
X143118547Y-92109582D01*
X143051431Y-92103615D01*
X143005137Y-92099500D01*
X143005132Y-92099500D01*
X140994871Y-92099500D01*
X140994863Y-92099501D01*
X140881453Y-92109582D01*
X140881449Y-92109582D01*
X140881449Y-92109583D01*
X140834506Y-92123015D01*
X140695597Y-92162762D01*
X140695595Y-92162762D01*
X140695595Y-92162763D01*
X140524250Y-92252266D01*
X140524248Y-92252267D01*
X140524247Y-92252268D01*
X140374428Y-92374428D01*
X140282617Y-92487027D01*
X140252266Y-92524250D01*
X140170319Y-92681130D01*
X140162762Y-92695597D01*
X140109582Y-92881452D01*
X140099500Y-92994864D01*
X136511680Y-92994864D01*
X136525024Y-92953796D01*
X136556757Y-92856130D01*
X136556757Y-92856127D01*
X136590000Y-92646246D01*
X136590000Y-92433753D01*
X136556757Y-92223872D01*
X136556757Y-92223869D01*
X136491095Y-92021782D01*
X136394620Y-91832442D01*
X136292643Y-91692081D01*
X136269163Y-91626275D01*
X136284989Y-91558221D01*
X136335094Y-91509526D01*
X136356061Y-91500814D01*
X136379606Y-91493478D01*
X136525185Y-91405472D01*
X136645472Y-91285185D01*
X136733478Y-91139606D01*
X136784086Y-90977196D01*
X136790500Y-90906616D01*
X136790500Y-89093384D01*
X136784086Y-89022804D01*
X136733478Y-88860394D01*
X136645472Y-88714815D01*
X136645470Y-88714813D01*
X136645469Y-88714811D01*
X136525188Y-88594530D01*
X136379606Y-88506522D01*
X136257336Y-88468422D01*
X136217196Y-88455914D01*
X136217194Y-88455913D01*
X136217192Y-88455913D01*
X136167778Y-88451423D01*
X136146616Y-88449500D01*
X134333384Y-88449500D01*
X134314145Y-88451248D01*
X134262807Y-88455913D01*
X134100393Y-88506522D01*
X133954811Y-88594530D01*
X133834530Y-88714811D01*
X133746522Y-88860393D01*
X133695913Y-89022807D01*
X133689500Y-89093386D01*
X126225464Y-89093386D01*
X114918893Y-77786815D01*
X114885408Y-77725492D01*
X114884986Y-77723468D01*
X114862051Y-77608165D01*
X114830955Y-77533092D01*
X114786635Y-77426092D01*
X114786628Y-77426079D01*
X114677139Y-77262218D01*
X114677136Y-77262214D01*
X114537785Y-77122863D01*
X114537781Y-77122860D01*
X114373920Y-77013371D01*
X114373907Y-77013364D01*
X114191839Y-76937950D01*
X114191829Y-76937947D01*
X113998543Y-76899500D01*
X113998541Y-76899500D01*
X113801459Y-76899500D01*
X113801457Y-76899500D01*
X113608170Y-76937947D01*
X113608160Y-76937950D01*
X113426092Y-77013364D01*
X113426079Y-77013371D01*
X113262218Y-77122860D01*
X113262214Y-77122863D01*
X113122863Y-77262214D01*
X113122860Y-77262218D01*
X113013371Y-77426079D01*
X113013364Y-77426092D01*
X112937950Y-77608160D01*
X112937947Y-77608170D01*
X112899500Y-77801456D01*
X112899500Y-77801459D01*
X112899500Y-77998541D01*
X112899500Y-77998543D01*
X112899499Y-77998543D01*
X110758536Y-77998543D01*
X111049393Y-77707686D01*
X121105435Y-67651644D01*
X122396786Y-66360292D01*
X122396789Y-66360289D01*
X122482500Y-66232014D01*
X137025000Y-66232014D01*
X137025000Y-66467985D01*
X137055799Y-66701914D01*
X137116870Y-66929837D01*
X137207160Y-67147819D01*
X137207165Y-67147828D01*
X137325144Y-67352171D01*
X137325145Y-67352172D01*
X137387721Y-67433723D01*
X138223958Y-66597487D01*
X138248978Y-66657890D01*
X138320112Y-66764351D01*
X138410649Y-66854888D01*
X138517110Y-66926022D01*
X138577511Y-66951041D01*
X137741275Y-67787277D01*
X137822827Y-67849854D01*
X137822828Y-67849855D01*
X138027171Y-67967834D01*
X138027180Y-67967839D01*
X138245163Y-68058129D01*
X138245161Y-68058129D01*
X138473085Y-68119200D01*
X138707014Y-68149999D01*
X138707029Y-68150000D01*
X138942971Y-68150000D01*
X138942985Y-68149999D01*
X139176914Y-68119200D01*
X139404837Y-68058129D01*
X139622819Y-67967839D01*
X139622828Y-67967834D01*
X139827181Y-67849850D01*
X139908723Y-67787279D01*
X139908723Y-67787276D01*
X139072487Y-66951041D01*
X139132890Y-66926022D01*
X139239351Y-66854888D01*
X139329888Y-66764351D01*
X139401022Y-66657890D01*
X139426041Y-66597488D01*
X140262276Y-67433723D01*
X140262279Y-67433723D01*
X140324850Y-67352181D01*
X140442834Y-67147828D01*
X140442839Y-67147819D01*
X140533129Y-66929837D01*
X140594200Y-66701914D01*
X140624999Y-66467985D01*
X140625000Y-66467971D01*
X140625000Y-66232028D01*
X140624999Y-66232014D01*
X140594200Y-65998085D01*
X140533129Y-65770162D01*
X140442839Y-65552180D01*
X140442834Y-65552171D01*
X140324855Y-65347828D01*
X140324854Y-65347827D01*
X140262277Y-65266275D01*
X139426041Y-66102511D01*
X139401022Y-66042110D01*
X139329888Y-65935649D01*
X139239351Y-65845112D01*
X139132890Y-65773978D01*
X139072488Y-65748958D01*
X139908723Y-64912721D01*
X139827172Y-64850145D01*
X139827171Y-64850144D01*
X139622828Y-64732165D01*
X139622819Y-64732160D01*
X139404836Y-64641870D01*
X139404838Y-64641870D01*
X139176914Y-64580799D01*
X138942985Y-64550000D01*
X138707014Y-64550000D01*
X138473085Y-64580799D01*
X138245162Y-64641870D01*
X138027180Y-64732160D01*
X138027171Y-64732165D01*
X137822828Y-64850144D01*
X137822818Y-64850150D01*
X137741275Y-64912720D01*
X137741275Y-64912721D01*
X138577512Y-65748958D01*
X138517110Y-65773978D01*
X138410649Y-65845112D01*
X138320112Y-65935649D01*
X138248978Y-66042110D01*
X138223958Y-66102511D01*
X137387721Y-65266275D01*
X137387720Y-65266275D01*
X137325150Y-65347818D01*
X137325144Y-65347828D01*
X137207165Y-65552171D01*
X137207160Y-65552180D01*
X137116870Y-65770162D01*
X137055799Y-65998085D01*
X137025000Y-66232014D01*
X122482500Y-66232014D01*
X122484394Y-66229179D01*
X122544738Y-66083497D01*
X122575500Y-65928842D01*
X122575500Y-65771157D01*
X122575500Y-62946158D01*
X122575500Y-62946155D01*
X122575499Y-62946153D01*
X122556996Y-62853134D01*
X122544737Y-62791503D01*
X122523029Y-62739094D01*
X122484397Y-62645827D01*
X122484390Y-62645814D01*
X122396790Y-62514712D01*
X122342480Y-62460402D01*
X122285289Y-62403211D01*
X121279510Y-61397432D01*
X120211873Y-60329794D01*
X120126942Y-60244863D01*
X136824500Y-60244863D01*
X136824500Y-62455136D01*
X136834582Y-62568548D01*
X136887762Y-62754405D01*
X136939334Y-62853134D01*
X136977266Y-62925751D01*
X136993906Y-62946158D01*
X137099428Y-63075571D01*
X137174339Y-63136652D01*
X137249249Y-63197734D01*
X137420594Y-63287237D01*
X137606448Y-63340417D01*
X137719862Y-63350500D01*
X137719870Y-63350500D01*
X139930130Y-63350500D01*
X139930138Y-63350500D01*
X140043552Y-63340417D01*
X140229406Y-63287237D01*
X140400751Y-63197734D01*
X140550571Y-63075571D01*
X140672734Y-62925751D01*
X140762237Y-62754406D01*
X140815417Y-62568552D01*
X140825500Y-62455138D01*
X140825500Y-60244862D01*
X140815417Y-60131448D01*
X140762237Y-59945594D01*
X140672734Y-59774249D01*
X140624917Y-59715606D01*
X140550571Y-59624428D01*
X140458700Y-59549518D01*
X140400751Y-59502266D01*
X140333519Y-59467147D01*
X140229405Y-59412762D01*
X140051366Y-59361819D01*
X140043552Y-59359583D01*
X140043551Y-59359582D01*
X140043548Y-59359582D01*
X139954662Y-59351680D01*
X139930138Y-59349500D01*
X137719862Y-59349500D01*
X137707599Y-59350590D01*
X137606451Y-59359582D01*
X137420594Y-59412762D01*
X137249250Y-59502265D01*
X137099428Y-59624428D01*
X136977266Y-59774249D01*
X136887762Y-59945594D01*
X136834582Y-60131451D01*
X136824500Y-60244863D01*
X120126942Y-60244863D01*
X119485292Y-59603213D01*
X119485288Y-59603210D01*
X119354185Y-59515609D01*
X119354172Y-59515602D01*
X119208501Y-59455264D01*
X119208489Y-59455261D01*
X119053845Y-59424500D01*
X119053842Y-59424500D01*
X116532940Y-59424500D01*
X116465901Y-59404815D01*
X116445259Y-59388181D01*
X115379465Y-58322387D01*
X115345980Y-58261064D01*
X115350964Y-58191372D01*
X115392836Y-58135439D01*
X115433037Y-58115490D01*
X115444407Y-58112237D01*
X115615751Y-58022734D01*
X115765572Y-57900572D01*
X115887734Y-57750751D01*
X115977237Y-57579407D01*
X116030417Y-57393553D01*
X116040500Y-57280139D01*
X116040499Y-56256995D01*
X122599500Y-56256995D01*
X122599500Y-56493004D01*
X122599501Y-56493020D01*
X122630306Y-56727010D01*
X122691394Y-56954993D01*
X122781714Y-57173045D01*
X122781719Y-57173056D01*
X122826473Y-57250571D01*
X122899727Y-57377450D01*
X122899729Y-57377453D01*
X122899730Y-57377454D01*
X123043406Y-57564697D01*
X123043412Y-57564704D01*
X123210295Y-57731587D01*
X123210302Y-57731593D01*
X123235272Y-57750753D01*
X123397550Y-57875273D01*
X123528918Y-57951118D01*
X123601943Y-57993280D01*
X123601948Y-57993282D01*
X123601951Y-57993284D01*
X123820007Y-58083606D01*
X124047986Y-58144693D01*
X124281989Y-58175500D01*
X124281996Y-58175500D01*
X124518004Y-58175500D01*
X124518011Y-58175500D01*
X124752014Y-58144693D01*
X124979993Y-58083606D01*
X125198049Y-57993284D01*
X125402450Y-57875273D01*
X125589699Y-57731592D01*
X125756592Y-57564699D01*
X125900273Y-57377450D01*
X126018284Y-57173049D01*
X126108606Y-56954993D01*
X126169693Y-56727014D01*
X126200500Y-56493011D01*
X126200500Y-56256989D01*
X126169693Y-56022986D01*
X126108606Y-55795007D01*
X126018284Y-55576951D01*
X126018282Y-55576948D01*
X126018280Y-55576943D01*
X125956456Y-55469862D01*
X125900273Y-55372550D01*
X125756592Y-55185301D01*
X125756587Y-55185295D01*
X125589704Y-55018412D01*
X125589697Y-55018406D01*
X125402454Y-54874730D01*
X125402453Y-54874729D01*
X125402450Y-54874727D01*
X125320957Y-54827677D01*
X125198056Y-54756719D01*
X125198045Y-54756714D01*
X124979993Y-54666394D01*
X124752010Y-54605306D01*
X124518020Y-54574501D01*
X124518017Y-54574500D01*
X124518011Y-54574500D01*
X124281989Y-54574500D01*
X124281983Y-54574500D01*
X124281979Y-54574501D01*
X124047989Y-54605306D01*
X123820006Y-54666394D01*
X123601954Y-54756714D01*
X123601943Y-54756719D01*
X123397545Y-54874730D01*
X123210302Y-55018406D01*
X123210295Y-55018412D01*
X123043412Y-55185295D01*
X123043406Y-55185302D01*
X122899730Y-55372545D01*
X122781719Y-55576943D01*
X122781714Y-55576954D01*
X122691394Y-55795006D01*
X122630306Y-56022989D01*
X122599501Y-56256979D01*
X122599500Y-56256995D01*
X116040499Y-56256995D01*
X116040499Y-55469862D01*
X116030417Y-55356447D01*
X115977237Y-55170593D01*
X115887734Y-54999249D01*
X115765572Y-54849428D01*
X115615751Y-54727266D01*
X115444407Y-54637763D01*
X115258553Y-54584583D01*
X115258552Y-54584582D01*
X115258549Y-54584582D01*
X115191433Y-54578615D01*
X115145139Y-54574500D01*
X115145134Y-54574500D01*
X113334869Y-54574500D01*
X113334861Y-54574501D01*
X113221451Y-54584582D01*
X113221447Y-54584582D01*
X113221447Y-54584583D01*
X113174504Y-54598015D01*
X113035595Y-54637762D01*
X113035593Y-54637762D01*
X113035593Y-54637763D01*
X112864249Y-54727266D01*
X112864247Y-54727267D01*
X112864246Y-54727268D01*
X112714428Y-54849428D01*
X112622597Y-54962051D01*
X112592266Y-54999249D01*
X112582256Y-55018412D01*
X112502762Y-55170595D01*
X112449582Y-55356450D01*
X112439500Y-55469862D01*
X112439500Y-57280130D01*
X112439501Y-57280138D01*
X112449582Y-57393548D01*
X112449582Y-57393550D01*
X112449583Y-57393553D01*
X112502763Y-57579407D01*
X112592266Y-57750751D01*
X112714428Y-57900572D01*
X112864249Y-58022734D01*
X113035593Y-58112237D01*
X113221447Y-58165417D01*
X113326482Y-58174755D01*
X113391513Y-58200297D01*
X113432412Y-58256945D01*
X113439500Y-58298267D01*
X113439500Y-58393846D01*
X113470261Y-58548489D01*
X113470264Y-58548501D01*
X113530602Y-58694172D01*
X113530609Y-58694185D01*
X113618210Y-58825288D01*
X113618213Y-58825292D01*
X115639707Y-60846786D01*
X115639711Y-60846789D01*
X115770814Y-60934390D01*
X115770827Y-60934397D01*
X115916498Y-60994735D01*
X115916503Y-60994737D01*
X116071153Y-61025499D01*
X116071156Y-61025500D01*
X116071158Y-61025500D01*
X116228842Y-61025500D01*
X118592060Y-61025500D01*
X118659099Y-61045185D01*
X118679741Y-61061819D01*
X120938181Y-63320259D01*
X120971666Y-63381582D01*
X120974500Y-63407940D01*
X120974500Y-65467060D01*
X120954815Y-65534099D01*
X120938181Y-65554741D01*
X113012181Y-73480741D01*
X112950858Y-73514226D01*
X112881166Y-73509242D01*
X112825233Y-73467370D01*
X112800816Y-73401906D01*
X112800500Y-73393060D01*
X112800500Y-70540434D01*
X112820185Y-70473395D01*
X112821398Y-70471543D01*
X112862326Y-70410290D01*
X112886632Y-70373914D01*
X112898679Y-70344831D01*
X112925875Y-70279172D01*
X112962051Y-70191835D01*
X113000500Y-69998541D01*
X113000500Y-69801459D01*
X113000500Y-69801456D01*
X112962052Y-69608170D01*
X112962051Y-69608169D01*
X112962051Y-69608165D01*
X112960633Y-69604741D01*
X112886635Y-69426092D01*
X112886628Y-69426079D01*
X112777139Y-69262218D01*
X112777136Y-69262214D01*
X112637785Y-69122863D01*
X112637781Y-69122860D01*
X112473920Y-69013371D01*
X112473907Y-69013364D01*
X112291839Y-68937950D01*
X112291829Y-68937947D01*
X112098543Y-68899500D01*
X112098541Y-68899500D01*
X111901459Y-68899500D01*
X111901457Y-68899500D01*
X111708170Y-68937947D01*
X111708160Y-68937950D01*
X111526092Y-69013364D01*
X111526079Y-69013371D01*
X111362218Y-69122860D01*
X111362214Y-69122863D01*
X111222863Y-69262214D01*
X111222860Y-69262218D01*
X111113371Y-69426079D01*
X111113364Y-69426092D01*
X111037950Y-69608160D01*
X111037947Y-69608170D01*
X110999500Y-69801456D01*
X110999500Y-69801459D01*
X110999500Y-69998541D01*
X110999500Y-69998543D01*
X110999499Y-69998543D01*
X111037947Y-70191829D01*
X111037950Y-70191839D01*
X111113364Y-70373907D01*
X111113371Y-70373919D01*
X111178602Y-70471543D01*
X111199480Y-70538220D01*
X111199500Y-70540434D01*
X111199500Y-73517059D01*
X111179815Y-73584098D01*
X111163181Y-73604740D01*
X107686815Y-77081105D01*
X107625492Y-77114590D01*
X107623326Y-77115041D01*
X107508170Y-77137947D01*
X107508160Y-77137950D01*
X107326092Y-77213364D01*
X107326079Y-77213371D01*
X107162218Y-77322860D01*
X107162214Y-77322863D01*
X107022863Y-77462214D01*
X107022860Y-77462218D01*
X106913371Y-77626079D01*
X106913364Y-77626092D01*
X106837950Y-77808160D01*
X106837947Y-77808170D01*
X106799500Y-78001456D01*
X106799500Y-78001459D01*
X106799500Y-78198541D01*
X106799500Y-78198543D01*
X106799499Y-78198543D01*
X106837947Y-78391829D01*
X106837950Y-78391839D01*
X106913364Y-78573907D01*
X106913371Y-78573920D01*
X107022860Y-78737781D01*
X107022863Y-78737785D01*
X107162214Y-78877136D01*
X107162218Y-78877139D01*
X107308479Y-78974868D01*
X107353284Y-79028480D01*
X107361991Y-79097805D01*
X107331837Y-79160833D01*
X107327269Y-79165651D01*
X103504741Y-82988181D01*
X103443418Y-83021666D01*
X103417060Y-83024500D01*
X97577850Y-83024500D01*
X97510811Y-83004815D01*
X97508959Y-83003602D01*
X97373920Y-82913371D01*
X97373907Y-82913364D01*
X97191839Y-82837950D01*
X97191829Y-82837947D01*
X96998543Y-82799500D01*
X96998541Y-82799500D01*
X96801459Y-82799500D01*
X96801457Y-82799500D01*
X96608170Y-82837947D01*
X96608160Y-82837950D01*
X96426092Y-82913364D01*
X96426079Y-82913371D01*
X96262218Y-83022860D01*
X96262214Y-83022863D01*
X96122863Y-83162214D01*
X96122860Y-83162218D01*
X96013371Y-83326079D01*
X96013364Y-83326092D01*
X95937950Y-83508160D01*
X95937947Y-83508170D01*
X95899500Y-83701456D01*
X95899500Y-83701459D01*
X95899500Y-83898541D01*
X95899500Y-83898543D01*
X95899499Y-83898543D01*
X95325500Y-83898543D01*
X95325500Y-81157940D01*
X95345185Y-81090901D01*
X95361819Y-81070259D01*
X106021788Y-70410290D01*
X106021790Y-70410287D01*
X106044472Y-70376342D01*
X106109394Y-70279179D01*
X106169737Y-70133497D01*
X106169737Y-70133494D01*
X106169739Y-70133490D01*
X106181151Y-70076119D01*
X106200499Y-69978846D01*
X106200500Y-69978844D01*
X106200500Y-67221158D01*
X106192612Y-67181503D01*
X106189628Y-67166503D01*
X106169739Y-67066510D01*
X106169738Y-67066503D01*
X106109394Y-66920821D01*
X106109392Y-66920818D01*
X106109390Y-66920814D01*
X106021789Y-66789711D01*
X106021786Y-66789707D01*
X104875271Y-65643193D01*
X104841786Y-65581870D01*
X104841347Y-65579765D01*
X104837051Y-65558165D01*
X104799314Y-65467060D01*
X104761635Y-65376092D01*
X104761628Y-65376079D01*
X104652139Y-65212218D01*
X104652136Y-65212214D01*
X104512785Y-65072863D01*
X104512781Y-65072860D01*
X104348920Y-64963371D01*
X104348907Y-64963364D01*
X104166839Y-64887950D01*
X104166829Y-64887947D01*
X104041789Y-64863075D01*
X103979878Y-64830690D01*
X103945304Y-64769974D01*
X103949044Y-64700205D01*
X103978298Y-64653779D01*
X105070259Y-63561819D01*
X105131582Y-63528334D01*
X105157940Y-63525500D01*
X116709565Y-63525500D01*
X116776604Y-63545185D01*
X116778456Y-63546398D01*
X116876086Y-63611632D01*
X116876087Y-63611632D01*
X116876088Y-63611633D01*
X117058160Y-63687049D01*
X117058165Y-63687051D01*
X117058169Y-63687051D01*
X117058170Y-63687052D01*
X117251456Y-63725500D01*
X117251459Y-63725500D01*
X117448543Y-63725500D01*
X117578582Y-63699632D01*
X117641835Y-63687051D01*
X117823914Y-63611632D01*
X117987782Y-63502139D01*
X118127139Y-63362782D01*
X118236632Y-63198914D01*
X118312051Y-63016835D01*
X118330169Y-62925749D01*
X118350500Y-62823543D01*
X118350500Y-62626456D01*
X118312052Y-62433170D01*
X118312051Y-62433169D01*
X118312051Y-62433165D01*
X118274335Y-62342110D01*
X118236635Y-62251092D01*
X118236628Y-62251079D01*
X118127139Y-62087218D01*
X118127136Y-62087214D01*
X117987785Y-61947863D01*
X117987781Y-61947860D01*
X117823920Y-61838371D01*
X117823907Y-61838364D01*
X117641839Y-61762950D01*
X117641829Y-61762947D01*
X117448543Y-61724500D01*
X117448541Y-61724500D01*
X117251459Y-61724500D01*
X117251457Y-61724500D01*
X117058170Y-61762947D01*
X117058160Y-61762950D01*
X116876088Y-61838366D01*
X116778456Y-61903602D01*
X116711778Y-61924480D01*
X116709565Y-61924500D01*
X104696155Y-61924500D01*
X104541510Y-61955261D01*
X104541498Y-61955264D01*
X104395827Y-62015602D01*
X104395814Y-62015609D01*
X104264711Y-62103210D01*
X104264707Y-62103213D01*
X94979741Y-71388181D01*
X94918418Y-71421666D01*
X94892060Y-71424500D01*
X91157940Y-71424500D01*
X91090901Y-71404815D01*
X91070259Y-71388181D01*
X89684319Y-70002241D01*
X89669615Y-69975313D01*
X89653023Y-69949495D01*
X89652131Y-69943294D01*
X89650834Y-69940918D01*
X89648000Y-69914560D01*
X89648000Y-69774500D01*
X89667685Y-69707461D01*
X89720489Y-69661706D01*
X89772000Y-69650500D01*
X89952630Y-69650500D01*
X89952638Y-69650500D01*
X90066052Y-69640417D01*
X90251906Y-69587237D01*
X90423251Y-69497734D01*
X90573071Y-69375571D01*
X90695234Y-69225751D01*
X90784737Y-69054406D01*
X90837917Y-68868552D01*
X90848000Y-68755138D01*
X90848000Y-66544862D01*
X90837917Y-66431448D01*
X90784737Y-66245594D01*
X90695234Y-66074249D01*
X90607515Y-65966671D01*
X90573071Y-65924428D01*
X90475797Y-65845112D01*
X90423251Y-65802266D01*
X90408582Y-65794604D01*
X90251905Y-65712762D01*
X90097345Y-65668537D01*
X90066052Y-65659583D01*
X90066051Y-65659582D01*
X90066048Y-65659582D01*
X89977162Y-65651680D01*
X89952638Y-65649500D01*
X89952636Y-65649500D01*
X87871000Y-65649500D01*
X87803961Y-65629815D01*
X87758206Y-65577011D01*
X87747000Y-65525500D01*
X87747000Y-64307861D01*
X87766685Y-64240822D01*
X87819489Y-64195067D01*
X87888647Y-64185123D01*
X87933001Y-64200474D01*
X88049671Y-64267834D01*
X88049680Y-64267839D01*
X88267663Y-64358129D01*
X88267661Y-64358129D01*
X88495585Y-64419200D01*
X88729514Y-64449999D01*
X88729529Y-64450000D01*
X88965471Y-64450000D01*
X88965485Y-64449999D01*
X89199414Y-64419200D01*
X89427337Y-64358129D01*
X89645319Y-64267839D01*
X89645328Y-64267834D01*
X89849681Y-64149850D01*
X89931223Y-64087279D01*
X89931223Y-64087276D01*
X89094988Y-63251041D01*
X89155390Y-63226022D01*
X89261851Y-63154888D01*
X89352388Y-63064351D01*
X89423522Y-62957890D01*
X89448541Y-62897488D01*
X90284776Y-63733723D01*
X90284779Y-63733723D01*
X90347350Y-63652181D01*
X90465334Y-63447828D01*
X90465339Y-63447819D01*
X90555629Y-63229837D01*
X90616700Y-63001914D01*
X90647499Y-62767985D01*
X90647500Y-62767971D01*
X90647500Y-62532028D01*
X90647499Y-62532014D01*
X90616700Y-62298085D01*
X90555629Y-62070162D01*
X90465339Y-61852180D01*
X90465334Y-61852171D01*
X90347355Y-61647828D01*
X90347354Y-61647827D01*
X90284777Y-61566275D01*
X89448541Y-62402511D01*
X89423522Y-62342110D01*
X89352388Y-62235649D01*
X89261851Y-62145112D01*
X89155390Y-62073978D01*
X89094986Y-62048957D01*
X89931223Y-61212721D01*
X89849672Y-61150145D01*
X89849671Y-61150144D01*
X89645328Y-61032165D01*
X89645319Y-61032160D01*
X89427336Y-60941870D01*
X89427338Y-60941870D01*
X89199414Y-60880799D01*
X88965485Y-60850000D01*
X88729514Y-60850000D01*
X88495585Y-60880799D01*
X88267662Y-60941870D01*
X88049680Y-61032160D01*
X88049671Y-61032165D01*
X87845328Y-61150144D01*
X87845320Y-61150149D01*
X87780252Y-61200077D01*
X87776137Y-61201667D01*
X87773297Y-61205042D01*
X87743842Y-61214151D01*
X87715082Y-61225270D01*
X87710760Y-61224383D01*
X87706547Y-61225687D01*
X87676844Y-61217426D01*
X87646638Y-61211231D01*
X87642284Y-61207815D01*
X87639232Y-61206967D01*
X87630827Y-61198829D01*
X87612229Y-61184240D01*
X87606474Y-61177788D01*
X87568289Y-61120640D01*
X87456789Y-61009140D01*
X87456786Y-61009138D01*
X86393242Y-59945594D01*
X83098863Y-56651213D01*
X83098859Y-56651210D01*
X82967756Y-56563609D01*
X82967743Y-56563602D01*
X82822072Y-56503264D01*
X82822060Y-56503261D01*
X82667416Y-56472500D01*
X82667413Y-56472500D01*
X64905843Y-56472500D01*
X64748158Y-56472500D01*
X64748153Y-56472500D01*
X64593510Y-56503260D01*
X64593502Y-56503262D01*
X64447824Y-56563604D01*
X64447814Y-56563609D01*
X64316711Y-56651210D01*
X64316707Y-56651213D01*
X56700088Y-64267834D01*
X54189711Y-66778211D01*
X54155873Y-66812049D01*
X54078209Y-66889712D01*
X53990609Y-67020814D01*
X53990602Y-67020827D01*
X53930264Y-67166498D01*
X53930261Y-67166510D01*
X53899500Y-67321153D01*
X53899500Y-83495234D01*
X53879815Y-83562273D01*
X53878602Y-83564125D01*
X53790609Y-83695814D01*
X53790602Y-83695827D01*
X53730264Y-83841498D01*
X53730261Y-83841510D01*
X53699500Y-83996153D01*
X53698903Y-84002218D01*
X53696869Y-84002017D01*
X53679815Y-84060099D01*
X53627011Y-84105854D01*
X53557853Y-84115798D01*
X53494297Y-84086773D01*
X53487819Y-84080741D01*
X52711819Y-83304741D01*
X52678334Y-83243418D01*
X52675500Y-83217060D01*
X52675500Y-61292369D01*
X52695185Y-61225330D01*
X52711819Y-61204688D01*
X59079688Y-54836819D01*
X59141011Y-54803334D01*
X59167369Y-54800500D01*
X69584565Y-54800500D01*
X69651604Y-54820185D01*
X69653456Y-54821398D01*
X69751086Y-54886632D01*
X69751087Y-54886632D01*
X69751088Y-54886633D01*
X69933160Y-54962049D01*
X69933165Y-54962051D01*
X69933169Y-54962051D01*
X69933170Y-54962052D01*
X70126456Y-55000500D01*
X70126459Y-55000500D01*
X70323543Y-55000500D01*
X70453582Y-54974632D01*
X70516835Y-54962051D01*
X70698914Y-54886632D01*
X70798842Y-54819862D01*
X94239500Y-54819862D01*
X94239500Y-56630130D01*
X94239501Y-56630138D01*
X94249582Y-56743548D01*
X94249582Y-56743550D01*
X94249583Y-56743553D01*
X94302763Y-56929407D01*
X94392266Y-57100751D01*
X94514428Y-57250572D01*
X94664249Y-57372734D01*
X94835593Y-57462237D01*
X95021447Y-57515417D01*
X95134861Y-57525500D01*
X96945138Y-57525499D01*
X97058553Y-57515417D01*
X97244407Y-57462237D01*
X97415751Y-57372734D01*
X97565572Y-57250572D01*
X97687734Y-57100751D01*
X97777237Y-56929407D01*
X97830417Y-56743553D01*
X97840500Y-56630139D01*
X97840499Y-55606995D01*
X104399500Y-55606995D01*
X104399500Y-55843004D01*
X104399501Y-55843020D01*
X104430306Y-56077010D01*
X104491394Y-56304993D01*
X104581714Y-56523045D01*
X104581719Y-56523056D01*
X104605133Y-56563609D01*
X104699727Y-56727450D01*
X104699729Y-56727453D01*
X104699730Y-56727454D01*
X104843406Y-56914697D01*
X104843412Y-56914704D01*
X105010295Y-57081587D01*
X105010302Y-57081593D01*
X105035272Y-57100753D01*
X105197550Y-57225273D01*
X105292579Y-57280138D01*
X105401943Y-57343280D01*
X105401948Y-57343282D01*
X105401951Y-57343284D01*
X105620007Y-57433606D01*
X105847986Y-57494693D01*
X106081989Y-57525500D01*
X106081996Y-57525500D01*
X106318004Y-57525500D01*
X106318011Y-57525500D01*
X106552014Y-57494693D01*
X106779993Y-57433606D01*
X106998049Y-57343284D01*
X107202450Y-57225273D01*
X107389699Y-57081592D01*
X107556592Y-56914699D01*
X107700273Y-56727450D01*
X107818284Y-56523049D01*
X107908606Y-56304993D01*
X107969693Y-56077014D01*
X108000500Y-55843011D01*
X108000500Y-55606989D01*
X107969693Y-55372986D01*
X107908606Y-55145007D01*
X107818284Y-54926951D01*
X107818282Y-54926948D01*
X107818280Y-54926943D01*
X107757343Y-54821398D01*
X107700273Y-54722550D01*
X107586671Y-54574501D01*
X107556593Y-54535302D01*
X107556587Y-54535295D01*
X107389704Y-54368412D01*
X107389697Y-54368406D01*
X107202454Y-54224730D01*
X107202453Y-54224729D01*
X107202450Y-54224727D01*
X107120957Y-54177677D01*
X106998056Y-54106719D01*
X106998045Y-54106714D01*
X106779993Y-54016394D01*
X106552010Y-53955306D01*
X106318020Y-53924501D01*
X106318017Y-53924500D01*
X106318011Y-53924500D01*
X106081989Y-53924500D01*
X106081983Y-53924500D01*
X106081979Y-53924501D01*
X105847989Y-53955306D01*
X105620006Y-54016394D01*
X105401954Y-54106714D01*
X105401943Y-54106719D01*
X105197545Y-54224730D01*
X105010302Y-54368406D01*
X105010295Y-54368412D01*
X104843412Y-54535295D01*
X104843406Y-54535302D01*
X104699730Y-54722545D01*
X104581719Y-54926943D01*
X104581714Y-54926954D01*
X104491394Y-55145006D01*
X104430306Y-55372989D01*
X104399501Y-55606979D01*
X104399500Y-55606995D01*
X97840499Y-55606995D01*
X97840499Y-54819862D01*
X97830417Y-54706447D01*
X97777237Y-54520593D01*
X97687734Y-54349249D01*
X97565572Y-54199428D01*
X97415751Y-54077266D01*
X97244407Y-53987763D01*
X97058553Y-53934583D01*
X97058552Y-53934582D01*
X97058549Y-53934582D01*
X96991433Y-53928615D01*
X96945139Y-53924500D01*
X96945134Y-53924500D01*
X95134869Y-53924500D01*
X95134861Y-53924501D01*
X95021451Y-53934582D01*
X95021447Y-53934582D01*
X95021447Y-53934583D01*
X94974504Y-53948015D01*
X94835595Y-53987762D01*
X94835593Y-53987762D01*
X94835593Y-53987763D01*
X94664249Y-54077266D01*
X94664247Y-54077267D01*
X94664246Y-54077268D01*
X94514428Y-54199428D01*
X94439081Y-54291835D01*
X94392266Y-54349249D01*
X94382256Y-54368412D01*
X94302762Y-54520595D01*
X94249582Y-54706450D01*
X94239500Y-54819862D01*
X70798842Y-54819862D01*
X70862782Y-54777139D01*
X70883207Y-54756714D01*
X70910491Y-54729431D01*
X71002136Y-54637785D01*
X71002139Y-54637782D01*
X71111632Y-54473914D01*
X71187051Y-54291835D01*
X71205432Y-54199428D01*
X71225500Y-54098543D01*
X71225500Y-53901456D01*
X71187052Y-53708170D01*
X71187051Y-53708169D01*
X71187051Y-53708165D01*
X71187049Y-53708160D01*
X71111635Y-53526092D01*
X71111628Y-53526079D01*
X71002139Y-53362218D01*
X71002136Y-53362214D01*
X70862785Y-53222863D01*
X70862781Y-53222860D01*
X70698920Y-53113371D01*
X70698907Y-53113364D01*
X70516839Y-53037950D01*
X70516829Y-53037947D01*
X70323543Y-52999500D01*
X70323541Y-52999500D01*
X70126459Y-52999500D01*
X70126457Y-52999500D01*
X69933170Y-53037947D01*
X69933160Y-53037950D01*
X69751088Y-53113366D01*
X69653456Y-53178602D01*
X69586778Y-53199480D01*
X69584565Y-53199500D01*
X58705584Y-53199500D01*
X58588144Y-53222861D01*
X58588143Y-53222861D01*
X58550938Y-53230261D01*
X58550927Y-53230264D01*
X58405256Y-53290602D01*
X58405249Y-53290606D01*
X58368757Y-53314990D01*
X58332264Y-53339374D01*
X58332263Y-53339375D01*
X58274137Y-53378212D01*
X58274136Y-53378213D01*
X52958179Y-58694172D01*
X51364711Y-60287640D01*
X51322557Y-60329794D01*
X51253209Y-60399141D01*
X51165609Y-60530243D01*
X51165602Y-60530256D01*
X51105264Y-60675927D01*
X51105261Y-60675937D01*
X51085617Y-60774696D01*
X51053232Y-60836607D01*
X50992516Y-60871181D01*
X50922747Y-60867441D01*
X50866075Y-60826574D01*
X50840494Y-60761556D01*
X50840000Y-60750504D01*
X50840000Y-30506379D01*
X63549500Y-30506379D01*
X63549500Y-35593620D01*
X63586024Y-35777243D01*
X63586027Y-35777252D01*
X63602189Y-35816270D01*
X63657673Y-35950223D01*
X63657680Y-35950236D01*
X63761697Y-36105907D01*
X63761700Y-36105911D01*
X69161698Y-41505908D01*
X69294092Y-41638302D01*
X69294093Y-41638303D01*
X69449762Y-41742318D01*
X69449768Y-41742321D01*
X69449769Y-41742322D01*
X69622749Y-41813973D01*
X69654370Y-41820262D01*
X69714517Y-41832227D01*
X69714550Y-41832232D01*
X69714566Y-41832236D01*
X69775777Y-41844412D01*
X69806382Y-41850500D01*
X69806383Y-41850500D01*
X69806384Y-41850500D01*
X77454928Y-41850500D01*
X77521967Y-41870185D01*
X77542609Y-41886819D01*
X84594088Y-48938299D01*
X84594092Y-48938302D01*
X84749763Y-49042319D01*
X84749765Y-49042320D01*
X84749770Y-49042323D01*
X84851099Y-49084294D01*
X84922749Y-49113973D01*
X85014566Y-49132236D01*
X85094618Y-49148159D01*
X85106382Y-49150500D01*
X85106383Y-49150500D01*
X133218618Y-49150500D01*
X133230286Y-49148178D01*
X133310433Y-49132236D01*
X133402251Y-49113973D01*
X133473901Y-49084294D01*
X133575230Y-49042323D01*
X133730908Y-48938302D01*
X133807392Y-48861817D01*
X133868713Y-48828334D01*
X133895072Y-48825500D01*
X134355927Y-48825500D01*
X134422966Y-48845185D01*
X134468721Y-48897989D01*
X134478665Y-48967147D01*
X134449640Y-49030703D01*
X134443608Y-49037181D01*
X133767609Y-49713181D01*
X133706286Y-49746666D01*
X133679928Y-49749500D01*
X110793617Y-49749500D01*
X110606383Y-49749500D01*
X110560474Y-49758631D01*
X110514565Y-49767763D01*
X110514564Y-49767762D01*
X110492672Y-49772117D01*
X110468481Y-49774500D01*
X110276457Y-49774500D01*
X110083170Y-49812947D01*
X110083160Y-49812950D01*
X109901092Y-49888364D01*
X109901079Y-49888371D01*
X109737218Y-49997860D01*
X109737214Y-49997863D01*
X109597863Y-50137214D01*
X109597860Y-50137218D01*
X109488371Y-50301079D01*
X109488364Y-50301092D01*
X109412950Y-50483160D01*
X109412947Y-50483170D01*
X109374500Y-50676456D01*
X109374500Y-50676459D01*
X109374500Y-50873541D01*
X109374500Y-50873543D01*
X109374499Y-50873543D01*
X109412947Y-51066829D01*
X109412950Y-51066839D01*
X109488364Y-51248907D01*
X109488371Y-51248920D01*
X109597860Y-51412781D01*
X109597863Y-51412785D01*
X109737214Y-51552136D01*
X109737218Y-51552139D01*
X109901079Y-51661628D01*
X109901092Y-51661635D01*
X110055278Y-51725500D01*
X110083165Y-51737051D01*
X110083169Y-51737051D01*
X110083170Y-51737052D01*
X110276456Y-51775500D01*
X110276459Y-51775500D01*
X110473543Y-51775500D01*
X110570849Y-51756143D01*
X110666835Y-51737051D01*
X110671937Y-51734937D01*
X110697517Y-51727444D01*
X110708367Y-51725500D01*
X110718617Y-51725500D01*
X110810433Y-51707236D01*
X110902251Y-51688973D01*
X110972345Y-51659938D01*
X111019798Y-51650500D01*
X134218619Y-51650500D01*
X134268199Y-51640637D01*
X134344300Y-51625500D01*
X134402251Y-51613973D01*
X134473901Y-51584294D01*
X134575230Y-51542323D01*
X134730908Y-51438302D01*
X137307390Y-48861818D01*
X137368713Y-48828334D01*
X137395071Y-48825500D01*
X137618097Y-48825500D01*
X137851368Y-48788553D01*
X138075992Y-48715568D01*
X138286433Y-48608343D01*
X138477510Y-48469517D01*
X138644517Y-48302510D01*
X138783343Y-48111433D01*
X138890568Y-47900992D01*
X138963553Y-47676368D01*
X138988698Y-47517608D01*
X139000500Y-47443097D01*
X139000500Y-47206902D01*
X138963553Y-46973631D01*
X138890566Y-46749003D01*
X138834002Y-46637991D01*
X138783343Y-46538567D01*
X138644517Y-46347490D01*
X138477510Y-46180483D01*
X138286433Y-46041657D01*
X138277389Y-46037049D01*
X138075996Y-45934433D01*
X137851368Y-45861446D01*
X137618097Y-45824500D01*
X137618092Y-45824500D01*
X137381908Y-45824500D01*
X137381903Y-45824500D01*
X137148631Y-45861446D01*
X136924003Y-45934433D01*
X136713566Y-46041657D01*
X136666986Y-46075500D01*
X136522490Y-46180483D01*
X136522488Y-46180485D01*
X136522487Y-46180485D01*
X136355485Y-46347487D01*
X136355485Y-46347488D01*
X136355483Y-46347490D01*
X136302370Y-46420594D01*
X136216657Y-46538566D01*
X136109433Y-46749003D01*
X136036446Y-46973631D01*
X135999500Y-47206902D01*
X135999500Y-47429927D01*
X135979815Y-47496966D01*
X135963181Y-47517608D01*
X135712181Y-47768608D01*
X135650858Y-47802093D01*
X135581166Y-47797109D01*
X135525233Y-47755237D01*
X135500816Y-47689773D01*
X135500500Y-47680927D01*
X135500500Y-46719869D01*
X135500500Y-46719862D01*
X135490417Y-46606448D01*
X135437237Y-46420594D01*
X135347734Y-46249249D01*
X135286652Y-46174339D01*
X135225571Y-46099428D01*
X135133700Y-46024518D01*
X135075751Y-45977266D01*
X135045814Y-45961628D01*
X134904405Y-45887762D01*
X134749845Y-45843537D01*
X134718552Y-45834583D01*
X134718551Y-45834582D01*
X134718548Y-45834582D01*
X134629662Y-45826680D01*
X134605138Y-45824500D01*
X133394862Y-45824500D01*
X133382599Y-45825590D01*
X133281451Y-45834582D01*
X133095594Y-45887762D01*
X132924250Y-45977265D01*
X132774428Y-46099428D01*
X132652265Y-46249250D01*
X132562762Y-46420594D01*
X132509582Y-46606451D01*
X132499500Y-46719863D01*
X132499500Y-47125500D01*
X132479815Y-47192539D01*
X132427011Y-47238294D01*
X132375500Y-47249500D01*
X85645072Y-47249500D01*
X85578033Y-47229815D01*
X85557391Y-47213181D01*
X83517753Y-45173543D01*
X88574499Y-45173543D01*
X88612947Y-45366829D01*
X88612950Y-45366839D01*
X88688364Y-45548907D01*
X88688371Y-45548920D01*
X88797860Y-45712781D01*
X88797863Y-45712785D01*
X88937214Y-45852136D01*
X88937218Y-45852139D01*
X89101079Y-45961628D01*
X89101092Y-45961635D01*
X89283160Y-46037049D01*
X89283165Y-46037051D01*
X89283169Y-46037051D01*
X89283170Y-46037052D01*
X89476456Y-46075500D01*
X89476459Y-46075500D01*
X89673543Y-46075500D01*
X89843679Y-46041657D01*
X89866835Y-46037051D01*
X90048914Y-45961632D01*
X90212782Y-45852139D01*
X90352139Y-45712782D01*
X90461632Y-45548914D01*
X90537051Y-45366835D01*
X90559958Y-45251668D01*
X90592341Y-45189763D01*
X90593837Y-45188239D01*
X99321789Y-36460289D01*
X99409394Y-36329179D01*
X99469738Y-36183497D01*
X99500500Y-36028842D01*
X99500500Y-35871157D01*
X99500500Y-32932939D01*
X99520185Y-32865900D01*
X99536814Y-32845263D01*
X101513185Y-30868891D01*
X101574506Y-30835408D01*
X101576503Y-30834991D01*
X101691835Y-30812051D01*
X101873914Y-30736632D01*
X102037782Y-30627139D01*
X102177139Y-30487782D01*
X102286632Y-30323914D01*
X102362051Y-30141835D01*
X102400500Y-29948541D01*
X102400500Y-29751459D01*
X102400500Y-29751456D01*
X102362052Y-29558170D01*
X102362051Y-29558169D01*
X102362051Y-29558165D01*
X102362049Y-29558160D01*
X102286635Y-29376092D01*
X102286628Y-29376079D01*
X102177139Y-29212218D01*
X102177136Y-29212214D01*
X102037785Y-29072863D01*
X102037781Y-29072860D01*
X101873920Y-28963371D01*
X101873907Y-28963364D01*
X101691839Y-28887950D01*
X101691829Y-28887947D01*
X101498543Y-28849500D01*
X101498541Y-28849500D01*
X101301459Y-28849500D01*
X101301457Y-28849500D01*
X101108170Y-28887947D01*
X101108160Y-28887950D01*
X100926092Y-28963364D01*
X100926079Y-28963371D01*
X100762218Y-29072860D01*
X100762214Y-29072863D01*
X100622863Y-29212214D01*
X100622860Y-29212218D01*
X100513371Y-29376079D01*
X100513364Y-29376092D01*
X100437950Y-29558160D01*
X100437947Y-29558170D01*
X100415041Y-29673326D01*
X100382656Y-29735237D01*
X100381105Y-29736815D01*
X98729558Y-31388364D01*
X98189711Y-31928211D01*
X98134762Y-31983160D01*
X98078209Y-32039712D01*
X97990609Y-32170814D01*
X97990602Y-32170827D01*
X97930264Y-32316498D01*
X97930261Y-32316510D01*
X97899500Y-32471153D01*
X97899500Y-35567059D01*
X97879815Y-35634098D01*
X97863181Y-35654740D01*
X89461815Y-44056105D01*
X89400492Y-44089590D01*
X89398326Y-44090041D01*
X89283170Y-44112947D01*
X89283160Y-44112950D01*
X89101092Y-44188364D01*
X89101079Y-44188371D01*
X88937218Y-44297860D01*
X88937214Y-44297863D01*
X88797863Y-44437214D01*
X88797860Y-44437218D01*
X88688371Y-44601079D01*
X88688364Y-44601092D01*
X88612950Y-44783160D01*
X88612947Y-44783170D01*
X88574500Y-44976456D01*
X88574500Y-44976459D01*
X88574500Y-45173541D01*
X88574500Y-45173543D01*
X88574499Y-45173543D01*
X83517753Y-45173543D01*
X83402258Y-45058048D01*
X78505911Y-40161700D01*
X78505907Y-40161697D01*
X78350236Y-40057680D01*
X78350227Y-40057675D01*
X78248903Y-40015706D01*
X78248901Y-40015705D01*
X78177251Y-39986027D01*
X78177247Y-39986026D01*
X78177243Y-39986024D01*
X78085433Y-39967763D01*
X77993620Y-39949500D01*
X77993617Y-39949500D01*
X77993616Y-39949500D01*
X70345072Y-39949500D01*
X70278033Y-39929815D01*
X70257391Y-39913181D01*
X65486819Y-35142609D01*
X65453334Y-35081286D01*
X65450500Y-35054928D01*
X65450500Y-31045072D01*
X65470185Y-30978033D01*
X65486819Y-30957391D01*
X67257391Y-29186819D01*
X67318714Y-29153334D01*
X67345072Y-29150500D01*
X76554928Y-29150500D01*
X76621967Y-29170185D01*
X76642609Y-29186819D01*
X78688181Y-31232391D01*
X78721666Y-31293714D01*
X78724500Y-31320072D01*
X78724500Y-31725500D01*
X78704815Y-31792539D01*
X78652011Y-31838294D01*
X78600500Y-31849500D01*
X78569862Y-31849500D01*
X78557599Y-31850590D01*
X78456451Y-31859582D01*
X78270594Y-31912762D01*
X78099250Y-32002265D01*
X77949428Y-32124428D01*
X77827265Y-32274250D01*
X77737762Y-32445594D01*
X77684582Y-32631451D01*
X77674500Y-32744863D01*
X77674500Y-34955136D01*
X77684582Y-35068551D01*
X77685659Y-35074343D01*
X77683536Y-35074737D01*
X77683425Y-35091142D01*
X77687129Y-35116897D01*
X77683193Y-35125515D01*
X77683129Y-35134990D01*
X77668913Y-35156783D01*
X77658104Y-35180453D01*
X77650133Y-35185575D01*
X77644957Y-35193511D01*
X77621215Y-35204159D01*
X77599326Y-35218227D01*
X77585382Y-35220231D01*
X77581206Y-35222105D01*
X77564391Y-35223250D01*
X77443822Y-35223250D01*
X77376783Y-35203565D01*
X77356141Y-35186931D01*
X76643088Y-34473878D01*
X76609603Y-34412555D01*
X76610993Y-34354105D01*
X76641270Y-34241116D01*
X76675500Y-33981120D01*
X76675500Y-33718880D01*
X76641270Y-33458884D01*
X76573398Y-33205581D01*
X76555192Y-33161628D01*
X76473046Y-32963309D01*
X76473041Y-32963299D01*
X76341924Y-32736196D01*
X76182281Y-32528148D01*
X76182274Y-32528140D01*
X75996860Y-32342726D01*
X75996851Y-32342718D01*
X75788803Y-32183075D01*
X75561700Y-32051958D01*
X75561690Y-32051953D01*
X75319428Y-31951605D01*
X75319421Y-31951603D01*
X75319419Y-31951602D01*
X75066116Y-31883730D01*
X75008339Y-31876123D01*
X74806127Y-31849500D01*
X74806120Y-31849500D01*
X74543880Y-31849500D01*
X74543872Y-31849500D01*
X74312772Y-31879926D01*
X74283884Y-31883730D01*
X74175535Y-31912762D01*
X74030581Y-31951602D01*
X74030571Y-31951605D01*
X73788309Y-32051953D01*
X73788299Y-32051958D01*
X73561196Y-32183075D01*
X73353148Y-32342718D01*
X73167718Y-32528148D01*
X73008075Y-32736196D01*
X72876958Y-32963299D01*
X72876953Y-32963309D01*
X72776605Y-33205571D01*
X72776602Y-33205581D01*
X72733721Y-33365618D01*
X72708730Y-33458885D01*
X72674500Y-33718872D01*
X72674500Y-33981127D01*
X72692004Y-34114075D01*
X72708730Y-34241116D01*
X72775666Y-34490925D01*
X72776602Y-34494418D01*
X72776605Y-34494428D01*
X72876953Y-34736690D01*
X72876958Y-34736700D01*
X73008075Y-34963803D01*
X73167718Y-35171851D01*
X73167726Y-35171860D01*
X73353140Y-35357274D01*
X73353148Y-35357281D01*
X73353149Y-35357282D01*
X73401554Y-35394424D01*
X73561196Y-35516924D01*
X73788299Y-35648041D01*
X73788309Y-35648046D01*
X74030571Y-35748394D01*
X74030581Y-35748398D01*
X74283884Y-35816270D01*
X74543880Y-35850500D01*
X74543887Y-35850500D01*
X74806113Y-35850500D01*
X74806120Y-35850500D01*
X75066116Y-35816270D01*
X75179105Y-35785994D01*
X75248953Y-35787657D01*
X75298878Y-35818088D01*
X76392838Y-36912049D01*
X76392842Y-36912052D01*
X76548515Y-37016070D01*
X76548516Y-37016070D01*
X76548520Y-37016073D01*
X76621488Y-37046297D01*
X76721499Y-37087723D01*
X76813316Y-37105986D01*
X76886461Y-37120535D01*
X76905132Y-37124250D01*
X76905133Y-37124250D01*
X76905134Y-37124250D01*
X79531178Y-37124250D01*
X79598217Y-37143935D01*
X79618859Y-37160569D01*
X80996588Y-38538299D01*
X80996592Y-38538302D01*
X81152263Y-38642319D01*
X81152265Y-38642320D01*
X81152270Y-38642323D01*
X81253599Y-38684294D01*
X81325249Y-38713973D01*
X81417066Y-38732236D01*
X81497118Y-38748159D01*
X81508882Y-38750500D01*
X81508883Y-38750500D01*
X81508884Y-38750500D01*
X88255614Y-38750500D01*
X88303063Y-38759937D01*
X88308165Y-38762051D01*
X88355496Y-38771465D01*
X88501456Y-38800500D01*
X88501459Y-38800500D01*
X88698543Y-38800500D01*
X88828582Y-38774632D01*
X88891835Y-38762051D01*
X89073914Y-38686632D01*
X89237782Y-38577139D01*
X89377139Y-38437782D01*
X89486632Y-38273914D01*
X89562051Y-38091835D01*
X89600500Y-37898541D01*
X89600500Y-37701459D01*
X89600500Y-37701456D01*
X89562052Y-37508170D01*
X89562051Y-37508169D01*
X89562051Y-37508165D01*
X89562049Y-37508160D01*
X89486635Y-37326092D01*
X89486628Y-37326079D01*
X89377139Y-37162218D01*
X89377136Y-37162214D01*
X89237785Y-37022863D01*
X89237781Y-37022860D01*
X89073920Y-36913371D01*
X89073907Y-36913364D01*
X88891839Y-36837950D01*
X88891829Y-36837947D01*
X88698543Y-36799500D01*
X88698541Y-36799500D01*
X88501459Y-36799500D01*
X88501457Y-36799500D01*
X88308171Y-36837947D01*
X88308164Y-36837949D01*
X88303064Y-36840062D01*
X88255614Y-36849500D01*
X82047572Y-36849500D01*
X81980533Y-36829815D01*
X81959891Y-36813181D01*
X81103263Y-35956553D01*
X81069778Y-35895230D01*
X81074762Y-35825538D01*
X81116634Y-35769605D01*
X81133528Y-35758965D01*
X81250751Y-35697734D01*
X81400571Y-35575571D01*
X81522734Y-35425751D01*
X81612237Y-35254406D01*
X81665417Y-35068552D01*
X81675500Y-34955138D01*
X81675500Y-32744862D01*
X81665417Y-32631448D01*
X81612237Y-32445594D01*
X81522734Y-32274249D01*
X81438399Y-32170821D01*
X81400571Y-32124428D01*
X81308700Y-32049518D01*
X81250751Y-32002266D01*
X81214180Y-31983163D01*
X81079405Y-31912762D01*
X80924845Y-31868537D01*
X80893552Y-31859583D01*
X80893551Y-31859582D01*
X80893548Y-31859582D01*
X80804662Y-31851680D01*
X80780138Y-31849500D01*
X80780136Y-31849500D01*
X80749500Y-31849500D01*
X80682461Y-31829815D01*
X80636706Y-31777011D01*
X80625500Y-31725500D01*
X80625500Y-30781383D01*
X80625499Y-30781379D01*
X80616598Y-30736632D01*
X80588973Y-30597749D01*
X80517322Y-30424769D01*
X80517321Y-30424768D01*
X80517318Y-30424762D01*
X80413303Y-30269093D01*
X80374395Y-30230185D01*
X80280908Y-30136698D01*
X79702370Y-29558160D01*
X78822466Y-28678255D01*
X78737597Y-28593386D01*
X93449500Y-28593386D01*
X93449500Y-30406613D01*
X93455913Y-30477192D01*
X93455913Y-30477194D01*
X93455914Y-30477196D01*
X93459213Y-30487782D01*
X93506522Y-30639606D01*
X93594530Y-30785188D01*
X93714813Y-30905471D01*
X93714817Y-30905474D01*
X93733382Y-30916697D01*
X93780570Y-30968224D01*
X93792409Y-31037084D01*
X93769551Y-31095699D01*
X93673896Y-31227357D01*
X93563097Y-31444812D01*
X93487678Y-31676927D01*
X93469367Y-31792539D01*
X93449500Y-31917973D01*
X93449500Y-32162027D01*
X93487679Y-32403076D01*
X93563096Y-32635185D01*
X93670133Y-32845258D01*
X93673896Y-32852642D01*
X93817339Y-33050076D01*
X93817343Y-33050081D01*
X93989918Y-33222656D01*
X93989923Y-33222660D01*
X94186688Y-33365618D01*
X94229354Y-33420948D01*
X94235380Y-33461826D01*
X94870591Y-34097037D01*
X94807007Y-34114075D01*
X94692993Y-34179901D01*
X94599901Y-34272993D01*
X94534075Y-34387007D01*
X94517037Y-34450591D01*
X93884728Y-33818282D01*
X93884727Y-33818282D01*
X93845380Y-33872439D01*
X93748904Y-34061782D01*
X93683242Y-34263869D01*
X93683242Y-34263872D01*
X93650000Y-34473753D01*
X93650000Y-34686246D01*
X93683242Y-34896127D01*
X93683242Y-34896130D01*
X93748904Y-35098217D01*
X93845375Y-35287550D01*
X93884728Y-35341716D01*
X94517037Y-34709408D01*
X94534075Y-34772993D01*
X94599901Y-34887007D01*
X94692993Y-34980099D01*
X94807007Y-35045925D01*
X94870590Y-35062962D01*
X94238282Y-35695269D01*
X94238282Y-35695270D01*
X94292449Y-35734624D01*
X94481782Y-35831095D01*
X94683870Y-35896757D01*
X94893754Y-35930000D01*
X95106246Y-35930000D01*
X95316127Y-35896757D01*
X95316130Y-35896757D01*
X95518217Y-35831095D01*
X95707554Y-35734622D01*
X95761716Y-35695270D01*
X95761717Y-35695270D01*
X95129408Y-35062962D01*
X95192993Y-35045925D01*
X95307007Y-34980099D01*
X95400099Y-34887007D01*
X95465925Y-34772993D01*
X95482962Y-34709409D01*
X96115270Y-35341717D01*
X96115270Y-35341716D01*
X96154622Y-35287554D01*
X96251095Y-35098217D01*
X96316757Y-34896130D01*
X96316757Y-34896127D01*
X96350000Y-34686246D01*
X96350000Y-34473753D01*
X96316757Y-34263872D01*
X96316757Y-34263869D01*
X96251095Y-34061782D01*
X96154624Y-33872449D01*
X96115270Y-33818282D01*
X96115269Y-33818282D01*
X95482962Y-34450590D01*
X95465925Y-34387007D01*
X95400099Y-34272993D01*
X95307007Y-34179901D01*
X95192993Y-34114075D01*
X95129409Y-34097037D01*
X95765714Y-33460730D01*
X95776940Y-33407289D01*
X95813306Y-33365621D01*
X96010083Y-33222655D01*
X96182655Y-33050083D01*
X96326106Y-32852639D01*
X96436904Y-32635185D01*
X96512321Y-32403076D01*
X96550500Y-32162027D01*
X96550500Y-31917973D01*
X96512321Y-31676924D01*
X96436904Y-31444815D01*
X96326106Y-31227361D01*
X96326104Y-31227358D01*
X96326103Y-31227356D01*
X96230449Y-31095698D01*
X96206969Y-31029891D01*
X96222795Y-30961838D01*
X96266621Y-30916694D01*
X96285185Y-30905472D01*
X96405472Y-30785185D01*
X96493478Y-30639606D01*
X96544086Y-30477196D01*
X96550500Y-30406616D01*
X96550500Y-28593384D01*
X96544086Y-28522804D01*
X96493478Y-28360394D01*
X96405472Y-28214815D01*
X96405470Y-28214813D01*
X96405469Y-28214811D01*
X96285188Y-28094530D01*
X96192315Y-28038386D01*
X106724500Y-28038386D01*
X106724500Y-29851613D01*
X106730913Y-29922192D01*
X106730913Y-29922194D01*
X106730914Y-29922196D01*
X106781522Y-30084606D01*
X106813013Y-30136699D01*
X106869530Y-30230188D01*
X106989813Y-30350471D01*
X106989817Y-30350474D01*
X107008382Y-30361697D01*
X107055570Y-30413224D01*
X107067409Y-30482084D01*
X107044551Y-30540699D01*
X106948896Y-30672357D01*
X106838097Y-30889812D01*
X106838096Y-30889814D01*
X106838096Y-30889815D01*
X106816139Y-30957391D01*
X106762678Y-31121927D01*
X106724500Y-31362973D01*
X106724500Y-31607026D01*
X106761129Y-31838294D01*
X106762679Y-31848076D01*
X106838096Y-32080185D01*
X106936976Y-32274249D01*
X106948896Y-32297642D01*
X107092339Y-32495076D01*
X107092343Y-32495081D01*
X107264918Y-32667656D01*
X107264923Y-32667660D01*
X107461688Y-32810618D01*
X107504354Y-32865948D01*
X107510380Y-32906826D01*
X108145591Y-33542037D01*
X108082007Y-33559075D01*
X107967993Y-33624901D01*
X107874901Y-33717993D01*
X107809075Y-33832007D01*
X107792037Y-33895591D01*
X107159728Y-33263282D01*
X107159727Y-33263282D01*
X107120380Y-33317439D01*
X107023904Y-33506782D01*
X106958242Y-33708869D01*
X106958242Y-33708872D01*
X106925000Y-33918753D01*
X106925000Y-34131246D01*
X106958242Y-34341127D01*
X106958242Y-34341130D01*
X107023904Y-34543217D01*
X107120375Y-34732550D01*
X107159728Y-34786716D01*
X107792037Y-34154408D01*
X107809075Y-34217993D01*
X107874901Y-34332007D01*
X107967993Y-34425099D01*
X108082007Y-34490925D01*
X108145590Y-34507962D01*
X107513282Y-35140269D01*
X107513282Y-35140270D01*
X107567449Y-35179624D01*
X107756782Y-35276095D01*
X107958870Y-35341757D01*
X108168754Y-35375000D01*
X108381246Y-35375000D01*
X108591127Y-35341757D01*
X108591130Y-35341757D01*
X108793217Y-35276095D01*
X108982554Y-35179622D01*
X109036716Y-35140270D01*
X109036717Y-35140270D01*
X108404408Y-34507962D01*
X108467993Y-34490925D01*
X108582007Y-34425099D01*
X108675099Y-34332007D01*
X108740925Y-34217993D01*
X108757962Y-34154408D01*
X109390270Y-34786717D01*
X109390270Y-34786716D01*
X109429622Y-34732554D01*
X109526095Y-34543217D01*
X109591757Y-34341130D01*
X109591757Y-34341127D01*
X109625000Y-34131246D01*
X109625000Y-33918753D01*
X109591757Y-33708872D01*
X109591757Y-33708869D01*
X109526095Y-33506782D01*
X109429624Y-33317449D01*
X109390270Y-33263282D01*
X109390269Y-33263282D01*
X108757962Y-33895590D01*
X108740925Y-33832007D01*
X108675099Y-33717993D01*
X108582007Y-33624901D01*
X108467993Y-33559075D01*
X108404409Y-33542037D01*
X109040714Y-32905730D01*
X109051940Y-32852289D01*
X109088306Y-32810621D01*
X109285083Y-32667655D01*
X109457655Y-32495083D01*
X109545959Y-32373543D01*
X113874499Y-32373543D01*
X113912947Y-32566829D01*
X113912950Y-32566839D01*
X113988364Y-32748907D01*
X113988371Y-32748920D01*
X114097860Y-32912781D01*
X114097863Y-32912785D01*
X114237214Y-33052136D01*
X114237218Y-33052139D01*
X114401079Y-33161628D01*
X114401092Y-33161635D01*
X114486250Y-33196908D01*
X114583165Y-33237051D01*
X114698328Y-33259958D01*
X114760235Y-33292341D01*
X114761815Y-33293893D01*
X115363181Y-33895259D01*
X115396666Y-33956582D01*
X115399500Y-33982940D01*
X115399500Y-41267060D01*
X115379815Y-41334099D01*
X115363181Y-41354741D01*
X114811816Y-41906105D01*
X114750493Y-41939590D01*
X114748327Y-41940041D01*
X114633170Y-41962947D01*
X114633160Y-41962950D01*
X114451092Y-42038364D01*
X114451079Y-42038371D01*
X114287218Y-42147860D01*
X114287214Y-42147863D01*
X114147863Y-42287214D01*
X114147860Y-42287218D01*
X114038371Y-42451079D01*
X114038364Y-42451092D01*
X113962950Y-42633160D01*
X113962947Y-42633170D01*
X113924500Y-42826456D01*
X113924500Y-42826459D01*
X113924500Y-43023541D01*
X113924500Y-43023543D01*
X113924499Y-43023543D01*
X113962947Y-43216829D01*
X113962950Y-43216839D01*
X114038364Y-43398907D01*
X114038371Y-43398920D01*
X114147860Y-43562781D01*
X114147863Y-43562785D01*
X114287214Y-43702136D01*
X114287218Y-43702139D01*
X114451079Y-43811628D01*
X114451092Y-43811635D01*
X114633160Y-43887049D01*
X114633165Y-43887051D01*
X114633169Y-43887051D01*
X114633170Y-43887052D01*
X114826456Y-43925500D01*
X114826459Y-43925500D01*
X115023543Y-43925500D01*
X115153582Y-43899632D01*
X115216835Y-43887051D01*
X115398914Y-43811632D01*
X115562782Y-43702139D01*
X115702139Y-43562782D01*
X115811632Y-43398914D01*
X115887051Y-43216835D01*
X115909958Y-43101667D01*
X115942341Y-43039762D01*
X115943837Y-43038238D01*
X116710286Y-42271790D01*
X116710289Y-42271789D01*
X116821789Y-42160289D01*
X116909394Y-42029179D01*
X116969737Y-41883497D01*
X117000500Y-41728842D01*
X117000500Y-33521158D01*
X117000500Y-33521155D01*
X117000499Y-33521153D01*
X116977655Y-33406304D01*
X116973390Y-33384863D01*
X132749500Y-33384863D01*
X132749500Y-34595136D01*
X132759582Y-34708548D01*
X132812762Y-34894405D01*
X132849013Y-34963803D01*
X132902266Y-35065751D01*
X132943970Y-35116897D01*
X133024428Y-35215571D01*
X133072056Y-35254406D01*
X133174249Y-35337734D01*
X133345594Y-35427237D01*
X133531448Y-35480417D01*
X133644862Y-35490500D01*
X133644870Y-35490500D01*
X134855130Y-35490500D01*
X134855138Y-35490500D01*
X134968552Y-35480417D01*
X135154406Y-35427237D01*
X135325751Y-35337734D01*
X135475571Y-35215571D01*
X135597734Y-35065751D01*
X135687237Y-34894406D01*
X135740417Y-34708552D01*
X135750500Y-34595138D01*
X135750500Y-33887682D01*
X136450000Y-33887682D01*
X136450000Y-34092317D01*
X136482009Y-34294417D01*
X136545244Y-34489031D01*
X136638141Y-34671350D01*
X136638147Y-34671359D01*
X136670523Y-34715921D01*
X136670524Y-34715922D01*
X137350000Y-34036446D01*
X137350000Y-34042661D01*
X137377259Y-34144394D01*
X137429920Y-34235606D01*
X137504394Y-34310080D01*
X137595606Y-34362741D01*
X137697339Y-34390000D01*
X137703553Y-34390000D01*
X137024076Y-35069474D01*
X137068650Y-35101859D01*
X137250968Y-35194755D01*
X137445582Y-35257990D01*
X137647683Y-35290000D01*
X137852317Y-35290000D01*
X138054417Y-35257990D01*
X138249031Y-35194755D01*
X138431349Y-35101859D01*
X138475921Y-35069474D01*
X137796447Y-34390000D01*
X137802661Y-34390000D01*
X137904394Y-34362741D01*
X137995606Y-34310080D01*
X138070080Y-34235606D01*
X138122741Y-34144394D01*
X138150000Y-34042661D01*
X138150000Y-34036448D01*
X138829474Y-34715922D01*
X138829474Y-34715921D01*
X138861859Y-34671349D01*
X138954755Y-34489031D01*
X139017990Y-34294417D01*
X139050000Y-34092317D01*
X139050000Y-33887682D01*
X139017990Y-33685582D01*
X138954755Y-33490968D01*
X138861859Y-33308650D01*
X138829474Y-33264077D01*
X138829474Y-33264076D01*
X138150000Y-33943551D01*
X138150000Y-33937339D01*
X138122741Y-33835606D01*
X138070080Y-33744394D01*
X137995606Y-33669920D01*
X137904394Y-33617259D01*
X137802661Y-33590000D01*
X137796446Y-33590000D01*
X138475922Y-32910524D01*
X138475921Y-32910523D01*
X138431359Y-32878147D01*
X138431350Y-32878141D01*
X138249031Y-32785244D01*
X138054417Y-32722009D01*
X137852317Y-32690000D01*
X137647683Y-32690000D01*
X137445582Y-32722009D01*
X137250968Y-32785244D01*
X137068644Y-32878143D01*
X137024077Y-32910523D01*
X137024077Y-32910524D01*
X137703554Y-33590000D01*
X137697339Y-33590000D01*
X137595606Y-33617259D01*
X137504394Y-33669920D01*
X137429920Y-33744394D01*
X137377259Y-33835606D01*
X137350000Y-33937339D01*
X137350000Y-33943553D01*
X136670524Y-33264077D01*
X136670523Y-33264077D01*
X136638143Y-33308644D01*
X136545244Y-33490968D01*
X136482009Y-33685582D01*
X136450000Y-33887682D01*
X135750500Y-33887682D01*
X135750500Y-33384862D01*
X135740417Y-33271448D01*
X135687237Y-33085594D01*
X135597734Y-32914249D01*
X135536652Y-32839339D01*
X135475571Y-32764428D01*
X135356888Y-32667655D01*
X135325751Y-32642266D01*
X135305041Y-32631448D01*
X135154405Y-32552762D01*
X134999845Y-32508537D01*
X134968552Y-32499583D01*
X134968551Y-32499582D01*
X134968548Y-32499582D01*
X134879662Y-32491680D01*
X134855138Y-32489500D01*
X133644862Y-32489500D01*
X133632599Y-32490590D01*
X133531451Y-32499582D01*
X133345594Y-32552762D01*
X133174250Y-32642265D01*
X133024428Y-32764428D01*
X132902265Y-32914250D01*
X132812762Y-33085594D01*
X132759582Y-33271451D01*
X132749500Y-33384863D01*
X116973390Y-33384863D01*
X116969738Y-33366507D01*
X116969735Y-33366498D01*
X116909397Y-33220827D01*
X116909390Y-33220814D01*
X116821790Y-33089712D01*
X116767578Y-33035500D01*
X116710289Y-32978211D01*
X115893893Y-32161815D01*
X115860408Y-32100492D01*
X115859986Y-32098468D01*
X115837051Y-31983165D01*
X115814289Y-31928212D01*
X115761635Y-31801092D01*
X115761628Y-31801079D01*
X115652139Y-31637218D01*
X115652136Y-31637214D01*
X115512785Y-31497863D01*
X115512781Y-31497860D01*
X115348920Y-31388371D01*
X115348907Y-31388364D01*
X115166839Y-31312950D01*
X115166829Y-31312947D01*
X114973543Y-31274500D01*
X114973541Y-31274500D01*
X114776459Y-31274500D01*
X114776457Y-31274500D01*
X114583170Y-31312947D01*
X114583160Y-31312950D01*
X114401092Y-31388364D01*
X114401079Y-31388371D01*
X114237218Y-31497860D01*
X114237214Y-31497863D01*
X114097863Y-31637214D01*
X114097860Y-31637218D01*
X113988371Y-31801079D01*
X113988364Y-31801092D01*
X113912950Y-31983160D01*
X113912947Y-31983170D01*
X113874500Y-32176456D01*
X113874500Y-32176459D01*
X113874500Y-32373541D01*
X113874500Y-32373543D01*
X113874499Y-32373543D01*
X109545959Y-32373543D01*
X109601106Y-32297639D01*
X109711904Y-32080185D01*
X109787321Y-31848076D01*
X109825500Y-31607027D01*
X109825500Y-31362973D01*
X109787321Y-31121924D01*
X109711904Y-30889815D01*
X109601106Y-30672361D01*
X109601104Y-30672358D01*
X109601103Y-30672356D01*
X109505449Y-30540698D01*
X109481969Y-30474891D01*
X109497795Y-30406838D01*
X109541621Y-30361694D01*
X109560185Y-30350472D01*
X109680472Y-30230185D01*
X109768478Y-30084606D01*
X109819086Y-29922196D01*
X109825500Y-29851616D01*
X109825500Y-28038384D01*
X109819086Y-27967804D01*
X109768478Y-27805394D01*
X109680472Y-27659815D01*
X109680470Y-27659813D01*
X109680469Y-27659811D01*
X109560188Y-27539530D01*
X109414606Y-27451522D01*
X109252196Y-27400914D01*
X109252194Y-27400913D01*
X109252192Y-27400913D01*
X109202778Y-27396423D01*
X109181616Y-27394500D01*
X107368384Y-27394500D01*
X107349145Y-27396248D01*
X107297807Y-27400913D01*
X107135393Y-27451522D01*
X106989811Y-27539530D01*
X106869530Y-27659811D01*
X106781522Y-27805393D01*
X106730913Y-27967807D01*
X106724500Y-28038386D01*
X96192315Y-28038386D01*
X96139606Y-28006522D01*
X95977196Y-27955914D01*
X95977194Y-27955913D01*
X95977192Y-27955913D01*
X95927778Y-27951423D01*
X95906616Y-27949500D01*
X94093384Y-27949500D01*
X94074145Y-27951248D01*
X94022807Y-27955913D01*
X93860393Y-28006522D01*
X93714811Y-28094530D01*
X93594530Y-28214811D01*
X93506522Y-28360393D01*
X93455913Y-28522807D01*
X93449500Y-28593386D01*
X78737597Y-28593386D01*
X77605911Y-27461700D01*
X77605907Y-27461697D01*
X77450236Y-27357680D01*
X77450227Y-27357675D01*
X77348903Y-27315706D01*
X77348901Y-27315705D01*
X77277251Y-27286027D01*
X77277247Y-27286026D01*
X77277243Y-27286024D01*
X77185433Y-27267763D01*
X77093620Y-27249500D01*
X77093617Y-27249500D01*
X77093616Y-27249500D01*
X66806384Y-27249500D01*
X66806379Y-27249500D01*
X66622756Y-27286024D01*
X66622752Y-27286026D01*
X66622750Y-27286026D01*
X66622749Y-27286027D01*
X66551099Y-27315705D01*
X66551097Y-27315706D01*
X66449772Y-27357675D01*
X66449763Y-27357680D01*
X66294092Y-27461697D01*
X66294088Y-27461700D01*
X63761700Y-29994088D01*
X63761697Y-29994092D01*
X63657677Y-30149769D01*
X63657675Y-30149772D01*
X63653900Y-30158889D01*
X63653898Y-30158894D01*
X63586027Y-30322748D01*
X63586025Y-30322756D01*
X63549500Y-30506379D01*
X50840000Y-30506379D01*
X50840000Y-25781362D01*
X50848644Y-25751921D01*
X50855168Y-25721935D01*
X50858922Y-25716919D01*
X50859685Y-25714323D01*
X50876319Y-25693681D01*
X51033181Y-25536819D01*
X51094504Y-25503334D01*
X51120862Y-25500500D01*
X144346000Y-25500500D01*
X144413039Y-25520185D01*
G37*
%TD.AperFunction*%
%TA.AperFunction,Conductor*%
G36*
X106584099Y-87920185D02*
G01*
X106604741Y-87936819D01*
X108596181Y-89928259D01*
X108629666Y-89989582D01*
X108632500Y-90015940D01*
X108632500Y-91611846D01*
X108663261Y-91766489D01*
X108663264Y-91766501D01*
X108723602Y-91912172D01*
X108723609Y-91912185D01*
X108811210Y-92043288D01*
X108811213Y-92043292D01*
X110981105Y-94213183D01*
X111014590Y-94274506D01*
X111015041Y-94276672D01*
X111037947Y-94391829D01*
X111037950Y-94391839D01*
X111113364Y-94573907D01*
X111113371Y-94573920D01*
X111222860Y-94737781D01*
X111222863Y-94737785D01*
X111362214Y-94877136D01*
X111362218Y-94877139D01*
X111526079Y-94986628D01*
X111526092Y-94986635D01*
X111708160Y-95062049D01*
X111708165Y-95062051D01*
X111708169Y-95062051D01*
X111708170Y-95062052D01*
X111901456Y-95100500D01*
X111901459Y-95100500D01*
X112098543Y-95100500D01*
X112228582Y-95074632D01*
X112291835Y-95062051D01*
X112473914Y-94986632D01*
X112637782Y-94877139D01*
X112777139Y-94737782D01*
X112886632Y-94573914D01*
X112962051Y-94391835D01*
X112984959Y-94276672D01*
X113000500Y-94198543D01*
X113000500Y-94001456D01*
X112962052Y-93808170D01*
X112962051Y-93808169D01*
X112962051Y-93808165D01*
X112939773Y-93754381D01*
X112886635Y-93626092D01*
X112886628Y-93626079D01*
X112777139Y-93462218D01*
X112777136Y-93462214D01*
X112637785Y-93322863D01*
X112637781Y-93322860D01*
X112473920Y-93213371D01*
X112473907Y-93213364D01*
X112291839Y-93137950D01*
X112291829Y-93137947D01*
X112176672Y-93115041D01*
X112114762Y-93082656D01*
X112113183Y-93081105D01*
X110269819Y-91237741D01*
X110236334Y-91176418D01*
X110233500Y-91150060D01*
X110233500Y-89554155D01*
X110233499Y-89554153D01*
X110202738Y-89399510D01*
X110202737Y-89399503D01*
X110173354Y-89328566D01*
X110142397Y-89253827D01*
X110142395Y-89253823D01*
X110142394Y-89253821D01*
X110118245Y-89217679D01*
X110097367Y-89151002D01*
X110115851Y-89083622D01*
X110167830Y-89036931D01*
X110236800Y-89025755D01*
X110300864Y-89053640D01*
X110309028Y-89061107D01*
X118445349Y-97197427D01*
X118478834Y-97258750D01*
X118480141Y-97304505D01*
X118449500Y-97497972D01*
X118449500Y-97497973D01*
X118449500Y-97742027D01*
X118487679Y-97983076D01*
X118563096Y-98215185D01*
X118663861Y-98412949D01*
X118673896Y-98432642D01*
X118817339Y-98630076D01*
X118817343Y-98630081D01*
X118989581Y-98802319D01*
X119023066Y-98863642D01*
X119018082Y-98933334D01*
X118989581Y-98977681D01*
X118817343Y-99149918D01*
X118817339Y-99149923D01*
X118673896Y-99347357D01*
X118563097Y-99564812D01*
X118487678Y-99796927D01*
X118453490Y-100012781D01*
X118449500Y-100037973D01*
X118449500Y-100282027D01*
X118458014Y-100335781D01*
X118486468Y-100515434D01*
X118487679Y-100523076D01*
X118563096Y-100755185D01*
X118644415Y-100914784D01*
X118673896Y-100972642D01*
X118817339Y-101170076D01*
X118817343Y-101170081D01*
X118989918Y-101342656D01*
X118989923Y-101342660D01*
X119186688Y-101485618D01*
X119229354Y-101540948D01*
X119235380Y-101581826D01*
X119870591Y-102217037D01*
X119807007Y-102234075D01*
X119692993Y-102299901D01*
X119599901Y-102392993D01*
X119534075Y-102507007D01*
X119517037Y-102570591D01*
X118884728Y-101938282D01*
X118884727Y-101938282D01*
X118845380Y-101992439D01*
X118748904Y-102181782D01*
X118683242Y-102383869D01*
X118683242Y-102383872D01*
X118650000Y-102593753D01*
X118650000Y-102806246D01*
X118683242Y-103016127D01*
X118683242Y-103016130D01*
X118748904Y-103218217D01*
X118845375Y-103407550D01*
X118884728Y-103461716D01*
X119517037Y-102829408D01*
X119534075Y-102892993D01*
X119599901Y-103007007D01*
X119692993Y-103100099D01*
X119807007Y-103165925D01*
X119870590Y-103182962D01*
X119234283Y-103819268D01*
X119223056Y-103872712D01*
X119186689Y-103914381D01*
X118989918Y-104057343D01*
X118817343Y-104229918D01*
X118817339Y-104229923D01*
X118673896Y-104427357D01*
X118563097Y-104644812D01*
X118487678Y-104876927D01*
X118449500Y-105117973D01*
X118449500Y-105362026D01*
X118480559Y-105558127D01*
X118487679Y-105603076D01*
X118563096Y-105835185D01*
X118666409Y-106037949D01*
X118673896Y-106052642D01*
X118817339Y-106250076D01*
X118817343Y-106250081D01*
X118989581Y-106422319D01*
X119023066Y-106483642D01*
X119018082Y-106553334D01*
X118989581Y-106597681D01*
X118817343Y-106769918D01*
X118817339Y-106769923D01*
X118673896Y-106967357D01*
X118563097Y-107184812D01*
X118487678Y-107416927D01*
X118449500Y-107657973D01*
X118449500Y-107902026D01*
X118480142Y-108095491D01*
X118471187Y-108164784D01*
X118445350Y-108202570D01*
X118124229Y-108523691D01*
X118062906Y-108557176D01*
X117993214Y-108552192D01*
X117937281Y-108510320D01*
X117912864Y-108444856D01*
X117921986Y-108388559D01*
X117962051Y-108291835D01*
X117984959Y-108176672D01*
X118000500Y-108098543D01*
X118000500Y-107901456D01*
X117962052Y-107708170D01*
X117962051Y-107708169D01*
X117962051Y-107708165D01*
X117946585Y-107670826D01*
X117886635Y-107526092D01*
X117886628Y-107526079D01*
X117777139Y-107362218D01*
X117777136Y-107362214D01*
X117637785Y-107222863D01*
X117637781Y-107222860D01*
X117473920Y-107113371D01*
X117473907Y-107113364D01*
X117291839Y-107037950D01*
X117291829Y-107037947D01*
X117176672Y-107015041D01*
X117114762Y-106982656D01*
X117113183Y-106981105D01*
X113836819Y-103704741D01*
X113803334Y-103643418D01*
X113800500Y-103617060D01*
X113800500Y-103011155D01*
X113800499Y-103011153D01*
X113787056Y-102943573D01*
X113769737Y-102856503D01*
X113763368Y-102841127D01*
X113709397Y-102710827D01*
X113709395Y-102710823D01*
X113709394Y-102710821D01*
X113684356Y-102673349D01*
X113673948Y-102657772D01*
X113621790Y-102579712D01*
X113567077Y-102524999D01*
X113510289Y-102468211D01*
X106369649Y-95327571D01*
X106336164Y-95266248D01*
X106334857Y-95220495D01*
X106365500Y-95027027D01*
X106365500Y-94782973D01*
X106327321Y-94541924D01*
X106251904Y-94309815D01*
X106141106Y-94092361D01*
X106052198Y-93969989D01*
X105997660Y-93894923D01*
X105997656Y-93894918D01*
X105825081Y-93722343D01*
X105825076Y-93722339D01*
X105628310Y-93579381D01*
X105585644Y-93524052D01*
X105579617Y-93483170D01*
X104944408Y-92847962D01*
X105007993Y-92830925D01*
X105122007Y-92765099D01*
X105215099Y-92672007D01*
X105280925Y-92557993D01*
X105297962Y-92494409D01*
X105930270Y-93126717D01*
X105930270Y-93126716D01*
X105969622Y-93072554D01*
X106066095Y-92883217D01*
X106131757Y-92681130D01*
X106131757Y-92681127D01*
X106165000Y-92471246D01*
X106165000Y-92258753D01*
X106131757Y-92048872D01*
X106131757Y-92048869D01*
X106066095Y-91846782D01*
X105969620Y-91657442D01*
X105867643Y-91517081D01*
X105844163Y-91451275D01*
X105859989Y-91383221D01*
X105910094Y-91334526D01*
X105931061Y-91325814D01*
X105954606Y-91318478D01*
X106100185Y-91230472D01*
X106220472Y-91110185D01*
X106308478Y-90964606D01*
X106359086Y-90802196D01*
X106365500Y-90731616D01*
X106365500Y-88918384D01*
X106359086Y-88847804D01*
X106308478Y-88685394D01*
X106220472Y-88539815D01*
X106220470Y-88539813D01*
X106220469Y-88539811D01*
X106100188Y-88419530D01*
X106081186Y-88408043D01*
X105954606Y-88331522D01*
X105792196Y-88280914D01*
X105792194Y-88280913D01*
X105792192Y-88280913D01*
X105742778Y-88276423D01*
X105721616Y-88274500D01*
X103908384Y-88274500D01*
X103889145Y-88276248D01*
X103837807Y-88280913D01*
X103675393Y-88331522D01*
X103529811Y-88419530D01*
X103409530Y-88539811D01*
X103321522Y-88685393D01*
X103270913Y-88847807D01*
X103264500Y-88918386D01*
X103264500Y-90731613D01*
X103270913Y-90802192D01*
X103270913Y-90802194D01*
X103270914Y-90802196D01*
X103301837Y-90901433D01*
X103321522Y-90964606D01*
X103409530Y-91110188D01*
X103529811Y-91230469D01*
X103529813Y-91230470D01*
X103529815Y-91230472D01*
X103675394Y-91318478D01*
X103698926Y-91325810D01*
X103757074Y-91364546D01*
X103785050Y-91428570D01*
X103773970Y-91497556D01*
X103762357Y-91517081D01*
X103660376Y-91657446D01*
X103563904Y-91846782D01*
X103498242Y-92048869D01*
X103498242Y-92048872D01*
X103465000Y-92258753D01*
X103465000Y-92471246D01*
X103498242Y-92681127D01*
X103498242Y-92681130D01*
X103563904Y-92883217D01*
X103660375Y-93072550D01*
X103699728Y-93126716D01*
X104332036Y-92494407D01*
X104349075Y-92557993D01*
X104414901Y-92672007D01*
X104507993Y-92765099D01*
X104622007Y-92830925D01*
X104685590Y-92847962D01*
X104049283Y-93484268D01*
X104038056Y-93537712D01*
X104001689Y-93579381D01*
X103804918Y-93722343D01*
X103632343Y-93894918D01*
X103632339Y-93894923D01*
X103488896Y-94092357D01*
X103378097Y-94309812D01*
X103302678Y-94541927D01*
X103290470Y-94619008D01*
X103264500Y-94782973D01*
X103264500Y-95027027D01*
X103276021Y-95099769D01*
X103292217Y-95202027D01*
X103302679Y-95268076D01*
X103378096Y-95500185D01*
X103445129Y-95631746D01*
X103488896Y-95717642D01*
X103632339Y-95915076D01*
X103632343Y-95915081D01*
X103804581Y-96087319D01*
X103838066Y-96148642D01*
X103833082Y-96218334D01*
X103804581Y-96262681D01*
X103632343Y-96434918D01*
X103632339Y-96434923D01*
X103488896Y-96632357D01*
X103378097Y-96849812D01*
X103378096Y-96849814D01*
X103378096Y-96849815D01*
X103365756Y-96887793D01*
X103302678Y-97081927D01*
X103270256Y-97286632D01*
X103264500Y-97322973D01*
X103264500Y-97567027D01*
X103273612Y-97624558D01*
X103292217Y-97742027D01*
X103302679Y-97808076D01*
X103317307Y-97853097D01*
X103378097Y-98040187D01*
X103488896Y-98257642D01*
X103632339Y-98455076D01*
X103632343Y-98455081D01*
X103804581Y-98627319D01*
X103838066Y-98688642D01*
X103833082Y-98758334D01*
X103804581Y-98802681D01*
X103632343Y-98974918D01*
X103632339Y-98974923D01*
X103488896Y-99172357D01*
X103378097Y-99389812D01*
X103302678Y-99621927D01*
X103264500Y-99862973D01*
X103264500Y-100107026D01*
X103301530Y-100340826D01*
X103302679Y-100348076D01*
X103378096Y-100580185D01*
X103479058Y-100778335D01*
X103488896Y-100797642D01*
X103632339Y-100995076D01*
X103632343Y-100995081D01*
X103804581Y-101167319D01*
X103838066Y-101228642D01*
X103833082Y-101298334D01*
X103804581Y-101342681D01*
X103632343Y-101514918D01*
X103632339Y-101514923D01*
X103488896Y-101712357D01*
X103378097Y-101929812D01*
X103302678Y-102161927D01*
X103275740Y-102332007D01*
X103264500Y-102402973D01*
X103264500Y-102647027D01*
X103272890Y-102699999D01*
X103292217Y-102822027D01*
X103302679Y-102888076D01*
X103378096Y-103120185D01*
X103441297Y-103244225D01*
X103488896Y-103337642D01*
X103632339Y-103535076D01*
X103632343Y-103535081D01*
X103804581Y-103707319D01*
X103838066Y-103768642D01*
X103833082Y-103838334D01*
X103804581Y-103882681D01*
X103632343Y-104054918D01*
X103632339Y-104054923D01*
X103488896Y-104252357D01*
X103378097Y-104469812D01*
X103302678Y-104701927D01*
X103290470Y-104779008D01*
X103264500Y-104942973D01*
X103264500Y-105187027D01*
X103276021Y-105259769D01*
X103292217Y-105362027D01*
X103302679Y-105428076D01*
X103378096Y-105660185D01*
X103487804Y-105875500D01*
X103488896Y-105877642D01*
X103632339Y-106075076D01*
X103632343Y-106075081D01*
X103804918Y-106247656D01*
X103804923Y-106247660D01*
X104001688Y-106390618D01*
X104044354Y-106445948D01*
X104050380Y-106486826D01*
X104685591Y-107122037D01*
X104622007Y-107139075D01*
X104507993Y-107204901D01*
X104414901Y-107297993D01*
X104349075Y-107412007D01*
X104332037Y-107475591D01*
X103699728Y-106843282D01*
X103699727Y-106843282D01*
X103660380Y-106897439D01*
X103563904Y-107086782D01*
X103498242Y-107288869D01*
X103498242Y-107288872D01*
X103465000Y-107498753D01*
X103465000Y-107711246D01*
X103498242Y-107921127D01*
X103498242Y-107921130D01*
X103563904Y-108123217D01*
X103660375Y-108312550D01*
X103699728Y-108366716D01*
X104332037Y-107734408D01*
X104349075Y-107797993D01*
X104414901Y-107912007D01*
X104507993Y-108005099D01*
X104622007Y-108070925D01*
X104685590Y-108087962D01*
X104053282Y-108720269D01*
X104053282Y-108720270D01*
X104107449Y-108759624D01*
X104296782Y-108856095D01*
X104498870Y-108921757D01*
X104708754Y-108955000D01*
X104921246Y-108955000D01*
X105131127Y-108921757D01*
X105131130Y-108921757D01*
X105333217Y-108856095D01*
X105522554Y-108759622D01*
X105576716Y-108720270D01*
X105576717Y-108720270D01*
X104944408Y-108087962D01*
X105007993Y-108070925D01*
X105122007Y-108005099D01*
X105215099Y-107912007D01*
X105280925Y-107797993D01*
X105297962Y-107734408D01*
X105930270Y-108366717D01*
X105930270Y-108366716D01*
X105969622Y-108312554D01*
X106066095Y-108123217D01*
X106131757Y-107921130D01*
X106131757Y-107921127D01*
X106165000Y-107711246D01*
X106165000Y-107498753D01*
X106131757Y-107288872D01*
X106131757Y-107288869D01*
X106066095Y-107086782D01*
X105969624Y-106897449D01*
X105930270Y-106843282D01*
X105930269Y-106843282D01*
X105297962Y-107475590D01*
X105280925Y-107412007D01*
X105215099Y-107297993D01*
X105122007Y-107204901D01*
X105007993Y-107139075D01*
X104944409Y-107122037D01*
X105580714Y-106485730D01*
X105591940Y-106432289D01*
X105628306Y-106390621D01*
X105825083Y-106247655D01*
X105997655Y-106075083D01*
X106141106Y-105877639D01*
X106251904Y-105660185D01*
X106327321Y-105428076D01*
X106365500Y-105187027D01*
X106365500Y-104942973D01*
X106327321Y-104701924D01*
X106251904Y-104469815D01*
X106141106Y-104252361D01*
X106051069Y-104128435D01*
X105997660Y-104054923D01*
X105997656Y-104054918D01*
X105825419Y-103882681D01*
X105791934Y-103821358D01*
X105796918Y-103751666D01*
X105825419Y-103707319D01*
X105904642Y-103628096D01*
X105997655Y-103535083D01*
X106141106Y-103337639D01*
X106251904Y-103120185D01*
X106327321Y-102888076D01*
X106327322Y-102888069D01*
X106328228Y-102885281D01*
X106367665Y-102827606D01*
X106432024Y-102800407D01*
X106500870Y-102812321D01*
X106533840Y-102835918D01*
X108163181Y-104465259D01*
X108196666Y-104526582D01*
X108199500Y-104552940D01*
X108199500Y-112159565D01*
X108179815Y-112226604D01*
X108178602Y-112228456D01*
X108113366Y-112326088D01*
X108037950Y-112508160D01*
X108037947Y-112508170D01*
X107999500Y-112701456D01*
X107999500Y-112775500D01*
X107979815Y-112842539D01*
X107927011Y-112888294D01*
X107875500Y-112899500D01*
X89482940Y-112899500D01*
X89415901Y-112879815D01*
X89395259Y-112863181D01*
X80836819Y-104304741D01*
X80803334Y-104243418D01*
X80800500Y-104217060D01*
X80800500Y-94198304D01*
X80820185Y-94131265D01*
X80872989Y-94085510D01*
X80942147Y-94075566D01*
X81005703Y-94104591D01*
X81012181Y-94110623D01*
X83811847Y-96910289D01*
X83923347Y-97021789D01*
X83923348Y-97021790D01*
X84054450Y-97109390D01*
X84054463Y-97109397D01*
X84200134Y-97169735D01*
X84200139Y-97169737D01*
X84339345Y-97197427D01*
X84354789Y-97200499D01*
X84354792Y-97200500D01*
X84354794Y-97200500D01*
X86609565Y-97200500D01*
X86676604Y-97220185D01*
X86678456Y-97221398D01*
X86776086Y-97286632D01*
X86776087Y-97286632D01*
X86776088Y-97286633D01*
X86958160Y-97362049D01*
X86958165Y-97362051D01*
X86958169Y-97362051D01*
X86958170Y-97362052D01*
X87151456Y-97400500D01*
X87151459Y-97400500D01*
X87348543Y-97400500D01*
X87478582Y-97374632D01*
X87541835Y-97362051D01*
X87723914Y-97286632D01*
X87831637Y-97214653D01*
X87898313Y-97193776D01*
X87965693Y-97212260D01*
X88012384Y-97264239D01*
X88022412Y-97318101D01*
X88024500Y-97318101D01*
X88024500Y-97322973D01*
X88024500Y-97567027D01*
X88033612Y-97624558D01*
X88052217Y-97742027D01*
X88062679Y-97808076D01*
X88077307Y-97853097D01*
X88138097Y-98040187D01*
X88248896Y-98257642D01*
X88392339Y-98455076D01*
X88392343Y-98455081D01*
X88564581Y-98627319D01*
X88598066Y-98688642D01*
X88593082Y-98758334D01*
X88564581Y-98802681D01*
X88392343Y-98974918D01*
X88392339Y-98974923D01*
X88248896Y-99172357D01*
X88138097Y-99389812D01*
X88062678Y-99621927D01*
X88024500Y-99862973D01*
X88024500Y-100107026D01*
X88061530Y-100340826D01*
X88062679Y-100348076D01*
X88138096Y-100580185D01*
X88239058Y-100778335D01*
X88248896Y-100797642D01*
X88392339Y-100995076D01*
X88392343Y-100995081D01*
X88564918Y-101167656D01*
X88564923Y-101167660D01*
X88761688Y-101310618D01*
X88804354Y-101365948D01*
X88810380Y-101406826D01*
X89445591Y-102042037D01*
X89382007Y-102059075D01*
X89267993Y-102124901D01*
X89174901Y-102217993D01*
X89109075Y-102332007D01*
X89092037Y-102395591D01*
X88459728Y-101763282D01*
X88459727Y-101763282D01*
X88420380Y-101817439D01*
X88323904Y-102006782D01*
X88258242Y-102208869D01*
X88258242Y-102208870D01*
X88240623Y-102320109D01*
X88210693Y-102383243D01*
X88151381Y-102420174D01*
X88081519Y-102419176D01*
X88030469Y-102388391D01*
X84634809Y-98992731D01*
X84607929Y-98952502D01*
X84586635Y-98901093D01*
X84586634Y-98901092D01*
X84586632Y-98901086D01*
X84520863Y-98802655D01*
X84477139Y-98737217D01*
X84337785Y-98597863D01*
X84337781Y-98597860D01*
X84173920Y-98488371D01*
X84173907Y-98488364D01*
X83991839Y-98412950D01*
X83991829Y-98412947D01*
X83798543Y-98374500D01*
X83798541Y-98374500D01*
X83601459Y-98374500D01*
X83601457Y-98374500D01*
X83408170Y-98412947D01*
X83408160Y-98412950D01*
X83226092Y-98488364D01*
X83226079Y-98488371D01*
X83062218Y-98597860D01*
X83062214Y-98597863D01*
X82922863Y-98737214D01*
X82922860Y-98737218D01*
X82813371Y-98901079D01*
X82813364Y-98901092D01*
X82737950Y-99083160D01*
X82737947Y-99083170D01*
X82699500Y-99276456D01*
X82699500Y-99276459D01*
X82699500Y-99473541D01*
X82699500Y-99473543D01*
X82699499Y-99473543D01*
X82737947Y-99666829D01*
X82737950Y-99666839D01*
X82813364Y-99848907D01*
X82813371Y-99848920D01*
X82922860Y-100012781D01*
X82922863Y-100012785D01*
X83062214Y-100152136D01*
X83062218Y-100152139D01*
X83226079Y-100261628D01*
X83226092Y-100261635D01*
X83405099Y-100335781D01*
X83408165Y-100337051D01*
X83408169Y-100337051D01*
X83408170Y-100337052D01*
X83601456Y-100375500D01*
X83601459Y-100375500D01*
X83702060Y-100375500D01*
X83769099Y-100395185D01*
X83789741Y-100411819D01*
X85476076Y-102098154D01*
X85509561Y-102159477D01*
X85504577Y-102229169D01*
X85462705Y-102285102D01*
X85397241Y-102309519D01*
X85364204Y-102307452D01*
X85198544Y-102274500D01*
X85198541Y-102274500D01*
X85001459Y-102274500D01*
X85001457Y-102274500D01*
X84808170Y-102312947D01*
X84808160Y-102312950D01*
X84626092Y-102388364D01*
X84626079Y-102388371D01*
X84462218Y-102497860D01*
X84462214Y-102497863D01*
X84322863Y-102637214D01*
X84322860Y-102637218D01*
X84213371Y-102801079D01*
X84213364Y-102801092D01*
X84137950Y-102983160D01*
X84137947Y-102983170D01*
X84099500Y-103176456D01*
X84099500Y-103176459D01*
X84099500Y-103373541D01*
X84099500Y-103373543D01*
X84099499Y-103373543D01*
X84137947Y-103566829D01*
X84137950Y-103566839D01*
X84213364Y-103748907D01*
X84213371Y-103748920D01*
X84322860Y-103912781D01*
X84322863Y-103912785D01*
X84462214Y-104052136D01*
X84462218Y-104052139D01*
X84626079Y-104161628D01*
X84626092Y-104161635D01*
X84744026Y-104210484D01*
X84808165Y-104237051D01*
X84808169Y-104237051D01*
X84808170Y-104237052D01*
X85001456Y-104275500D01*
X85001459Y-104275500D01*
X85062060Y-104275500D01*
X85129099Y-104295185D01*
X85149741Y-104311819D01*
X88020349Y-107182427D01*
X88053834Y-107243750D01*
X88055141Y-107289505D01*
X88025936Y-107473907D01*
X88024500Y-107482973D01*
X88024500Y-107727027D01*
X88032437Y-107777136D01*
X88061724Y-107962051D01*
X88062679Y-107968076D01*
X88129752Y-108174506D01*
X88138097Y-108200187D01*
X88248896Y-108417642D01*
X88392339Y-108615076D01*
X88392343Y-108615081D01*
X88564918Y-108787656D01*
X88564923Y-108787660D01*
X88701152Y-108886635D01*
X88762361Y-108931106D01*
X88979815Y-109041904D01*
X89211924Y-109117321D01*
X89452973Y-109155500D01*
X89452974Y-109155500D01*
X89697026Y-109155500D01*
X89697027Y-109155500D01*
X89938076Y-109117321D01*
X90170185Y-109041904D01*
X90387639Y-108931106D01*
X90585083Y-108787655D01*
X90757655Y-108615083D01*
X90901106Y-108417639D01*
X91011904Y-108200185D01*
X91087321Y-107968076D01*
X91125500Y-107727027D01*
X91125500Y-107482973D01*
X91087321Y-107241924D01*
X91011904Y-107009815D01*
X90901106Y-106792361D01*
X90839934Y-106708165D01*
X90757660Y-106594923D01*
X90757656Y-106594918D01*
X90585419Y-106422681D01*
X90551934Y-106361358D01*
X90556918Y-106291666D01*
X90585419Y-106247319D01*
X90624576Y-106208162D01*
X90757655Y-106075083D01*
X90901106Y-105877639D01*
X91011904Y-105660185D01*
X91087321Y-105428076D01*
X91125500Y-105187027D01*
X91125500Y-104942973D01*
X91087321Y-104701924D01*
X91011904Y-104469815D01*
X90901106Y-104252361D01*
X90811069Y-104128435D01*
X90757660Y-104054923D01*
X90757656Y-104054918D01*
X90585081Y-103882343D01*
X90585076Y-103882339D01*
X90388310Y-103739381D01*
X90345644Y-103684052D01*
X90339617Y-103643170D01*
X89704408Y-103007962D01*
X89767993Y-102990925D01*
X89882007Y-102925099D01*
X89975099Y-102832007D01*
X90040925Y-102717993D01*
X90057962Y-102654408D01*
X90690270Y-103286717D01*
X90690270Y-103286716D01*
X90729622Y-103232554D01*
X90826095Y-103043217D01*
X90891757Y-102841130D01*
X90891757Y-102841127D01*
X90925000Y-102631246D01*
X90925000Y-102418753D01*
X90891757Y-102208872D01*
X90891757Y-102208869D01*
X90826095Y-102006782D01*
X90729624Y-101817449D01*
X90690270Y-101763282D01*
X90690269Y-101763282D01*
X90057962Y-102395590D01*
X90040925Y-102332007D01*
X89975099Y-102217993D01*
X89882007Y-102124901D01*
X89767993Y-102059075D01*
X89704409Y-102042037D01*
X90340714Y-101405730D01*
X90351940Y-101352289D01*
X90388306Y-101310621D01*
X90585083Y-101167655D01*
X90757655Y-100995083D01*
X90901106Y-100797639D01*
X91011904Y-100580185D01*
X91087321Y-100348076D01*
X91125500Y-100107027D01*
X91125500Y-99862973D01*
X91087321Y-99621924D01*
X91011904Y-99389815D01*
X90901106Y-99172361D01*
X90824555Y-99066997D01*
X90757660Y-98974923D01*
X90757656Y-98974918D01*
X90585419Y-98802681D01*
X90551934Y-98741358D01*
X90556918Y-98671666D01*
X90585419Y-98627319D01*
X90654612Y-98558126D01*
X90757655Y-98455083D01*
X90901106Y-98257639D01*
X91011904Y-98040185D01*
X91087321Y-97808076D01*
X91125500Y-97567027D01*
X91125500Y-97322973D01*
X91087321Y-97081924D01*
X91011904Y-96849815D01*
X90901106Y-96632361D01*
X90812198Y-96509989D01*
X90757660Y-96434923D01*
X90757656Y-96434918D01*
X90585419Y-96262681D01*
X90551934Y-96201358D01*
X90556918Y-96131666D01*
X90585419Y-96087319D01*
X90669229Y-96003509D01*
X90757655Y-95915083D01*
X90901106Y-95717639D01*
X91011904Y-95500185D01*
X91087321Y-95268076D01*
X91125500Y-95027027D01*
X91125500Y-94782973D01*
X91087321Y-94541924D01*
X91011904Y-94309815D01*
X90901106Y-94092361D01*
X90812198Y-93969989D01*
X90757660Y-93894923D01*
X90757656Y-93894918D01*
X90585419Y-93722681D01*
X90551934Y-93661358D01*
X90556918Y-93591666D01*
X90585419Y-93547319D01*
X90670524Y-93462214D01*
X90757655Y-93375083D01*
X90890524Y-93192203D01*
X90945850Y-93149541D01*
X90966641Y-93143476D01*
X91010578Y-93134737D01*
X91156260Y-93074394D01*
X91287370Y-92986789D01*
X96337340Y-87936819D01*
X96398663Y-87903334D01*
X96425021Y-87900500D01*
X106517060Y-87900500D01*
X106584099Y-87920185D01*
G37*
%TD.AperFunction*%
%TA.AperFunction,Conductor*%
G36*
X81982306Y-58794185D02*
G01*
X82002948Y-58810819D01*
X84189181Y-60997052D01*
X84222666Y-61058375D01*
X84225500Y-61084733D01*
X84225500Y-66984555D01*
X84205815Y-67051594D01*
X84189181Y-67072236D01*
X80104213Y-71157203D01*
X80104210Y-71157207D01*
X80016609Y-71288310D01*
X80016602Y-71288323D01*
X79956264Y-71433994D01*
X79956261Y-71434006D01*
X79925500Y-71588649D01*
X79925500Y-73075500D01*
X79905815Y-73142539D01*
X79853011Y-73188294D01*
X79801500Y-73199500D01*
X79701457Y-73199500D01*
X79508170Y-73237947D01*
X79508160Y-73237950D01*
X79326092Y-73313364D01*
X79326079Y-73313371D01*
X79162218Y-73422860D01*
X79162214Y-73422863D01*
X79022863Y-73562214D01*
X79022860Y-73562218D01*
X78913371Y-73726079D01*
X78913364Y-73726092D01*
X78837950Y-73908160D01*
X78837947Y-73908170D01*
X78799500Y-74101456D01*
X78799500Y-74101459D01*
X78799500Y-74298541D01*
X78799500Y-74298543D01*
X78799499Y-74298543D01*
X78837947Y-74491829D01*
X78837950Y-74491839D01*
X78913364Y-74673907D01*
X78913371Y-74673920D01*
X79022860Y-74837781D01*
X79022863Y-74837785D01*
X79163181Y-74978103D01*
X79196666Y-75039426D01*
X79199500Y-75065784D01*
X79199500Y-103359424D01*
X79179815Y-103426463D01*
X79127011Y-103472218D01*
X79057853Y-103482162D01*
X78994297Y-103453137D01*
X78987819Y-103447105D01*
X78557819Y-103017105D01*
X78524334Y-102955782D01*
X78521500Y-102929424D01*
X78521500Y-93982156D01*
X78504629Y-93897345D01*
X78500646Y-93877321D01*
X78490737Y-93827503D01*
X78481181Y-93804432D01*
X78447169Y-93722319D01*
X78430397Y-93681827D01*
X78430390Y-93681814D01*
X78342790Y-93550712D01*
X78316130Y-93524052D01*
X78231289Y-93439211D01*
X77825947Y-93033869D01*
X77792462Y-92972546D01*
X77791155Y-92926795D01*
X77815500Y-92773092D01*
X77815500Y-92536908D01*
X77815500Y-92536902D01*
X77778553Y-92303631D01*
X77715502Y-92109582D01*
X77705568Y-92079008D01*
X77705566Y-92079005D01*
X77705566Y-92079003D01*
X77620561Y-91912172D01*
X77598343Y-91868567D01*
X77459517Y-91677490D01*
X77292510Y-91510483D01*
X77257872Y-91485317D01*
X77215207Y-91429989D01*
X77209228Y-91360375D01*
X77241833Y-91298580D01*
X77257873Y-91284682D01*
X77259024Y-91283846D01*
X77292510Y-91259517D01*
X77459517Y-91092510D01*
X77598343Y-90901433D01*
X77705568Y-90690992D01*
X77778553Y-90466368D01*
X77785614Y-90421786D01*
X77815500Y-90233097D01*
X77815500Y-89996902D01*
X77778553Y-89763631D01*
X77736823Y-89635202D01*
X77705568Y-89539008D01*
X77705566Y-89539005D01*
X77705566Y-89539003D01*
X77598342Y-89328566D01*
X77459517Y-89137490D01*
X77292510Y-88970483D01*
X77101433Y-88831657D01*
X77101432Y-88831656D01*
X77101426Y-88831652D01*
X77097281Y-88829112D01*
X77098408Y-88827272D01*
X77054334Y-88784834D01*
X77038194Y-88716854D01*
X77038620Y-88711206D01*
X77043912Y-88657464D01*
X76444410Y-88057962D01*
X76507993Y-88040925D01*
X76622007Y-87975099D01*
X76715099Y-87882007D01*
X76780925Y-87767993D01*
X76797962Y-87704410D01*
X77397465Y-88303913D01*
X77443837Y-88234515D01*
X77443838Y-88234511D01*
X77490509Y-88147198D01*
X77550814Y-88001612D01*
X77579555Y-87906864D01*
X77610298Y-87752302D01*
X77610298Y-87752299D01*
X77620000Y-87653789D01*
X77620000Y-87496210D01*
X77610298Y-87397700D01*
X77610298Y-87397697D01*
X77579555Y-87243135D01*
X77550814Y-87148387D01*
X77490509Y-87002801D01*
X77443844Y-86915498D01*
X77443838Y-86915488D01*
X77397465Y-86846085D01*
X76797962Y-87445588D01*
X76780925Y-87382007D01*
X76715099Y-87267993D01*
X76622007Y-87174901D01*
X76507993Y-87109075D01*
X76444410Y-87092037D01*
X77043912Y-86492534D01*
X77038619Y-86438794D01*
X77051638Y-86370148D01*
X77097695Y-86321553D01*
X77097285Y-86320884D01*
X77101418Y-86318350D01*
X77101433Y-86318343D01*
X77292510Y-86179517D01*
X77459517Y-86012510D01*
X77598343Y-85821433D01*
X77705568Y-85610992D01*
X77778553Y-85386368D01*
X77785943Y-85339707D01*
X77815500Y-85153097D01*
X77815500Y-84916902D01*
X77778553Y-84683631D01*
X77705566Y-84459003D01*
X77598342Y-84248566D01*
X77459517Y-84057490D01*
X77292510Y-83890483D01*
X77257872Y-83865317D01*
X77215207Y-83809989D01*
X77209228Y-83740375D01*
X77241833Y-83678580D01*
X77257873Y-83664682D01*
X77292510Y-83639517D01*
X77459517Y-83472510D01*
X77598343Y-83281433D01*
X77705568Y-83070992D01*
X77778553Y-82846368D01*
X77792359Y-82759202D01*
X77815500Y-82613097D01*
X77815500Y-82376902D01*
X77778553Y-82143631D01*
X77705566Y-81919003D01*
X77616342Y-81743893D01*
X77598343Y-81708567D01*
X77459517Y-81517490D01*
X77292510Y-81350483D01*
X77257872Y-81325317D01*
X77215207Y-81269989D01*
X77209228Y-81200375D01*
X77241833Y-81138580D01*
X77257873Y-81124682D01*
X77292510Y-81099517D01*
X77459517Y-80932510D01*
X77598343Y-80741433D01*
X77705568Y-80530992D01*
X77778553Y-80306368D01*
X77787310Y-80251079D01*
X77815500Y-80073097D01*
X77815500Y-79836902D01*
X77778553Y-79603631D01*
X77705566Y-79379003D01*
X77598342Y-79168566D01*
X77592724Y-79160833D01*
X77459517Y-78977490D01*
X77292510Y-78810483D01*
X77257872Y-78785317D01*
X77215207Y-78729989D01*
X77209228Y-78660375D01*
X77241833Y-78598580D01*
X77257873Y-78584682D01*
X77292510Y-78559517D01*
X77459517Y-78392510D01*
X77598343Y-78201433D01*
X77705568Y-77990992D01*
X77778553Y-77766368D01*
X77785027Y-77725492D01*
X77815500Y-77533097D01*
X77815500Y-77296902D01*
X77778553Y-77063631D01*
X77737715Y-76937947D01*
X77705568Y-76839008D01*
X77705566Y-76839005D01*
X77705566Y-76839003D01*
X77598342Y-76628566D01*
X77459517Y-76437490D01*
X77292510Y-76270483D01*
X77101433Y-76131657D01*
X77101432Y-76131656D01*
X77101426Y-76131652D01*
X77097281Y-76129112D01*
X77098408Y-76127272D01*
X77054334Y-76084834D01*
X77038194Y-76016854D01*
X77038620Y-76011206D01*
X77043912Y-75957464D01*
X76444410Y-75357962D01*
X76507993Y-75340925D01*
X76622007Y-75275099D01*
X76715099Y-75182007D01*
X76780925Y-75067993D01*
X76797962Y-75004410D01*
X77397465Y-75603913D01*
X77443837Y-75534515D01*
X77443838Y-75534511D01*
X77490509Y-75447198D01*
X77550814Y-75301612D01*
X77579555Y-75206864D01*
X77610298Y-75052302D01*
X77610298Y-75052299D01*
X77620000Y-74953789D01*
X77620000Y-74796210D01*
X77610298Y-74697700D01*
X77610298Y-74697697D01*
X77579555Y-74543135D01*
X77550814Y-74448387D01*
X77490509Y-74302801D01*
X77443844Y-74215498D01*
X77443838Y-74215488D01*
X77397465Y-74146085D01*
X76797962Y-74745588D01*
X76780925Y-74682007D01*
X76715099Y-74567993D01*
X76622007Y-74474901D01*
X76507993Y-74409075D01*
X76444410Y-74392037D01*
X77043912Y-73792534D01*
X77038619Y-73738794D01*
X77051638Y-73670148D01*
X77097695Y-73621553D01*
X77097285Y-73620884D01*
X77101418Y-73618350D01*
X77101433Y-73618343D01*
X77292510Y-73479517D01*
X77459517Y-73312510D01*
X77598343Y-73121433D01*
X77705568Y-72910992D01*
X77778553Y-72686368D01*
X77815500Y-72453097D01*
X77815500Y-72216902D01*
X77778553Y-71983631D01*
X77705566Y-71759003D01*
X77618768Y-71588654D01*
X77598343Y-71548567D01*
X77459517Y-71357490D01*
X77292510Y-71190483D01*
X77257872Y-71165317D01*
X77215207Y-71109989D01*
X77209228Y-71040375D01*
X77241833Y-70978580D01*
X77257873Y-70964682D01*
X77292510Y-70939517D01*
X77459517Y-70772510D01*
X77598343Y-70581433D01*
X77705568Y-70370992D01*
X77778553Y-70146368D01*
X77780593Y-70133490D01*
X77815500Y-69913097D01*
X77815500Y-69676902D01*
X77778553Y-69443631D01*
X77719608Y-69262218D01*
X77705568Y-69219008D01*
X77705566Y-69219005D01*
X77705566Y-69219003D01*
X77621699Y-69054406D01*
X77598343Y-69008567D01*
X77459517Y-68817490D01*
X77292510Y-68650483D01*
X77286449Y-68646079D01*
X77166614Y-68559012D01*
X77123948Y-68503682D01*
X77115500Y-68458695D01*
X77115500Y-67336155D01*
X77115499Y-67336153D01*
X77084738Y-67181507D01*
X77084735Y-67181498D01*
X77024397Y-67035827D01*
X77024390Y-67035814D01*
X76936790Y-66904712D01*
X76882576Y-66850498D01*
X76825289Y-66793211D01*
X76336819Y-66304741D01*
X76303334Y-66243418D01*
X76300500Y-66217060D01*
X76300500Y-60882940D01*
X76320185Y-60815901D01*
X76336819Y-60795259D01*
X77420259Y-59711819D01*
X77447186Y-59697115D01*
X77473005Y-59680523D01*
X77479205Y-59679631D01*
X77481582Y-59678334D01*
X77507940Y-59675500D01*
X77684565Y-59675500D01*
X77751604Y-59695185D01*
X77753456Y-59696398D01*
X77851086Y-59761632D01*
X77851087Y-59761632D01*
X77851088Y-59761633D01*
X77951467Y-59803211D01*
X78033165Y-59837051D01*
X78033169Y-59837051D01*
X78033170Y-59837052D01*
X78226456Y-59875500D01*
X78226459Y-59875500D01*
X78423543Y-59875500D01*
X78553582Y-59849632D01*
X78616835Y-59837051D01*
X78798914Y-59761632D01*
X78962782Y-59652139D01*
X79102139Y-59512782D01*
X79211632Y-59348914D01*
X79287051Y-59166835D01*
X79322986Y-58986181D01*
X79325500Y-58973543D01*
X79325500Y-58898500D01*
X79345185Y-58831461D01*
X79397989Y-58785706D01*
X79449500Y-58774500D01*
X81915267Y-58774500D01*
X81982306Y-58794185D01*
G37*
%TD.AperFunction*%
%TA.AperFunction,Conductor*%
G36*
X57143063Y-70440212D02*
G01*
X57198997Y-70482084D01*
X57210215Y-70500099D01*
X57229639Y-70538220D01*
X57251657Y-70581433D01*
X57390483Y-70772510D01*
X57557490Y-70939517D01*
X57592127Y-70964683D01*
X57634792Y-71020013D01*
X57640771Y-71089626D01*
X57608165Y-71151421D01*
X57592130Y-71165315D01*
X57574365Y-71178222D01*
X57557488Y-71190484D01*
X57390485Y-71357487D01*
X57390485Y-71357488D01*
X57390483Y-71357490D01*
X57368185Y-71388181D01*
X57251657Y-71548566D01*
X57144433Y-71759003D01*
X57071446Y-71983631D01*
X57034500Y-72216902D01*
X57034500Y-72453097D01*
X57071446Y-72686368D01*
X57144433Y-72910996D01*
X57228253Y-73075500D01*
X57251657Y-73121433D01*
X57390483Y-73312510D01*
X57557490Y-73479517D01*
X57748567Y-73618343D01*
X57748573Y-73618347D01*
X57752719Y-73620888D01*
X57751476Y-73622915D01*
X57795145Y-73664263D01*
X57811855Y-73732105D01*
X57811379Y-73738794D01*
X57806085Y-73792534D01*
X58405589Y-74392037D01*
X58342007Y-74409075D01*
X58227993Y-74474901D01*
X58134901Y-74567993D01*
X58069075Y-74682007D01*
X58052037Y-74745588D01*
X57452534Y-74146085D01*
X57452534Y-74146086D01*
X57406158Y-74215493D01*
X57359490Y-74302801D01*
X57299185Y-74448387D01*
X57270444Y-74543135D01*
X57239701Y-74697697D01*
X57239701Y-74697700D01*
X57230000Y-74796210D01*
X57230000Y-74953789D01*
X57239701Y-75052299D01*
X57239701Y-75052302D01*
X57270444Y-75206864D01*
X57299185Y-75301612D01*
X57359490Y-75447198D01*
X57406155Y-75534501D01*
X57406161Y-75534511D01*
X57452534Y-75603912D01*
X58052037Y-75004410D01*
X58069075Y-75067993D01*
X58134901Y-75182007D01*
X58227993Y-75275099D01*
X58342007Y-75340925D01*
X58405589Y-75357962D01*
X57806085Y-75957465D01*
X57811378Y-76011209D01*
X57798358Y-76079854D01*
X57752306Y-76128439D01*
X57752719Y-76129112D01*
X57748573Y-76131652D01*
X57672730Y-76186756D01*
X57557490Y-76270483D01*
X57557488Y-76270485D01*
X57557487Y-76270485D01*
X57390485Y-76437487D01*
X57390485Y-76437488D01*
X57390483Y-76437490D01*
X57362867Y-76475500D01*
X57251657Y-76628566D01*
X57144433Y-76839003D01*
X57071446Y-77063631D01*
X57034500Y-77296902D01*
X57034500Y-77533097D01*
X57071446Y-77766368D01*
X57144433Y-77990996D01*
X57246767Y-78191835D01*
X57251657Y-78201433D01*
X57390483Y-78392510D01*
X57557490Y-78559517D01*
X57592127Y-78584683D01*
X57634792Y-78640013D01*
X57640771Y-78709626D01*
X57608165Y-78771421D01*
X57592130Y-78785315D01*
X57590318Y-78786632D01*
X57557488Y-78810484D01*
X57390485Y-78977487D01*
X57390485Y-78977488D01*
X57390483Y-78977490D01*
X57345494Y-79039412D01*
X57251657Y-79168566D01*
X57144433Y-79379003D01*
X57071446Y-79603631D01*
X57034500Y-79836902D01*
X57034500Y-80073097D01*
X57071446Y-80306368D01*
X57144433Y-80530996D01*
X57228588Y-80696158D01*
X57251657Y-80741433D01*
X57390483Y-80932510D01*
X57557490Y-81099517D01*
X57592127Y-81124683D01*
X57634792Y-81180013D01*
X57640771Y-81249626D01*
X57608165Y-81311421D01*
X57592130Y-81325315D01*
X57575753Y-81337214D01*
X57557488Y-81350484D01*
X57390485Y-81517487D01*
X57390485Y-81517488D01*
X57390483Y-81517490D01*
X57299014Y-81643386D01*
X57243684Y-81686051D01*
X57198696Y-81694500D01*
X56927940Y-81694500D01*
X56860901Y-81674815D01*
X56840259Y-81658181D01*
X56261819Y-81079741D01*
X56228334Y-81018418D01*
X56225500Y-80992060D01*
X56225500Y-71306625D01*
X56245185Y-71239586D01*
X56261815Y-71218948D01*
X57012051Y-70468711D01*
X57073372Y-70435228D01*
X57143063Y-70440212D01*
G37*
%TD.AperFunction*%
%TD*%
M02*
