%TF.GenerationSoftware,KiCad,Pcbnew,9.0.6*%
%TF.CreationDate,2026-05-15T10:54:09-07:00*%
%TF.ProjectId,juggling_machine_pcb,6a756767-6c69-46e6-975f-6d616368696e,rev?*%
%TF.SameCoordinates,Original*%
%TF.FileFunction,Copper,L2,Bot*%
%TF.FilePolarity,Positive*%
%FSLAX46Y46*%
G04 Gerber Fmt 4.6, Leading zero omitted, Abs format (unit mm)*
G04 Created by KiCad (PCBNEW 9.0.6) date 2026-05-15 10:54:09*
%MOMM*%
%LPD*%
G01*
G04 APERTURE LIST*
G04 Aperture macros list*
%AMRoundRect*
0 Rectangle with rounded corners*
0 $1 Rounding radius*
0 $2 $3 $4 $5 $6 $7 $8 $9 X,Y pos of 4 corners*
0 Add a 4 corners polygon primitive as box body*
4,1,4,$2,$3,$4,$5,$6,$7,$8,$9,$2,$3,0*
0 Add four circle primitives for the rounded corners*
1,1,$1+$1,$2,$3*
1,1,$1+$1,$4,$5*
1,1,$1+$1,$6,$7*
1,1,$1+$1,$8,$9*
0 Add four rect primitives between the rounded corners*
20,1,$1+$1,$2,$3,$4,$5,0*
20,1,$1+$1,$4,$5,$6,$7,0*
20,1,$1+$1,$6,$7,$8,$9,0*
20,1,$1+$1,$8,$9,$2,$3,0*%
%AMFreePoly0*
4,1,37,0.603843,0.796157,0.639018,0.796157,0.711114,0.766294,0.766294,0.711114,0.796157,0.639018,0.796157,0.603843,0.800000,0.600000,0.800000,-0.600000,0.796157,-0.603843,0.796157,-0.639018,0.766294,-0.711114,0.711114,-0.766294,0.639018,-0.796157,0.603843,-0.796157,0.600000,-0.800000,0.000000,-0.800000,0.000000,-0.796148,-0.078414,-0.796148,-0.232228,-0.765552,-0.377117,-0.705537,
-0.507515,-0.618408,-0.618408,-0.507515,-0.705537,-0.377117,-0.765552,-0.232228,-0.796148,-0.078414,-0.796148,0.078414,-0.765552,0.232228,-0.705537,0.377117,-0.618408,0.507515,-0.507515,0.618408,-0.377117,0.705537,-0.232228,0.765552,-0.078414,0.796148,0.000000,0.796148,0.000000,0.800000,0.600000,0.800000,0.603843,0.796157,0.603843,0.796157,$1*%
%AMFreePoly1*
4,1,37,0.000000,0.796148,0.078414,0.796148,0.232228,0.765552,0.377117,0.705537,0.507515,0.618408,0.618408,0.507515,0.705537,0.377117,0.765552,0.232228,0.796148,0.078414,0.796148,-0.078414,0.765552,-0.232228,0.705537,-0.377117,0.618408,-0.507515,0.507515,-0.618408,0.377117,-0.705537,0.232228,-0.765552,0.078414,-0.796148,0.000000,-0.796148,0.000000,-0.800000,-0.600000,-0.800000,
-0.603843,-0.796157,-0.639018,-0.796157,-0.711114,-0.766294,-0.766294,-0.711114,-0.796157,-0.639018,-0.796157,-0.603843,-0.800000,-0.600000,-0.800000,0.600000,-0.796157,0.603843,-0.796157,0.639018,-0.766294,0.711114,-0.711114,0.766294,-0.639018,0.796157,-0.603843,0.796157,-0.600000,0.800000,0.000000,0.800000,0.000000,0.796148,0.000000,0.796148,$1*%
G04 Aperture macros list end*
%TA.AperFunction,ComponentPad*%
%ADD10RoundRect,0.250000X1.050000X1.050000X-1.050000X1.050000X-1.050000X-1.050000X1.050000X-1.050000X0*%
%TD*%
%TA.AperFunction,ComponentPad*%
%ADD11C,2.600000*%
%TD*%
%TA.AperFunction,ComponentPad*%
%ADD12R,1.700000X1.700000*%
%TD*%
%TA.AperFunction,ComponentPad*%
%ADD13C,1.700000*%
%TD*%
%TA.AperFunction,ComponentPad*%
%ADD14RoundRect,0.249999X-0.850001X-0.850001X0.850001X-0.850001X0.850001X0.850001X-0.850001X0.850001X0*%
%TD*%
%TA.AperFunction,ComponentPad*%
%ADD15C,2.200000*%
%TD*%
%TA.AperFunction,ComponentPad*%
%ADD16RoundRect,0.200000X0.600000X0.600000X-0.600000X0.600000X-0.600000X-0.600000X0.600000X-0.600000X0*%
%TD*%
%TA.AperFunction,ComponentPad*%
%ADD17C,1.600000*%
%TD*%
%TA.AperFunction,ComponentPad*%
%ADD18FreePoly0,180.000000*%
%TD*%
%TA.AperFunction,ComponentPad*%
%ADD19FreePoly1,180.000000*%
%TD*%
%TA.AperFunction,ComponentPad*%
%ADD20RoundRect,0.250000X-0.550000X-0.550000X0.550000X-0.550000X0.550000X0.550000X-0.550000X0.550000X0*%
%TD*%
%TA.AperFunction,ComponentPad*%
%ADD21RoundRect,0.250000X1.050000X-1.050000X1.050000X1.050000X-1.050000X1.050000X-1.050000X-1.050000X0*%
%TD*%
%TA.AperFunction,ComponentPad*%
%ADD22RoundRect,0.250000X-1.050000X1.050000X-1.050000X-1.050000X1.050000X-1.050000X1.050000X1.050000X0*%
%TD*%
%TA.AperFunction,ViaPad*%
%ADD23C,0.600000*%
%TD*%
%TA.AperFunction,Conductor*%
%ADD24C,0.200000*%
%TD*%
%TA.AperFunction,Conductor*%
%ADD25C,0.500000*%
%TD*%
G04 APERTURE END LIST*
D10*
%TO.P,J7,1,Pin_1*%
%TO.N,Net-(J7-Pin_1)*%
X79675000Y-33850000D03*
D11*
%TO.P,J7,2,Pin_2*%
%TO.N,Net-(J7-Pin_2)*%
X74675000Y-33850000D03*
%TD*%
D12*
%TO.P,J2,1,Pin_1*%
%TO.N,+24V*%
X104815000Y-89825000D03*
D13*
%TO.P,J2,2,Pin_2*%
%TO.N,GND*%
X104815000Y-92365000D03*
%TO.P,J2,3,Pin_3*%
%TO.N,unconnected-(J2-Pin_3-Pad3)*%
X104815000Y-94905000D03*
%TO.P,J2,4,Pin_4*%
%TO.N,unconnected-(J2-Pin_4-Pad4)*%
X104815000Y-97445000D03*
%TO.P,J2,5,Pin_5*%
%TO.N,unconnected-(J2-Pin_5-Pad5)*%
X104815000Y-99985000D03*
%TO.P,J2,6,Pin_6*%
%TO.N,unconnected-(J2-Pin_6-Pad6)*%
X104815000Y-102525000D03*
%TO.P,J2,7,Pin_7*%
%TO.N,unconnected-(J2-Pin_7-Pad7)*%
X104815000Y-105065000D03*
%TO.P,J2,8,Pin_8*%
%TO.N,GND*%
X104815000Y-107605000D03*
%TD*%
D12*
%TO.P,J6,1,Pin_1*%
%TO.N,Net-(A1-GPIO21)*%
X108275000Y-28945000D03*
D13*
%TO.P,J6,2,Pin_2*%
%TO.N,+5V*%
X108275000Y-31485000D03*
%TO.P,J6,3,Pin_3*%
%TO.N,GND*%
X108275000Y-34025000D03*
%TD*%
D12*
%TO.P,J5,1,Pin_1*%
%TO.N,Net-(A1-GPIO22)*%
X95000000Y-29500000D03*
D13*
%TO.P,J5,2,Pin_2*%
%TO.N,+5V*%
X95000000Y-32040000D03*
%TO.P,J5,3,Pin_3*%
%TO.N,GND*%
X95000000Y-34580000D03*
%TD*%
D14*
%TO.P,D1,1,K*%
%TO.N,+5V*%
X114240000Y-56375000D03*
D15*
%TO.P,D1,2,A*%
%TO.N,Net-(D1-A)*%
X124400000Y-56375000D03*
%TD*%
D12*
%TO.P,J3,1,Pin_1*%
%TO.N,unconnected-(J3-Pin_1-Pad1)*%
X120000000Y-90000000D03*
D13*
%TO.P,J3,2,Pin_2*%
%TO.N,MOSI*%
X120000000Y-92540000D03*
%TO.P,J3,3,Pin_3*%
%TO.N,SCK*%
X120000000Y-95080000D03*
%TO.P,J3,4,Pin_4*%
%TO.N,Net-(A1-GPIO13)*%
X120000000Y-97620000D03*
%TO.P,J3,5,Pin_5*%
%TO.N,MISO*%
X120000000Y-100160000D03*
%TO.P,J3,6,Pin_6*%
%TO.N,GND*%
X120000000Y-102700000D03*
%TO.P,J3,7,Pin_7*%
%TO.N,Net-(A1-GPIO15)*%
X120000000Y-105240000D03*
%TO.P,J3,8,Pin_8*%
%TO.N,Net-(A1-GPIO14)*%
X120000000Y-107780000D03*
%TD*%
D16*
%TO.P,A1,1,GPIO0*%
%TO.N,unconnected-(A1-GPIO0-Pad1)*%
X76315000Y-118055000D03*
D17*
%TO.P,A1,2,GPIO1*%
%TO.N,unconnected-(A1-GPIO1-Pad2)*%
X76315000Y-115515000D03*
D18*
%TO.P,A1,3,GND*%
%TO.N,GND*%
X76315000Y-112975000D03*
D17*
%TO.P,A1,4,GPIO2*%
%TO.N,unconnected-(A1-GPIO2-Pad4)*%
X76315000Y-110435000D03*
%TO.P,A1,5,GPIO3*%
%TO.N,unconnected-(A1-GPIO3-Pad5)*%
X76315000Y-107895000D03*
%TO.P,A1,6,GPIO4*%
%TO.N,unconnected-(A1-GPIO4-Pad6)*%
X76315000Y-105355000D03*
%TO.P,A1,7,GPIO5*%
%TO.N,unconnected-(A1-GPIO5-Pad7)*%
X76315000Y-102815000D03*
D18*
%TO.P,A1,8,GND*%
%TO.N,GND*%
X76315000Y-100275000D03*
D17*
%TO.P,A1,9,GPIO6*%
%TO.N,unconnected-(A1-GPIO6-Pad9)*%
X76315000Y-97735000D03*
%TO.P,A1,10,GPIO7*%
%TO.N,unconnected-(A1-GPIO7-Pad10)*%
X76315000Y-95195000D03*
%TO.P,A1,11,GPIO8*%
%TO.N,unconnected-(A1-GPIO8-Pad11)*%
X76315000Y-92655000D03*
%TO.P,A1,12,GPIO9*%
%TO.N,Net-(A1-GPIO14)*%
X76315000Y-90115000D03*
D18*
%TO.P,A1,13,GND*%
%TO.N,GND*%
X76315000Y-87575000D03*
D17*
%TO.P,A1,14,GPIO10*%
%TO.N,Net-(A1-GPIO10)*%
X76315000Y-85035000D03*
%TO.P,A1,15,GPIO11*%
%TO.N,Net-(A1-GPIO11)*%
X76315000Y-82495000D03*
%TO.P,A1,16,GPIO12*%
%TO.N,unconnected-(A1-GPIO12-Pad16)*%
X76315000Y-79955000D03*
%TO.P,A1,17,GPIO13*%
%TO.N,Net-(A1-GPIO13)*%
X76315000Y-77415000D03*
D18*
%TO.P,A1,18,GND*%
%TO.N,GND*%
X76315000Y-74875000D03*
D17*
%TO.P,A1,19,GPIO14*%
%TO.N,Net-(A1-GPIO14)*%
X76315000Y-72335000D03*
%TO.P,A1,20,GPIO15*%
%TO.N,Net-(A1-GPIO15)*%
X76315000Y-69795000D03*
%TO.P,A1,21,GPIO16*%
%TO.N,MISO*%
X58535000Y-69795000D03*
%TO.P,A1,22,GPIO17*%
%TO.N,Net-(A1-GPIO17)*%
X58535000Y-72335000D03*
D19*
%TO.P,A1,23,GND*%
%TO.N,GND*%
X58535000Y-74875000D03*
D17*
%TO.P,A1,24,GPIO18*%
%TO.N,SCK*%
X58535000Y-77415000D03*
%TO.P,A1,25,GPIO19*%
%TO.N,MOSI*%
X58535000Y-79955000D03*
%TO.P,A1,26,GPIO20*%
%TO.N,Net-(A1-GPIO20)*%
X58535000Y-82495000D03*
%TO.P,A1,27,GPIO21*%
%TO.N,Net-(A1-GPIO21)*%
X58535000Y-85035000D03*
D19*
%TO.P,A1,28,GND*%
%TO.N,GND*%
X58535000Y-87575000D03*
D17*
%TO.P,A1,29,GPIO22*%
%TO.N,Net-(A1-GPIO22)*%
X58535000Y-90115000D03*
%TO.P,A1,30,RUN*%
%TO.N,unconnected-(A1-RUN-Pad30)*%
X58535000Y-92655000D03*
%TO.P,A1,31,GPIO26_ADC0*%
%TO.N,unconnected-(A1-GPIO26_ADC0-Pad31)*%
X58535000Y-95195000D03*
%TO.P,A1,32,GPIO27_ADC1*%
%TO.N,unconnected-(A1-GPIO27_ADC1-Pad32)*%
X58535000Y-97735000D03*
D19*
%TO.P,A1,33,AGND*%
%TO.N,unconnected-(A1-AGND-Pad33)*%
X58535000Y-100275000D03*
D17*
%TO.P,A1,34,GPIO28_ADC2*%
%TO.N,unconnected-(A1-GPIO28_ADC2-Pad34)*%
X58535000Y-102815000D03*
%TO.P,A1,35,ADC_VREF*%
%TO.N,unconnected-(A1-ADC_VREF-Pad35)*%
X58535000Y-105355000D03*
%TO.P,A1,36,3V3*%
%TO.N,+3V3*%
X58535000Y-107895000D03*
%TO.P,A1,37,3V3_EN*%
%TO.N,unconnected-(A1-3V3_EN-Pad37)*%
X58535000Y-110435000D03*
D19*
%TO.P,A1,38,GND*%
%TO.N,GND*%
X58535000Y-112975000D03*
D17*
%TO.P,A1,39,VSYS*%
%TO.N,+5V*%
X58535000Y-115515000D03*
%TO.P,A1,40,VBUS*%
%TO.N,unconnected-(A1-VBUS-Pad40)*%
X58535000Y-118055000D03*
%TD*%
D20*
%TO.P,C2,1*%
%TO.N,Net-(J7-Pin_1)*%
X134000000Y-47325000D03*
D17*
%TO.P,C2,2*%
%TO.N,Net-(D2-K)*%
X137500000Y-47325000D03*
%TD*%
D14*
%TO.P,D2,1,K*%
%TO.N,Net-(D2-K)*%
X96040000Y-55725000D03*
D15*
%TO.P,D2,2,A*%
%TO.N,+24V*%
X106200000Y-55725000D03*
%TD*%
D21*
%TO.P,J8,1,Pin_1*%
%TO.N,Net-(D1-A)*%
X88847500Y-67650000D03*
D11*
%TO.P,J8,2,Pin_2*%
%TO.N,GND*%
X88847500Y-62650000D03*
%TD*%
D20*
%TO.P,C1,1*%
%TO.N,Net-(J7-Pin_2)*%
X132400000Y-32125000D03*
D17*
%TO.P,C1,2*%
%TO.N,GND*%
X135900000Y-32125000D03*
%TD*%
D12*
%TO.P,J1,1,Pin_1*%
%TO.N,Net-(A1-GPIO20)*%
X89575000Y-89825000D03*
D13*
%TO.P,J1,2,Pin_2*%
%TO.N,MOSI*%
X89575000Y-92365000D03*
%TO.P,J1,3,Pin_3*%
%TO.N,SCK*%
X89575000Y-94905000D03*
%TO.P,J1,4,Pin_4*%
%TO.N,Net-(A1-GPIO17)*%
X89575000Y-97445000D03*
%TO.P,J1,5,Pin_5*%
%TO.N,MISO*%
X89575000Y-99985000D03*
%TO.P,J1,6,Pin_6*%
%TO.N,GND*%
X89575000Y-102525000D03*
%TO.P,J1,7,Pin_7*%
%TO.N,Net-(A1-GPIO10)*%
X89575000Y-105065000D03*
%TO.P,J1,8,Pin_8*%
%TO.N,Net-(A1-GPIO11)*%
X89575000Y-107605000D03*
%TD*%
D22*
%TO.P,J9,1,Pin_1*%
%TO.N,+24V*%
X138825000Y-61350000D03*
D11*
%TO.P,J9,2,Pin_2*%
%TO.N,GND*%
X138825000Y-66350000D03*
%TD*%
D12*
%TO.P,J4,1,Pin_1*%
%TO.N,+24V*%
X135240000Y-90000000D03*
D13*
%TO.P,J4,2,Pin_2*%
%TO.N,GND*%
X135240000Y-92540000D03*
%TO.P,J4,3,Pin_3*%
%TO.N,unconnected-(J4-Pin_3-Pad3)*%
X135240000Y-95080000D03*
%TO.P,J4,4,Pin_4*%
%TO.N,unconnected-(J4-Pin_4-Pad4)*%
X135240000Y-97620000D03*
%TO.P,J4,5,Pin_5*%
%TO.N,unconnected-(J4-Pin_5-Pad5)*%
X135240000Y-100160000D03*
%TO.P,J4,6,Pin_6*%
%TO.N,unconnected-(J4-Pin_6-Pad6)*%
X135240000Y-102700000D03*
%TO.P,J4,7,Pin_7*%
%TO.N,unconnected-(J4-Pin_7-Pad7)*%
X135240000Y-105240000D03*
%TO.P,J4,8,Pin_8*%
%TO.N,GND*%
X135240000Y-107780000D03*
%TD*%
D23*
%TO.N,Net-(A1-GPIO14)*%
X79775000Y-86800000D03*
X79800000Y-74200000D03*
%TO.N,GND*%
X79000000Y-75650000D03*
%TO.N,Net-(A1-GPIO21)*%
X70225000Y-54000000D03*
%TO.N,GND*%
X64050000Y-112975000D03*
X91900000Y-55025000D03*
X93175000Y-106725000D03*
X69975000Y-86875000D03*
X112675000Y-106650000D03*
X84125000Y-61075000D03*
%TO.N,Net-(A1-GPIO13)*%
X84450000Y-80725000D03*
%TO.N,MOSI*%
X54700000Y-84275000D03*
X88750000Y-75475000D03*
X109425000Y-95450000D03*
%TO.N,Net-(A1-GPIO17)*%
X87250000Y-96400000D03*
%TO.N,Net-(A1-GPIO15)*%
X78325000Y-58875000D03*
X113900000Y-77900000D03*
X129925000Y-109900000D03*
%TO.N,Net-(A1-GPIO20)*%
X70825000Y-58525000D03*
X103875000Y-65850000D03*
X94525000Y-84925000D03*
%TO.N,Net-(A1-GPIO10)*%
X83700000Y-99375000D03*
%TO.N,Net-(A1-GPIO11)*%
X85100000Y-103275000D03*
%TO.N,Net-(J7-Pin_2)*%
X88600000Y-37800000D03*
%TO.N,SCK*%
X110450000Y-81975000D03*
%TO.N,Net-(J7-Pin_1)*%
X68275000Y-41100000D03*
%TO.N,Net-(A1-GPIO21)*%
X101400000Y-29850000D03*
X89575000Y-45075000D03*
%TO.N,+5V*%
X116150000Y-60225000D03*
X87250000Y-87875000D03*
X114875000Y-32275000D03*
X100000000Y-83825000D03*
X114925000Y-42925000D03*
X82025000Y-74900000D03*
%TO.N,Net-(D2-K)*%
X110500000Y-50900000D03*
%TO.N,Net-(D1-A)*%
X117350000Y-62725000D03*
%TD*%
D24*
%TO.N,Net-(A1-GPIO14)*%
X79901000Y-86674000D02*
X79901000Y-74301000D01*
X79901000Y-74301000D02*
X79800000Y-74200000D01*
X79775000Y-86800000D02*
X79901000Y-86674000D01*
%TO.N,GND*%
X79000000Y-85600000D02*
X78625000Y-85975000D01*
X78625000Y-85975000D02*
X77915000Y-85975000D01*
X79000000Y-75650000D02*
X79000000Y-85600000D01*
X77915000Y-85975000D02*
X76315000Y-87575000D01*
%TO.N,Net-(A1-GPIO21)*%
X70225000Y-54000000D02*
X58784429Y-54000000D01*
X51875000Y-60909429D02*
X51875000Y-83600000D01*
X53310000Y-85035000D02*
X54185793Y-85035000D01*
X51875000Y-83600000D02*
X53310000Y-85035000D01*
X58784429Y-54000000D02*
X51875000Y-60909429D01*
X54185793Y-85035000D02*
X54326793Y-85176000D01*
X54326793Y-85176000D02*
X55073207Y-85176000D01*
X55073207Y-85176000D02*
X55214207Y-85035000D01*
X55214207Y-85035000D02*
X58535000Y-85035000D01*
%TO.N,Net-(A1-GPIO14)*%
X80000000Y-92200000D02*
X77915000Y-90115000D01*
X80025000Y-104625000D02*
X80025000Y-92200000D01*
X120000000Y-107780000D02*
X116625000Y-111155000D01*
X77915000Y-90115000D02*
X76315000Y-90115000D01*
X116625000Y-111155000D02*
X116625000Y-113700000D01*
X116625000Y-113700000D02*
X89100000Y-113700000D01*
X89100000Y-113700000D02*
X80025000Y-104625000D01*
X80025000Y-92200000D02*
X80000000Y-92200000D01*
D25*
%TO.N,GND*%
X83025000Y-61075000D02*
X80450000Y-63650000D01*
D24*
X69975000Y-86875000D02*
X70400000Y-86875000D01*
D25*
X112675000Y-106650000D02*
X116050000Y-106650000D01*
D24*
X71275000Y-87575000D02*
X71275000Y-95235000D01*
D25*
X80450000Y-70740000D02*
X76315000Y-74875000D01*
D24*
X71100000Y-87575000D02*
X71275000Y-87575000D01*
D25*
X80450000Y-63650000D02*
X80450000Y-70740000D01*
X91900000Y-59597500D02*
X88847500Y-62650000D01*
X116050000Y-106650000D02*
X120000000Y-102700000D01*
X102825000Y-107650000D02*
X102870000Y-107605000D01*
X102870000Y-107605000D02*
X104815000Y-107605000D01*
D24*
X64050000Y-112975000D02*
X58535000Y-112975000D01*
D25*
X91900000Y-55025000D02*
X91900000Y-59597500D01*
X93175000Y-106725000D02*
X99900000Y-106725000D01*
D24*
X71275000Y-95235000D02*
X76315000Y-100275000D01*
D25*
X100825000Y-107650000D02*
X102825000Y-107650000D01*
X84125000Y-61075000D02*
X83025000Y-61075000D01*
D24*
X71275000Y-87575000D02*
X76315000Y-87575000D01*
D25*
X99900000Y-106725000D02*
X100825000Y-107650000D01*
D24*
X70400000Y-86875000D02*
X71100000Y-87575000D01*
%TO.N,Net-(A1-GPIO13)*%
X91750000Y-85850000D02*
X89575000Y-85850000D01*
X110000000Y-85850000D02*
X110000000Y-87620000D01*
X91750000Y-85850000D02*
X110000000Y-85850000D01*
X110000000Y-87620000D02*
X120000000Y-97620000D01*
X89575000Y-85850000D02*
X84450000Y-80725000D01*
%TO.N,MOSI*%
X54500000Y-59275793D02*
X54500000Y-74875000D01*
X88750000Y-75475000D02*
X85727000Y-72452000D01*
X82288571Y-56973000D02*
X56802793Y-56973000D01*
X85727000Y-60411429D02*
X82288571Y-56973000D01*
X106266000Y-88374000D02*
X94768081Y-88374000D01*
X54500000Y-75175000D02*
X54500000Y-83875000D01*
X94768081Y-88374000D02*
X90777081Y-92365000D01*
X109425000Y-91533000D02*
X106266000Y-88374000D01*
X54500000Y-84075000D02*
X54700000Y-84275000D01*
X54500000Y-74875000D02*
X54500000Y-75175000D01*
X90777081Y-92365000D02*
X89575000Y-92365000D01*
X56802793Y-56973000D02*
X54500000Y-59275793D01*
X109425000Y-95450000D02*
X109425000Y-91533000D01*
X85727000Y-72452000D02*
X85727000Y-60411429D01*
X54500000Y-83875000D02*
X54500000Y-84075000D01*
%TO.N,Net-(A1-GPIO17)*%
X84433636Y-96400000D02*
X80726000Y-92692364D01*
X80726000Y-71667496D02*
X85026000Y-67367496D01*
X80726000Y-92692364D02*
X80726000Y-71667496D01*
X85026000Y-60701793D02*
X82298207Y-57974000D01*
X85026000Y-67367496D02*
X85026000Y-60701793D01*
X87250000Y-96400000D02*
X84433636Y-96400000D01*
X72896000Y-57974000D02*
X58535000Y-72335000D01*
X82298207Y-57974000D02*
X72896000Y-57974000D01*
%TO.N,Net-(A1-GPIO15)*%
X129925000Y-109900000D02*
X129925000Y-93925000D01*
X76350000Y-60850000D02*
X76350000Y-66325000D01*
X76350000Y-66325000D02*
X76315000Y-66360000D01*
X129925000Y-93925000D02*
X113900000Y-77900000D01*
X76315000Y-66360000D02*
X76315000Y-69795000D01*
X78325000Y-58875000D02*
X76350000Y-60850000D01*
%TO.N,Net-(A1-GPIO20)*%
X94525000Y-77925000D02*
X105275000Y-67175000D01*
X69175000Y-58525000D02*
X67275000Y-60425000D01*
X103950000Y-65850000D02*
X103875000Y-65850000D01*
X94525000Y-84925000D02*
X94525000Y-77925000D01*
X55425000Y-70923686D02*
X55425000Y-81400000D01*
X55450000Y-81400000D02*
X56545000Y-82495000D01*
X105275000Y-67175000D02*
X103950000Y-65850000D01*
X55425000Y-81400000D02*
X55450000Y-81400000D01*
X67275000Y-60425000D02*
X65923686Y-60425000D01*
X70825000Y-58525000D02*
X69175000Y-58525000D01*
X65923686Y-60425000D02*
X55425000Y-70923686D01*
X56545000Y-82495000D02*
X58535000Y-82495000D01*
%TO.N,Net-(A1-GPIO10)*%
X83700000Y-99375000D02*
X83885000Y-99375000D01*
X83885000Y-99375000D02*
X89575000Y-105065000D01*
%TO.N,Net-(A1-GPIO11)*%
X85100000Y-103275000D02*
X85245000Y-103275000D01*
X85245000Y-103275000D02*
X89575000Y-107605000D01*
D25*
%TO.N,Net-(J7-Pin_2)*%
X88600000Y-37800000D02*
X81602500Y-37800000D01*
X76998750Y-36173750D02*
X74675000Y-33850000D01*
X79976250Y-36173750D02*
X76998750Y-36173750D01*
X81602500Y-37800000D02*
X79976250Y-36173750D01*
D24*
%TO.N,SCK*%
X116125000Y-87650000D02*
X116125000Y-91205000D01*
X116125000Y-91205000D02*
X120000000Y-95080000D01*
X110450000Y-81975000D02*
X116125000Y-87650000D01*
D25*
%TO.N,Net-(J7-Pin_1)*%
X133125000Y-48200000D02*
X134000000Y-47325000D01*
X61650000Y-47225000D02*
X61650000Y-44525000D01*
X65075000Y-41100000D02*
X68275000Y-41100000D01*
X65275000Y-50850000D02*
X62700000Y-48275000D01*
X61650000Y-44525000D02*
X65075000Y-41100000D01*
X82550000Y-50850000D02*
X85200000Y-48200000D01*
X82550000Y-50850000D02*
X65275000Y-50850000D01*
X85200000Y-48200000D02*
X133125000Y-48200000D01*
X62700000Y-48275000D02*
X61650000Y-47225000D01*
D24*
%TO.N,Net-(A1-GPIO21)*%
X101400000Y-29850000D02*
X101400000Y-33250000D01*
X101400000Y-33250000D02*
X89575000Y-45075000D01*
%TO.N,+5V*%
X118975000Y-60225000D02*
X121375000Y-62625000D01*
X82075000Y-74950000D02*
X82025000Y-74900000D01*
X116150000Y-60225000D02*
X118975000Y-60225000D01*
X121775000Y-65850000D02*
X103800000Y-83825000D01*
X114875000Y-32275000D02*
X114875000Y-42875000D01*
X121775000Y-63025000D02*
X121775000Y-65850000D01*
X82075000Y-93050000D02*
X82075000Y-74950000D01*
X87250000Y-87875000D02*
X82075000Y-93050000D01*
X121375000Y-62625000D02*
X121775000Y-63025000D01*
X103800000Y-83825000D02*
X100000000Y-83825000D01*
X114875000Y-42875000D02*
X114925000Y-42925000D01*
D25*
%TO.N,Net-(D2-K)*%
X135675000Y-49150000D02*
X137500000Y-47325000D01*
X135675000Y-50350000D02*
X135675000Y-49150000D01*
X135125000Y-50900000D02*
X135675000Y-50350000D01*
X110500000Y-50900000D02*
X135125000Y-50900000D01*
D24*
%TO.N,Net-(D1-A)*%
X90775000Y-72225000D02*
X88847500Y-70297500D01*
X95275000Y-72225000D02*
X90775000Y-72225000D01*
X104775000Y-62725000D02*
X95275000Y-72225000D01*
X117350000Y-62725000D02*
X104775000Y-62725000D01*
X88847500Y-70297500D02*
X88847500Y-67650000D01*
%TD*%
M02*
