%TF.GenerationSoftware,KiCad,Pcbnew,9.0.6*%
%TF.CreationDate,2026-05-21T19:35:24-07:00*%
%TF.ProjectId,juggling_machine_pcb,6a756767-6c69-46e6-975f-6d616368696e,rev?*%
%TF.SameCoordinates,Original*%
%TF.FileFunction,Soldermask,Top*%
%TF.FilePolarity,Negative*%
%FSLAX46Y46*%
G04 Gerber Fmt 4.6, Leading zero omitted, Abs format (unit mm)*
G04 Created by KiCad (PCBNEW 9.0.6) date 2026-05-21 19:35:24*
%MOMM*%
%LPD*%
G01*
G04 APERTURE LIST*
G04 Aperture macros list*
%AMRoundRect*
0 Rectangle with rounded corners*
0 $1 Rounding radius*
0 $2 $3 $4 $5 $6 $7 $8 $9 X,Y pos of 4 corners*
0 Add a 4 corners polygon primitive as box body*
4,1,4,$2,$3,$4,$5,$6,$7,$8,$9,$2,$3,0*
0 Add four circle primitives for the rounded corners*
1,1,$1+$1,$2,$3*
1,1,$1+$1,$4,$5*
1,1,$1+$1,$6,$7*
1,1,$1+$1,$8,$9*
0 Add four rect primitives between the rounded corners*
20,1,$1+$1,$2,$3,$4,$5,0*
20,1,$1+$1,$4,$5,$6,$7,0*
20,1,$1+$1,$6,$7,$8,$9,0*
20,1,$1+$1,$8,$9,$2,$3,0*%
%AMFreePoly0*
4,1,37,0.800000,0.796148,0.878414,0.796148,1.032228,0.765552,1.177117,0.705537,1.307515,0.618408,1.418408,0.507515,1.505537,0.377117,1.565552,0.232228,1.596148,0.078414,1.596148,-0.078414,1.565552,-0.232228,1.505537,-0.377117,1.418408,-0.507515,1.307515,-0.618408,1.177117,-0.705537,1.032228,-0.765552,0.878414,-0.796148,0.800000,-0.796148,0.800000,-0.800000,-1.400000,-0.800000,
-1.403843,-0.796157,-1.439018,-0.796157,-1.511114,-0.766294,-1.566294,-0.711114,-1.596157,-0.639018,-1.596157,-0.603843,-1.600000,-0.600000,-1.600000,0.600000,-1.596157,0.603843,-1.596157,0.639018,-1.566294,0.711114,-1.511114,0.766294,-1.439018,0.796157,-1.403843,0.796157,-1.400000,0.800000,0.800000,0.800000,0.800000,0.796148,0.800000,0.796148,$1*%
%AMFreePoly1*
4,1,37,1.403843,0.796157,1.439018,0.796157,1.511114,0.766294,1.566294,0.711114,1.596157,0.639018,1.596157,0.603843,1.600000,0.600000,1.600000,-0.600000,1.596157,-0.603843,1.596157,-0.639018,1.566294,-0.711114,1.511114,-0.766294,1.439018,-0.796157,1.403843,-0.796157,1.400000,-0.800000,-0.800000,-0.800000,-0.800000,-0.796148,-0.878414,-0.796148,-1.032228,-0.765552,-1.177117,-0.705537,
-1.307515,-0.618408,-1.418408,-0.507515,-1.505537,-0.377117,-1.565552,-0.232228,-1.596148,-0.078414,-1.596148,0.078414,-1.565552,0.232228,-1.505537,0.377117,-1.418408,0.507515,-1.307515,0.618408,-1.177117,0.705537,-1.032228,0.765552,-0.878414,0.796148,-0.800000,0.796148,-0.800000,0.800000,1.400000,0.800000,1.403843,0.796157,1.403843,0.796157,$1*%
%AMFreePoly2*
4,1,37,0.603843,0.796157,0.639018,0.796157,0.711114,0.766294,0.766294,0.711114,0.796157,0.639018,0.796157,0.603843,0.800000,0.600000,0.800000,-0.600000,0.796157,-0.603843,0.796157,-0.639018,0.766294,-0.711114,0.711114,-0.766294,0.639018,-0.796157,0.603843,-0.796157,0.600000,-0.800000,0.000000,-0.800000,0.000000,-0.796148,-0.078414,-0.796148,-0.232228,-0.765552,-0.377117,-0.705537,
-0.507515,-0.618408,-0.618408,-0.507515,-0.705537,-0.377117,-0.765552,-0.232228,-0.796148,-0.078414,-0.796148,0.078414,-0.765552,0.232228,-0.705537,0.377117,-0.618408,0.507515,-0.507515,0.618408,-0.377117,0.705537,-0.232228,0.765552,-0.078414,0.796148,0.000000,0.796148,0.000000,0.800000,0.600000,0.800000,0.603843,0.796157,0.603843,0.796157,$1*%
%AMFreePoly3*
4,1,37,0.000000,0.796148,0.078414,0.796148,0.232228,0.765552,0.377117,0.705537,0.507515,0.618408,0.618408,0.507515,0.705537,0.377117,0.765552,0.232228,0.796148,0.078414,0.796148,-0.078414,0.765552,-0.232228,0.705537,-0.377117,0.618408,-0.507515,0.507515,-0.618408,0.377117,-0.705537,0.232228,-0.765552,0.078414,-0.796148,0.000000,-0.796148,0.000000,-0.800000,-0.600000,-0.800000,
-0.603843,-0.796157,-0.639018,-0.796157,-0.711114,-0.766294,-0.766294,-0.711114,-0.796157,-0.639018,-0.796157,-0.603843,-0.800000,-0.600000,-0.800000,0.600000,-0.796157,0.603843,-0.796157,0.639018,-0.766294,0.711114,-0.711114,0.766294,-0.639018,0.796157,-0.603843,0.796157,-0.600000,0.800000,0.000000,0.800000,0.000000,0.796148,0.000000,0.796148,$1*%
G04 Aperture macros list end*
%ADD10RoundRect,0.250000X1.050000X1.050000X-1.050000X1.050000X-1.050000X-1.050000X1.050000X-1.050000X0*%
%ADD11C,2.600000*%
%ADD12R,1.700000X1.700000*%
%ADD13C,1.700000*%
%ADD14RoundRect,0.250001X-0.949999X0.949999X-0.949999X-0.949999X0.949999X-0.949999X0.949999X0.949999X0*%
%ADD15C,2.400000*%
%ADD16RoundRect,0.249999X-0.850001X-0.850001X0.850001X-0.850001X0.850001X0.850001X-0.850001X0.850001X0*%
%ADD17C,2.200000*%
%ADD18C,1.850000*%
%ADD19FreePoly0,180.000000*%
%ADD20RoundRect,0.200000X0.600000X0.600000X-0.600000X0.600000X-0.600000X-0.600000X0.600000X-0.600000X0*%
%ADD21RoundRect,0.800000X0.800000X0.000010X-0.800000X0.000010X-0.800000X-0.000010X0.800000X-0.000010X0*%
%ADD22C,1.600000*%
%ADD23FreePoly1,180.000000*%
%ADD24FreePoly2,180.000000*%
%ADD25FreePoly3,180.000000*%
%ADD26RoundRect,0.250000X-0.550000X-0.550000X0.550000X-0.550000X0.550000X0.550000X-0.550000X0.550000X0*%
%ADD27RoundRect,0.250000X1.050000X-1.050000X1.050000X1.050000X-1.050000X1.050000X-1.050000X-1.050000X0*%
%ADD28RoundRect,0.250001X0.949999X0.949999X-0.949999X0.949999X-0.949999X-0.949999X0.949999X-0.949999X0*%
%ADD29RoundRect,0.250000X-1.050000X1.050000X-1.050000X-1.050000X1.050000X-1.050000X1.050000X1.050000X0*%
G04 APERTURE END LIST*
D10*
%TO.C,J7*%
X79675000Y-33850000D03*
D11*
X74675000Y-33850000D03*
%TD*%
D12*
%TO.C,J2*%
X104815000Y-89825000D03*
D13*
X104815000Y-92365000D03*
X104815000Y-94905000D03*
X104815000Y-97445000D03*
X104815000Y-99985000D03*
X104815000Y-102525000D03*
X104815000Y-105065000D03*
X104815000Y-107605000D03*
%TD*%
D12*
%TO.C,J6*%
X108275000Y-28945000D03*
D13*
X108275000Y-31485000D03*
X108275000Y-34025000D03*
%TD*%
D14*
%TO.C,J11*%
X142000000Y-94000000D03*
D15*
X142000000Y-97500000D03*
X142000000Y-101000000D03*
X142000000Y-104500000D03*
%TD*%
D12*
%TO.C,J5*%
X95000000Y-29500000D03*
D13*
X95000000Y-32040000D03*
X95000000Y-34580000D03*
%TD*%
D16*
%TO.C,D1*%
X114240000Y-56375000D03*
D17*
X124400000Y-56375000D03*
%TD*%
D12*
%TO.C,J3*%
X120000000Y-90000000D03*
D13*
X120000000Y-92540000D03*
X120000000Y-95080000D03*
X120000000Y-97620000D03*
X120000000Y-100160000D03*
X120000000Y-102700000D03*
X120000000Y-105240000D03*
X120000000Y-107780000D03*
%TD*%
D17*
%TO.C,A1*%
X70150000Y-117925000D03*
D18*
X69850000Y-114895000D03*
X65000000Y-114895000D03*
D17*
X64700000Y-117925000D03*
D19*
X77115000Y-118055000D03*
D20*
X76315000Y-118055000D03*
D21*
X77115000Y-115515000D03*
D22*
X76315000Y-115515000D03*
D23*
X77115000Y-112975000D03*
D24*
X76315000Y-112975000D03*
D21*
X77115000Y-110435000D03*
D22*
X76315000Y-110435000D03*
D21*
X77115000Y-107895000D03*
D22*
X76315000Y-107895000D03*
D21*
X77115000Y-105355000D03*
D22*
X76315000Y-105355000D03*
D21*
X77115000Y-102815000D03*
D22*
X76315000Y-102815000D03*
D23*
X77115000Y-100275000D03*
D24*
X76315000Y-100275000D03*
D21*
X77115000Y-97735000D03*
D22*
X76315000Y-97735000D03*
D21*
X77115000Y-95195000D03*
D22*
X76315000Y-95195000D03*
D21*
X77115000Y-92655000D03*
D22*
X76315000Y-92655000D03*
D21*
X77115000Y-90115000D03*
D22*
X76315000Y-90115000D03*
D23*
X77115000Y-87575000D03*
D24*
X76315000Y-87575000D03*
D21*
X77115000Y-85035000D03*
D22*
X76315000Y-85035000D03*
D21*
X77115000Y-82495000D03*
D22*
X76315000Y-82495000D03*
D21*
X77115000Y-79955000D03*
D22*
X76315000Y-79955000D03*
D21*
X77115000Y-77415000D03*
D22*
X76315000Y-77415000D03*
D23*
X77115000Y-74875000D03*
D24*
X76315000Y-74875000D03*
D21*
X77115000Y-72335000D03*
D22*
X76315000Y-72335000D03*
D21*
X77115000Y-69795000D03*
D22*
X76315000Y-69795000D03*
X58535000Y-69795000D03*
D21*
X57735000Y-69795000D03*
D22*
X58535000Y-72335000D03*
D21*
X57735000Y-72335000D03*
D25*
X58535000Y-74875000D03*
D19*
X57735000Y-74875000D03*
D22*
X58535000Y-77415000D03*
D21*
X57735000Y-77415000D03*
D22*
X58535000Y-79955000D03*
D21*
X57735000Y-79955000D03*
D22*
X58535000Y-82495000D03*
D21*
X57735000Y-82495000D03*
D22*
X58535000Y-85035000D03*
D21*
X57735000Y-85035000D03*
D25*
X58535000Y-87575000D03*
D19*
X57735000Y-87575000D03*
D22*
X58535000Y-90115000D03*
D21*
X57735000Y-90115000D03*
D22*
X58535000Y-92655000D03*
D21*
X57735000Y-92655000D03*
D22*
X58535000Y-95195000D03*
D21*
X57735000Y-95195000D03*
D22*
X58535000Y-97735000D03*
D21*
X57735000Y-97735000D03*
D25*
X58535000Y-100275000D03*
D19*
X57735000Y-100275000D03*
D22*
X58535000Y-102815000D03*
D21*
X57735000Y-102815000D03*
D22*
X58535000Y-105355000D03*
D21*
X57735000Y-105355000D03*
D22*
X58535000Y-107895000D03*
D21*
X57735000Y-107895000D03*
D22*
X58535000Y-110435000D03*
D21*
X57735000Y-110435000D03*
D25*
X58535000Y-112975000D03*
D19*
X57735000Y-112975000D03*
D22*
X58535000Y-115515000D03*
D21*
X57735000Y-115515000D03*
D22*
X58535000Y-118055000D03*
D21*
X57735000Y-118055000D03*
%TD*%
D26*
%TO.C,C2*%
X134000000Y-47325000D03*
D22*
X137500000Y-47325000D03*
%TD*%
D16*
%TO.C,D2*%
X96040000Y-55725000D03*
D17*
X106200000Y-55725000D03*
%TD*%
D27*
%TO.C,J8*%
X88847500Y-67650000D03*
D11*
X88847500Y-62650000D03*
%TD*%
D28*
%TO.C,J10*%
X131000000Y-116000000D03*
D15*
X127500000Y-116000000D03*
X124000000Y-116000000D03*
X120500000Y-116000000D03*
%TD*%
D26*
%TO.C,C1*%
X134250000Y-33990000D03*
D22*
X137750000Y-33990000D03*
%TD*%
D12*
%TO.C,J1*%
X89575000Y-89825000D03*
D13*
X89575000Y-92365000D03*
X89575000Y-94905000D03*
X89575000Y-97445000D03*
X89575000Y-99985000D03*
X89575000Y-102525000D03*
X89575000Y-105065000D03*
X89575000Y-107605000D03*
%TD*%
D29*
%TO.C,J9*%
X138825000Y-61350000D03*
D11*
X138825000Y-66350000D03*
%TD*%
D12*
%TO.C,J4*%
X135240000Y-90000000D03*
D13*
X135240000Y-92540000D03*
X135240000Y-95080000D03*
X135240000Y-97620000D03*
X135240000Y-100160000D03*
X135240000Y-102700000D03*
X135240000Y-105240000D03*
X135240000Y-107780000D03*
%TD*%
M02*
