%TF.GenerationSoftware,KiCad,Pcbnew,9.0.6*%
%TF.CreationDate,2026-05-15T10:54:09-07:00*%
%TF.ProjectId,juggling_machine_pcb,6a756767-6c69-46e6-975f-6d616368696e,rev?*%
%TF.SameCoordinates,Original*%
%TF.FileFunction,Copper,L1,Top*%
%TF.FilePolarity,Positive*%
%FSLAX46Y46*%
G04 Gerber Fmt 4.6, Leading zero omitted, Abs format (unit mm)*
G04 Created by KiCad (PCBNEW 9.0.6) date 2026-05-15 10:54:09*
%MOMM*%
%LPD*%
G01*
G04 APERTURE LIST*
G04 Aperture macros list*
%AMRoundRect*
0 Rectangle with rounded corners*
0 $1 Rounding radius*
0 $2 $3 $4 $5 $6 $7 $8 $9 X,Y pos of 4 corners*
0 Add a 4 corners polygon primitive as box body*
4,1,4,$2,$3,$4,$5,$6,$7,$8,$9,$2,$3,0*
0 Add four circle primitives for the rounded corners*
1,1,$1+$1,$2,$3*
1,1,$1+$1,$4,$5*
1,1,$1+$1,$6,$7*
1,1,$1+$1,$8,$9*
0 Add four rect primitives between the rounded corners*
20,1,$1+$1,$2,$3,$4,$5,0*
20,1,$1+$1,$4,$5,$6,$7,0*
20,1,$1+$1,$6,$7,$8,$9,0*
20,1,$1+$1,$8,$9,$2,$3,0*%
%AMFreePoly0*
4,1,37,0.800000,0.796148,0.878414,0.796148,1.032228,0.765552,1.177117,0.705537,1.307515,0.618408,1.418408,0.507515,1.505537,0.377117,1.565552,0.232228,1.596148,0.078414,1.596148,-0.078414,1.565552,-0.232228,1.505537,-0.377117,1.418408,-0.507515,1.307515,-0.618408,1.177117,-0.705537,1.032228,-0.765552,0.878414,-0.796148,0.800000,-0.796148,0.800000,-0.800000,-1.400000,-0.800000,
-1.403843,-0.796157,-1.439018,-0.796157,-1.511114,-0.766294,-1.566294,-0.711114,-1.596157,-0.639018,-1.596157,-0.603843,-1.600000,-0.600000,-1.600000,0.600000,-1.596157,0.603843,-1.596157,0.639018,-1.566294,0.711114,-1.511114,0.766294,-1.439018,0.796157,-1.403843,0.796157,-1.400000,0.800000,0.800000,0.800000,0.800000,0.796148,0.800000,0.796148,$1*%
%AMFreePoly1*
4,1,37,1.403843,0.796157,1.439018,0.796157,1.511114,0.766294,1.566294,0.711114,1.596157,0.639018,1.596157,0.603843,1.600000,0.600000,1.600000,-0.600000,1.596157,-0.603843,1.596157,-0.639018,1.566294,-0.711114,1.511114,-0.766294,1.439018,-0.796157,1.403843,-0.796157,1.400000,-0.800000,-0.800000,-0.800000,-0.800000,-0.796148,-0.878414,-0.796148,-1.032228,-0.765552,-1.177117,-0.705537,
-1.307515,-0.618408,-1.418408,-0.507515,-1.505537,-0.377117,-1.565552,-0.232228,-1.596148,-0.078414,-1.596148,0.078414,-1.565552,0.232228,-1.505537,0.377117,-1.418408,0.507515,-1.307515,0.618408,-1.177117,0.705537,-1.032228,0.765552,-0.878414,0.796148,-0.800000,0.796148,-0.800000,0.800000,1.400000,0.800000,1.403843,0.796157,1.403843,0.796157,$1*%
%AMFreePoly2*
4,1,37,0.603843,0.796157,0.639018,0.796157,0.711114,0.766294,0.766294,0.711114,0.796157,0.639018,0.796157,0.603843,0.800000,0.600000,0.800000,-0.600000,0.796157,-0.603843,0.796157,-0.639018,0.766294,-0.711114,0.711114,-0.766294,0.639018,-0.796157,0.603843,-0.796157,0.600000,-0.800000,0.000000,-0.800000,0.000000,-0.796148,-0.078414,-0.796148,-0.232228,-0.765552,-0.377117,-0.705537,
-0.507515,-0.618408,-0.618408,-0.507515,-0.705537,-0.377117,-0.765552,-0.232228,-0.796148,-0.078414,-0.796148,0.078414,-0.765552,0.232228,-0.705537,0.377117,-0.618408,0.507515,-0.507515,0.618408,-0.377117,0.705537,-0.232228,0.765552,-0.078414,0.796148,0.000000,0.796148,0.000000,0.800000,0.600000,0.800000,0.603843,0.796157,0.603843,0.796157,$1*%
%AMFreePoly3*
4,1,37,0.000000,0.796148,0.078414,0.796148,0.232228,0.765552,0.377117,0.705537,0.507515,0.618408,0.618408,0.507515,0.705537,0.377117,0.765552,0.232228,0.796148,0.078414,0.796148,-0.078414,0.765552,-0.232228,0.705537,-0.377117,0.618408,-0.507515,0.507515,-0.618408,0.377117,-0.705537,0.232228,-0.765552,0.078414,-0.796148,0.000000,-0.796148,0.000000,-0.800000,-0.600000,-0.800000,
-0.603843,-0.796157,-0.639018,-0.796157,-0.711114,-0.766294,-0.766294,-0.711114,-0.796157,-0.639018,-0.796157,-0.603843,-0.800000,-0.600000,-0.800000,0.600000,-0.796157,0.603843,-0.796157,0.639018,-0.766294,0.711114,-0.711114,0.766294,-0.639018,0.796157,-0.603843,0.796157,-0.600000,0.800000,0.000000,0.800000,0.000000,0.796148,0.000000,0.796148,$1*%
G04 Aperture macros list end*
%TA.AperFunction,ComponentPad*%
%ADD10RoundRect,0.250000X1.050000X1.050000X-1.050000X1.050000X-1.050000X-1.050000X1.050000X-1.050000X0*%
%TD*%
%TA.AperFunction,ComponentPad*%
%ADD11C,2.600000*%
%TD*%
%TA.AperFunction,ComponentPad*%
%ADD12R,1.700000X1.700000*%
%TD*%
%TA.AperFunction,ComponentPad*%
%ADD13C,1.700000*%
%TD*%
%TA.AperFunction,ComponentPad*%
%ADD14RoundRect,0.249999X-0.850001X-0.850001X0.850001X-0.850001X0.850001X0.850001X-0.850001X0.850001X0*%
%TD*%
%TA.AperFunction,ComponentPad*%
%ADD15C,2.200000*%
%TD*%
%TA.AperFunction,SMDPad,CuDef*%
%ADD16FreePoly0,180.000000*%
%TD*%
%TA.AperFunction,ComponentPad*%
%ADD17RoundRect,0.200000X0.600000X0.600000X-0.600000X0.600000X-0.600000X-0.600000X0.600000X-0.600000X0*%
%TD*%
%TA.AperFunction,SMDPad,CuDef*%
%ADD18RoundRect,0.800000X0.800000X0.000010X-0.800000X0.000010X-0.800000X-0.000010X0.800000X-0.000010X0*%
%TD*%
%TA.AperFunction,ComponentPad*%
%ADD19C,1.600000*%
%TD*%
%TA.AperFunction,SMDPad,CuDef*%
%ADD20FreePoly1,180.000000*%
%TD*%
%TA.AperFunction,ComponentPad*%
%ADD21FreePoly2,180.000000*%
%TD*%
%TA.AperFunction,ComponentPad*%
%ADD22FreePoly3,180.000000*%
%TD*%
%TA.AperFunction,ComponentPad*%
%ADD23RoundRect,0.250000X-0.550000X-0.550000X0.550000X-0.550000X0.550000X0.550000X-0.550000X0.550000X0*%
%TD*%
%TA.AperFunction,ComponentPad*%
%ADD24RoundRect,0.250000X1.050000X-1.050000X1.050000X1.050000X-1.050000X1.050000X-1.050000X-1.050000X0*%
%TD*%
%TA.AperFunction,ComponentPad*%
%ADD25RoundRect,0.250000X-1.050000X1.050000X-1.050000X-1.050000X1.050000X-1.050000X1.050000X1.050000X0*%
%TD*%
%TA.AperFunction,ViaPad*%
%ADD26C,0.600000*%
%TD*%
%TA.AperFunction,Conductor*%
%ADD27C,0.500000*%
%TD*%
%TA.AperFunction,Conductor*%
%ADD28C,0.200000*%
%TD*%
G04 APERTURE END LIST*
D10*
%TO.P,J7,1,Pin_1*%
%TO.N,Net-(J7-Pin_1)*%
X79675000Y-33850000D03*
D11*
%TO.P,J7,2,Pin_2*%
%TO.N,Net-(J7-Pin_2)*%
X74675000Y-33850000D03*
%TD*%
D12*
%TO.P,J2,1,Pin_1*%
%TO.N,+24V*%
X104815000Y-89825000D03*
D13*
%TO.P,J2,2,Pin_2*%
%TO.N,GND*%
X104815000Y-92365000D03*
%TO.P,J2,3,Pin_3*%
%TO.N,unconnected-(J2-Pin_3-Pad3)*%
X104815000Y-94905000D03*
%TO.P,J2,4,Pin_4*%
%TO.N,unconnected-(J2-Pin_4-Pad4)*%
X104815000Y-97445000D03*
%TO.P,J2,5,Pin_5*%
%TO.N,unconnected-(J2-Pin_5-Pad5)*%
X104815000Y-99985000D03*
%TO.P,J2,6,Pin_6*%
%TO.N,unconnected-(J2-Pin_6-Pad6)*%
X104815000Y-102525000D03*
%TO.P,J2,7,Pin_7*%
%TO.N,unconnected-(J2-Pin_7-Pad7)*%
X104815000Y-105065000D03*
%TO.P,J2,8,Pin_8*%
%TO.N,GND*%
X104815000Y-107605000D03*
%TD*%
D12*
%TO.P,J6,1,Pin_1*%
%TO.N,Net-(A1-GPIO21)*%
X108275000Y-28945000D03*
D13*
%TO.P,J6,2,Pin_2*%
%TO.N,+5V*%
X108275000Y-31485000D03*
%TO.P,J6,3,Pin_3*%
%TO.N,GND*%
X108275000Y-34025000D03*
%TD*%
D12*
%TO.P,J5,1,Pin_1*%
%TO.N,Net-(A1-GPIO22)*%
X95000000Y-29500000D03*
D13*
%TO.P,J5,2,Pin_2*%
%TO.N,+5V*%
X95000000Y-32040000D03*
%TO.P,J5,3,Pin_3*%
%TO.N,GND*%
X95000000Y-34580000D03*
%TD*%
D14*
%TO.P,D1,1,K*%
%TO.N,+5V*%
X114240000Y-56375000D03*
D15*
%TO.P,D1,2,A*%
%TO.N,Net-(D1-A)*%
X124400000Y-56375000D03*
%TD*%
D12*
%TO.P,J3,1,Pin_1*%
%TO.N,unconnected-(J3-Pin_1-Pad1)*%
X120000000Y-90000000D03*
D13*
%TO.P,J3,2,Pin_2*%
%TO.N,MOSI*%
X120000000Y-92540000D03*
%TO.P,J3,3,Pin_3*%
%TO.N,SCK*%
X120000000Y-95080000D03*
%TO.P,J3,4,Pin_4*%
%TO.N,Net-(A1-GPIO13)*%
X120000000Y-97620000D03*
%TO.P,J3,5,Pin_5*%
%TO.N,MISO*%
X120000000Y-100160000D03*
%TO.P,J3,6,Pin_6*%
%TO.N,GND*%
X120000000Y-102700000D03*
%TO.P,J3,7,Pin_7*%
%TO.N,Net-(A1-GPIO15)*%
X120000000Y-105240000D03*
%TO.P,J3,8,Pin_8*%
%TO.N,Net-(A1-GPIO14)*%
X120000000Y-107780000D03*
%TD*%
D16*
%TO.P,A1,1,GPIO0*%
%TO.N,unconnected-(A1-GPIO0-Pad1)*%
X77115000Y-118055000D03*
D17*
X76315000Y-118055000D03*
D18*
%TO.P,A1,2,GPIO1*%
%TO.N,unconnected-(A1-GPIO1-Pad2)*%
X77115000Y-115515000D03*
D19*
X76315000Y-115515000D03*
D20*
%TO.P,A1,3,GND*%
%TO.N,GND*%
X77115000Y-112975000D03*
D21*
X76315000Y-112975000D03*
D18*
%TO.P,A1,4,GPIO2*%
%TO.N,unconnected-(A1-GPIO2-Pad4)*%
X77115000Y-110435000D03*
D19*
X76315000Y-110435000D03*
D18*
%TO.P,A1,5,GPIO3*%
%TO.N,unconnected-(A1-GPIO3-Pad5)*%
X77115000Y-107895000D03*
D19*
X76315000Y-107895000D03*
D18*
%TO.P,A1,6,GPIO4*%
%TO.N,unconnected-(A1-GPIO4-Pad6)*%
X77115000Y-105355000D03*
D19*
X76315000Y-105355000D03*
D18*
%TO.P,A1,7,GPIO5*%
%TO.N,unconnected-(A1-GPIO5-Pad7)*%
X77115000Y-102815000D03*
D19*
X76315000Y-102815000D03*
D20*
%TO.P,A1,8,GND*%
%TO.N,GND*%
X77115000Y-100275000D03*
D21*
X76315000Y-100275000D03*
D18*
%TO.P,A1,9,GPIO6*%
%TO.N,unconnected-(A1-GPIO6-Pad9)*%
X77115000Y-97735000D03*
D19*
X76315000Y-97735000D03*
D18*
%TO.P,A1,10,GPIO7*%
%TO.N,unconnected-(A1-GPIO7-Pad10)*%
X77115000Y-95195000D03*
D19*
X76315000Y-95195000D03*
D18*
%TO.P,A1,11,GPIO8*%
%TO.N,unconnected-(A1-GPIO8-Pad11)*%
X77115000Y-92655000D03*
D19*
X76315000Y-92655000D03*
D18*
%TO.P,A1,12,GPIO9*%
%TO.N,Net-(A1-GPIO14)*%
X77115000Y-90115000D03*
D19*
X76315000Y-90115000D03*
D20*
%TO.P,A1,13,GND*%
%TO.N,GND*%
X77115000Y-87575000D03*
D21*
X76315000Y-87575000D03*
D18*
%TO.P,A1,14,GPIO10*%
%TO.N,Net-(A1-GPIO10)*%
X77115000Y-85035000D03*
D19*
X76315000Y-85035000D03*
D18*
%TO.P,A1,15,GPIO11*%
%TO.N,Net-(A1-GPIO11)*%
X77115000Y-82495000D03*
D19*
X76315000Y-82495000D03*
D18*
%TO.P,A1,16,GPIO12*%
%TO.N,unconnected-(A1-GPIO12-Pad16)*%
X77115000Y-79955000D03*
D19*
X76315000Y-79955000D03*
D18*
%TO.P,A1,17,GPIO13*%
%TO.N,Net-(A1-GPIO13)*%
X77115000Y-77415000D03*
D19*
X76315000Y-77415000D03*
D20*
%TO.P,A1,18,GND*%
%TO.N,GND*%
X77115000Y-74875000D03*
D21*
X76315000Y-74875000D03*
D18*
%TO.P,A1,19,GPIO14*%
%TO.N,Net-(A1-GPIO14)*%
X77115000Y-72335000D03*
D19*
X76315000Y-72335000D03*
D18*
%TO.P,A1,20,GPIO15*%
%TO.N,Net-(A1-GPIO15)*%
X77115000Y-69795000D03*
D19*
X76315000Y-69795000D03*
%TO.P,A1,21,GPIO16*%
%TO.N,MISO*%
X58535000Y-69795000D03*
D18*
X57735000Y-69795000D03*
D19*
%TO.P,A1,22,GPIO17*%
%TO.N,Net-(A1-GPIO17)*%
X58535000Y-72335000D03*
D18*
X57735000Y-72335000D03*
D22*
%TO.P,A1,23,GND*%
%TO.N,GND*%
X58535000Y-74875000D03*
D16*
X57735000Y-74875000D03*
D19*
%TO.P,A1,24,GPIO18*%
%TO.N,SCK*%
X58535000Y-77415000D03*
D18*
X57735000Y-77415000D03*
D19*
%TO.P,A1,25,GPIO19*%
%TO.N,MOSI*%
X58535000Y-79955000D03*
D18*
X57735000Y-79955000D03*
D19*
%TO.P,A1,26,GPIO20*%
%TO.N,Net-(A1-GPIO20)*%
X58535000Y-82495000D03*
D18*
X57735000Y-82495000D03*
D19*
%TO.P,A1,27,GPIO21*%
%TO.N,Net-(A1-GPIO21)*%
X58535000Y-85035000D03*
D18*
X57735000Y-85035000D03*
D22*
%TO.P,A1,28,GND*%
%TO.N,GND*%
X58535000Y-87575000D03*
D16*
X57735000Y-87575000D03*
D19*
%TO.P,A1,29,GPIO22*%
%TO.N,Net-(A1-GPIO22)*%
X58535000Y-90115000D03*
D18*
X57735000Y-90115000D03*
D19*
%TO.P,A1,30,RUN*%
%TO.N,unconnected-(A1-RUN-Pad30)*%
X58535000Y-92655000D03*
D18*
X57735000Y-92655000D03*
D19*
%TO.P,A1,31,GPIO26_ADC0*%
%TO.N,unconnected-(A1-GPIO26_ADC0-Pad31)*%
X58535000Y-95195000D03*
D18*
X57735000Y-95195000D03*
D19*
%TO.P,A1,32,GPIO27_ADC1*%
%TO.N,unconnected-(A1-GPIO27_ADC1-Pad32)*%
X58535000Y-97735000D03*
D18*
X57735000Y-97735000D03*
D22*
%TO.P,A1,33,AGND*%
%TO.N,unconnected-(A1-AGND-Pad33)*%
X58535000Y-100275000D03*
D16*
X57735000Y-100275000D03*
D19*
%TO.P,A1,34,GPIO28_ADC2*%
%TO.N,unconnected-(A1-GPIO28_ADC2-Pad34)*%
X58535000Y-102815000D03*
D18*
X57735000Y-102815000D03*
D19*
%TO.P,A1,35,ADC_VREF*%
%TO.N,unconnected-(A1-ADC_VREF-Pad35)*%
X58535000Y-105355000D03*
D18*
X57735000Y-105355000D03*
D19*
%TO.P,A1,36,3V3*%
%TO.N,+3V3*%
X58535000Y-107895000D03*
D18*
X57735000Y-107895000D03*
D19*
%TO.P,A1,37,3V3_EN*%
%TO.N,unconnected-(A1-3V3_EN-Pad37)*%
X58535000Y-110435000D03*
D18*
X57735000Y-110435000D03*
D22*
%TO.P,A1,38,GND*%
%TO.N,GND*%
X58535000Y-112975000D03*
D16*
X57735000Y-112975000D03*
D19*
%TO.P,A1,39,VSYS*%
%TO.N,+5V*%
X58535000Y-115515000D03*
D18*
X57735000Y-115515000D03*
D19*
%TO.P,A1,40,VBUS*%
%TO.N,unconnected-(A1-VBUS-Pad40)*%
X58535000Y-118055000D03*
D18*
X57735000Y-118055000D03*
%TD*%
D23*
%TO.P,C2,1*%
%TO.N,Net-(J7-Pin_1)*%
X134000000Y-47325000D03*
D19*
%TO.P,C2,2*%
%TO.N,Net-(D2-K)*%
X137500000Y-47325000D03*
%TD*%
D14*
%TO.P,D2,1,K*%
%TO.N,Net-(D2-K)*%
X96040000Y-55725000D03*
D15*
%TO.P,D2,2,A*%
%TO.N,+24V*%
X106200000Y-55725000D03*
%TD*%
D24*
%TO.P,J8,1,Pin_1*%
%TO.N,Net-(D1-A)*%
X88847500Y-67650000D03*
D11*
%TO.P,J8,2,Pin_2*%
%TO.N,GND*%
X88847500Y-62650000D03*
%TD*%
D23*
%TO.P,C1,1*%
%TO.N,Net-(J7-Pin_2)*%
X132400000Y-32125000D03*
D19*
%TO.P,C1,2*%
%TO.N,GND*%
X135900000Y-32125000D03*
%TD*%
D12*
%TO.P,J1,1,Pin_1*%
%TO.N,Net-(A1-GPIO20)*%
X89575000Y-89825000D03*
D13*
%TO.P,J1,2,Pin_2*%
%TO.N,MOSI*%
X89575000Y-92365000D03*
%TO.P,J1,3,Pin_3*%
%TO.N,SCK*%
X89575000Y-94905000D03*
%TO.P,J1,4,Pin_4*%
%TO.N,Net-(A1-GPIO17)*%
X89575000Y-97445000D03*
%TO.P,J1,5,Pin_5*%
%TO.N,MISO*%
X89575000Y-99985000D03*
%TO.P,J1,6,Pin_6*%
%TO.N,GND*%
X89575000Y-102525000D03*
%TO.P,J1,7,Pin_7*%
%TO.N,Net-(A1-GPIO10)*%
X89575000Y-105065000D03*
%TO.P,J1,8,Pin_8*%
%TO.N,Net-(A1-GPIO11)*%
X89575000Y-107605000D03*
%TD*%
D25*
%TO.P,J9,1,Pin_1*%
%TO.N,+24V*%
X138825000Y-61350000D03*
D11*
%TO.P,J9,2,Pin_2*%
%TO.N,GND*%
X138825000Y-66350000D03*
%TD*%
D12*
%TO.P,J4,1,Pin_1*%
%TO.N,+24V*%
X135240000Y-90000000D03*
D13*
%TO.P,J4,2,Pin_2*%
%TO.N,GND*%
X135240000Y-92540000D03*
%TO.P,J4,3,Pin_3*%
%TO.N,unconnected-(J4-Pin_3-Pad3)*%
X135240000Y-95080000D03*
%TO.P,J4,4,Pin_4*%
%TO.N,unconnected-(J4-Pin_4-Pad4)*%
X135240000Y-97620000D03*
%TO.P,J4,5,Pin_5*%
%TO.N,unconnected-(J4-Pin_5-Pad5)*%
X135240000Y-100160000D03*
%TO.P,J4,6,Pin_6*%
%TO.N,unconnected-(J4-Pin_6-Pad6)*%
X135240000Y-102700000D03*
%TO.P,J4,7,Pin_7*%
%TO.N,unconnected-(J4-Pin_7-Pad7)*%
X135240000Y-105240000D03*
%TO.P,J4,8,Pin_8*%
%TO.N,GND*%
X135240000Y-107780000D03*
%TD*%
D26*
%TO.N,Net-(A1-GPIO14)*%
X79775000Y-86800000D03*
X79800000Y-74200000D03*
%TO.N,GND*%
X79000000Y-75650000D03*
%TO.N,Net-(A1-GPIO21)*%
X70225000Y-54000000D03*
%TO.N,GND*%
X64050000Y-112975000D03*
X91900000Y-55025000D03*
X93175000Y-106725000D03*
X69975000Y-86875000D03*
X112675000Y-106650000D03*
X84125000Y-61075000D03*
%TO.N,Net-(A1-GPIO13)*%
X84450000Y-80725000D03*
%TO.N,MOSI*%
X54700000Y-84275000D03*
X88750000Y-75475000D03*
X109425000Y-95450000D03*
%TO.N,Net-(A1-GPIO17)*%
X87250000Y-96400000D03*
%TO.N,Net-(A1-GPIO15)*%
X78325000Y-58875000D03*
X113900000Y-77900000D03*
X129925000Y-109900000D03*
%TO.N,Net-(A1-GPIO20)*%
X70825000Y-58525000D03*
X103875000Y-65850000D03*
X94525000Y-84925000D03*
%TO.N,Net-(A1-GPIO10)*%
X83700000Y-99375000D03*
%TO.N,Net-(A1-GPIO11)*%
X85100000Y-103275000D03*
%TO.N,Net-(J7-Pin_2)*%
X88600000Y-37800000D03*
%TO.N,SCK*%
X110450000Y-81975000D03*
%TO.N,Net-(J7-Pin_1)*%
X68275000Y-41100000D03*
%TO.N,Net-(A1-GPIO21)*%
X101400000Y-29850000D03*
X89575000Y-45075000D03*
%TO.N,+5V*%
X116150000Y-60225000D03*
X87250000Y-87875000D03*
X114875000Y-32275000D03*
X100000000Y-83825000D03*
X114925000Y-42925000D03*
X82025000Y-74900000D03*
%TO.N,Net-(D2-K)*%
X110500000Y-50900000D03*
%TO.N,Net-(D1-A)*%
X117350000Y-62725000D03*
%TD*%
D27*
%TO.N,GND*%
X139050000Y-68447500D02*
X139050000Y-92150000D01*
%TO.N,+24V*%
X137950000Y-62650000D02*
X131990000Y-62650000D01*
%TO.N,GND*%
X139300000Y-66825000D02*
X139300000Y-68197500D01*
%TO.N,+24V*%
X138825000Y-61350000D02*
X138825000Y-61775000D01*
X138825000Y-61775000D02*
X137950000Y-62650000D01*
%TO.N,GND*%
X139300000Y-68197500D02*
X139050000Y-68447500D01*
%TO.N,+24V*%
X131990000Y-62650000D02*
X126465000Y-68175000D01*
%TO.N,GND*%
X138825000Y-66350000D02*
X139300000Y-66825000D01*
D28*
%TO.N,Net-(A1-GPIO21)*%
X70225000Y-54000000D02*
X70625000Y-54000000D01*
X70625000Y-54000000D02*
X79550000Y-45075000D01*
X79550000Y-45075000D02*
X89575000Y-45075000D01*
D27*
%TO.N,Net-(J7-Pin_1)*%
X79675000Y-33850000D02*
X77552500Y-35972500D01*
X76002500Y-35972500D02*
X74775000Y-37200000D01*
X74775000Y-37200000D02*
X74775000Y-39175000D01*
X74775000Y-39175000D02*
X72500000Y-41450000D01*
X77552500Y-35972500D02*
X76002500Y-35972500D01*
X72500000Y-41450000D02*
X68625000Y-41450000D01*
X68625000Y-41450000D02*
X68275000Y-41100000D01*
D28*
%TO.N,Net-(A1-GPIO14)*%
X76315000Y-90115000D02*
X77446370Y-90115000D01*
X79775000Y-87786370D02*
X79775000Y-86800000D01*
X77446370Y-90115000D02*
X79775000Y-87786370D01*
X79800000Y-74200000D02*
X77935000Y-72335000D01*
X77935000Y-72335000D02*
X77115000Y-72335000D01*
%TO.N,GND*%
X78925000Y-74875000D02*
X76315000Y-74875000D01*
X79000000Y-75650000D02*
X79000000Y-74950000D01*
X79000000Y-74950000D02*
X78925000Y-74875000D01*
X59235000Y-86875000D02*
X65775000Y-86875000D01*
X59936000Y-81036000D02*
X65775000Y-86875000D01*
X58535000Y-74875000D02*
X59936000Y-76276000D01*
X59936000Y-76276000D02*
X59936000Y-81036000D01*
D27*
X105770000Y-106650000D02*
X111175000Y-106650000D01*
X96475000Y-47600000D02*
X96475000Y-50450000D01*
X89575000Y-102525000D02*
X93175000Y-106125000D01*
X139050000Y-103970000D02*
X139050000Y-92150000D01*
X91300000Y-42425000D02*
X96475000Y-47600000D01*
X120000000Y-102700000D02*
X125080000Y-107780000D01*
X139050000Y-92150000D02*
X138660000Y-92540000D01*
X104815000Y-107605000D02*
X105770000Y-106650000D01*
X122701000Y-30574000D02*
X134349000Y-30574000D01*
X108275000Y-34025000D02*
X119250000Y-34025000D01*
X119250000Y-34025000D02*
X122701000Y-30574000D01*
D28*
X64050000Y-112975000D02*
X76315000Y-112975000D01*
D27*
X76315000Y-112975000D02*
X79125000Y-112975000D01*
D28*
X82621000Y-104176000D02*
X78720000Y-100275000D01*
D27*
X125080000Y-107780000D02*
X135240000Y-107780000D01*
X93175000Y-106125000D02*
X93175000Y-106725000D01*
X79125000Y-112975000D02*
X89575000Y-102525000D01*
X96475000Y-50450000D02*
X91900000Y-55025000D01*
X87272500Y-61075000D02*
X84125000Y-61075000D01*
D28*
X87924000Y-104176000D02*
X82621000Y-104176000D01*
D27*
X111175000Y-106650000D02*
X112675000Y-106650000D01*
X95000000Y-34580000D02*
X107720000Y-34580000D01*
X86300000Y-42375000D02*
X86250000Y-42425000D01*
X135240000Y-107780000D02*
X139050000Y-103970000D01*
D28*
X58535000Y-87575000D02*
X59235000Y-86875000D01*
D27*
X88847500Y-62650000D02*
X87272500Y-61075000D01*
D28*
X78720000Y-100275000D02*
X77115000Y-100275000D01*
D27*
X86300000Y-38613661D02*
X86300000Y-38975000D01*
X90333661Y-34580000D02*
X86300000Y-38613661D01*
X134349000Y-30574000D02*
X135900000Y-32125000D01*
D28*
X65775000Y-86875000D02*
X69975000Y-86875000D01*
D27*
X138660000Y-92540000D02*
X135240000Y-92540000D01*
X104815000Y-92365000D02*
X111175000Y-98725000D01*
X86250000Y-42425000D02*
X91300000Y-42425000D01*
X111175000Y-98725000D02*
X111175000Y-106650000D01*
D28*
X89575000Y-102525000D02*
X87924000Y-104176000D01*
D27*
X107720000Y-34580000D02*
X108275000Y-34025000D01*
X95000000Y-34580000D02*
X90333661Y-34580000D01*
X86300000Y-38975000D02*
X86300000Y-42375000D01*
D28*
%TO.N,Net-(A1-GPIO13)*%
X84450000Y-80725000D02*
X81140000Y-77415000D01*
X81140000Y-77415000D02*
X77115000Y-77415000D01*
%TO.N,MOSI*%
X120000000Y-92540000D02*
X117090000Y-95450000D01*
X117090000Y-95450000D02*
X109425000Y-95450000D01*
X100901000Y-84198207D02*
X100901000Y-83451793D01*
X92924207Y-75475000D02*
X88750000Y-75475000D01*
X54700000Y-84275000D02*
X55575000Y-84275000D01*
X92734207Y-92365000D02*
X100901000Y-84198207D01*
X57493686Y-79955000D02*
X57735000Y-79955000D01*
X55534000Y-81914686D02*
X57493686Y-79955000D01*
X57493686Y-79955000D02*
X58535000Y-79955000D01*
X55534000Y-84234000D02*
X55534000Y-81914686D01*
X100901000Y-83451793D02*
X92924207Y-75475000D01*
X55575000Y-84275000D02*
X55534000Y-84234000D01*
X89575000Y-92365000D02*
X92734207Y-92365000D01*
%TO.N,Net-(A1-GPIO17)*%
X88530000Y-96400000D02*
X87250000Y-96400000D01*
X89575000Y-97445000D02*
X88530000Y-96400000D01*
%TO.N,MISO*%
X87160000Y-99985000D02*
X89575000Y-99985000D01*
X114075000Y-106085000D02*
X120000000Y-100160000D01*
X86350000Y-99175000D02*
X87160000Y-99985000D01*
X58535000Y-69795000D02*
X68005000Y-60325000D01*
X68005000Y-60325000D02*
X79450000Y-60325000D01*
X114075000Y-112325000D02*
X114075000Y-106085000D01*
X101915000Y-112325000D02*
X114075000Y-112325000D01*
X79450000Y-60325000D02*
X86350000Y-67225000D01*
X89575000Y-99985000D02*
X101915000Y-112325000D01*
X86350000Y-67225000D02*
X86350000Y-99175000D01*
%TO.N,Net-(A1-GPIO15)*%
X87800000Y-56475000D02*
X83300000Y-56475000D01*
X125750000Y-110990000D02*
X128835000Y-110990000D01*
X80900000Y-58875000D02*
X78325000Y-58875000D01*
X83300000Y-56475000D02*
X81200000Y-58575000D01*
X81200000Y-58575000D02*
X80900000Y-58875000D01*
X109225000Y-77900000D02*
X87800000Y-56475000D01*
X120000000Y-105240000D02*
X125750000Y-110990000D01*
X128835000Y-110990000D02*
X129925000Y-109900000D01*
X113900000Y-77900000D02*
X109225000Y-77900000D01*
%TO.N,Net-(A1-GPIO20)*%
X72850000Y-58525000D02*
X70825000Y-58525000D01*
X98166364Y-65850000D02*
X88090364Y-55774000D01*
X94475000Y-84925000D02*
X94525000Y-84925000D01*
X88090364Y-55774000D02*
X75601000Y-55774000D01*
X103875000Y-65850000D02*
X98166364Y-65850000D01*
X75601000Y-55774000D02*
X72850000Y-58525000D01*
X89575000Y-89825000D02*
X94475000Y-84925000D01*
%TO.N,Net-(A1-GPIO10)*%
X83700000Y-86834114D02*
X83700000Y-99375000D01*
X83700000Y-86834114D02*
X81900886Y-85035000D01*
X81900886Y-85035000D02*
X77115000Y-85035000D01*
%TO.N,Net-(A1-GPIO11)*%
X81770000Y-82495000D02*
X77115000Y-82495000D01*
X85100000Y-85825000D02*
X81770000Y-82495000D01*
X85100000Y-85825000D02*
X85100000Y-103275000D01*
D27*
%TO.N,Net-(J7-Pin_2)*%
X74675000Y-33850000D02*
X74700000Y-33875000D01*
X132400000Y-32125000D02*
X126725000Y-37800000D01*
X126725000Y-37800000D02*
X88600000Y-37800000D01*
X74700000Y-33875000D02*
X74700000Y-33950000D01*
D28*
%TO.N,SCK*%
X108125000Y-82975000D02*
X109125000Y-81975000D01*
X55529000Y-75457386D02*
X55529000Y-69219686D01*
X102650000Y-83425000D02*
X102650000Y-83440571D01*
X114801000Y-75501793D02*
X115401793Y-75501793D01*
X115975000Y-76075000D02*
X115975000Y-77099207D01*
X115975000Y-77099207D02*
X112174207Y-80900000D01*
X68451793Y-59624000D02*
X73002793Y-55073000D01*
X96195000Y-94905000D02*
X108125000Y-82975000D01*
X105175000Y-80900000D02*
X102650000Y-83425000D01*
X109125000Y-81975000D02*
X110450000Y-81975000D01*
X57486614Y-77415000D02*
X55529000Y-75457386D01*
X104248207Y-64949000D02*
X114801000Y-75501793D01*
X89575000Y-94905000D02*
X96195000Y-94905000D01*
X58535000Y-77415000D02*
X57486614Y-77415000D01*
X91185571Y-94905000D02*
X89575000Y-94905000D01*
X112174207Y-80900000D02*
X105175000Y-80900000D01*
X55529000Y-69219686D02*
X65124686Y-59624000D01*
X73002793Y-55073000D02*
X88380728Y-55073000D01*
X115401793Y-75501793D02*
X115975000Y-76075000D01*
X65124686Y-59624000D02*
X68451793Y-59624000D01*
X102650000Y-83440571D02*
X91185571Y-94905000D01*
X88380728Y-55073000D02*
X98256728Y-64949000D01*
X98256728Y-64949000D02*
X104248207Y-64949000D01*
%TO.N,Net-(A1-GPIO21)*%
X102305000Y-28945000D02*
X101400000Y-29850000D01*
X108275000Y-28945000D02*
X102305000Y-28945000D01*
%TO.N,Net-(A1-GPIO22)*%
X95000000Y-29500000D02*
X90275000Y-29500000D01*
X90275000Y-29500000D02*
X84300000Y-35475000D01*
X84300000Y-35475000D02*
X84300000Y-41325000D01*
X56540000Y-90115000D02*
X58535000Y-90115000D01*
D27*
X84300000Y-41325000D02*
X79460450Y-41325000D01*
D28*
X51275000Y-84850000D02*
X56540000Y-90115000D01*
X79460450Y-41325000D02*
X51275000Y-69510450D01*
X51275000Y-69510450D02*
X51275000Y-84850000D01*
D27*
%TO.N,+24V*%
X135240000Y-90000000D02*
X135240000Y-78490000D01*
X135325000Y-89915000D02*
X135240000Y-90000000D01*
X135240000Y-78490000D02*
X125695000Y-68945000D01*
X125695000Y-68945000D02*
X104815000Y-89825000D01*
X118650000Y-68175000D02*
X106200000Y-55725000D01*
X118650000Y-68175000D02*
X126465000Y-68175000D01*
X126465000Y-68175000D02*
X125695000Y-68945000D01*
D28*
%TO.N,+5V*%
X81825657Y-74700657D02*
X81825657Y-71724343D01*
X87250000Y-87675000D02*
X87250000Y-87875000D01*
X100000000Y-83825000D02*
X91100000Y-83825000D01*
X91100000Y-83825000D02*
X87912500Y-87012500D01*
X114240000Y-58315000D02*
X116150000Y-60225000D01*
X95000000Y-32040000D02*
X107720000Y-32040000D01*
X114085000Y-31485000D02*
X114875000Y-32275000D01*
X59941000Y-113162081D02*
X59941000Y-114109000D01*
X87912500Y-87012500D02*
X87250000Y-87675000D01*
X74626000Y-69502686D02*
X74626000Y-98477081D01*
X81825657Y-71724343D02*
X78495314Y-68394000D01*
X74626000Y-98477081D02*
X59941000Y-113162081D01*
X59941000Y-114109000D02*
X58535000Y-115515000D01*
X82025000Y-74900000D02*
X81825657Y-74700657D01*
X107720000Y-32040000D02*
X108275000Y-31485000D01*
X114925000Y-42925000D02*
X114240000Y-43610000D01*
X78495314Y-68394000D02*
X75734686Y-68394000D01*
X114240000Y-56375000D02*
X114240000Y-58315000D01*
X75734686Y-68394000D02*
X74626000Y-69502686D01*
X108275000Y-31485000D02*
X114085000Y-31485000D01*
X114240000Y-43610000D02*
X114240000Y-56375000D01*
D27*
%TO.N,Net-(D2-K)*%
X110375000Y-50775000D02*
X110500000Y-50900000D01*
X96040000Y-55725000D02*
X100775000Y-50990000D01*
X100775000Y-50775000D02*
X110375000Y-50775000D01*
X100775000Y-50990000D02*
X100775000Y-50775000D01*
D28*
%TO.N,Net-(D1-A)*%
X124400000Y-56375000D02*
X118050000Y-62725000D01*
X118050000Y-62725000D02*
X117350000Y-62725000D01*
%TD*%
M02*
