%TF.GenerationSoftware,KiCad,Pcbnew,9.0.6*%
%TF.CreationDate,2026-09-01T17:38:18-07:00*%
%TF.ProjectId,juggling_machine_pcb,6a756767-6c69-46e6-975f-6d616368696e,rev?*%
%TF.SameCoordinates,Original*%
%TF.FileFunction,Copper,L2,Bot*%
%TF.FilePolarity,Positive*%
%FSLAX46Y46*%
G04 Gerber Fmt 4.6, Leading zero omitted, Abs format (unit mm)*
G04 Created by KiCad (PCBNEW 9.0.6) date 2026-09-01 17:38:18*
%MOMM*%
%LPD*%
G01*
G04 APERTURE LIST*
G04 Aperture macros list*
%AMRoundRect*
0 Rectangle with rounded corners*
0 $1 Rounding radius*
0 $2 $3 $4 $5 $6 $7 $8 $9 X,Y pos of 4 corners*
0 Add a 4 corners polygon primitive as box body*
4,1,4,$2,$3,$4,$5,$6,$7,$8,$9,$2,$3,0*
0 Add four circle primitives for the rounded corners*
1,1,$1+$1,$2,$3*
1,1,$1+$1,$4,$5*
1,1,$1+$1,$6,$7*
1,1,$1+$1,$8,$9*
0 Add four rect primitives between the rounded corners*
20,1,$1+$1,$2,$3,$4,$5,0*
20,1,$1+$1,$4,$5,$6,$7,0*
20,1,$1+$1,$6,$7,$8,$9,0*
20,1,$1+$1,$8,$9,$2,$3,0*%
%AMFreePoly0*
4,1,37,0.603843,0.796157,0.639018,0.796157,0.711114,0.766294,0.766294,0.711114,0.796157,0.639018,0.796157,0.603843,0.800000,0.600000,0.800000,-0.600000,0.796157,-0.603843,0.796157,-0.639018,0.766294,-0.711114,0.711114,-0.766294,0.639018,-0.796157,0.603843,-0.796157,0.600000,-0.800000,0.000000,-0.800000,0.000000,-0.796148,-0.078414,-0.796148,-0.232228,-0.765552,-0.377117,-0.705537,
-0.507515,-0.618408,-0.618408,-0.507515,-0.705537,-0.377117,-0.765552,-0.232228,-0.796148,-0.078414,-0.796148,0.078414,-0.765552,0.232228,-0.705537,0.377117,-0.618408,0.507515,-0.507515,0.618408,-0.377117,0.705537,-0.232228,0.765552,-0.078414,0.796148,0.000000,0.796148,0.000000,0.800000,0.600000,0.800000,0.603843,0.796157,0.603843,0.796157,$1*%
%AMFreePoly1*
4,1,37,0.000000,0.796148,0.078414,0.796148,0.232228,0.765552,0.377117,0.705537,0.507515,0.618408,0.618408,0.507515,0.705537,0.377117,0.765552,0.232228,0.796148,0.078414,0.796148,-0.078414,0.765552,-0.232228,0.705537,-0.377117,0.618408,-0.507515,0.507515,-0.618408,0.377117,-0.705537,0.232228,-0.765552,0.078414,-0.796148,0.000000,-0.796148,0.000000,-0.800000,-0.600000,-0.800000,
-0.603843,-0.796157,-0.639018,-0.796157,-0.711114,-0.766294,-0.766294,-0.711114,-0.796157,-0.639018,-0.796157,-0.603843,-0.800000,-0.600000,-0.800000,0.600000,-0.796157,0.603843,-0.796157,0.639018,-0.766294,0.711114,-0.711114,0.766294,-0.639018,0.796157,-0.603843,0.796157,-0.600000,0.800000,0.000000,0.800000,0.000000,0.796148,0.000000,0.796148,$1*%
G04 Aperture macros list end*
%TA.AperFunction,ComponentPad*%
%ADD10RoundRect,0.250000X1.050000X1.050000X-1.050000X1.050000X-1.050000X-1.050000X1.050000X-1.050000X0*%
%TD*%
%TA.AperFunction,ComponentPad*%
%ADD11C,2.600000*%
%TD*%
%TA.AperFunction,ComponentPad*%
%ADD12C,1.400000*%
%TD*%
%TA.AperFunction,ComponentPad*%
%ADD13R,1.700000X1.700000*%
%TD*%
%TA.AperFunction,ComponentPad*%
%ADD14C,1.700000*%
%TD*%
%TA.AperFunction,ComponentPad*%
%ADD15RoundRect,0.250001X-0.949999X0.949999X-0.949999X-0.949999X0.949999X-0.949999X0.949999X0.949999X0*%
%TD*%
%TA.AperFunction,ComponentPad*%
%ADD16C,2.400000*%
%TD*%
%TA.AperFunction,ComponentPad*%
%ADD17RoundRect,0.249999X-0.850001X-0.850001X0.850001X-0.850001X0.850001X0.850001X-0.850001X0.850001X0*%
%TD*%
%TA.AperFunction,ComponentPad*%
%ADD18C,2.200000*%
%TD*%
%TA.AperFunction,ComponentPad*%
%ADD19RoundRect,0.200000X0.600000X0.600000X-0.600000X0.600000X-0.600000X-0.600000X0.600000X-0.600000X0*%
%TD*%
%TA.AperFunction,ComponentPad*%
%ADD20C,1.600000*%
%TD*%
%TA.AperFunction,ComponentPad*%
%ADD21FreePoly0,180.000000*%
%TD*%
%TA.AperFunction,ComponentPad*%
%ADD22FreePoly1,180.000000*%
%TD*%
%TA.AperFunction,ComponentPad*%
%ADD23RoundRect,0.250000X1.050000X-1.050000X1.050000X1.050000X-1.050000X1.050000X-1.050000X-1.050000X0*%
%TD*%
%TA.AperFunction,ComponentPad*%
%ADD24RoundRect,0.250001X0.949999X0.949999X-0.949999X0.949999X-0.949999X-0.949999X0.949999X-0.949999X0*%
%TD*%
%TA.AperFunction,ComponentPad*%
%ADD25RoundRect,0.250000X-0.550000X-0.550000X0.550000X-0.550000X0.550000X0.550000X-0.550000X0.550000X0*%
%TD*%
%TA.AperFunction,ComponentPad*%
%ADD26RoundRect,0.250000X-1.050000X1.050000X-1.050000X-1.050000X1.050000X-1.050000X1.050000X1.050000X0*%
%TD*%
%TA.AperFunction,ViaPad*%
%ADD27C,0.600000*%
%TD*%
%TA.AperFunction,Conductor*%
%ADD28C,0.200000*%
%TD*%
%TA.AperFunction,Conductor*%
%ADD29C,1.000000*%
%TD*%
%TA.AperFunction,Conductor*%
%ADD30C,0.500000*%
%TD*%
G04 APERTURE END LIST*
D10*
%TO.P,J7,1,Pin_1*%
%TO.N,Net-(D2-K)*%
X79675000Y-33850000D03*
D11*
%TO.P,J7,2,Pin_2*%
%TO.N,GND*%
X74675000Y-33850000D03*
%TD*%
D12*
%TO.P,R4,1*%
%TO.N,+3V3*%
X113300000Y-83700000D03*
%TO.P,R4,2*%
%TO.N,DIAG0.2*%
X108220000Y-83700000D03*
%TD*%
%TO.P,R2,1*%
%TO.N,+3V3*%
X88040000Y-82900000D03*
%TO.P,R2,2*%
%TO.N,DIAG0.1*%
X82960000Y-82900000D03*
%TD*%
D13*
%TO.P,J6,1,Pin_1*%
%TO.N,Servo 2*%
X108275000Y-28945000D03*
D14*
%TO.P,J6,2,Pin_2*%
%TO.N,+5V*%
X108275000Y-31485000D03*
%TO.P,J6,3,Pin_3*%
%TO.N,GND*%
X108275000Y-34025000D03*
%TD*%
D12*
%TO.P,R1,1*%
%TO.N,+3V3*%
X91620000Y-83000000D03*
%TO.P,R1,2*%
%TO.N,DIAG1.1*%
X96700000Y-83000000D03*
%TD*%
D14*
%TO.P,U2,A1,A1*%
%TO.N,A2.2*%
X122550000Y-95430000D03*
%TO.P,U2,A2,A2*%
%TO.N,A1.2*%
X122550000Y-92890000D03*
%TO.P,U2,B1,B1*%
%TO.N,B2.2*%
X122550000Y-97970000D03*
%TO.P,U2,B2,B2*%
%TO.N,B1.2*%
X122550000Y-100510000D03*
%TO.P,U2,CLK,CLK*%
%TO.N,unconnected-(U2-PadCLK)*%
X109850000Y-100510000D03*
%TO.P,U2,CSN/CFG3,CSN/CFG3*%
%TO.N,CSN 2*%
X109850000Y-95430000D03*
%TO.P,U2,DIAG0,DIAG0*%
%TO.N,DIAG0.2*%
X112390000Y-87810000D03*
%TO.P,U2,DIAG1,DIAG1*%
%TO.N,DIAG1.2*%
X114930000Y-87810000D03*
%TO.P,U2,DIR,DIR*%
%TO.N,DIR 2*%
X109850000Y-105590000D03*
D13*
%TO.P,U2,EN,EN*%
%TO.N,EN 2*%
X109850000Y-87810000D03*
D14*
%TO.P,U2,GND1,GND*%
%TO.N,GND*%
X122550000Y-90350000D03*
%TO.P,U2,GND2,GND*%
X122550000Y-105590000D03*
%TO.P,U2,SCK/CFG2,SCK/CFG2*%
%TO.N,SCK*%
X109850000Y-92890000D03*
%TO.P,U2,SDI/CFG1,SDI/CFG1*%
%TO.N,MOSI*%
X109850000Y-90350000D03*
%TO.P,U2,SDO/CFG0,SDO/CFG0*%
%TO.N,MISO*%
X109850000Y-97970000D03*
%TO.P,U2,STEP,STEP*%
%TO.N,STEP 2*%
X109850000Y-103050000D03*
%TO.P,U2,VCC_IO,VCC_IO*%
%TO.N,+3V3*%
X122550000Y-103050000D03*
%TO.P,U2,VM,VM*%
%TO.N,+24V*%
X122550000Y-87810000D03*
%TD*%
D15*
%TO.P,J11,1,Pin_1*%
%TO.N,A2.2*%
X142000000Y-94000000D03*
D16*
%TO.P,J11,2,Pin_2*%
%TO.N,A1.2*%
X142000000Y-97500000D03*
%TO.P,J11,3,Pin_3*%
%TO.N,B2.2*%
X142000000Y-101000000D03*
%TO.P,J11,4,Pin_4*%
%TO.N,B1.2*%
X142000000Y-104500000D03*
%TD*%
D13*
%TO.P,J5,1,Pin_1*%
%TO.N,Servo 1*%
X95000000Y-29500000D03*
D14*
%TO.P,J5,2,Pin_2*%
%TO.N,+5V*%
X95000000Y-32040000D03*
%TO.P,J5,3,Pin_3*%
%TO.N,GND*%
X95000000Y-34580000D03*
%TD*%
D17*
%TO.P,D1,1,K*%
%TO.N,+5V*%
X114240000Y-56375000D03*
D18*
%TO.P,D1,2,A*%
%TO.N,Net-(D1-A)*%
X124400000Y-56375000D03*
%TD*%
D19*
%TO.P,A1,1,GPIO0*%
%TO.N,unconnected-(A1-GPIO0-Pad1)*%
X76315000Y-118055000D03*
D20*
%TO.P,A1,2,GPIO1*%
%TO.N,unconnected-(A1-GPIO1-Pad2)*%
X76315000Y-115515000D03*
D21*
%TO.P,A1,3,GND*%
%TO.N,GND*%
X76315000Y-112975000D03*
D20*
%TO.P,A1,4,GPIO2*%
%TO.N,unconnected-(A1-GPIO2-Pad4)*%
X76315000Y-110435000D03*
%TO.P,A1,5,GPIO3*%
%TO.N,unconnected-(A1-GPIO3-Pad5)*%
X76315000Y-107895000D03*
%TO.P,A1,6,GPIO4*%
%TO.N,DIAG0.2*%
X76315000Y-105355000D03*
%TO.P,A1,7,GPIO5*%
%TO.N,DIAG1.2*%
X76315000Y-102815000D03*
D21*
%TO.P,A1,8,GND*%
%TO.N,GND*%
X76315000Y-100275000D03*
D20*
%TO.P,A1,9,GPIO6*%
%TO.N,DIAG0.1*%
X76315000Y-97735000D03*
%TO.P,A1,10,GPIO7*%
%TO.N,DIAG1.1*%
X76315000Y-95195000D03*
%TO.P,A1,11,GPIO8*%
%TO.N,unconnected-(A1-GPIO8-Pad11)*%
X76315000Y-92655000D03*
%TO.P,A1,12,GPIO9*%
%TO.N,unconnected-(A1-GPIO9-Pad12)*%
X76315000Y-90115000D03*
D21*
%TO.P,A1,13,GND*%
%TO.N,GND*%
X76315000Y-87575000D03*
D20*
%TO.P,A1,14,GPIO10*%
%TO.N,STEP 1*%
X76315000Y-85035000D03*
%TO.P,A1,15,GPIO11*%
%TO.N,DIR 1*%
X76315000Y-82495000D03*
%TO.P,A1,16,GPIO12*%
%TO.N,unconnected-(A1-GPIO12-Pad16)*%
X76315000Y-79955000D03*
%TO.P,A1,17,GPIO13*%
%TO.N,CSN 2*%
X76315000Y-77415000D03*
D21*
%TO.P,A1,18,GND*%
%TO.N,GND*%
X76315000Y-74875000D03*
D20*
%TO.P,A1,19,GPIO14*%
%TO.N,DIR 2*%
X76315000Y-72335000D03*
%TO.P,A1,20,GPIO15*%
%TO.N,STEP 2*%
X76315000Y-69795000D03*
%TO.P,A1,21,GPIO16*%
%TO.N,MISO*%
X58535000Y-69795000D03*
%TO.P,A1,22,GPIO17*%
%TO.N,CSN 1*%
X58535000Y-72335000D03*
D22*
%TO.P,A1,23,GND*%
%TO.N,GND*%
X58535000Y-74875000D03*
D20*
%TO.P,A1,24,GPIO18*%
%TO.N,SCK*%
X58535000Y-77415000D03*
%TO.P,A1,25,GPIO19*%
%TO.N,MOSI*%
X58535000Y-79955000D03*
%TO.P,A1,26,GPIO20*%
%TO.N,EN 1*%
X58535000Y-82495000D03*
%TO.P,A1,27,GPIO21*%
%TO.N,Servo 2*%
X58535000Y-85035000D03*
D22*
%TO.P,A1,28,GND*%
%TO.N,GND*%
X58535000Y-87575000D03*
D20*
%TO.P,A1,29,GPIO22*%
%TO.N,Servo 1*%
X58535000Y-90115000D03*
%TO.P,A1,30,RUN*%
%TO.N,unconnected-(A1-RUN-Pad30)*%
X58535000Y-92655000D03*
%TO.P,A1,31,GPIO26_ADC0*%
%TO.N,unconnected-(A1-GPIO26_ADC0-Pad31)*%
X58535000Y-95195000D03*
%TO.P,A1,32,GPIO27_ADC1*%
%TO.N,unconnected-(A1-GPIO27_ADC1-Pad32)*%
X58535000Y-97735000D03*
D22*
%TO.P,A1,33,AGND*%
%TO.N,unconnected-(A1-AGND-Pad33)*%
X58535000Y-100275000D03*
D20*
%TO.P,A1,34,GPIO28_ADC2*%
%TO.N,unconnected-(A1-GPIO28_ADC2-Pad34)*%
X58535000Y-102815000D03*
%TO.P,A1,35,ADC_VREF*%
%TO.N,unconnected-(A1-ADC_VREF-Pad35)*%
X58535000Y-105355000D03*
%TO.P,A1,36,3V3*%
%TO.N,+3V3*%
X58535000Y-107895000D03*
%TO.P,A1,37,3V3_EN*%
%TO.N,unconnected-(A1-3V3_EN-Pad37)*%
X58535000Y-110435000D03*
D22*
%TO.P,A1,38,GND*%
%TO.N,GND*%
X58535000Y-112975000D03*
D20*
%TO.P,A1,39,VSYS*%
%TO.N,+5V*%
X58535000Y-115515000D03*
%TO.P,A1,40,VBUS*%
%TO.N,unconnected-(A1-VBUS-Pad40)*%
X58535000Y-118055000D03*
%TD*%
D17*
%TO.P,D2,1,K*%
%TO.N,Net-(D2-K)*%
X96040000Y-55725000D03*
D18*
%TO.P,D2,2,A*%
%TO.N,+24V*%
X106200000Y-55725000D03*
%TD*%
D12*
%TO.P,R3,1*%
%TO.N,+3V3*%
X117060000Y-83700000D03*
%TO.P,R3,2*%
%TO.N,DIAG1.2*%
X122140000Y-83700000D03*
%TD*%
D23*
%TO.P,J8,1,Pin_1*%
%TO.N,Net-(D1-A)*%
X88847500Y-67650000D03*
D11*
%TO.P,J8,2,Pin_2*%
%TO.N,GND*%
X88847500Y-62650000D03*
%TD*%
D24*
%TO.P,J10,1,Pin_1*%
%TO.N,A2.1*%
X131000000Y-116000000D03*
D16*
%TO.P,J10,2,Pin_2*%
%TO.N,A1.1*%
X127500000Y-116000000D03*
%TO.P,J10,3,Pin_3*%
%TO.N,B2.1*%
X124000000Y-116000000D03*
%TO.P,J10,4,Pin_4*%
%TO.N,B1.1*%
X120500000Y-116000000D03*
%TD*%
D25*
%TO.P,C1,1*%
%TO.N,+24V*%
X100717621Y-82500000D03*
D20*
%TO.P,C1,2*%
%TO.N,GND*%
X103217621Y-82500000D03*
%TD*%
D14*
%TO.P,U1,A1,A1*%
%TO.N,A1.1*%
X98550000Y-95130000D03*
%TO.P,U1,A2,A2*%
%TO.N,A2.1*%
X98550000Y-92590000D03*
%TO.P,U1,B1,B1*%
%TO.N,B1.1*%
X98550000Y-97670000D03*
%TO.P,U1,B2,B2*%
%TO.N,B2.1*%
X98550000Y-100210000D03*
%TO.P,U1,CLK,CLK*%
%TO.N,unconnected-(U1-PadCLK)*%
X85850000Y-100210000D03*
%TO.P,U1,CSN/CFG3,CSN/CFG3*%
%TO.N,CSN 1*%
X85850000Y-95130000D03*
%TO.P,U1,DIAG0,DIAG0*%
%TO.N,DIAG0.1*%
X88390000Y-87510000D03*
%TO.P,U1,DIAG1,DIAG1*%
%TO.N,DIAG1.1*%
X90930000Y-87510000D03*
%TO.P,U1,DIR,DIR*%
%TO.N,DIR 1*%
X85850000Y-105290000D03*
D13*
%TO.P,U1,EN,EN*%
%TO.N,EN 1*%
X85850000Y-87510000D03*
D14*
%TO.P,U1,GND1,GND*%
%TO.N,GND*%
X98550000Y-90050000D03*
%TO.P,U1,GND2,GND*%
X98550000Y-105290000D03*
%TO.P,U1,SCK/CFG2,SCK/CFG2*%
%TO.N,SCK*%
X85850000Y-92590000D03*
%TO.P,U1,SDI/CFG1,SDI/CFG1*%
%TO.N,MOSI*%
X85850000Y-90050000D03*
%TO.P,U1,SDO/CFG0,SDO/CFG0*%
%TO.N,MISO*%
X85850000Y-97670000D03*
%TO.P,U1,STEP,STEP*%
%TO.N,STEP 1*%
X85850000Y-102750000D03*
%TO.P,U1,VCC_IO,VCC_IO*%
%TO.N,+3V3*%
X98550000Y-102750000D03*
%TO.P,U1,VM,VM*%
%TO.N,+24V*%
X98550000Y-87510000D03*
%TD*%
D25*
%TO.P,C2,1*%
%TO.N,+24V*%
X126000000Y-82600000D03*
D20*
%TO.P,C2,2*%
%TO.N,GND*%
X128500000Y-82600000D03*
%TD*%
D26*
%TO.P,J9,1,Pin_1*%
%TO.N,+24V*%
X138825000Y-61350000D03*
D11*
%TO.P,J9,2,Pin_2*%
%TO.N,GND*%
X138825000Y-66350000D03*
%TD*%
D27*
%TO.N,DIR 2*%
X105800000Y-99563192D03*
%TO.N,+3V3*%
X97250000Y-113250000D03*
X93500000Y-92250000D03*
%TO.N,MOSI*%
X94500000Y-87750000D03*
X103250000Y-76000000D03*
X76250000Y-62250000D03*
X92875000Y-77875000D03*
%TO.N,MISO*%
X73750000Y-66350003D03*
X81722181Y-77472181D03*
X83000000Y-73000000D03*
X102500000Y-93250000D03*
%TO.N,CSN 1*%
X84250000Y-72750000D03*
X73750000Y-65250000D03*
X82500000Y-78250000D03*
%TO.N,STEP 2*%
X106000000Y-96250000D03*
%TO.N,DIR 1*%
X81250000Y-96750000D03*
%TO.N,SCK*%
X119000000Y-88250000D03*
X75500000Y-64000000D03*
X118500000Y-82250000D03*
X102500000Y-74750000D03*
X90319000Y-77319000D03*
%TO.N,EN 1*%
X79000000Y-60750000D03*
X92400134Y-92232695D03*
%TO.N,CSN 2*%
X103500000Y-88000000D03*
%TO.N,A1.1*%
X108500000Y-109750000D03*
X103750000Y-105393618D03*
%TO.N,B2.1*%
X106750000Y-112500000D03*
%TO.N,A2.1*%
X107478964Y-107957996D03*
X104500000Y-103250000D03*
%TO.N,+5V*%
X82750000Y-40500000D03*
%TO.N,DIAG1.1*%
X93997800Y-84105214D03*
X92500000Y-85250000D03*
%TO.N,DIAG1.2*%
X120375000Y-81625000D03*
%TD*%
D28*
%TO.N,DIR 2*%
X108350000Y-103021562D02*
X105800000Y-100471562D01*
X105800000Y-100471562D02*
X105800000Y-99563192D01*
X109850000Y-105590000D02*
X108350000Y-104090000D01*
X108350000Y-104090000D02*
X108350000Y-103021562D01*
%TO.N,GND*%
X119250000Y-102290000D02*
X119250000Y-93750000D01*
X122550000Y-90450000D02*
X122550000Y-90350000D01*
X122550000Y-105590000D02*
X119250000Y-102290000D01*
X119250000Y-93750000D02*
X122550000Y-90450000D01*
%TO.N,Servo 1*%
X89000000Y-29500000D02*
X95000000Y-29500000D01*
X65250000Y-57000000D02*
X78750000Y-57000000D01*
X78750000Y-57000000D02*
X85250000Y-50500000D01*
X54000000Y-68250000D02*
X65250000Y-57000000D01*
X54000000Y-85580000D02*
X54000000Y-68250000D01*
X58535000Y-90115000D02*
X54000000Y-85580000D01*
X85250000Y-33250000D02*
X89000000Y-29500000D01*
X85250000Y-50500000D02*
X85250000Y-33250000D01*
%TO.N,+3V3*%
X65680000Y-100750000D02*
X67250000Y-100750000D01*
X74626000Y-76966836D02*
X74626000Y-72543269D01*
X74500000Y-77026000D02*
X74566836Y-77026000D01*
X75734686Y-68394000D02*
X76895314Y-68394000D01*
X141250000Y-113500000D02*
X138750000Y-111000000D01*
X74500000Y-93500000D02*
X74500000Y-77026000D01*
X97250000Y-113250000D02*
X101250000Y-113250000D01*
X74566836Y-77026000D02*
X74626000Y-76966836D01*
X106750000Y-118750000D02*
X139000000Y-118750000D01*
X76895314Y-68394000D02*
X88040000Y-79538686D01*
X58535000Y-107895000D02*
X65680000Y-100750000D01*
X93500000Y-97700000D02*
X98550000Y-102750000D01*
X141250000Y-116500000D02*
X141250000Y-113500000D01*
X93500000Y-92250000D02*
X93500000Y-97700000D01*
X138750000Y-111000000D02*
X130500000Y-111000000D01*
X88040000Y-79538686D02*
X88040000Y-82900000D01*
X139000000Y-118750000D02*
X141250000Y-116500000D01*
X74500000Y-69628686D02*
X75734686Y-68394000D01*
X74626000Y-72543269D02*
X74500000Y-72417269D01*
X67250000Y-100750000D02*
X74500000Y-93500000D01*
X101250000Y-113250000D02*
X106750000Y-118750000D01*
X74500000Y-72417269D02*
X74500000Y-69628686D01*
X130500000Y-111000000D02*
X122550000Y-103050000D01*
%TO.N,MOSI*%
X94500000Y-82610580D02*
X95400000Y-83510580D01*
X107750000Y-88500000D02*
X106000000Y-86750000D01*
X94500000Y-79500000D02*
X94500000Y-82610580D01*
X92875000Y-77875000D02*
X94500000Y-79500000D01*
X86750000Y-71750000D02*
X92500000Y-77500000D01*
X76250000Y-62250000D02*
X77250000Y-62250000D01*
X77250000Y-62250000D02*
X86750000Y-71750000D01*
X109850000Y-90350000D02*
X107750000Y-90350000D01*
X106000000Y-86750000D02*
X106000000Y-78750000D01*
X106000000Y-78750000D02*
X103250000Y-76000000D01*
X94500000Y-85522793D02*
X94500000Y-87750000D01*
X107750000Y-90350000D02*
X107750000Y-88500000D01*
X95400000Y-83510580D02*
X95400000Y-84622793D01*
X95400000Y-84622793D02*
X94500000Y-85522793D01*
X92500000Y-77500000D02*
X92875000Y-77875000D01*
%TO.N,STEP 1*%
X78285000Y-85035000D02*
X79750000Y-86500000D01*
X79750000Y-86500000D02*
X79750000Y-96650000D01*
X76315000Y-85035000D02*
X78285000Y-85035000D01*
X79750000Y-96650000D02*
X85850000Y-102750000D01*
%TO.N,MISO*%
X105130000Y-93250000D02*
X109850000Y-97970000D01*
X81250000Y-77944362D02*
X81722181Y-77472181D01*
X80750000Y-70750000D02*
X80750000Y-70239950D01*
X102500000Y-93250000D02*
X105130000Y-93250000D01*
X85850000Y-97670000D02*
X81250000Y-93070000D01*
X81250000Y-93070000D02*
X81250000Y-77944362D01*
X80750000Y-70239950D02*
X76760050Y-66250000D01*
X73850003Y-66250000D02*
X73750000Y-66350003D01*
X76760050Y-66250000D02*
X73850003Y-66250000D01*
X83000000Y-73000000D02*
X80750000Y-70750000D01*
%TO.N,Servo 2*%
X66530000Y-57970000D02*
X74040050Y-57970000D01*
X79420000Y-57800000D02*
X108275000Y-28945000D01*
X58535000Y-85035000D02*
X54750000Y-81250000D01*
X74040050Y-57970000D02*
X74210051Y-57800000D01*
X54750000Y-81250000D02*
X54750000Y-69750000D01*
X74210051Y-57800000D02*
X79420000Y-57800000D01*
X54750000Y-69750000D02*
X66530000Y-57970000D01*
%TO.N,CSN 1*%
X85500000Y-83500000D02*
X83500000Y-85500000D01*
X76750000Y-65250000D02*
X84250000Y-72750000D01*
X85500000Y-80750000D02*
X85500000Y-83500000D01*
X83500000Y-79250000D02*
X84000000Y-79250000D01*
X83500000Y-92780000D02*
X85850000Y-95130000D01*
X73750000Y-65250000D02*
X76750000Y-65250000D01*
X84000000Y-79250000D02*
X85500000Y-80750000D01*
X83500000Y-85500000D02*
X83500000Y-92780000D01*
X82500000Y-78250000D02*
X83500000Y-79250000D01*
%TO.N,STEP 2*%
X106000000Y-96250000D02*
X106000000Y-98490399D01*
X106000000Y-98490399D02*
X106700000Y-99190399D01*
X106700000Y-99900000D02*
X109850000Y-103050000D01*
X106700000Y-99190399D02*
X106700000Y-99900000D01*
%TO.N,DIR 1*%
X78995000Y-82495000D02*
X80500000Y-84000000D01*
X80500000Y-84000000D02*
X80500000Y-96000000D01*
X76315000Y-82495000D02*
X78995000Y-82495000D01*
X80500000Y-96000000D02*
X81250000Y-96750000D01*
%TO.N,SCK*%
X111000000Y-74750000D02*
X102500000Y-74750000D01*
X114360000Y-92890000D02*
X118500000Y-88750000D01*
X93000000Y-87250000D02*
X90319000Y-84569000D01*
X89910000Y-92590000D02*
X93000000Y-89500000D01*
X118500000Y-82250000D02*
X111000000Y-74750000D01*
X90319000Y-77319000D02*
X89250000Y-76250000D01*
X90319000Y-84569000D02*
X90319000Y-77319000D01*
X118500000Y-88750000D02*
X119000000Y-88250000D01*
X93000000Y-89500000D02*
X93000000Y-87250000D01*
X77000000Y-64000000D02*
X75500000Y-64000000D01*
X85850000Y-92590000D02*
X89910000Y-92590000D01*
X89250000Y-76250000D02*
X77000000Y-64000000D01*
X109850000Y-92890000D02*
X114360000Y-92890000D01*
%TO.N,EN 1*%
X79000000Y-61250000D02*
X95500000Y-77750000D01*
X79000000Y-60750000D02*
X79000000Y-61250000D01*
X95399000Y-79859108D02*
X98001000Y-82461108D01*
X95500000Y-86039892D02*
X95500000Y-88977207D01*
X98001000Y-82461108D02*
X98001000Y-83538892D01*
X95500000Y-88977207D02*
X92400134Y-92077073D01*
X95500000Y-77750000D02*
X95399000Y-77851000D01*
X92400134Y-92077073D02*
X92400134Y-92232695D01*
X95399000Y-77851000D02*
X95399000Y-79859108D01*
X98001000Y-83538892D02*
X95500000Y-86039892D01*
%TO.N,CSN 2*%
X108930000Y-95430000D02*
X109850000Y-95430000D01*
X103500000Y-90000000D02*
X108930000Y-95430000D01*
X103500000Y-88000000D02*
X103500000Y-90000000D01*
D29*
%TO.N,A1.1*%
X106250000Y-109750000D02*
X103750000Y-107250000D01*
X103750000Y-107250000D02*
X103750000Y-105393618D01*
X108500000Y-109750000D02*
X106250000Y-109750000D01*
%TO.N,B2.1*%
X99752081Y-100210000D02*
X98550000Y-100210000D01*
X102000000Y-107750000D02*
X102000000Y-102457919D01*
X106750000Y-112500000D02*
X102000000Y-107750000D01*
X102000000Y-102457919D02*
X99752081Y-100210000D01*
%TO.N,B1.1*%
X107250000Y-104628680D02*
X107250000Y-103878680D01*
X107999000Y-105377680D02*
X107250000Y-104628680D01*
X107999000Y-106356710D02*
X107999000Y-105377680D01*
X107250000Y-103878680D02*
X101041320Y-97670000D01*
X117642290Y-116000000D02*
X107999000Y-106356710D01*
X120500000Y-116000000D02*
X117642290Y-116000000D01*
X101041320Y-97670000D02*
X98550000Y-97670000D01*
%TO.N,A2.1*%
X105250000Y-104000000D02*
X104500000Y-103250000D01*
X107478964Y-107957996D02*
X105250000Y-105729032D01*
X105250000Y-105729032D02*
X105250000Y-104000000D01*
D30*
%TO.N,+24V*%
X126000000Y-82600000D02*
X126000000Y-84360000D01*
X126000000Y-84360000D02*
X122550000Y-87810000D01*
X126000000Y-70250000D02*
X134900000Y-61350000D01*
X122500000Y-70500000D02*
X104250000Y-70500000D01*
X104250000Y-70500000D02*
X100750000Y-74000000D01*
X126000000Y-74000000D02*
X122500000Y-70500000D01*
X100750000Y-61175000D02*
X100750000Y-74000000D01*
X126000000Y-74000000D02*
X126000000Y-70250000D01*
X100750000Y-74000000D02*
X100750000Y-82467621D01*
X100750000Y-82467621D02*
X100717621Y-82500000D01*
X100717621Y-82500000D02*
X100717621Y-85342379D01*
X126000000Y-82600000D02*
X126000000Y-74000000D01*
X134900000Y-61350000D02*
X138825000Y-61350000D01*
X106200000Y-55725000D02*
X100750000Y-61175000D01*
X100717621Y-85342379D02*
X98550000Y-87510000D01*
D28*
%TO.N,+5V*%
X51500000Y-66500000D02*
X73500000Y-44500000D01*
X73500000Y-44500000D02*
X78750000Y-44500000D01*
X78750000Y-44500000D02*
X82750000Y-40500000D01*
X53250000Y-115500000D02*
X51500000Y-113750000D01*
X58520000Y-115500000D02*
X53250000Y-115500000D01*
X51500000Y-113750000D02*
X51500000Y-66500000D01*
X58535000Y-115515000D02*
X58520000Y-115500000D01*
D29*
%TO.N,A1.2*%
X122550000Y-92890000D02*
X129890000Y-92890000D01*
X129890000Y-92890000D02*
X134500000Y-97500000D01*
X134500000Y-97500000D02*
X142000000Y-97500000D01*
D28*
%TO.N,DIAG1.1*%
X92853014Y-85250000D02*
X93997800Y-84105214D01*
X92500000Y-85250000D02*
X92853014Y-85250000D01*
%TO.N,DIAG1.2*%
X120375000Y-83625000D02*
X120375000Y-81625000D01*
X114930000Y-87810000D02*
X116190000Y-87810000D01*
X116190000Y-87810000D02*
X120375000Y-83625000D01*
%TD*%
%TA.AperFunction,Conductor*%
%TO.N,GND*%
G36*
X74929191Y-94305398D02*
G01*
X74985124Y-94347270D01*
X75009541Y-94412734D01*
X74996342Y-94477874D01*
X74924434Y-94619000D01*
X74851446Y-94843631D01*
X74814500Y-95076902D01*
X74814500Y-95313097D01*
X74851446Y-95546368D01*
X74924433Y-95770996D01*
X75007368Y-95933763D01*
X75031657Y-95981433D01*
X75170483Y-96172510D01*
X75337490Y-96339517D01*
X75372127Y-96364683D01*
X75414792Y-96420013D01*
X75420771Y-96489626D01*
X75388165Y-96551421D01*
X75372130Y-96565315D01*
X75354365Y-96578222D01*
X75337488Y-96590484D01*
X75170485Y-96757487D01*
X75170485Y-96757488D01*
X75170483Y-96757490D01*
X75148792Y-96787345D01*
X75031657Y-96948566D01*
X74924433Y-97159003D01*
X74851446Y-97383631D01*
X74814500Y-97616902D01*
X74814500Y-97853097D01*
X74851446Y-98086368D01*
X74924433Y-98310996D01*
X74977778Y-98415690D01*
X75031657Y-98521433D01*
X75170483Y-98712510D01*
X75337490Y-98879517D01*
X75368900Y-98902338D01*
X75376571Y-98907911D01*
X75419237Y-98963241D01*
X75425239Y-99031687D01*
X76185589Y-99792037D01*
X76122007Y-99809075D01*
X76007993Y-99874901D01*
X75914901Y-99967993D01*
X75849075Y-100082007D01*
X75832037Y-100145589D01*
X75071863Y-99385415D01*
X75071862Y-99385415D01*
X75048446Y-99441947D01*
X75048431Y-99441987D01*
X75030457Y-99492939D01*
X75030455Y-99492946D01*
X75010000Y-99635219D01*
X75010000Y-100914785D01*
X75012893Y-100968762D01*
X75012893Y-100968764D01*
X75048438Y-101108030D01*
X75048442Y-101108043D01*
X75071862Y-101164584D01*
X75832037Y-100404410D01*
X75849075Y-100467993D01*
X75914901Y-100582007D01*
X76007993Y-100675099D01*
X76122007Y-100740925D01*
X76185589Y-100757962D01*
X75425238Y-101518311D01*
X75419075Y-101587170D01*
X75376574Y-101642085D01*
X75337493Y-101670480D01*
X75337487Y-101670485D01*
X75170485Y-101837487D01*
X75170485Y-101837488D01*
X75170483Y-101837490D01*
X75148792Y-101867345D01*
X75031657Y-102028566D01*
X74924433Y-102239003D01*
X74851446Y-102463631D01*
X74814500Y-102696902D01*
X74814500Y-102933097D01*
X74851446Y-103166368D01*
X74924433Y-103390996D01*
X75011890Y-103562639D01*
X75031657Y-103601433D01*
X75170483Y-103792510D01*
X75337490Y-103959517D01*
X75372127Y-103984683D01*
X75414792Y-104040013D01*
X75420771Y-104109626D01*
X75388165Y-104171421D01*
X75372130Y-104185315D01*
X75361391Y-104193118D01*
X75337488Y-104210484D01*
X75170485Y-104377487D01*
X75170485Y-104377488D01*
X75170483Y-104377490D01*
X75110862Y-104459550D01*
X75031657Y-104568566D01*
X74924433Y-104779003D01*
X74851446Y-105003631D01*
X74814500Y-105236902D01*
X74814500Y-105473097D01*
X74851446Y-105706368D01*
X74924433Y-105930996D01*
X75031657Y-106141433D01*
X75170483Y-106332510D01*
X75337490Y-106499517D01*
X75372127Y-106524683D01*
X75414792Y-106580013D01*
X75420771Y-106649626D01*
X75388165Y-106711421D01*
X75372130Y-106725315D01*
X75354365Y-106738222D01*
X75337488Y-106750484D01*
X75170485Y-106917487D01*
X75170485Y-106917488D01*
X75170483Y-106917490D01*
X75128100Y-106975825D01*
X75031657Y-107108566D01*
X74924433Y-107319003D01*
X74851446Y-107543631D01*
X74814500Y-107776902D01*
X74814500Y-108013097D01*
X74851446Y-108246368D01*
X74924433Y-108470996D01*
X75031657Y-108681433D01*
X75170483Y-108872510D01*
X75337490Y-109039517D01*
X75372127Y-109064683D01*
X75414792Y-109120013D01*
X75420771Y-109189626D01*
X75388165Y-109251421D01*
X75372130Y-109265315D01*
X75354365Y-109278222D01*
X75337488Y-109290484D01*
X75170485Y-109457487D01*
X75170485Y-109457488D01*
X75170483Y-109457490D01*
X75110862Y-109539550D01*
X75031657Y-109648566D01*
X74924433Y-109859003D01*
X74851446Y-110083631D01*
X74814500Y-110316902D01*
X74814500Y-110553097D01*
X74851446Y-110786368D01*
X74924433Y-111010996D01*
X75031657Y-111221433D01*
X75170483Y-111412510D01*
X75337490Y-111579517D01*
X75337493Y-111579519D01*
X75376571Y-111607911D01*
X75419237Y-111663241D01*
X75425239Y-111731687D01*
X76185589Y-112492037D01*
X76122007Y-112509075D01*
X76007993Y-112574901D01*
X75914901Y-112667993D01*
X75849075Y-112782007D01*
X75832037Y-112845589D01*
X75071863Y-112085415D01*
X75071862Y-112085415D01*
X75048446Y-112141947D01*
X75048431Y-112141987D01*
X75030457Y-112192939D01*
X75030455Y-112192946D01*
X75010000Y-112335219D01*
X75010000Y-113614785D01*
X75012893Y-113668762D01*
X75012893Y-113668764D01*
X75048438Y-113808030D01*
X75048442Y-113808043D01*
X75071862Y-113864584D01*
X75832037Y-113104410D01*
X75849075Y-113167993D01*
X75914901Y-113282007D01*
X76007993Y-113375099D01*
X76122007Y-113440925D01*
X76185589Y-113457962D01*
X75425238Y-114218311D01*
X75419075Y-114287170D01*
X75376574Y-114342085D01*
X75337493Y-114370480D01*
X75337487Y-114370485D01*
X75170485Y-114537487D01*
X75170485Y-114537488D01*
X75170483Y-114537490D01*
X75110862Y-114619550D01*
X75031657Y-114728566D01*
X74924433Y-114939003D01*
X74851446Y-115163631D01*
X74814500Y-115396902D01*
X74814500Y-115633097D01*
X74851446Y-115866368D01*
X74924433Y-116090996D01*
X75015508Y-116269739D01*
X75031657Y-116301433D01*
X75170483Y-116492510D01*
X75170485Y-116492512D01*
X75208314Y-116530341D01*
X75241799Y-116591664D01*
X75236815Y-116661356D01*
X75198670Y-116714387D01*
X75074743Y-116814742D01*
X74955614Y-116961853D01*
X74869680Y-117130512D01*
X74820687Y-117313356D01*
X74820687Y-117313357D01*
X74814500Y-117391973D01*
X74814500Y-118718010D01*
X74814501Y-118718029D01*
X74820687Y-118796643D01*
X74851747Y-118912562D01*
X74869680Y-118979488D01*
X74877434Y-118994706D01*
X74890330Y-119063375D01*
X74864053Y-119128115D01*
X74806947Y-119168372D01*
X74766949Y-119175000D01*
X71108444Y-119175000D01*
X71041405Y-119155315D01*
X70995650Y-119102511D01*
X70985706Y-119033353D01*
X71014731Y-118969797D01*
X71027905Y-118956716D01*
X71029785Y-118955108D01*
X71029792Y-118955104D01*
X71180104Y-118804792D01*
X71180106Y-118804788D01*
X71180109Y-118804786D01*
X71305048Y-118632820D01*
X71305047Y-118632820D01*
X71305051Y-118632816D01*
X71401557Y-118443412D01*
X71467246Y-118241243D01*
X71500500Y-118031287D01*
X71500500Y-117818713D01*
X71467246Y-117608757D01*
X71401557Y-117406588D01*
X71305051Y-117217184D01*
X71305049Y-117217181D01*
X71305048Y-117217179D01*
X71180109Y-117045213D01*
X71029786Y-116894890D01*
X70857820Y-116769951D01*
X70668414Y-116673444D01*
X70668413Y-116673443D01*
X70668412Y-116673443D01*
X70466243Y-116607754D01*
X70466241Y-116607753D01*
X70466240Y-116607753D01*
X70283701Y-116578842D01*
X70256287Y-116574500D01*
X70043713Y-116574500D01*
X70016299Y-116578842D01*
X69833760Y-116607753D01*
X69833757Y-116607754D01*
X69674442Y-116659519D01*
X69631585Y-116673444D01*
X69442179Y-116769951D01*
X69270213Y-116894890D01*
X69119890Y-117045213D01*
X68994951Y-117217179D01*
X68898444Y-117406585D01*
X68832753Y-117608760D01*
X68799500Y-117818713D01*
X68799500Y-118031286D01*
X68832753Y-118241239D01*
X68898444Y-118443414D01*
X68994951Y-118632820D01*
X69119890Y-118804786D01*
X69270208Y-118955104D01*
X69272095Y-118956716D01*
X69272611Y-118957507D01*
X69273653Y-118958549D01*
X69273434Y-118958767D01*
X69310284Y-119015227D01*
X69310777Y-119085095D01*
X69273418Y-119144138D01*
X69210069Y-119173610D01*
X69191556Y-119175000D01*
X65658444Y-119175000D01*
X65591405Y-119155315D01*
X65545650Y-119102511D01*
X65535706Y-119033353D01*
X65564731Y-118969797D01*
X65577905Y-118956716D01*
X65579785Y-118955108D01*
X65579792Y-118955104D01*
X65730104Y-118804792D01*
X65730106Y-118804788D01*
X65730109Y-118804786D01*
X65855048Y-118632820D01*
X65855047Y-118632820D01*
X65855051Y-118632816D01*
X65951557Y-118443412D01*
X66017246Y-118241243D01*
X66050500Y-118031287D01*
X66050500Y-117818713D01*
X66017246Y-117608757D01*
X65951557Y-117406588D01*
X65855051Y-117217184D01*
X65855049Y-117217181D01*
X65855048Y-117217179D01*
X65730109Y-117045213D01*
X65579786Y-116894890D01*
X65407820Y-116769951D01*
X65218414Y-116673444D01*
X65218413Y-116673443D01*
X65218412Y-116673443D01*
X65016243Y-116607754D01*
X65016241Y-116607753D01*
X65016240Y-116607753D01*
X64833701Y-116578842D01*
X64806287Y-116574500D01*
X64593713Y-116574500D01*
X64566299Y-116578842D01*
X64383760Y-116607753D01*
X64383757Y-116607754D01*
X64224442Y-116659519D01*
X64181585Y-116673444D01*
X63992179Y-116769951D01*
X63820213Y-116894890D01*
X63669890Y-117045213D01*
X63544951Y-117217179D01*
X63448444Y-117406585D01*
X63382753Y-117608760D01*
X63349500Y-117818713D01*
X63349500Y-118031286D01*
X63382753Y-118241239D01*
X63448444Y-118443414D01*
X63544951Y-118632820D01*
X63669890Y-118804786D01*
X63820208Y-118955104D01*
X63822095Y-118956716D01*
X63822611Y-118957507D01*
X63823653Y-118958549D01*
X63823434Y-118958767D01*
X63860284Y-119015227D01*
X63860777Y-119085095D01*
X63823418Y-119144138D01*
X63760069Y-119173610D01*
X63741556Y-119175000D01*
X59819356Y-119175000D01*
X59752317Y-119155315D01*
X59706562Y-119102511D01*
X59696618Y-119033353D01*
X59719038Y-118978114D01*
X59729787Y-118963319D01*
X59818343Y-118841433D01*
X59925568Y-118630992D01*
X59998553Y-118406368D01*
X60035500Y-118173097D01*
X60035500Y-117936902D01*
X59998553Y-117703631D01*
X59925566Y-117479003D01*
X59869002Y-117367991D01*
X59818343Y-117268567D01*
X59679517Y-117077490D01*
X59512510Y-116910483D01*
X59477872Y-116885317D01*
X59435207Y-116829989D01*
X59429228Y-116760375D01*
X59461833Y-116698580D01*
X59477873Y-116684682D01*
X59512510Y-116659517D01*
X59679517Y-116492510D01*
X59818343Y-116301433D01*
X59925568Y-116090992D01*
X59998553Y-115866368D01*
X60010392Y-115791618D01*
X60035500Y-115633097D01*
X60035500Y-115396902D01*
X59998553Y-115163631D01*
X59943716Y-114994863D01*
X59925568Y-114939008D01*
X59925566Y-114939005D01*
X59925566Y-114939003D01*
X59882208Y-114853909D01*
X59872494Y-114834844D01*
X59856007Y-114802486D01*
X63824500Y-114802486D01*
X63824500Y-114987513D01*
X63853445Y-115170265D01*
X63910619Y-115346232D01*
X63910620Y-115346235D01*
X63936440Y-115396908D01*
X63994622Y-115511096D01*
X64103379Y-115660787D01*
X64234213Y-115791621D01*
X64383904Y-115900378D01*
X64464763Y-115941577D01*
X64548764Y-115984379D01*
X64548767Y-115984380D01*
X64636750Y-116012967D01*
X64724736Y-116041555D01*
X64907486Y-116070500D01*
X64907487Y-116070500D01*
X65092513Y-116070500D01*
X65092514Y-116070500D01*
X65275264Y-116041555D01*
X65451235Y-115984379D01*
X65616096Y-115900378D01*
X65765787Y-115791621D01*
X65896621Y-115660787D01*
X66005378Y-115511096D01*
X66089379Y-115346235D01*
X66146555Y-115170264D01*
X66175500Y-114987514D01*
X66175500Y-114802486D01*
X68674500Y-114802486D01*
X68674500Y-114987513D01*
X68703445Y-115170265D01*
X68760619Y-115346232D01*
X68760620Y-115346235D01*
X68786440Y-115396908D01*
X68844622Y-115511096D01*
X68953379Y-115660787D01*
X69084213Y-115791621D01*
X69233904Y-115900378D01*
X69314763Y-115941577D01*
X69398764Y-115984379D01*
X69398767Y-115984380D01*
X69486750Y-116012967D01*
X69574736Y-116041555D01*
X69757486Y-116070500D01*
X69757487Y-116070500D01*
X69942513Y-116070500D01*
X69942514Y-116070500D01*
X70125264Y-116041555D01*
X70301235Y-115984379D01*
X70466096Y-115900378D01*
X70615787Y-115791621D01*
X70746621Y-115660787D01*
X70855378Y-115511096D01*
X70939379Y-115346235D01*
X70996555Y-115170264D01*
X71025500Y-114987514D01*
X71025500Y-114802486D01*
X70996555Y-114619736D01*
X70939379Y-114443765D01*
X70939379Y-114443764D01*
X70887570Y-114342085D01*
X70855378Y-114278904D01*
X70746621Y-114129213D01*
X70615787Y-113998379D01*
X70466096Y-113889622D01*
X70452982Y-113882940D01*
X70301235Y-113805620D01*
X70301232Y-113805619D01*
X70125265Y-113748445D01*
X70033889Y-113733972D01*
X69942514Y-113719500D01*
X69757486Y-113719500D01*
X69696569Y-113729148D01*
X69574734Y-113748445D01*
X69398767Y-113805619D01*
X69398764Y-113805620D01*
X69233903Y-113889622D01*
X69148499Y-113951672D01*
X69084213Y-113998379D01*
X69084211Y-113998381D01*
X69084210Y-113998381D01*
X68953381Y-114129210D01*
X68953381Y-114129211D01*
X68953379Y-114129213D01*
X68916586Y-114179854D01*
X68844622Y-114278903D01*
X68760620Y-114443764D01*
X68760619Y-114443767D01*
X68703445Y-114619734D01*
X68674500Y-114802486D01*
X66175500Y-114802486D01*
X66146555Y-114619736D01*
X66089379Y-114443765D01*
X66089379Y-114443764D01*
X66037570Y-114342085D01*
X66005378Y-114278904D01*
X65896621Y-114129213D01*
X65765787Y-113998379D01*
X65616096Y-113889622D01*
X65602982Y-113882940D01*
X65451235Y-113805620D01*
X65451232Y-113805619D01*
X65275265Y-113748445D01*
X65183889Y-113733972D01*
X65092514Y-113719500D01*
X64907486Y-113719500D01*
X64846569Y-113729148D01*
X64724734Y-113748445D01*
X64548767Y-113805619D01*
X64548764Y-113805620D01*
X64383903Y-113889622D01*
X64298499Y-113951672D01*
X64234213Y-113998379D01*
X64234211Y-113998381D01*
X64234210Y-113998381D01*
X64103381Y-114129210D01*
X64103381Y-114129211D01*
X64103379Y-114129213D01*
X64066586Y-114179854D01*
X63994622Y-114278903D01*
X63910620Y-114443764D01*
X63910619Y-114443767D01*
X63853445Y-114619734D01*
X63824500Y-114802486D01*
X59856007Y-114802486D01*
X59818343Y-114728567D01*
X59679517Y-114537490D01*
X59512510Y-114370483D01*
X59473424Y-114342085D01*
X59430761Y-114286756D01*
X59424759Y-114218310D01*
X58664410Y-113457962D01*
X58727993Y-113440925D01*
X58842007Y-113375099D01*
X58935099Y-113282007D01*
X59000925Y-113167993D01*
X59017962Y-113104410D01*
X59778135Y-113864584D01*
X59778136Y-113864584D01*
X59801552Y-113808053D01*
X59819544Y-113757053D01*
X59839999Y-113614780D01*
X59840000Y-113614779D01*
X59840000Y-112335224D01*
X59839999Y-112335204D01*
X59837106Y-112281237D01*
X59837106Y-112281235D01*
X59801561Y-112141969D01*
X59801559Y-112141962D01*
X59778135Y-112085414D01*
X59017962Y-112845588D01*
X59000925Y-112782007D01*
X58935099Y-112667993D01*
X58842007Y-112574901D01*
X58727993Y-112509075D01*
X58664410Y-112492037D01*
X59424760Y-111731686D01*
X59430922Y-111662831D01*
X59473424Y-111607914D01*
X59512510Y-111579517D01*
X59679517Y-111412510D01*
X59818343Y-111221433D01*
X59925568Y-111010992D01*
X59998553Y-110786368D01*
X60000075Y-110776759D01*
X60035500Y-110553097D01*
X60035500Y-110316902D01*
X59998553Y-110083631D01*
X59941932Y-109909372D01*
X59925568Y-109859008D01*
X59925566Y-109859005D01*
X59925566Y-109859003D01*
X59818342Y-109648566D01*
X59679517Y-109457490D01*
X59512510Y-109290483D01*
X59477872Y-109265317D01*
X59435207Y-109209989D01*
X59429228Y-109140375D01*
X59461833Y-109078580D01*
X59477873Y-109064682D01*
X59512510Y-109039517D01*
X59679517Y-108872510D01*
X59818343Y-108681433D01*
X59925568Y-108470992D01*
X59998553Y-108246368D01*
X60004181Y-108210832D01*
X60035500Y-108013097D01*
X60035500Y-107776910D01*
X60035499Y-107776902D01*
X60011155Y-107623205D01*
X60020109Y-107553915D01*
X60045944Y-107516132D01*
X65975259Y-101586819D01*
X66036582Y-101553334D01*
X66062940Y-101550500D01*
X67328844Y-101550500D01*
X67328845Y-101550499D01*
X67483497Y-101519737D01*
X67629179Y-101459394D01*
X67760289Y-101371789D01*
X69564018Y-99568060D01*
X69588970Y-99543108D01*
X72183511Y-96948566D01*
X74798178Y-94333897D01*
X74859499Y-94300414D01*
X74929191Y-94305398D01*
G37*
%TD.AperFunction*%
%TA.AperFunction,Conductor*%
G36*
X77969099Y-85855185D02*
G01*
X77989741Y-85871819D01*
X78913181Y-86795259D01*
X78946666Y-86856582D01*
X78949500Y-86882940D01*
X78949500Y-96728846D01*
X78980261Y-96883489D01*
X78980264Y-96883501D01*
X79040602Y-97029172D01*
X79040609Y-97029185D01*
X79128210Y-97160288D01*
X79128213Y-97160292D01*
X84295349Y-102327427D01*
X84328834Y-102388750D01*
X84330141Y-102434505D01*
X84300636Y-102620800D01*
X84299500Y-102627973D01*
X84299500Y-102872027D01*
X84337679Y-103113076D01*
X84413096Y-103345185D01*
X84507833Y-103531118D01*
X84523896Y-103562642D01*
X84667339Y-103760076D01*
X84667343Y-103760081D01*
X84839581Y-103932319D01*
X84873066Y-103993642D01*
X84868082Y-104063334D01*
X84839581Y-104107681D01*
X84667343Y-104279918D01*
X84667339Y-104279923D01*
X84523896Y-104477357D01*
X84413097Y-104694812D01*
X84337678Y-104926927D01*
X84307835Y-105115350D01*
X84299500Y-105167973D01*
X84299500Y-105412027D01*
X84308361Y-105467973D01*
X84336170Y-105643554D01*
X84337679Y-105653076D01*
X84413096Y-105885185D01*
X84517454Y-106090000D01*
X84523896Y-106102642D01*
X84667339Y-106300076D01*
X84667343Y-106300081D01*
X84839918Y-106472656D01*
X84839923Y-106472660D01*
X84987683Y-106580013D01*
X85037361Y-106616106D01*
X85254815Y-106726904D01*
X85486924Y-106802321D01*
X85727973Y-106840500D01*
X85727974Y-106840500D01*
X85972026Y-106840500D01*
X85972027Y-106840500D01*
X86213076Y-106802321D01*
X86445185Y-106726904D01*
X86662639Y-106616106D01*
X86860083Y-106472655D01*
X87032655Y-106300083D01*
X87176106Y-106102639D01*
X87286904Y-105885185D01*
X87362321Y-105653076D01*
X87400500Y-105412027D01*
X87400500Y-105167973D01*
X87362321Y-104926924D01*
X87286904Y-104694815D01*
X87176106Y-104477361D01*
X87103546Y-104377490D01*
X87032660Y-104279923D01*
X87032656Y-104279918D01*
X86860419Y-104107681D01*
X86826934Y-104046358D01*
X86831918Y-103976666D01*
X86860419Y-103932319D01*
X86932324Y-103860414D01*
X87032655Y-103760083D01*
X87176106Y-103562639D01*
X87286904Y-103345185D01*
X87362321Y-103113076D01*
X87400500Y-102872027D01*
X87400500Y-102627973D01*
X87362321Y-102386924D01*
X87286904Y-102154815D01*
X87176106Y-101937361D01*
X87107096Y-101842376D01*
X87032660Y-101739923D01*
X87032656Y-101739918D01*
X86860419Y-101567681D01*
X86826934Y-101506358D01*
X86831918Y-101436666D01*
X86860419Y-101392319D01*
X86938238Y-101314500D01*
X87032655Y-101220083D01*
X87176106Y-101022639D01*
X87286904Y-100805185D01*
X87362321Y-100573076D01*
X87400500Y-100332027D01*
X87400500Y-100087973D01*
X87362321Y-99846924D01*
X87286904Y-99614815D01*
X87176106Y-99397361D01*
X87101237Y-99294312D01*
X87032660Y-99199923D01*
X87032656Y-99199918D01*
X86860419Y-99027681D01*
X86826934Y-98966358D01*
X86831918Y-98896666D01*
X86860419Y-98852319D01*
X86930603Y-98782135D01*
X87032655Y-98680083D01*
X87176106Y-98482639D01*
X87286904Y-98265185D01*
X87362321Y-98033076D01*
X87400500Y-97792027D01*
X87400500Y-97547973D01*
X87362321Y-97306924D01*
X87286904Y-97074815D01*
X87176106Y-96857361D01*
X87103546Y-96757490D01*
X87032660Y-96659923D01*
X87032656Y-96659918D01*
X86860419Y-96487681D01*
X86826934Y-96426358D01*
X86831918Y-96356666D01*
X86860419Y-96312319D01*
X86930099Y-96242639D01*
X87032655Y-96140083D01*
X87176106Y-95942639D01*
X87286904Y-95725185D01*
X87362321Y-95493076D01*
X87400500Y-95252027D01*
X87400500Y-95007973D01*
X87362321Y-94766924D01*
X87286904Y-94534815D01*
X87176106Y-94317361D01*
X87125237Y-94247345D01*
X87032660Y-94119923D01*
X87032656Y-94119918D01*
X86860419Y-93947681D01*
X86826934Y-93886358D01*
X86831918Y-93816666D01*
X86860419Y-93772319D01*
X86942239Y-93690499D01*
X87032655Y-93600083D01*
X87096804Y-93511789D01*
X87147789Y-93441615D01*
X87203118Y-93398949D01*
X87248107Y-93390500D01*
X89988844Y-93390500D01*
X89988845Y-93390499D01*
X90143497Y-93359737D01*
X90289179Y-93299394D01*
X90420289Y-93211789D01*
X91219205Y-92412872D01*
X91280526Y-92379389D01*
X91350217Y-92384373D01*
X91406151Y-92426244D01*
X91428501Y-92476362D01*
X91438081Y-92524525D01*
X91438084Y-92524534D01*
X91513498Y-92706602D01*
X91513505Y-92706615D01*
X91622994Y-92870476D01*
X91622997Y-92870480D01*
X91762348Y-93009831D01*
X91762352Y-93009834D01*
X91926213Y-93119323D01*
X91926226Y-93119330D01*
X92108294Y-93194744D01*
X92108299Y-93194746D01*
X92108303Y-93194746D01*
X92108304Y-93194747D01*
X92301590Y-93233195D01*
X92301593Y-93233195D01*
X92498677Y-93233195D01*
X92498678Y-93233194D01*
X92520001Y-93228953D01*
X92551309Y-93222726D01*
X92620900Y-93228953D01*
X92676077Y-93271816D01*
X92699322Y-93337706D01*
X92699500Y-93344343D01*
X92699500Y-97778846D01*
X92730261Y-97933489D01*
X92730264Y-97933501D01*
X92790602Y-98079172D01*
X92790609Y-98079185D01*
X92878210Y-98210288D01*
X92878213Y-98210292D01*
X96995349Y-102327427D01*
X97028834Y-102388750D01*
X97030141Y-102434505D01*
X97000636Y-102620800D01*
X96999500Y-102627973D01*
X96999500Y-102872027D01*
X97037679Y-103113076D01*
X97113096Y-103345185D01*
X97207833Y-103531118D01*
X97223896Y-103562642D01*
X97367339Y-103760076D01*
X97367343Y-103760081D01*
X97539918Y-103932656D01*
X97539923Y-103932660D01*
X97736688Y-104075618D01*
X97779354Y-104130948D01*
X97785380Y-104171826D01*
X98420591Y-104807037D01*
X98357007Y-104824075D01*
X98242993Y-104889901D01*
X98149901Y-104982993D01*
X98084075Y-105097007D01*
X98067037Y-105160591D01*
X97434728Y-104528282D01*
X97434727Y-104528282D01*
X97395380Y-104582439D01*
X97298904Y-104771782D01*
X97233242Y-104973869D01*
X97233242Y-104973872D01*
X97200000Y-105183753D01*
X97200000Y-105396246D01*
X97233242Y-105606127D01*
X97233242Y-105606130D01*
X97298904Y-105808217D01*
X97395375Y-105997550D01*
X97434728Y-106051716D01*
X98067037Y-105419408D01*
X98084075Y-105482993D01*
X98149901Y-105597007D01*
X98242993Y-105690099D01*
X98357007Y-105755925D01*
X98420590Y-105772962D01*
X97788282Y-106405269D01*
X97788282Y-106405270D01*
X97842449Y-106444624D01*
X98031782Y-106541095D01*
X98233870Y-106606757D01*
X98443754Y-106640000D01*
X98656246Y-106640000D01*
X98866127Y-106606757D01*
X98866130Y-106606757D01*
X99068217Y-106541095D01*
X99257554Y-106444622D01*
X99311716Y-106405270D01*
X99311717Y-106405270D01*
X98679408Y-105772962D01*
X98742993Y-105755925D01*
X98857007Y-105690099D01*
X98950099Y-105597007D01*
X99015925Y-105482993D01*
X99032962Y-105419408D01*
X99665270Y-106051717D01*
X99665270Y-106051716D01*
X99704622Y-105997554D01*
X99801095Y-105808217D01*
X99866757Y-105606130D01*
X99866757Y-105606127D01*
X99900000Y-105396246D01*
X99900000Y-105183753D01*
X99866757Y-104973872D01*
X99866757Y-104973869D01*
X99801095Y-104771782D01*
X99704624Y-104582449D01*
X99665270Y-104528282D01*
X99665269Y-104528282D01*
X99032962Y-105160590D01*
X99015925Y-105097007D01*
X98950099Y-104982993D01*
X98857007Y-104889901D01*
X98742993Y-104824075D01*
X98679409Y-104807037D01*
X99315714Y-104170730D01*
X99326940Y-104117289D01*
X99363306Y-104075621D01*
X99560083Y-103932655D01*
X99732655Y-103760083D01*
X99876106Y-103562639D01*
X99986904Y-103345185D01*
X100062321Y-103113076D01*
X100100500Y-102872027D01*
X100100500Y-102627973D01*
X100090232Y-102563146D01*
X100099186Y-102493855D01*
X100144182Y-102440403D01*
X100210933Y-102419763D01*
X100278247Y-102438487D01*
X100300386Y-102456069D01*
X100763181Y-102918863D01*
X100796666Y-102980186D01*
X100799500Y-103006544D01*
X100799500Y-107844486D01*
X100829059Y-108031118D01*
X100887454Y-108210836D01*
X100905559Y-108246368D01*
X100973240Y-108379199D01*
X101084310Y-108532074D01*
X105967926Y-113415690D01*
X106120801Y-113526760D01*
X106160913Y-113547198D01*
X106289163Y-113612545D01*
X106289165Y-113612545D01*
X106289168Y-113612547D01*
X106468882Y-113670940D01*
X106506209Y-113676851D01*
X106655514Y-113700499D01*
X106655518Y-113700499D01*
X106844486Y-113700499D01*
X106948168Y-113684077D01*
X107031118Y-113670940D01*
X107210832Y-113612547D01*
X107379199Y-113526760D01*
X107532073Y-113415690D01*
X107665690Y-113282073D01*
X107776760Y-113129199D01*
X107862547Y-112960832D01*
X107920940Y-112781118D01*
X107934077Y-112698168D01*
X107950499Y-112594486D01*
X107950499Y-112405513D01*
X107925789Y-112249500D01*
X107920940Y-112218882D01*
X107862547Y-112039168D01*
X107862545Y-112039165D01*
X107862545Y-112039163D01*
X107776759Y-111870800D01*
X107665690Y-111717926D01*
X107109945Y-111162181D01*
X107076460Y-111100858D01*
X107081444Y-111031166D01*
X107123316Y-110975233D01*
X107188780Y-110950816D01*
X107197626Y-110950500D01*
X108594486Y-110950500D01*
X108781118Y-110920940D01*
X108960832Y-110862547D01*
X109129199Y-110776760D01*
X109282073Y-110665690D01*
X109415690Y-110532073D01*
X109526760Y-110379199D01*
X109612547Y-110210832D01*
X109670940Y-110031118D01*
X109674531Y-110008441D01*
X109704458Y-109945309D01*
X109763768Y-109908376D01*
X109833631Y-109909372D01*
X109884685Y-109940158D01*
X116726600Y-116782073D01*
X116860217Y-116915690D01*
X117013091Y-117026760D01*
X117092637Y-117067290D01*
X117181453Y-117112545D01*
X117181455Y-117112545D01*
X117181458Y-117112547D01*
X117277787Y-117143846D01*
X117361171Y-117170940D01*
X117547804Y-117200500D01*
X117547809Y-117200500D01*
X118964498Y-117200500D01*
X119031537Y-117220185D01*
X119062871Y-117249012D01*
X119068062Y-117255776D01*
X119068067Y-117255781D01*
X119068070Y-117255785D01*
X119244218Y-117431933D01*
X119244225Y-117431939D01*
X119441873Y-117583599D01*
X119657623Y-117708162D01*
X119657625Y-117708163D01*
X119657627Y-117708164D01*
X119664326Y-117710938D01*
X119718728Y-117754779D01*
X119740794Y-117821073D01*
X119723515Y-117888772D01*
X119672379Y-117936383D01*
X119616873Y-117949500D01*
X107132940Y-117949500D01*
X107065901Y-117929815D01*
X107045259Y-117913181D01*
X101760292Y-112628213D01*
X101760288Y-112628210D01*
X101629185Y-112540609D01*
X101629172Y-112540602D01*
X101483501Y-112480264D01*
X101483489Y-112480261D01*
X101328845Y-112449500D01*
X101328842Y-112449500D01*
X97890435Y-112449500D01*
X97823396Y-112429815D01*
X97821544Y-112428602D01*
X97723911Y-112363366D01*
X97541839Y-112287950D01*
X97541829Y-112287947D01*
X97348543Y-112249500D01*
X97348541Y-112249500D01*
X97151459Y-112249500D01*
X97151457Y-112249500D01*
X96958170Y-112287947D01*
X96958160Y-112287950D01*
X96776092Y-112363364D01*
X96776079Y-112363371D01*
X96612218Y-112472860D01*
X96612214Y-112472863D01*
X96472863Y-112612214D01*
X96472860Y-112612218D01*
X96363371Y-112776079D01*
X96363364Y-112776092D01*
X96287950Y-112958160D01*
X96287947Y-112958170D01*
X96249500Y-113151456D01*
X96249500Y-113151459D01*
X96249500Y-113348541D01*
X96249500Y-113348543D01*
X96249499Y-113348543D01*
X96287947Y-113541829D01*
X96287950Y-113541839D01*
X96363364Y-113723907D01*
X96363371Y-113723920D01*
X96472860Y-113887781D01*
X96472863Y-113887785D01*
X96612214Y-114027136D01*
X96612218Y-114027139D01*
X96776079Y-114136628D01*
X96776092Y-114136635D01*
X96920616Y-114196498D01*
X96958165Y-114212051D01*
X96958169Y-114212051D01*
X96958170Y-114212052D01*
X97151456Y-114250500D01*
X97151459Y-114250500D01*
X97348543Y-114250500D01*
X97510369Y-114218310D01*
X97541835Y-114212051D01*
X97723914Y-114136632D01*
X97821544Y-114071398D01*
X97888222Y-114050520D01*
X97890435Y-114050500D01*
X100867060Y-114050500D01*
X100934099Y-114070185D01*
X100954741Y-114086819D01*
X105831241Y-118963319D01*
X105864726Y-119024642D01*
X105859742Y-119094334D01*
X105817870Y-119150267D01*
X105752406Y-119174684D01*
X105743560Y-119175000D01*
X77863051Y-119175000D01*
X77796012Y-119155315D01*
X77750257Y-119102511D01*
X77740313Y-119033353D01*
X77752566Y-118994706D01*
X77760320Y-118979488D01*
X77809312Y-118796645D01*
X77815500Y-118718021D01*
X77815499Y-117391980D01*
X77809312Y-117313355D01*
X77760320Y-117130512D01*
X77699065Y-117010292D01*
X77674385Y-116961853D01*
X77637000Y-116915687D01*
X77555257Y-116814743D01*
X77464652Y-116741372D01*
X77431330Y-116714388D01*
X77391618Y-116656900D01*
X77389291Y-116587069D01*
X77421685Y-116530341D01*
X77459517Y-116492510D01*
X77598343Y-116301433D01*
X77705568Y-116090992D01*
X77778553Y-115866368D01*
X77790392Y-115791618D01*
X77815500Y-115633097D01*
X77815500Y-115396902D01*
X77778553Y-115163631D01*
X77723716Y-114994863D01*
X77705568Y-114939008D01*
X77705566Y-114939005D01*
X77705566Y-114939003D01*
X77649002Y-114827991D01*
X77598343Y-114728567D01*
X77459517Y-114537490D01*
X77292510Y-114370483D01*
X77101433Y-114231657D01*
X77101432Y-114231656D01*
X77101426Y-114231652D01*
X77097281Y-114229112D01*
X77098408Y-114227272D01*
X77054334Y-114184834D01*
X77038194Y-114116854D01*
X77038620Y-114111206D01*
X77043912Y-114057464D01*
X76444410Y-113457962D01*
X76507993Y-113440925D01*
X76622007Y-113375099D01*
X76715099Y-113282007D01*
X76780925Y-113167993D01*
X76797962Y-113104410D01*
X77397465Y-113703913D01*
X77443837Y-113634515D01*
X77443838Y-113634511D01*
X77490509Y-113547198D01*
X77550814Y-113401612D01*
X77579555Y-113306864D01*
X77610298Y-113152302D01*
X77610298Y-113152299D01*
X77620000Y-113053789D01*
X77620000Y-112896210D01*
X77610298Y-112797700D01*
X77610298Y-112797697D01*
X77579555Y-112643135D01*
X77550814Y-112548387D01*
X77490509Y-112402801D01*
X77443844Y-112315498D01*
X77443838Y-112315488D01*
X77397465Y-112246085D01*
X76797962Y-112845588D01*
X76780925Y-112782007D01*
X76715099Y-112667993D01*
X76622007Y-112574901D01*
X76507993Y-112509075D01*
X76444410Y-112492037D01*
X77043912Y-111892534D01*
X77038619Y-111838794D01*
X77051638Y-111770148D01*
X77097695Y-111721553D01*
X77097285Y-111720884D01*
X77101418Y-111718350D01*
X77101433Y-111718343D01*
X77292510Y-111579517D01*
X77459517Y-111412510D01*
X77598343Y-111221433D01*
X77705568Y-111010992D01*
X77778553Y-110786368D01*
X77780075Y-110776759D01*
X77815500Y-110553097D01*
X77815500Y-110316902D01*
X77778553Y-110083631D01*
X77721932Y-109909372D01*
X77705568Y-109859008D01*
X77705566Y-109859005D01*
X77705566Y-109859003D01*
X77598342Y-109648566D01*
X77459517Y-109457490D01*
X77292510Y-109290483D01*
X77257872Y-109265317D01*
X77215207Y-109209989D01*
X77209228Y-109140375D01*
X77241833Y-109078580D01*
X77257873Y-109064682D01*
X77292510Y-109039517D01*
X77459517Y-108872510D01*
X77598343Y-108681433D01*
X77705568Y-108470992D01*
X77778553Y-108246368D01*
X77784181Y-108210832D01*
X77815500Y-108013097D01*
X77815500Y-107776902D01*
X77778553Y-107543631D01*
X77705566Y-107319003D01*
X77631678Y-107173991D01*
X77598343Y-107108567D01*
X77459517Y-106917490D01*
X77292510Y-106750483D01*
X77257872Y-106725317D01*
X77215207Y-106669989D01*
X77209228Y-106600375D01*
X77241833Y-106538580D01*
X77257873Y-106524682D01*
X77292510Y-106499517D01*
X77459517Y-106332510D01*
X77598343Y-106141433D01*
X77701630Y-105938719D01*
X77705566Y-105930996D01*
X77705566Y-105930995D01*
X77705568Y-105930992D01*
X77778553Y-105706368D01*
X77794429Y-105606130D01*
X77815500Y-105473097D01*
X77815500Y-105236902D01*
X77778553Y-105003631D01*
X77720211Y-104824075D01*
X77705568Y-104779008D01*
X77705566Y-104779005D01*
X77705566Y-104779003D01*
X77626872Y-104624558D01*
X77598343Y-104568567D01*
X77459517Y-104377490D01*
X77292510Y-104210483D01*
X77257872Y-104185317D01*
X77215207Y-104129989D01*
X77209228Y-104060375D01*
X77241833Y-103998580D01*
X77257873Y-103984682D01*
X77268906Y-103976666D01*
X77292510Y-103959517D01*
X77459517Y-103792510D01*
X77598343Y-103601433D01*
X77705568Y-103390992D01*
X77778553Y-103166368D01*
X77786994Y-103113072D01*
X77815500Y-102933097D01*
X77815500Y-102696902D01*
X77778553Y-102463631D01*
X77724618Y-102297637D01*
X77705568Y-102239008D01*
X77705566Y-102239005D01*
X77705566Y-102239003D01*
X77639651Y-102109639D01*
X77598343Y-102028567D01*
X77459517Y-101837490D01*
X77292510Y-101670483D01*
X77101433Y-101531657D01*
X77101432Y-101531656D01*
X77101426Y-101531652D01*
X77097281Y-101529112D01*
X77098408Y-101527272D01*
X77054334Y-101484834D01*
X77038194Y-101416854D01*
X77038620Y-101411206D01*
X77043912Y-101357464D01*
X76444410Y-100757962D01*
X76507993Y-100740925D01*
X76622007Y-100675099D01*
X76715099Y-100582007D01*
X76780925Y-100467993D01*
X76797962Y-100404410D01*
X77397465Y-101003913D01*
X77443837Y-100934515D01*
X77443838Y-100934511D01*
X77490509Y-100847198D01*
X77550814Y-100701612D01*
X77579555Y-100606864D01*
X77610298Y-100452302D01*
X77610298Y-100452299D01*
X77620000Y-100353789D01*
X77620000Y-100196210D01*
X77610298Y-100097700D01*
X77610298Y-100097697D01*
X77579555Y-99943135D01*
X77550814Y-99848387D01*
X77490509Y-99702801D01*
X77443844Y-99615498D01*
X77443838Y-99615488D01*
X77397465Y-99546085D01*
X76797962Y-100145588D01*
X76780925Y-100082007D01*
X76715099Y-99967993D01*
X76622007Y-99874901D01*
X76507993Y-99809075D01*
X76444410Y-99792037D01*
X77043912Y-99192534D01*
X77038619Y-99138794D01*
X77051638Y-99070148D01*
X77097695Y-99021553D01*
X77097285Y-99020884D01*
X77101418Y-99018350D01*
X77101433Y-99018343D01*
X77292510Y-98879517D01*
X77459517Y-98712510D01*
X77598343Y-98521433D01*
X77705568Y-98310992D01*
X77778553Y-98086368D01*
X77802765Y-97933501D01*
X77815500Y-97853097D01*
X77815500Y-97616902D01*
X77778553Y-97383631D01*
X77705566Y-97159003D01*
X77604129Y-96959923D01*
X77598343Y-96948567D01*
X77459517Y-96757490D01*
X77292510Y-96590483D01*
X77257872Y-96565317D01*
X77215207Y-96509989D01*
X77209228Y-96440375D01*
X77241833Y-96378580D01*
X77257873Y-96364682D01*
X77268906Y-96356666D01*
X77292510Y-96339517D01*
X77459517Y-96172510D01*
X77598343Y-95981433D01*
X77705568Y-95770992D01*
X77778553Y-95546368D01*
X77786994Y-95493072D01*
X77815500Y-95313097D01*
X77815500Y-95076902D01*
X77778553Y-94843631D01*
X77705566Y-94619003D01*
X77623646Y-94458227D01*
X77598343Y-94408567D01*
X77459517Y-94217490D01*
X77292510Y-94050483D01*
X77257872Y-94025317D01*
X77215207Y-93969989D01*
X77209228Y-93900375D01*
X77241833Y-93838580D01*
X77257873Y-93824682D01*
X77268906Y-93816666D01*
X77292510Y-93799517D01*
X77459517Y-93632510D01*
X77598343Y-93441433D01*
X77705568Y-93230992D01*
X77778553Y-93006368D01*
X77786188Y-92958165D01*
X77815500Y-92773097D01*
X77815500Y-92536902D01*
X77778553Y-92303631D01*
X77715502Y-92109582D01*
X77705568Y-92079008D01*
X77705566Y-92079005D01*
X77705566Y-92079003D01*
X77604129Y-91879923D01*
X77598343Y-91868567D01*
X77459517Y-91677490D01*
X77292510Y-91510483D01*
X77257872Y-91485317D01*
X77215207Y-91429989D01*
X77209228Y-91360375D01*
X77241833Y-91298580D01*
X77257873Y-91284682D01*
X77268906Y-91276666D01*
X77292510Y-91259517D01*
X77459517Y-91092510D01*
X77598343Y-90901433D01*
X77705568Y-90690992D01*
X77778553Y-90466368D01*
X77784496Y-90428846D01*
X77815500Y-90233097D01*
X77815500Y-89996902D01*
X77778553Y-89763631D01*
X77720211Y-89584075D01*
X77705568Y-89539008D01*
X77705566Y-89539005D01*
X77705566Y-89539003D01*
X77637643Y-89405698D01*
X77598343Y-89328567D01*
X77459517Y-89137490D01*
X77292510Y-88970483D01*
X77101433Y-88831657D01*
X77101432Y-88831656D01*
X77101426Y-88831652D01*
X77097281Y-88829112D01*
X77098408Y-88827272D01*
X77054334Y-88784834D01*
X77038194Y-88716854D01*
X77038620Y-88711206D01*
X77043912Y-88657464D01*
X76444410Y-88057962D01*
X76507993Y-88040925D01*
X76622007Y-87975099D01*
X76715099Y-87882007D01*
X76780925Y-87767993D01*
X76797962Y-87704410D01*
X77397465Y-88303913D01*
X77443837Y-88234515D01*
X77443838Y-88234511D01*
X77490509Y-88147198D01*
X77550814Y-88001612D01*
X77579555Y-87906864D01*
X77610298Y-87752302D01*
X77610298Y-87752299D01*
X77620000Y-87653789D01*
X77620000Y-87496210D01*
X77610298Y-87397700D01*
X77610298Y-87397697D01*
X77579555Y-87243135D01*
X77550814Y-87148387D01*
X77490509Y-87002801D01*
X77443844Y-86915498D01*
X77443838Y-86915488D01*
X77397465Y-86846085D01*
X76797962Y-87445588D01*
X76780925Y-87382007D01*
X76715099Y-87267993D01*
X76622007Y-87174901D01*
X76507993Y-87109075D01*
X76444408Y-87092037D01*
X77043912Y-86492534D01*
X77038619Y-86438794D01*
X77051638Y-86370148D01*
X77097695Y-86321553D01*
X77097285Y-86320884D01*
X77101418Y-86318350D01*
X77101433Y-86318343D01*
X77292510Y-86179517D01*
X77459517Y-86012510D01*
X77550986Y-85886613D01*
X77606316Y-85843949D01*
X77651304Y-85835500D01*
X77902060Y-85835500D01*
X77969099Y-85855185D01*
G37*
%TD.AperFunction*%
%TA.AperFunction,Conductor*%
G36*
X144413039Y-25520185D02*
G01*
X144458794Y-25572989D01*
X144470000Y-25624500D01*
X144470000Y-119051000D01*
X144450315Y-119118039D01*
X144397511Y-119163794D01*
X144346000Y-119175000D01*
X140006440Y-119175000D01*
X139939401Y-119155315D01*
X139893646Y-119102511D01*
X139883702Y-119033353D01*
X139912727Y-118969797D01*
X139918759Y-118963319D01*
X141871786Y-117010292D01*
X141871789Y-117010289D01*
X141959394Y-116879179D01*
X142019738Y-116733497D01*
X142050500Y-116578842D01*
X142050500Y-116421157D01*
X142050500Y-113421158D01*
X142050500Y-113421155D01*
X142050499Y-113421153D01*
X142019738Y-113266510D01*
X142019737Y-113266503D01*
X142019735Y-113266498D01*
X141959397Y-113120827D01*
X141959390Y-113120814D01*
X141871790Y-112989712D01*
X141840238Y-112958160D01*
X141760289Y-112878211D01*
X140544909Y-111662831D01*
X139260292Y-110378213D01*
X139260288Y-110378210D01*
X139129185Y-110290609D01*
X139129172Y-110290602D01*
X138983501Y-110230264D01*
X138983489Y-110230261D01*
X138828845Y-110199500D01*
X138828842Y-110199500D01*
X130882940Y-110199500D01*
X130815901Y-110179815D01*
X130795259Y-110163181D01*
X124104649Y-103472571D01*
X124071164Y-103411248D01*
X124069857Y-103365495D01*
X124100500Y-103172027D01*
X124100500Y-102927973D01*
X124062321Y-102686924D01*
X123986904Y-102454815D01*
X123876106Y-102237361D01*
X123832106Y-102176800D01*
X123732660Y-102039923D01*
X123732656Y-102039918D01*
X123560419Y-101867681D01*
X123526934Y-101806358D01*
X123531918Y-101736666D01*
X123560419Y-101692319D01*
X123640531Y-101612207D01*
X123732655Y-101520083D01*
X123876106Y-101322639D01*
X123986904Y-101105185D01*
X124062321Y-100873076D01*
X124100500Y-100632027D01*
X124100500Y-100387973D01*
X124062321Y-100146924D01*
X123986904Y-99914815D01*
X123876106Y-99697361D01*
X123850221Y-99661733D01*
X123732660Y-99499923D01*
X123732656Y-99499918D01*
X123560419Y-99327681D01*
X123526934Y-99266358D01*
X123531918Y-99196666D01*
X123560419Y-99152319D01*
X123645741Y-99066997D01*
X123732655Y-98980083D01*
X123876106Y-98782639D01*
X123986904Y-98565185D01*
X124062321Y-98333076D01*
X124100500Y-98092027D01*
X124100500Y-97847973D01*
X124062321Y-97606924D01*
X123986904Y-97374815D01*
X123876106Y-97157361D01*
X123792172Y-97041835D01*
X123732660Y-96959923D01*
X123732656Y-96959918D01*
X123560419Y-96787681D01*
X123526934Y-96726358D01*
X123531918Y-96656666D01*
X123560419Y-96612319D01*
X123630911Y-96541827D01*
X123732655Y-96440083D01*
X123876106Y-96242639D01*
X123986904Y-96025185D01*
X124062321Y-95793076D01*
X124100500Y-95552027D01*
X124100500Y-95307973D01*
X124062321Y-95066924D01*
X123986904Y-94834815D01*
X123876106Y-94617361D01*
X123816131Y-94534812D01*
X123732660Y-94419923D01*
X123732656Y-94419918D01*
X123614919Y-94302181D01*
X123581434Y-94240858D01*
X123586418Y-94171166D01*
X123628290Y-94115233D01*
X123693754Y-94090816D01*
X123702600Y-94090500D01*
X129341374Y-94090500D01*
X129408413Y-94110185D01*
X129429055Y-94126819D01*
X133584310Y-98282073D01*
X133717927Y-98415690D01*
X133870801Y-98526760D01*
X133950347Y-98567290D01*
X134039163Y-98612545D01*
X134039165Y-98612545D01*
X134039168Y-98612547D01*
X134135497Y-98643846D01*
X134218881Y-98670940D01*
X134405514Y-98700500D01*
X134405519Y-98700500D01*
X140464498Y-98700500D01*
X140531537Y-98720185D01*
X140562871Y-98749012D01*
X140568062Y-98755776D01*
X140568067Y-98755781D01*
X140568070Y-98755785D01*
X140744218Y-98931933D01*
X140744225Y-98931939D01*
X140941873Y-99083599D01*
X141044088Y-99142613D01*
X141092303Y-99193180D01*
X141105527Y-99261787D01*
X141079559Y-99326652D01*
X141044088Y-99357387D01*
X140941873Y-99416400D01*
X140744225Y-99568060D01*
X140744218Y-99568066D01*
X140568066Y-99744218D01*
X140568060Y-99744225D01*
X140416400Y-99941873D01*
X140291837Y-100157623D01*
X140291830Y-100157638D01*
X140196498Y-100387792D01*
X140132017Y-100628438D01*
X140099501Y-100875424D01*
X140099500Y-100875441D01*
X140099500Y-101124558D01*
X140099501Y-101124575D01*
X140130161Y-101357464D01*
X140132018Y-101371565D01*
X140179963Y-101550499D01*
X140196498Y-101612207D01*
X140291830Y-101842361D01*
X140291837Y-101842376D01*
X140416400Y-102058126D01*
X140568060Y-102255774D01*
X140568066Y-102255781D01*
X140744218Y-102431933D01*
X140744225Y-102431939D01*
X140941873Y-102583599D01*
X141044088Y-102642613D01*
X141092303Y-102693180D01*
X141105527Y-102761787D01*
X141079559Y-102826652D01*
X141044088Y-102857387D01*
X140941873Y-102916400D01*
X140744225Y-103068060D01*
X140744218Y-103068066D01*
X140568066Y-103244218D01*
X140568060Y-103244225D01*
X140416400Y-103441873D01*
X140291837Y-103657623D01*
X140291830Y-103657638D01*
X140196498Y-103887792D01*
X140132017Y-104128438D01*
X140099501Y-104375424D01*
X140099500Y-104375441D01*
X140099500Y-104624558D01*
X140099501Y-104624575D01*
X140132017Y-104871561D01*
X140196498Y-105112207D01*
X140291830Y-105342361D01*
X140291837Y-105342376D01*
X140416400Y-105558126D01*
X140568060Y-105755774D01*
X140568066Y-105755781D01*
X140744218Y-105931933D01*
X140744225Y-105931939D01*
X140941873Y-106083599D01*
X141157623Y-106208162D01*
X141157638Y-106208169D01*
X141256825Y-106249253D01*
X141387793Y-106303502D01*
X141628435Y-106367982D01*
X141875435Y-106400500D01*
X141875442Y-106400500D01*
X142124558Y-106400500D01*
X142124565Y-106400500D01*
X142371565Y-106367982D01*
X142612207Y-106303502D01*
X142842373Y-106208164D01*
X143058127Y-106083599D01*
X143255776Y-105931938D01*
X143431938Y-105755776D01*
X143583599Y-105558127D01*
X143708164Y-105342373D01*
X143803502Y-105112207D01*
X143867982Y-104871565D01*
X143900500Y-104624565D01*
X143900500Y-104375435D01*
X143867982Y-104128435D01*
X143803502Y-103887793D01*
X143745440Y-103747620D01*
X143708169Y-103657638D01*
X143708162Y-103657623D01*
X143583599Y-103441873D01*
X143431939Y-103244225D01*
X143431933Y-103244218D01*
X143255781Y-103068066D01*
X143255774Y-103068060D01*
X143058128Y-102916401D01*
X143006208Y-102886426D01*
X142955910Y-102857386D01*
X142907696Y-102806821D01*
X142894472Y-102738214D01*
X142920440Y-102673349D01*
X142955910Y-102642613D01*
X143058127Y-102583599D01*
X143255776Y-102431938D01*
X143431938Y-102255776D01*
X143583599Y-102058127D01*
X143708164Y-101842373D01*
X143803502Y-101612207D01*
X143867982Y-101371565D01*
X143900500Y-101124565D01*
X143900500Y-100875435D01*
X143867982Y-100628435D01*
X143803502Y-100387793D01*
X143735109Y-100222677D01*
X143708169Y-100157638D01*
X143708162Y-100157623D01*
X143583599Y-99941873D01*
X143431939Y-99744225D01*
X143431933Y-99744218D01*
X143255781Y-99568066D01*
X143255774Y-99568060D01*
X143058128Y-99416401D01*
X142983106Y-99373088D01*
X142955910Y-99357386D01*
X142907696Y-99306821D01*
X142894472Y-99238214D01*
X142920440Y-99173349D01*
X142955910Y-99142613D01*
X143058127Y-99083599D01*
X143255776Y-98931938D01*
X143431938Y-98755776D01*
X143583599Y-98558127D01*
X143708164Y-98342373D01*
X143803502Y-98112207D01*
X143867982Y-97871565D01*
X143900500Y-97624565D01*
X143900500Y-97375435D01*
X143867982Y-97128435D01*
X143803502Y-96887793D01*
X143735618Y-96723907D01*
X143708169Y-96657638D01*
X143708162Y-96657623D01*
X143583599Y-96441873D01*
X143431939Y-96244225D01*
X143431933Y-96244218D01*
X143255777Y-96068062D01*
X143245186Y-96059936D01*
X143203982Y-96003509D01*
X143199827Y-95933763D01*
X143234038Y-95872842D01*
X143286561Y-95842343D01*
X143291010Y-95841069D01*
X143304405Y-95837237D01*
X143475750Y-95747734D01*
X143625571Y-95625571D01*
X143747734Y-95475750D01*
X143837237Y-95304405D01*
X143890417Y-95118551D01*
X143900500Y-95005137D01*
X143900499Y-92994864D01*
X143890417Y-92881449D01*
X143837237Y-92695595D01*
X143747734Y-92524250D01*
X143698319Y-92463648D01*
X143625571Y-92374428D01*
X143475752Y-92252268D01*
X143475753Y-92252268D01*
X143475750Y-92252266D01*
X143304405Y-92162763D01*
X143118551Y-92109583D01*
X143118550Y-92109582D01*
X143118547Y-92109582D01*
X143051431Y-92103615D01*
X143005137Y-92099500D01*
X143005132Y-92099500D01*
X140994871Y-92099500D01*
X140994863Y-92099501D01*
X140881453Y-92109582D01*
X140881449Y-92109582D01*
X140881449Y-92109583D01*
X140834506Y-92123015D01*
X140695597Y-92162762D01*
X140695595Y-92162762D01*
X140695595Y-92162763D01*
X140524250Y-92252266D01*
X140524248Y-92252267D01*
X140524247Y-92252268D01*
X140374428Y-92374428D01*
X140252268Y-92524247D01*
X140252266Y-92524250D01*
X140167221Y-92687060D01*
X140162762Y-92695597D01*
X140109582Y-92881452D01*
X140099500Y-92994864D01*
X140099500Y-95005128D01*
X140099501Y-95005136D01*
X140109582Y-95118546D01*
X140109582Y-95118548D01*
X140109583Y-95118551D01*
X140133047Y-95200553D01*
X140158054Y-95287950D01*
X140162763Y-95304405D01*
X140252266Y-95475750D01*
X140285208Y-95516151D01*
X140374428Y-95625571D01*
X140463648Y-95698319D01*
X140524250Y-95747734D01*
X140695595Y-95837237D01*
X140713440Y-95842343D01*
X140772477Y-95879710D01*
X140801941Y-95943064D01*
X140792476Y-96012290D01*
X140754816Y-96059933D01*
X140744230Y-96068055D01*
X140744218Y-96068066D01*
X140568070Y-96244215D01*
X140568067Y-96244218D01*
X140568063Y-96244222D01*
X140568062Y-96244224D01*
X140562872Y-96250986D01*
X140506448Y-96292189D01*
X140464498Y-96299500D01*
X135048625Y-96299500D01*
X134981586Y-96279815D01*
X134960944Y-96263181D01*
X132834398Y-94136635D01*
X130672074Y-91974310D01*
X130519199Y-91863240D01*
X130443625Y-91824733D01*
X130350836Y-91777454D01*
X130171118Y-91719059D01*
X129984486Y-91689500D01*
X129984481Y-91689500D01*
X123575811Y-91689500D01*
X123555390Y-91683503D01*
X123534141Y-91682289D01*
X123512670Y-91670959D01*
X123508772Y-91669815D01*
X123502926Y-91665818D01*
X123363310Y-91564381D01*
X123320644Y-91509051D01*
X123314617Y-91468170D01*
X122679408Y-90832962D01*
X122742993Y-90815925D01*
X122857007Y-90750099D01*
X122950099Y-90657007D01*
X123015925Y-90542993D01*
X123032962Y-90479408D01*
X123665270Y-91111717D01*
X123665270Y-91111716D01*
X123704622Y-91057554D01*
X123801095Y-90868217D01*
X123866757Y-90666130D01*
X123866757Y-90666127D01*
X123900000Y-90456246D01*
X123900000Y-90243753D01*
X123866757Y-90033872D01*
X123866757Y-90033869D01*
X123801095Y-89831782D01*
X123704624Y-89642449D01*
X123665270Y-89588282D01*
X123665269Y-89588282D01*
X123032962Y-90220590D01*
X123015925Y-90157007D01*
X122950099Y-90042993D01*
X122857007Y-89949901D01*
X122742993Y-89884075D01*
X122679409Y-89867037D01*
X123315714Y-89230730D01*
X123326940Y-89177289D01*
X123363306Y-89135621D01*
X123560083Y-88992655D01*
X123732655Y-88820083D01*
X123876106Y-88622639D01*
X123986904Y-88405185D01*
X124062321Y-88173076D01*
X124100500Y-87932027D01*
X124100500Y-87687973D01*
X124098862Y-87677633D01*
X124107816Y-87608342D01*
X124133651Y-87570557D01*
X126738302Y-84965908D01*
X126842323Y-84810230D01*
X126913973Y-84637250D01*
X126918924Y-84612363D01*
X126939179Y-84510532D01*
X126950500Y-84453617D01*
X126950500Y-84266383D01*
X126950500Y-84088284D01*
X126970185Y-84021245D01*
X127017088Y-83978376D01*
X127075751Y-83947734D01*
X127225571Y-83825571D01*
X127347734Y-83675751D01*
X127437237Y-83504406D01*
X127490417Y-83318552D01*
X127492530Y-83294784D01*
X127518070Y-83229754D01*
X127528361Y-83218083D01*
X128100000Y-82646445D01*
X128100000Y-82652661D01*
X128127259Y-82754394D01*
X128179920Y-82845606D01*
X128254394Y-82920080D01*
X128345606Y-82972741D01*
X128447339Y-83000000D01*
X128453553Y-83000000D01*
X127774076Y-83679474D01*
X127818650Y-83711859D01*
X128000968Y-83804755D01*
X128195582Y-83867990D01*
X128397683Y-83900000D01*
X128602317Y-83900000D01*
X128804417Y-83867990D01*
X128999031Y-83804755D01*
X129181349Y-83711859D01*
X129225921Y-83679474D01*
X128546447Y-83000000D01*
X128552661Y-83000000D01*
X128654394Y-82972741D01*
X128745606Y-82920080D01*
X128820080Y-82845606D01*
X128872741Y-82754394D01*
X128900000Y-82652661D01*
X128900000Y-82646448D01*
X129579474Y-83325922D01*
X129579474Y-83325921D01*
X129611859Y-83281349D01*
X129704755Y-83099031D01*
X129767990Y-82904417D01*
X129800000Y-82702317D01*
X129800000Y-82497682D01*
X129767990Y-82295582D01*
X129704755Y-82100968D01*
X129611859Y-81918650D01*
X129579474Y-81874077D01*
X129579474Y-81874076D01*
X128900000Y-82553551D01*
X128900000Y-82547339D01*
X128872741Y-82445606D01*
X128820080Y-82354394D01*
X128745606Y-82279920D01*
X128654394Y-82227259D01*
X128552661Y-82200000D01*
X128546446Y-82200000D01*
X129225922Y-81520524D01*
X129225921Y-81520523D01*
X129181359Y-81488147D01*
X129181350Y-81488141D01*
X128999031Y-81395244D01*
X128804417Y-81332009D01*
X128602317Y-81300000D01*
X128397683Y-81300000D01*
X128195582Y-81332009D01*
X128000968Y-81395244D01*
X127818644Y-81488143D01*
X127774077Y-81520523D01*
X127774077Y-81520524D01*
X128453554Y-82200000D01*
X128447339Y-82200000D01*
X128345606Y-82227259D01*
X128254394Y-82279920D01*
X128179920Y-82354394D01*
X128127259Y-82445606D01*
X128100000Y-82547339D01*
X128100000Y-82553554D01*
X127528361Y-81981915D01*
X127494876Y-81920592D01*
X127492530Y-81905220D01*
X127490417Y-81881448D01*
X127437237Y-81695594D01*
X127347734Y-81524249D01*
X127236757Y-81388147D01*
X127225571Y-81374428D01*
X127075747Y-81252263D01*
X127017088Y-81221622D01*
X126966781Y-81173136D01*
X126950500Y-81111714D01*
X126950500Y-70695072D01*
X126970185Y-70628033D01*
X126986819Y-70607391D01*
X131362196Y-66232014D01*
X137025000Y-66232014D01*
X137025000Y-66467985D01*
X137055799Y-66701914D01*
X137116870Y-66929837D01*
X137207160Y-67147819D01*
X137207165Y-67147828D01*
X137325144Y-67352171D01*
X137325145Y-67352172D01*
X137387721Y-67433723D01*
X138223958Y-66597487D01*
X138248978Y-66657890D01*
X138320112Y-66764351D01*
X138410649Y-66854888D01*
X138517110Y-66926022D01*
X138577511Y-66951041D01*
X137741275Y-67787277D01*
X137822827Y-67849854D01*
X137822828Y-67849855D01*
X138027171Y-67967834D01*
X138027180Y-67967839D01*
X138245163Y-68058129D01*
X138245161Y-68058129D01*
X138473085Y-68119200D01*
X138707014Y-68149999D01*
X138707029Y-68150000D01*
X138942971Y-68150000D01*
X138942985Y-68149999D01*
X139176914Y-68119200D01*
X139404837Y-68058129D01*
X139622819Y-67967839D01*
X139622828Y-67967834D01*
X139827181Y-67849850D01*
X139908723Y-67787279D01*
X139908723Y-67787276D01*
X139072487Y-66951041D01*
X139132890Y-66926022D01*
X139239351Y-66854888D01*
X139329888Y-66764351D01*
X139401022Y-66657890D01*
X139426041Y-66597488D01*
X140262276Y-67433723D01*
X140262279Y-67433723D01*
X140324850Y-67352181D01*
X140442834Y-67147828D01*
X140442839Y-67147819D01*
X140533129Y-66929837D01*
X140594200Y-66701914D01*
X140624999Y-66467985D01*
X140625000Y-66467971D01*
X140625000Y-66232028D01*
X140624999Y-66232014D01*
X140594200Y-65998085D01*
X140533129Y-65770162D01*
X140442839Y-65552180D01*
X140442834Y-65552171D01*
X140324855Y-65347828D01*
X140324854Y-65347827D01*
X140262277Y-65266275D01*
X139426041Y-66102511D01*
X139401022Y-66042110D01*
X139329888Y-65935649D01*
X139239351Y-65845112D01*
X139132890Y-65773978D01*
X139072488Y-65748958D01*
X139908723Y-64912721D01*
X139827172Y-64850145D01*
X139827171Y-64850144D01*
X139622828Y-64732165D01*
X139622819Y-64732160D01*
X139404836Y-64641870D01*
X139404838Y-64641870D01*
X139176914Y-64580799D01*
X138942985Y-64550000D01*
X138707014Y-64550000D01*
X138473085Y-64580799D01*
X138245162Y-64641870D01*
X138027180Y-64732160D01*
X138027171Y-64732165D01*
X137822828Y-64850144D01*
X137822818Y-64850150D01*
X137741275Y-64912720D01*
X137741275Y-64912721D01*
X138577512Y-65748958D01*
X138517110Y-65773978D01*
X138410649Y-65845112D01*
X138320112Y-65935649D01*
X138248978Y-66042110D01*
X138223958Y-66102511D01*
X137387721Y-65266275D01*
X137387720Y-65266275D01*
X137325150Y-65347818D01*
X137325144Y-65347828D01*
X137207165Y-65552171D01*
X137207160Y-65552180D01*
X137116870Y-65770162D01*
X137055799Y-65998085D01*
X137025000Y-66232014D01*
X131362196Y-66232014D01*
X135257391Y-62336819D01*
X135318714Y-62303334D01*
X135345072Y-62300500D01*
X136700500Y-62300500D01*
X136767539Y-62320185D01*
X136813294Y-62372989D01*
X136824500Y-62424500D01*
X136824500Y-62455136D01*
X136834582Y-62568548D01*
X136887762Y-62754405D01*
X136957433Y-62887782D01*
X136977266Y-62925751D01*
X136999983Y-62953611D01*
X137099428Y-63075571D01*
X137174314Y-63136632D01*
X137249249Y-63197734D01*
X137420594Y-63287237D01*
X137606448Y-63340417D01*
X137719862Y-63350500D01*
X137719870Y-63350500D01*
X139930130Y-63350500D01*
X139930138Y-63350500D01*
X140043552Y-63340417D01*
X140229406Y-63287237D01*
X140400751Y-63197734D01*
X140550571Y-63075571D01*
X140672734Y-62925751D01*
X140762237Y-62754406D01*
X140815417Y-62568552D01*
X140825500Y-62455138D01*
X140825500Y-60244862D01*
X140815417Y-60131448D01*
X140762237Y-59945594D01*
X140672734Y-59774249D01*
X140611652Y-59699339D01*
X140550571Y-59624428D01*
X140458700Y-59549518D01*
X140400751Y-59502266D01*
X140386082Y-59494604D01*
X140229405Y-59412762D01*
X140074845Y-59368537D01*
X140043552Y-59359583D01*
X140043551Y-59359582D01*
X140043548Y-59359582D01*
X139954662Y-59351680D01*
X139930138Y-59349500D01*
X137719862Y-59349500D01*
X137707599Y-59350590D01*
X137606451Y-59359582D01*
X137420594Y-59412762D01*
X137249250Y-59502265D01*
X137099428Y-59624428D01*
X136977265Y-59774250D01*
X136887762Y-59945594D01*
X136834582Y-60131451D01*
X136824500Y-60244863D01*
X136824500Y-60275500D01*
X136804815Y-60342539D01*
X136752011Y-60388294D01*
X136700500Y-60399500D01*
X134806379Y-60399500D01*
X134622756Y-60436024D01*
X134622752Y-60436026D01*
X134622750Y-60436026D01*
X134622749Y-60436027D01*
X134551099Y-60465705D01*
X134551097Y-60465706D01*
X134449772Y-60507675D01*
X134449763Y-60507680D01*
X134294092Y-60611697D01*
X134294088Y-60611700D01*
X125261700Y-69644088D01*
X125261697Y-69644092D01*
X125157678Y-69799766D01*
X125157677Y-69799769D01*
X125132410Y-69860770D01*
X125132410Y-69860771D01*
X125086027Y-69972748D01*
X125086025Y-69972756D01*
X125049500Y-70156379D01*
X125049500Y-71405927D01*
X125029815Y-71472966D01*
X124977011Y-71518721D01*
X124907853Y-71528665D01*
X124844297Y-71499640D01*
X124837819Y-71493608D01*
X123105911Y-69761700D01*
X123105907Y-69761697D01*
X122950236Y-69657680D01*
X122950227Y-69657675D01*
X122848903Y-69615706D01*
X122848901Y-69615705D01*
X122777251Y-69586027D01*
X122777247Y-69586026D01*
X122777243Y-69586024D01*
X122685433Y-69567763D01*
X122593620Y-69549500D01*
X122593617Y-69549500D01*
X122593616Y-69549500D01*
X104343616Y-69549500D01*
X104156383Y-69549500D01*
X104156378Y-69549500D01*
X103972756Y-69586025D01*
X103972748Y-69586027D01*
X103799771Y-69657676D01*
X103770998Y-69676902D01*
X103692041Y-69729660D01*
X103680133Y-69737616D01*
X103644088Y-69761700D01*
X103644087Y-69761701D01*
X101912181Y-71493608D01*
X101850858Y-71527093D01*
X101781166Y-71522109D01*
X101725233Y-71480237D01*
X101700816Y-71414773D01*
X101700500Y-71405927D01*
X101700500Y-61620071D01*
X101720185Y-61553032D01*
X101736814Y-61532395D01*
X105739840Y-57529368D01*
X105801161Y-57495885D01*
X105843785Y-57495495D01*
X105843961Y-57494163D01*
X105847985Y-57494692D01*
X105847986Y-57494693D01*
X106081989Y-57525500D01*
X106081996Y-57525500D01*
X106318004Y-57525500D01*
X106318011Y-57525500D01*
X106552014Y-57494693D01*
X106779993Y-57433606D01*
X106998049Y-57343284D01*
X107202450Y-57225273D01*
X107389699Y-57081592D01*
X107556592Y-56914699D01*
X107700273Y-56727450D01*
X107818284Y-56523049D01*
X107908606Y-56304993D01*
X107969693Y-56077014D01*
X108000500Y-55843011D01*
X108000500Y-55606989D01*
X107982447Y-55469862D01*
X112439500Y-55469862D01*
X112439500Y-57280130D01*
X112439501Y-57280138D01*
X112449582Y-57393548D01*
X112449582Y-57393550D01*
X112449583Y-57393553D01*
X112502763Y-57579407D01*
X112592266Y-57750751D01*
X112714428Y-57900572D01*
X112864249Y-58022734D01*
X113035593Y-58112237D01*
X113221447Y-58165417D01*
X113334861Y-58175500D01*
X115145138Y-58175499D01*
X115258553Y-58165417D01*
X115444407Y-58112237D01*
X115615751Y-58022734D01*
X115765572Y-57900572D01*
X115887734Y-57750751D01*
X115977237Y-57579407D01*
X116030417Y-57393553D01*
X116040500Y-57280139D01*
X116040499Y-56256995D01*
X122599500Y-56256995D01*
X122599500Y-56493004D01*
X122599501Y-56493020D01*
X122630306Y-56727010D01*
X122691394Y-56954993D01*
X122781714Y-57173045D01*
X122781719Y-57173056D01*
X122826473Y-57250571D01*
X122899727Y-57377450D01*
X122899729Y-57377453D01*
X122899730Y-57377454D01*
X123043406Y-57564697D01*
X123043412Y-57564704D01*
X123210295Y-57731587D01*
X123210302Y-57731593D01*
X123235272Y-57750753D01*
X123397550Y-57875273D01*
X123528918Y-57951118D01*
X123601943Y-57993280D01*
X123601948Y-57993282D01*
X123601951Y-57993284D01*
X123820007Y-58083606D01*
X124047986Y-58144693D01*
X124281989Y-58175500D01*
X124281996Y-58175500D01*
X124518004Y-58175500D01*
X124518011Y-58175500D01*
X124752014Y-58144693D01*
X124979993Y-58083606D01*
X125198049Y-57993284D01*
X125402450Y-57875273D01*
X125589699Y-57731592D01*
X125756592Y-57564699D01*
X125900273Y-57377450D01*
X126018284Y-57173049D01*
X126108606Y-56954993D01*
X126169693Y-56727014D01*
X126200500Y-56493011D01*
X126200500Y-56256989D01*
X126169693Y-56022986D01*
X126108606Y-55795007D01*
X126018284Y-55576951D01*
X126018282Y-55576948D01*
X126018280Y-55576943D01*
X125956456Y-55469862D01*
X125900273Y-55372550D01*
X125756592Y-55185301D01*
X125756587Y-55185295D01*
X125589704Y-55018412D01*
X125589697Y-55018406D01*
X125402454Y-54874730D01*
X125402453Y-54874729D01*
X125402450Y-54874727D01*
X125307421Y-54819862D01*
X125198056Y-54756719D01*
X125198045Y-54756714D01*
X124979993Y-54666394D01*
X124752010Y-54605306D01*
X124518020Y-54574501D01*
X124518017Y-54574500D01*
X124518011Y-54574500D01*
X124281989Y-54574500D01*
X124281983Y-54574500D01*
X124281979Y-54574501D01*
X124047989Y-54605306D01*
X123820006Y-54666394D01*
X123601954Y-54756714D01*
X123601943Y-54756719D01*
X123397545Y-54874730D01*
X123210302Y-55018406D01*
X123210295Y-55018412D01*
X123043412Y-55185295D01*
X123043406Y-55185302D01*
X122899730Y-55372545D01*
X122781719Y-55576943D01*
X122781714Y-55576954D01*
X122691394Y-55795006D01*
X122630306Y-56022989D01*
X122599501Y-56256979D01*
X122599500Y-56256995D01*
X116040499Y-56256995D01*
X116040499Y-55469862D01*
X116030417Y-55356447D01*
X115977237Y-55170593D01*
X115887734Y-54999249D01*
X115765572Y-54849428D01*
X115615751Y-54727266D01*
X115444407Y-54637763D01*
X115258553Y-54584583D01*
X115258552Y-54584582D01*
X115258549Y-54584582D01*
X115191433Y-54578615D01*
X115145139Y-54574500D01*
X115145134Y-54574500D01*
X113334869Y-54574500D01*
X113334861Y-54574501D01*
X113221451Y-54584582D01*
X113221447Y-54584582D01*
X113221447Y-54584583D01*
X113174504Y-54598015D01*
X113035595Y-54637762D01*
X113035593Y-54637762D01*
X113035593Y-54637763D01*
X112864249Y-54727266D01*
X112864247Y-54727267D01*
X112864246Y-54727268D01*
X112714428Y-54849428D01*
X112693800Y-54874727D01*
X112592266Y-54999249D01*
X112582256Y-55018412D01*
X112502762Y-55170595D01*
X112449582Y-55356450D01*
X112439500Y-55469862D01*
X107982447Y-55469862D01*
X107969693Y-55372986D01*
X107908606Y-55145007D01*
X107818284Y-54926951D01*
X107818282Y-54926948D01*
X107818280Y-54926943D01*
X107756456Y-54819862D01*
X107700273Y-54722550D01*
X107586671Y-54574501D01*
X107556593Y-54535302D01*
X107556587Y-54535295D01*
X107389704Y-54368412D01*
X107389697Y-54368406D01*
X107202454Y-54224730D01*
X107202453Y-54224729D01*
X107202450Y-54224727D01*
X107120957Y-54177677D01*
X106998056Y-54106719D01*
X106998045Y-54106714D01*
X106779993Y-54016394D01*
X106552010Y-53955306D01*
X106318020Y-53924501D01*
X106318017Y-53924500D01*
X106318011Y-53924500D01*
X106081989Y-53924500D01*
X106081983Y-53924500D01*
X106081979Y-53924501D01*
X105847989Y-53955306D01*
X105620006Y-54016394D01*
X105401954Y-54106714D01*
X105401943Y-54106719D01*
X105197545Y-54224730D01*
X105010302Y-54368406D01*
X105010295Y-54368412D01*
X104843412Y-54535295D01*
X104843406Y-54535302D01*
X104699730Y-54722545D01*
X104581719Y-54926943D01*
X104581714Y-54926954D01*
X104491394Y-55145006D01*
X104430306Y-55372989D01*
X104403454Y-55576954D01*
X104399500Y-55606989D01*
X104399500Y-55843011D01*
X104430306Y-56077010D01*
X104430837Y-56081038D01*
X104428923Y-56081289D01*
X104423214Y-56143193D01*
X104395629Y-56185159D01*
X100011700Y-60569088D01*
X100011697Y-60569092D01*
X99907680Y-60724763D01*
X99907673Y-60724776D01*
X99836027Y-60897748D01*
X99836025Y-60897757D01*
X99801219Y-61072743D01*
X99801218Y-61072749D01*
X99799500Y-61081383D01*
X99799500Y-80994801D01*
X99779815Y-81061840D01*
X99732912Y-81104709D01*
X99729328Y-81106582D01*
X99641869Y-81152266D01*
X99492049Y-81274428D01*
X99369886Y-81424250D01*
X99280383Y-81595594D01*
X99227203Y-81781451D01*
X99217121Y-81894863D01*
X99217121Y-83105136D01*
X99227203Y-83218548D01*
X99227203Y-83218551D01*
X99227204Y-83218552D01*
X99236158Y-83249845D01*
X99280383Y-83404405D01*
X99349962Y-83537606D01*
X99369887Y-83575751D01*
X99404120Y-83617734D01*
X99492049Y-83725571D01*
X99599737Y-83813379D01*
X99641870Y-83847734D01*
X99700532Y-83878376D01*
X99750839Y-83926861D01*
X99767121Y-83988284D01*
X99767121Y-84897307D01*
X99747436Y-84964346D01*
X99730802Y-84984988D01*
X98789445Y-85926344D01*
X98728122Y-85959829D01*
X98682372Y-85961137D01*
X98672033Y-85959500D01*
X98672027Y-85959500D01*
X98427973Y-85959500D01*
X98417638Y-85961137D01*
X98186927Y-85997678D01*
X97954812Y-86073097D01*
X97737357Y-86183896D01*
X97539923Y-86327339D01*
X97539918Y-86327343D01*
X97367343Y-86499918D01*
X97367339Y-86499923D01*
X97223896Y-86697357D01*
X97113097Y-86914812D01*
X97037678Y-87146927D01*
X96999500Y-87387973D01*
X96999500Y-87632026D01*
X97018549Y-87752299D01*
X97037679Y-87873076D01*
X97110937Y-88098541D01*
X97113097Y-88105187D01*
X97223896Y-88322642D01*
X97367339Y-88520076D01*
X97367343Y-88520081D01*
X97539918Y-88692656D01*
X97539923Y-88692660D01*
X97736688Y-88835618D01*
X97779354Y-88890948D01*
X97785380Y-88931826D01*
X98420591Y-89567037D01*
X98357007Y-89584075D01*
X98242993Y-89649901D01*
X98149901Y-89742993D01*
X98084075Y-89857007D01*
X98067037Y-89920591D01*
X97434728Y-89288282D01*
X97434727Y-89288282D01*
X97395380Y-89342439D01*
X97298904Y-89531782D01*
X97233242Y-89733869D01*
X97233242Y-89733872D01*
X97200000Y-89943753D01*
X97200000Y-90156246D01*
X97233242Y-90366127D01*
X97233242Y-90366130D01*
X97298904Y-90568217D01*
X97395375Y-90757550D01*
X97434728Y-90811716D01*
X98067037Y-90179408D01*
X98084075Y-90242993D01*
X98149901Y-90357007D01*
X98242993Y-90450099D01*
X98357007Y-90515925D01*
X98420590Y-90532962D01*
X97784283Y-91169268D01*
X97773056Y-91222712D01*
X97736689Y-91264381D01*
X97539918Y-91407343D01*
X97367343Y-91579918D01*
X97367339Y-91579923D01*
X97223896Y-91777357D01*
X97113097Y-91994812D01*
X97037678Y-92226927D01*
X96999500Y-92467973D01*
X96999500Y-92712026D01*
X97026334Y-92881452D01*
X97037679Y-92953076D01*
X97113096Y-93185185D01*
X97217708Y-93390499D01*
X97223896Y-93402642D01*
X97367339Y-93600076D01*
X97367343Y-93600081D01*
X97539581Y-93772319D01*
X97573066Y-93833642D01*
X97568082Y-93903334D01*
X97539581Y-93947681D01*
X97367343Y-94119918D01*
X97367339Y-94119923D01*
X97223896Y-94317357D01*
X97113097Y-94534812D01*
X97037678Y-94766927D01*
X96999500Y-95007973D01*
X96999500Y-95252026D01*
X97034934Y-95475750D01*
X97037679Y-95493076D01*
X97113096Y-95725185D01*
X97219371Y-95933763D01*
X97223896Y-95942642D01*
X97367339Y-96140076D01*
X97367343Y-96140081D01*
X97539581Y-96312319D01*
X97573066Y-96373642D01*
X97568082Y-96443334D01*
X97539581Y-96487681D01*
X97367343Y-96659918D01*
X97367339Y-96659923D01*
X97223896Y-96857357D01*
X97113097Y-97074812D01*
X97037678Y-97306927D01*
X96999500Y-97547973D01*
X96999500Y-97792026D01*
X97021907Y-97933501D01*
X97037679Y-98033076D01*
X97113096Y-98265185D01*
X97189780Y-98415687D01*
X97223896Y-98482642D01*
X97367339Y-98680076D01*
X97367343Y-98680081D01*
X97539581Y-98852319D01*
X97573066Y-98913642D01*
X97568082Y-98983334D01*
X97539581Y-99027681D01*
X97367343Y-99199918D01*
X97367339Y-99199923D01*
X97223896Y-99397357D01*
X97113097Y-99614812D01*
X97036771Y-99849718D01*
X96997333Y-99907394D01*
X96932975Y-99934592D01*
X96864128Y-99922677D01*
X96831159Y-99899081D01*
X94336819Y-97404741D01*
X94303334Y-97343418D01*
X94300500Y-97317060D01*
X94300500Y-92890434D01*
X94320185Y-92823395D01*
X94321398Y-92821543D01*
X94386632Y-92723914D01*
X94462051Y-92541835D01*
X94480632Y-92448422D01*
X94500500Y-92348543D01*
X94500500Y-92151456D01*
X94462052Y-91958170D01*
X94462051Y-91958169D01*
X94462051Y-91958165D01*
X94392188Y-91789500D01*
X94386633Y-91776088D01*
X94386628Y-91776079D01*
X94277139Y-91612218D01*
X94277136Y-91612214D01*
X94224784Y-91559863D01*
X94191298Y-91498540D01*
X94196282Y-91428848D01*
X94224781Y-91384502D01*
X96121789Y-89487496D01*
X96209394Y-89356386D01*
X96269738Y-89210704D01*
X96300500Y-89056049D01*
X96300500Y-88898364D01*
X96300500Y-86422832D01*
X96320185Y-86355793D01*
X96336819Y-86335151D01*
X97479386Y-85192584D01*
X98622789Y-84049181D01*
X98636974Y-84027951D01*
X98710394Y-83918071D01*
X98712758Y-83912365D01*
X98748708Y-83825571D01*
X98770737Y-83772389D01*
X98801500Y-83617734D01*
X98801500Y-82382266D01*
X98793550Y-82342299D01*
X98791896Y-82333985D01*
X98781849Y-82283470D01*
X98770738Y-82227611D01*
X98710394Y-82081929D01*
X98710392Y-82081926D01*
X98710390Y-82081922D01*
X98622789Y-81950819D01*
X98622786Y-81950815D01*
X96235819Y-79563848D01*
X96202334Y-79502525D01*
X96199500Y-79476167D01*
X96199500Y-78177730D01*
X96208939Y-78130277D01*
X96232530Y-78073324D01*
X96269738Y-77983497D01*
X96287859Y-77892395D01*
X96292150Y-77870825D01*
X96292150Y-77870821D01*
X96300500Y-77828843D01*
X96300500Y-77671158D01*
X96300458Y-77670947D01*
X96294602Y-77641499D01*
X96294602Y-77641498D01*
X96269739Y-77516509D01*
X96269738Y-77516502D01*
X96209394Y-77370821D01*
X96209392Y-77370818D01*
X96209390Y-77370814D01*
X96121789Y-77239709D01*
X96007194Y-77125114D01*
X96007163Y-77125085D01*
X88744259Y-69862181D01*
X88710774Y-69800858D01*
X88715758Y-69731166D01*
X88757630Y-69675233D01*
X88823094Y-69650816D01*
X88831940Y-69650500D01*
X89952630Y-69650500D01*
X89952638Y-69650500D01*
X90066052Y-69640417D01*
X90251906Y-69587237D01*
X90423251Y-69497734D01*
X90573071Y-69375571D01*
X90695234Y-69225751D01*
X90784737Y-69054406D01*
X90837917Y-68868552D01*
X90848000Y-68755138D01*
X90848000Y-66544862D01*
X90837917Y-66431448D01*
X90784737Y-66245594D01*
X90695234Y-66074249D01*
X90582220Y-65935649D01*
X90573071Y-65924428D01*
X90475343Y-65844742D01*
X90423251Y-65802266D01*
X90408582Y-65794604D01*
X90251905Y-65712762D01*
X90097345Y-65668537D01*
X90066052Y-65659583D01*
X90066051Y-65659582D01*
X90066048Y-65659582D01*
X89977162Y-65651680D01*
X89952638Y-65649500D01*
X87742362Y-65649500D01*
X87730099Y-65650590D01*
X87628951Y-65659582D01*
X87443094Y-65712762D01*
X87271750Y-65802265D01*
X87121928Y-65924428D01*
X86999765Y-66074250D01*
X86910262Y-66245594D01*
X86857082Y-66431451D01*
X86847000Y-66544863D01*
X86847000Y-67665560D01*
X86827315Y-67732599D01*
X86774511Y-67778354D01*
X86705353Y-67788298D01*
X86641797Y-67759273D01*
X86635319Y-67753241D01*
X81414092Y-62532014D01*
X87047500Y-62532014D01*
X87047500Y-62767985D01*
X87078299Y-63001914D01*
X87139370Y-63229837D01*
X87229660Y-63447819D01*
X87229665Y-63447828D01*
X87347644Y-63652171D01*
X87347645Y-63652172D01*
X87410221Y-63733723D01*
X88246458Y-62897487D01*
X88271478Y-62957890D01*
X88342612Y-63064351D01*
X88433149Y-63154888D01*
X88539610Y-63226022D01*
X88600011Y-63251041D01*
X87763775Y-64087277D01*
X87845327Y-64149854D01*
X87845328Y-64149855D01*
X88049671Y-64267834D01*
X88049680Y-64267839D01*
X88267663Y-64358129D01*
X88267661Y-64358129D01*
X88495585Y-64419200D01*
X88729514Y-64449999D01*
X88729529Y-64450000D01*
X88965471Y-64450000D01*
X88965485Y-64449999D01*
X89199414Y-64419200D01*
X89427337Y-64358129D01*
X89645319Y-64267839D01*
X89645328Y-64267834D01*
X89849681Y-64149850D01*
X89931223Y-64087279D01*
X89931223Y-64087276D01*
X89094987Y-63251041D01*
X89155390Y-63226022D01*
X89261851Y-63154888D01*
X89352388Y-63064351D01*
X89423522Y-62957890D01*
X89448541Y-62897488D01*
X90284776Y-63733723D01*
X90284779Y-63733723D01*
X90347350Y-63652181D01*
X90465334Y-63447828D01*
X90465339Y-63447819D01*
X90555629Y-63229837D01*
X90616700Y-63001914D01*
X90647499Y-62767985D01*
X90647500Y-62767971D01*
X90647500Y-62532028D01*
X90647499Y-62532014D01*
X90616700Y-62298085D01*
X90555629Y-62070162D01*
X90465339Y-61852180D01*
X90465334Y-61852171D01*
X90347355Y-61647828D01*
X90347354Y-61647827D01*
X90284777Y-61566275D01*
X89448541Y-62402511D01*
X89423522Y-62342110D01*
X89352388Y-62235649D01*
X89261851Y-62145112D01*
X89155390Y-62073978D01*
X89094988Y-62048958D01*
X89931223Y-61212721D01*
X89849672Y-61150145D01*
X89849671Y-61150144D01*
X89645328Y-61032165D01*
X89645319Y-61032160D01*
X89427336Y-60941870D01*
X89427338Y-60941870D01*
X89199414Y-60880799D01*
X88965485Y-60850000D01*
X88729514Y-60850000D01*
X88495585Y-60880799D01*
X88267662Y-60941870D01*
X88049680Y-61032160D01*
X88049671Y-61032165D01*
X87845328Y-61150144D01*
X87845318Y-61150150D01*
X87763775Y-61212720D01*
X87763775Y-61212721D01*
X88600012Y-62048958D01*
X88539610Y-62073978D01*
X88433149Y-62145112D01*
X88342612Y-62235649D01*
X88271478Y-62342110D01*
X88246458Y-62402511D01*
X87410221Y-61566275D01*
X87410220Y-61566275D01*
X87347650Y-61647818D01*
X87347644Y-61647828D01*
X87229665Y-61852171D01*
X87229660Y-61852180D01*
X87139370Y-62070162D01*
X87078299Y-62298085D01*
X87047500Y-62532014D01*
X81414092Y-62532014D01*
X80002590Y-61120512D01*
X79969105Y-61059189D01*
X79968654Y-61008639D01*
X80000500Y-60848543D01*
X80000500Y-60651456D01*
X79962052Y-60458170D01*
X79962051Y-60458169D01*
X79962051Y-60458165D01*
X79952880Y-60436024D01*
X79886635Y-60276092D01*
X79886628Y-60276079D01*
X79777139Y-60112218D01*
X79777136Y-60112214D01*
X79637785Y-59972863D01*
X79637781Y-59972860D01*
X79473920Y-59863371D01*
X79473907Y-59863364D01*
X79291839Y-59787950D01*
X79291829Y-59787947D01*
X79098543Y-59749500D01*
X79098541Y-59749500D01*
X78901459Y-59749500D01*
X78901457Y-59749500D01*
X78708170Y-59787947D01*
X78708160Y-59787950D01*
X78526092Y-59863364D01*
X78526079Y-59863371D01*
X78362218Y-59972860D01*
X78362214Y-59972863D01*
X78222863Y-60112214D01*
X78222860Y-60112218D01*
X78113371Y-60276079D01*
X78113364Y-60276092D01*
X78037950Y-60458160D01*
X78037947Y-60458170D01*
X77999500Y-60651456D01*
X77999500Y-60651459D01*
X77999500Y-60848541D01*
X77999500Y-60848543D01*
X77999499Y-60848543D01*
X78037947Y-61041829D01*
X78037950Y-61041839D01*
X78113364Y-61223907D01*
X78113371Y-61223920D01*
X78192588Y-61342475D01*
X78211103Y-61387175D01*
X78230261Y-61483489D01*
X78230264Y-61483501D01*
X78290602Y-61629172D01*
X78290609Y-61629185D01*
X78378210Y-61760288D01*
X78378213Y-61760292D01*
X93347480Y-76729558D01*
X93348870Y-76732104D01*
X93351354Y-76733610D01*
X93365519Y-76762594D01*
X93380965Y-76790881D01*
X93380758Y-76793775D01*
X93382033Y-76796384D01*
X93378281Y-76828406D01*
X93375981Y-76860573D01*
X93374240Y-76862897D01*
X93373903Y-76865779D01*
X93353437Y-76890686D01*
X93334109Y-76916506D01*
X93331389Y-76917520D01*
X93329547Y-76919763D01*
X93298860Y-76929653D01*
X93268645Y-76940923D01*
X93264968Y-76940576D01*
X93263046Y-76941196D01*
X93254249Y-76939565D01*
X93227991Y-76937090D01*
X93219991Y-76934967D01*
X93166835Y-76912949D01*
X93047835Y-76889278D01*
X93044056Y-76888275D01*
X93017385Y-76872105D01*
X92989762Y-76857656D01*
X92988183Y-76856105D01*
X87260289Y-71128211D01*
X77760292Y-61628213D01*
X77760288Y-61628210D01*
X77629185Y-61540609D01*
X77629172Y-61540602D01*
X77483501Y-61480264D01*
X77483489Y-61480261D01*
X77328845Y-61449500D01*
X77328842Y-61449500D01*
X76890435Y-61449500D01*
X76823396Y-61429815D01*
X76821544Y-61428602D01*
X76723911Y-61363366D01*
X76541839Y-61287950D01*
X76541829Y-61287947D01*
X76348543Y-61249500D01*
X76348541Y-61249500D01*
X76151459Y-61249500D01*
X76151457Y-61249500D01*
X75958170Y-61287947D01*
X75958160Y-61287950D01*
X75776092Y-61363364D01*
X75776079Y-61363371D01*
X75612218Y-61472860D01*
X75612214Y-61472863D01*
X75472863Y-61612214D01*
X75472860Y-61612218D01*
X75363371Y-61776079D01*
X75363364Y-61776092D01*
X75287950Y-61958160D01*
X75287947Y-61958170D01*
X75249500Y-62151456D01*
X75249500Y-62151459D01*
X75249500Y-62348541D01*
X75249500Y-62348543D01*
X75249499Y-62348543D01*
X75287947Y-62541829D01*
X75287950Y-62541839D01*
X75363364Y-62723907D01*
X75363371Y-62723920D01*
X75427271Y-62819553D01*
X75448149Y-62886231D01*
X75429664Y-62953611D01*
X75377685Y-63000301D01*
X75348361Y-63010061D01*
X75208170Y-63037947D01*
X75208160Y-63037950D01*
X75026092Y-63113364D01*
X75026079Y-63113371D01*
X74862218Y-63222860D01*
X74862214Y-63222863D01*
X74722863Y-63362214D01*
X74722860Y-63362218D01*
X74613371Y-63526079D01*
X74613364Y-63526092D01*
X74537950Y-63708160D01*
X74537947Y-63708170D01*
X74499500Y-63901456D01*
X74499500Y-63901459D01*
X74499500Y-64098541D01*
X74499500Y-64098543D01*
X74499499Y-64098543D01*
X74539137Y-64297809D01*
X74537315Y-64298171D01*
X74537481Y-64316452D01*
X74541320Y-64343147D01*
X74537794Y-64350867D01*
X74537871Y-64359353D01*
X74523499Y-64382168D01*
X74512295Y-64406703D01*
X74505154Y-64411291D01*
X74500632Y-64418472D01*
X74476202Y-64429897D01*
X74453517Y-64444477D01*
X74441265Y-64446238D01*
X74437343Y-64448073D01*
X74418582Y-64449500D01*
X74390435Y-64449500D01*
X74323396Y-64429815D01*
X74321544Y-64428602D01*
X74223911Y-64363366D01*
X74041839Y-64287950D01*
X74041829Y-64287947D01*
X73848543Y-64249500D01*
X73848541Y-64249500D01*
X73651459Y-64249500D01*
X73651457Y-64249500D01*
X73458170Y-64287947D01*
X73458160Y-64287950D01*
X73276092Y-64363364D01*
X73276079Y-64363371D01*
X73112218Y-64472860D01*
X73112214Y-64472863D01*
X72972863Y-64612214D01*
X72972860Y-64612218D01*
X72863371Y-64776079D01*
X72863364Y-64776092D01*
X72787950Y-64958160D01*
X72787947Y-64958170D01*
X72749500Y-65151456D01*
X72749500Y-65151459D01*
X72749500Y-65348541D01*
X72749500Y-65348543D01*
X72749499Y-65348543D01*
X72787947Y-65541829D01*
X72787950Y-65541839D01*
X72863364Y-65723906D01*
X72863370Y-65723917D01*
X72868177Y-65731111D01*
X72889054Y-65797789D01*
X72870569Y-65865169D01*
X72868180Y-65868887D01*
X72863370Y-65876085D01*
X72863364Y-65876096D01*
X72787950Y-66058163D01*
X72787947Y-66058173D01*
X72749500Y-66251459D01*
X72749500Y-66251462D01*
X72749500Y-66448544D01*
X72749500Y-66448546D01*
X72749499Y-66448546D01*
X72787947Y-66641832D01*
X72787950Y-66641842D01*
X72863364Y-66823910D01*
X72863371Y-66823923D01*
X72972860Y-66987784D01*
X72972863Y-66987788D01*
X73112214Y-67127139D01*
X73112218Y-67127142D01*
X73276079Y-67236631D01*
X73276092Y-67236638D01*
X73458160Y-67312052D01*
X73458165Y-67312054D01*
X73458169Y-67312054D01*
X73458170Y-67312055D01*
X73651456Y-67350503D01*
X73651459Y-67350503D01*
X73848543Y-67350503D01*
X73978582Y-67324635D01*
X74041835Y-67312054D01*
X74223914Y-67236635D01*
X74387782Y-67127142D01*
X74428104Y-67086820D01*
X74489427Y-67053334D01*
X74515786Y-67050500D01*
X76377110Y-67050500D01*
X76444149Y-67070185D01*
X76464791Y-67086819D01*
X76759791Y-67381819D01*
X76793276Y-67443142D01*
X76788292Y-67512834D01*
X76746420Y-67568767D01*
X76680956Y-67593184D01*
X76672110Y-67593500D01*
X75655839Y-67593500D01*
X75501196Y-67624260D01*
X75501188Y-67624262D01*
X75355510Y-67684604D01*
X75355500Y-67684609D01*
X75224397Y-67772210D01*
X75224393Y-67772213D01*
X74241478Y-68755130D01*
X73989711Y-69006897D01*
X73942203Y-69054405D01*
X73878209Y-69118398D01*
X73790609Y-69249500D01*
X73790602Y-69249513D01*
X73730264Y-69395184D01*
X73730261Y-69395196D01*
X73699500Y-69549839D01*
X73699500Y-71690726D01*
X73679815Y-71757765D01*
X73627011Y-71803520D01*
X73557853Y-71813464D01*
X73499444Y-71788662D01*
X69872944Y-68972338D01*
X69832069Y-68915672D01*
X69825000Y-68874402D01*
X69825000Y-67925000D01*
X65025000Y-67925000D01*
X65025000Y-68874402D01*
X65005315Y-68941441D01*
X64977056Y-68972338D01*
X60325000Y-72585104D01*
X60325000Y-72585105D01*
X60325000Y-76925000D01*
X73575500Y-76925000D01*
X73642539Y-76944685D01*
X73688294Y-76997489D01*
X73699500Y-77049000D01*
X73699500Y-93117060D01*
X73679815Y-93184099D01*
X73663181Y-93204741D01*
X66954741Y-99913181D01*
X66893418Y-99946666D01*
X66867060Y-99949500D01*
X65601155Y-99949500D01*
X65446510Y-99980261D01*
X65446498Y-99980264D01*
X65300827Y-100040602D01*
X65300814Y-100040609D01*
X65169711Y-100128210D01*
X65169707Y-100128213D01*
X60211072Y-105086849D01*
X60149749Y-105120334D01*
X60080057Y-105115350D01*
X60024124Y-105073478D01*
X60000918Y-105018566D01*
X59998553Y-105003632D01*
X59925568Y-104779008D01*
X59925566Y-104779005D01*
X59925566Y-104779003D01*
X59846872Y-104624558D01*
X59818343Y-104568567D01*
X59679517Y-104377490D01*
X59512510Y-104210483D01*
X59477872Y-104185317D01*
X59435207Y-104129989D01*
X59429228Y-104060375D01*
X59461833Y-103998580D01*
X59477873Y-103984682D01*
X59488906Y-103976666D01*
X59512510Y-103959517D01*
X59679517Y-103792510D01*
X59818343Y-103601433D01*
X59925568Y-103390992D01*
X59998553Y-103166368D01*
X60006994Y-103113072D01*
X60035500Y-102933097D01*
X60035500Y-102696902D01*
X59998553Y-102463631D01*
X59944618Y-102297637D01*
X59925568Y-102239008D01*
X59925566Y-102239005D01*
X59925566Y-102239003D01*
X59859651Y-102109639D01*
X59818343Y-102028567D01*
X59679517Y-101837490D01*
X59643311Y-101801284D01*
X59609826Y-101739961D01*
X59614810Y-101670269D01*
X59654519Y-101615992D01*
X59716183Y-101567681D01*
X59747155Y-101543416D01*
X59803416Y-101487155D01*
X59872800Y-101406411D01*
X59956350Y-101258271D01*
X59986798Y-101184762D01*
X60019999Y-101083619D01*
X60033945Y-100968764D01*
X60040500Y-100914784D01*
X60040500Y-99635226D01*
X60040500Y-99635218D01*
X60032469Y-99529069D01*
X59986798Y-99365238D01*
X59956350Y-99291729D01*
X59908306Y-99196727D01*
X59897740Y-99183240D01*
X59803413Y-99062841D01*
X59747174Y-99006602D01*
X59747146Y-99006576D01*
X59666411Y-98937200D01*
X59662930Y-98934758D01*
X59619353Y-98880143D01*
X59612221Y-98810638D01*
X59643799Y-98748311D01*
X59646463Y-98745564D01*
X59679512Y-98712515D01*
X59679512Y-98712514D01*
X59679517Y-98712510D01*
X59818343Y-98521433D01*
X59925568Y-98310992D01*
X59998553Y-98086368D01*
X60022765Y-97933501D01*
X60035500Y-97853097D01*
X60035500Y-97616902D01*
X59998553Y-97383631D01*
X59925566Y-97159003D01*
X59824129Y-96959923D01*
X59818343Y-96948567D01*
X59679517Y-96757490D01*
X59512510Y-96590483D01*
X59477872Y-96565317D01*
X59435207Y-96509989D01*
X59429228Y-96440375D01*
X59461833Y-96378580D01*
X59477873Y-96364682D01*
X59488906Y-96356666D01*
X59512510Y-96339517D01*
X59679517Y-96172510D01*
X59818343Y-95981433D01*
X59925568Y-95770992D01*
X59998553Y-95546368D01*
X60006994Y-95493072D01*
X60035500Y-95313097D01*
X60035500Y-95076902D01*
X59998553Y-94843631D01*
X59925566Y-94619003D01*
X59843646Y-94458227D01*
X59818343Y-94408567D01*
X59679517Y-94217490D01*
X59512510Y-94050483D01*
X59477872Y-94025317D01*
X59435207Y-93969989D01*
X59429228Y-93900375D01*
X59461833Y-93838580D01*
X59477873Y-93824682D01*
X59488906Y-93816666D01*
X59512510Y-93799517D01*
X59679517Y-93632510D01*
X59818343Y-93441433D01*
X59925568Y-93230992D01*
X59998553Y-93006368D01*
X60006188Y-92958165D01*
X60035500Y-92773097D01*
X60035500Y-92536902D01*
X59998553Y-92303631D01*
X59935502Y-92109582D01*
X59925568Y-92079008D01*
X59925566Y-92079005D01*
X59925566Y-92079003D01*
X59824129Y-91879923D01*
X59818343Y-91868567D01*
X59679517Y-91677490D01*
X59512510Y-91510483D01*
X59477872Y-91485317D01*
X59435207Y-91429989D01*
X59429228Y-91360375D01*
X59461833Y-91298580D01*
X59477873Y-91284682D01*
X59488906Y-91276666D01*
X59512510Y-91259517D01*
X59679517Y-91092510D01*
X59818343Y-90901433D01*
X59925568Y-90690992D01*
X59998553Y-90466368D01*
X60004496Y-90428846D01*
X60035500Y-90233097D01*
X60035500Y-89996902D01*
X59998553Y-89763631D01*
X59940211Y-89584075D01*
X59925568Y-89539008D01*
X59925566Y-89539005D01*
X59925566Y-89539003D01*
X59857643Y-89405698D01*
X59818343Y-89328567D01*
X59679517Y-89137490D01*
X59512510Y-88970483D01*
X59473425Y-88942086D01*
X59430761Y-88886756D01*
X59424759Y-88818310D01*
X58664410Y-88057962D01*
X58727993Y-88040925D01*
X58842007Y-87975099D01*
X58935099Y-87882007D01*
X59000925Y-87767993D01*
X59017962Y-87704410D01*
X59778135Y-88464584D01*
X59778136Y-88464584D01*
X59801552Y-88408053D01*
X59819544Y-88357053D01*
X59839999Y-88214780D01*
X59840000Y-88214779D01*
X59840000Y-86935214D01*
X59837106Y-86881237D01*
X59837106Y-86881235D01*
X59801561Y-86741969D01*
X59801559Y-86741962D01*
X59778135Y-86685414D01*
X59017962Y-87445588D01*
X59000925Y-87382007D01*
X58935099Y-87267993D01*
X58842007Y-87174901D01*
X58727993Y-87109075D01*
X58664410Y-87092037D01*
X59424760Y-86331686D01*
X59430922Y-86262831D01*
X59473424Y-86207914D01*
X59512510Y-86179517D01*
X59679517Y-86012510D01*
X59818343Y-85821433D01*
X59925568Y-85610992D01*
X59998553Y-85386368D01*
X60014649Y-85284741D01*
X60035500Y-85153097D01*
X60035500Y-84916902D01*
X59998553Y-84683631D01*
X59925566Y-84459003D01*
X59855036Y-84320581D01*
X59818343Y-84248567D01*
X59679517Y-84057490D01*
X59512510Y-83890483D01*
X59477872Y-83865317D01*
X59435207Y-83809989D01*
X59429228Y-83740375D01*
X59461833Y-83678580D01*
X59477873Y-83664682D01*
X59512510Y-83639517D01*
X59679517Y-83472510D01*
X59818343Y-83281433D01*
X59925568Y-83070992D01*
X59998553Y-82846368D01*
X60002717Y-82820080D01*
X60035500Y-82613097D01*
X60035500Y-82376902D01*
X59998553Y-82143631D01*
X59964689Y-82039412D01*
X59925568Y-81919008D01*
X59925566Y-81919005D01*
X59925566Y-81919003D01*
X59829340Y-81730150D01*
X59818343Y-81708567D01*
X59679517Y-81517490D01*
X59512510Y-81350483D01*
X59477872Y-81325317D01*
X59435207Y-81269989D01*
X59429228Y-81200375D01*
X59461833Y-81138580D01*
X59477873Y-81124682D01*
X59512510Y-81099517D01*
X59679517Y-80932510D01*
X59818343Y-80741433D01*
X59925568Y-80530992D01*
X59998553Y-80306368D01*
X60009110Y-80239712D01*
X60035500Y-80073097D01*
X60035500Y-79836902D01*
X59998553Y-79603631D01*
X59925566Y-79379003D01*
X59839074Y-79209254D01*
X59818343Y-79168567D01*
X59679517Y-78977490D01*
X59512510Y-78810483D01*
X59477872Y-78785317D01*
X59435207Y-78729989D01*
X59429228Y-78660375D01*
X59461833Y-78598580D01*
X59477873Y-78584682D01*
X59512510Y-78559517D01*
X59679517Y-78392510D01*
X59818343Y-78201433D01*
X59925568Y-77990992D01*
X59998553Y-77766368D01*
X60013633Y-77671158D01*
X60035500Y-77533097D01*
X60035500Y-77296902D01*
X59998553Y-77063631D01*
X59958682Y-76940923D01*
X59925568Y-76839008D01*
X59925566Y-76839005D01*
X59925566Y-76839003D01*
X59852213Y-76695041D01*
X59818343Y-76628567D01*
X59679517Y-76437490D01*
X59512510Y-76270483D01*
X59473425Y-76242086D01*
X59430761Y-76186756D01*
X59424759Y-76118310D01*
X58664410Y-75357962D01*
X58727993Y-75340925D01*
X58842007Y-75275099D01*
X58935099Y-75182007D01*
X59000925Y-75067993D01*
X59017962Y-75004410D01*
X59778135Y-75764584D01*
X59778136Y-75764584D01*
X59801552Y-75708053D01*
X59819544Y-75657053D01*
X59839999Y-75514780D01*
X59840000Y-75514779D01*
X59840000Y-74235214D01*
X59837106Y-74181237D01*
X59837106Y-74181235D01*
X59801561Y-74041969D01*
X59801559Y-74041962D01*
X59778135Y-73985414D01*
X59017962Y-74745588D01*
X59000925Y-74682007D01*
X58935099Y-74567993D01*
X58842007Y-74474901D01*
X58727993Y-74409075D01*
X58664410Y-74392037D01*
X59424760Y-73631686D01*
X59430922Y-73562831D01*
X59473424Y-73507914D01*
X59512510Y-73479517D01*
X59679517Y-73312510D01*
X59818343Y-73121433D01*
X59925568Y-72910992D01*
X59998553Y-72686368D01*
X60035500Y-72453097D01*
X60035500Y-72216902D01*
X59998553Y-71983631D01*
X59925566Y-71759003D01*
X59818342Y-71548566D01*
X59799120Y-71522109D01*
X59679517Y-71357490D01*
X59512510Y-71190483D01*
X59477872Y-71165317D01*
X59435207Y-71109989D01*
X59429228Y-71040375D01*
X59461833Y-70978580D01*
X59477873Y-70964682D01*
X59512510Y-70939517D01*
X59679517Y-70772510D01*
X59818343Y-70581433D01*
X59925568Y-70370992D01*
X59998553Y-70146368D01*
X60014567Y-70045259D01*
X60035500Y-69913097D01*
X60035500Y-69676902D01*
X59998553Y-69443631D01*
X59964689Y-69339412D01*
X59925568Y-69219008D01*
X59925566Y-69219005D01*
X59925566Y-69219003D01*
X59841699Y-69054406D01*
X59818343Y-69008567D01*
X59679517Y-68817490D01*
X59512510Y-68650483D01*
X59321433Y-68511657D01*
X59110996Y-68404433D01*
X58886368Y-68331446D01*
X58653097Y-68294500D01*
X58653092Y-68294500D01*
X58416908Y-68294500D01*
X58416903Y-68294500D01*
X58183631Y-68331446D01*
X57959003Y-68404433D01*
X57748566Y-68511657D01*
X57639550Y-68590862D01*
X57557490Y-68650483D01*
X57557488Y-68650485D01*
X57557487Y-68650485D01*
X57390485Y-68817487D01*
X57390485Y-68817488D01*
X57390483Y-68817490D01*
X57353387Y-68868548D01*
X57251657Y-69008566D01*
X57144433Y-69219003D01*
X57071446Y-69443631D01*
X57034500Y-69676902D01*
X57034500Y-69913097D01*
X57071446Y-70146368D01*
X57144433Y-70370996D01*
X57194223Y-70468713D01*
X57251657Y-70581433D01*
X57390483Y-70772510D01*
X57557490Y-70939517D01*
X57592127Y-70964683D01*
X57634792Y-71020013D01*
X57640771Y-71089626D01*
X57608165Y-71151421D01*
X57592130Y-71165315D01*
X57574365Y-71178222D01*
X57557488Y-71190484D01*
X57390485Y-71357487D01*
X57390485Y-71357488D01*
X57390483Y-71357490D01*
X57348864Y-71414773D01*
X57251657Y-71548566D01*
X57144433Y-71759003D01*
X57071446Y-71983631D01*
X57034500Y-72216902D01*
X57034500Y-72453097D01*
X57071446Y-72686368D01*
X57144433Y-72910996D01*
X57251657Y-73121433D01*
X57390483Y-73312510D01*
X57557490Y-73479517D01*
X57748567Y-73618343D01*
X57748573Y-73618347D01*
X57752719Y-73620888D01*
X57751476Y-73622915D01*
X57795145Y-73664263D01*
X57811855Y-73732105D01*
X57811379Y-73738794D01*
X57806085Y-73792534D01*
X58405589Y-74392037D01*
X58342007Y-74409075D01*
X58227993Y-74474901D01*
X58134901Y-74567993D01*
X58069075Y-74682007D01*
X58052037Y-74745588D01*
X57452534Y-74146085D01*
X57452534Y-74146086D01*
X57406158Y-74215493D01*
X57359490Y-74302801D01*
X57299185Y-74448387D01*
X57270444Y-74543135D01*
X57239701Y-74697697D01*
X57239701Y-74697700D01*
X57230000Y-74796210D01*
X57230000Y-74953789D01*
X57239701Y-75052299D01*
X57239701Y-75052302D01*
X57270444Y-75206864D01*
X57299185Y-75301612D01*
X57359490Y-75447198D01*
X57406155Y-75534501D01*
X57406161Y-75534511D01*
X57452534Y-75603912D01*
X58052037Y-75004410D01*
X58069075Y-75067993D01*
X58134901Y-75182007D01*
X58227993Y-75275099D01*
X58342007Y-75340925D01*
X58405589Y-75357962D01*
X57806085Y-75957465D01*
X57811378Y-76011209D01*
X57798358Y-76079854D01*
X57752306Y-76128439D01*
X57752719Y-76129112D01*
X57748573Y-76131652D01*
X57672730Y-76186756D01*
X57557490Y-76270483D01*
X57557488Y-76270485D01*
X57557487Y-76270485D01*
X57390485Y-76437487D01*
X57390485Y-76437488D01*
X57390483Y-76437490D01*
X57364015Y-76473920D01*
X57251657Y-76628566D01*
X57144433Y-76839003D01*
X57071446Y-77063631D01*
X57034500Y-77296902D01*
X57034500Y-77533097D01*
X57071446Y-77766368D01*
X57144433Y-77990996D01*
X57215401Y-78130277D01*
X57251657Y-78201433D01*
X57390483Y-78392510D01*
X57557490Y-78559517D01*
X57592127Y-78584683D01*
X57634792Y-78640013D01*
X57640771Y-78709626D01*
X57608165Y-78771421D01*
X57592130Y-78785315D01*
X57574365Y-78798222D01*
X57557488Y-78810484D01*
X57390485Y-78977487D01*
X57390485Y-78977488D01*
X57390483Y-78977490D01*
X57353497Y-79028397D01*
X57251657Y-79168566D01*
X57144433Y-79379003D01*
X57071446Y-79603631D01*
X57034500Y-79836902D01*
X57034500Y-80073097D01*
X57071446Y-80306368D01*
X57144433Y-80530996D01*
X57250093Y-80738364D01*
X57251657Y-80741433D01*
X57390483Y-80932510D01*
X57557490Y-81099517D01*
X57592127Y-81124683D01*
X57634792Y-81180013D01*
X57640771Y-81249626D01*
X57608165Y-81311421D01*
X57592130Y-81325315D01*
X57582917Y-81332009D01*
X57557488Y-81350484D01*
X57390485Y-81517487D01*
X57390485Y-81517488D01*
X57390483Y-81517490D01*
X57331164Y-81599135D01*
X57251657Y-81708566D01*
X57144433Y-81919003D01*
X57071447Y-82143629D01*
X57069081Y-82158569D01*
X57039150Y-82221703D01*
X56979837Y-82258633D01*
X56909975Y-82257633D01*
X56858927Y-82226849D01*
X55586819Y-80954741D01*
X55553334Y-80893418D01*
X55550500Y-80867060D01*
X55550500Y-70132940D01*
X55570185Y-70065901D01*
X55586819Y-70045259D01*
X66825259Y-58806819D01*
X66886582Y-58773334D01*
X66912940Y-58770500D01*
X74118893Y-58770500D01*
X74139400Y-58766420D01*
X74180416Y-58758262D01*
X74180418Y-58758262D01*
X74211600Y-58752059D01*
X74273545Y-58739738D01*
X74419227Y-58679395D01*
X74419227Y-58679394D01*
X74419228Y-58679394D01*
X74419229Y-58679394D01*
X74419230Y-58679393D01*
X74430507Y-58674722D01*
X74430508Y-58674721D01*
X74430514Y-58674719D01*
X74430844Y-58674582D01*
X74439731Y-58665694D01*
X74506027Y-58621396D01*
X74572705Y-58600520D01*
X74574917Y-58600500D01*
X79498844Y-58600500D01*
X79498845Y-58600499D01*
X79653497Y-58569737D01*
X79799179Y-58509394D01*
X79930289Y-58421789D01*
X81721948Y-56630130D01*
X83532217Y-54819862D01*
X94239500Y-54819862D01*
X94239500Y-56630130D01*
X94239501Y-56630138D01*
X94249582Y-56743548D01*
X94249582Y-56743550D01*
X94249583Y-56743553D01*
X94302763Y-56929407D01*
X94392266Y-57100751D01*
X94514428Y-57250572D01*
X94664249Y-57372734D01*
X94835593Y-57462237D01*
X95021447Y-57515417D01*
X95134861Y-57525500D01*
X96945138Y-57525499D01*
X97058553Y-57515417D01*
X97244407Y-57462237D01*
X97415751Y-57372734D01*
X97565572Y-57250572D01*
X97687734Y-57100751D01*
X97777237Y-56929407D01*
X97830417Y-56743553D01*
X97840500Y-56630139D01*
X97840499Y-54819862D01*
X97830417Y-54706447D01*
X97777237Y-54520593D01*
X97687734Y-54349249D01*
X97565572Y-54199428D01*
X97415751Y-54077266D01*
X97244407Y-53987763D01*
X97058553Y-53934583D01*
X97058552Y-53934582D01*
X97058549Y-53934582D01*
X96991433Y-53928615D01*
X96945139Y-53924500D01*
X96945134Y-53924500D01*
X95134869Y-53924500D01*
X95134861Y-53924501D01*
X95021451Y-53934582D01*
X95021447Y-53934582D01*
X95021447Y-53934583D01*
X94974504Y-53948015D01*
X94835595Y-53987762D01*
X94835593Y-53987762D01*
X94835593Y-53987763D01*
X94664249Y-54077266D01*
X94664247Y-54077267D01*
X94664246Y-54077268D01*
X94514428Y-54199428D01*
X94493800Y-54224727D01*
X94392266Y-54349249D01*
X94382256Y-54368412D01*
X94302762Y-54520595D01*
X94249582Y-54706450D01*
X94239500Y-54819862D01*
X83532217Y-54819862D01*
X83622648Y-54729431D01*
X98852577Y-39499500D01*
X106556161Y-31795915D01*
X106617482Y-31762432D01*
X106687174Y-31767416D01*
X106743107Y-31809288D01*
X106761771Y-31845280D01*
X106762678Y-31848072D01*
X106762679Y-31848076D01*
X106838096Y-32080185D01*
X106936976Y-32274249D01*
X106948896Y-32297642D01*
X107092339Y-32495076D01*
X107092343Y-32495081D01*
X107264918Y-32667656D01*
X107264923Y-32667660D01*
X107461688Y-32810618D01*
X107504354Y-32865948D01*
X107510380Y-32906826D01*
X108145591Y-33542037D01*
X108082007Y-33559075D01*
X107967993Y-33624901D01*
X107874901Y-33717993D01*
X107809075Y-33832007D01*
X107792037Y-33895591D01*
X107159728Y-33263282D01*
X107159727Y-33263282D01*
X107120380Y-33317439D01*
X107023904Y-33506782D01*
X106958242Y-33708869D01*
X106958242Y-33708872D01*
X106925000Y-33918753D01*
X106925000Y-34131246D01*
X106958242Y-34341127D01*
X106958242Y-34341130D01*
X107023904Y-34543217D01*
X107120375Y-34732550D01*
X107159728Y-34786716D01*
X107792037Y-34154408D01*
X107809075Y-34217993D01*
X107874901Y-34332007D01*
X107967993Y-34425099D01*
X108082007Y-34490925D01*
X108145590Y-34507962D01*
X107513282Y-35140269D01*
X107513282Y-35140270D01*
X107567449Y-35179624D01*
X107756782Y-35276095D01*
X107958870Y-35341757D01*
X108168754Y-35375000D01*
X108381246Y-35375000D01*
X108591127Y-35341757D01*
X108591130Y-35341757D01*
X108793217Y-35276095D01*
X108982554Y-35179622D01*
X109036716Y-35140270D01*
X109036717Y-35140270D01*
X108404408Y-34507962D01*
X108467993Y-34490925D01*
X108582007Y-34425099D01*
X108675099Y-34332007D01*
X108740925Y-34217993D01*
X108757962Y-34154408D01*
X109390270Y-34786717D01*
X109390270Y-34786716D01*
X109429622Y-34732554D01*
X109526095Y-34543217D01*
X109591757Y-34341130D01*
X109591757Y-34341127D01*
X109625000Y-34131246D01*
X109625000Y-33918753D01*
X109591757Y-33708872D01*
X109591757Y-33708869D01*
X109526095Y-33506782D01*
X109429624Y-33317449D01*
X109390270Y-33263282D01*
X109390269Y-33263282D01*
X108757962Y-33895590D01*
X108740925Y-33832007D01*
X108675099Y-33717993D01*
X108582007Y-33624901D01*
X108467993Y-33559075D01*
X108404409Y-33542037D01*
X109040714Y-32905730D01*
X109051940Y-32852289D01*
X109088306Y-32810621D01*
X109285083Y-32667655D01*
X109457655Y-32495083D01*
X109601106Y-32297639D01*
X109711904Y-32080185D01*
X109787321Y-31848076D01*
X109825500Y-31607027D01*
X109825500Y-31362973D01*
X109787321Y-31121924D01*
X109711904Y-30889815D01*
X109601106Y-30672361D01*
X109601104Y-30672358D01*
X109601103Y-30672356D01*
X109505449Y-30540698D01*
X109481969Y-30474891D01*
X109497795Y-30406838D01*
X109541621Y-30361694D01*
X109560185Y-30350472D01*
X109680472Y-30230185D01*
X109768478Y-30084606D01*
X109819086Y-29922196D01*
X109825500Y-29851616D01*
X109825500Y-28038384D01*
X109819086Y-27967804D01*
X109768478Y-27805394D01*
X109680472Y-27659815D01*
X109680470Y-27659813D01*
X109680469Y-27659811D01*
X109560188Y-27539530D01*
X109414606Y-27451522D01*
X109252196Y-27400914D01*
X109252194Y-27400913D01*
X109252192Y-27400913D01*
X109202778Y-27396423D01*
X109181616Y-27394500D01*
X107368384Y-27394500D01*
X107349145Y-27396248D01*
X107297807Y-27400913D01*
X107135393Y-27451522D01*
X106989811Y-27539530D01*
X106869530Y-27659811D01*
X106781522Y-27805393D01*
X106730913Y-27967807D01*
X106724500Y-28038386D01*
X106724500Y-29312060D01*
X106704815Y-29379099D01*
X106688181Y-29399741D01*
X86262181Y-49825741D01*
X86200858Y-49859226D01*
X86131166Y-49854242D01*
X86075233Y-49812370D01*
X86050816Y-49746906D01*
X86050500Y-49738060D01*
X86050500Y-33632940D01*
X86070185Y-33565901D01*
X86086819Y-33545259D01*
X89295259Y-30336819D01*
X89356582Y-30303334D01*
X89382940Y-30300500D01*
X93326615Y-30300500D01*
X93393654Y-30320185D01*
X93439409Y-30372989D01*
X93450105Y-30413274D01*
X93452169Y-30435987D01*
X93455913Y-30477193D01*
X93506522Y-30639606D01*
X93594530Y-30785188D01*
X93714813Y-30905471D01*
X93714817Y-30905474D01*
X93733382Y-30916697D01*
X93780570Y-30968224D01*
X93792409Y-31037084D01*
X93769551Y-31095699D01*
X93673896Y-31227357D01*
X93563097Y-31444812D01*
X93487678Y-31676927D01*
X93460571Y-31848072D01*
X93449500Y-31917973D01*
X93449500Y-32162027D01*
X93487679Y-32403076D01*
X93563096Y-32635185D01*
X93656040Y-32817599D01*
X93673896Y-32852642D01*
X93817339Y-33050076D01*
X93817343Y-33050081D01*
X93989918Y-33222656D01*
X93989923Y-33222660D01*
X94186688Y-33365618D01*
X94229354Y-33420948D01*
X94235380Y-33461826D01*
X94870591Y-34097037D01*
X94807007Y-34114075D01*
X94692993Y-34179901D01*
X94599901Y-34272993D01*
X94534075Y-34387007D01*
X94517037Y-34450591D01*
X93884728Y-33818282D01*
X93884727Y-33818282D01*
X93845380Y-33872439D01*
X93748904Y-34061782D01*
X93683242Y-34263869D01*
X93683242Y-34263872D01*
X93650000Y-34473753D01*
X93650000Y-34686246D01*
X93683242Y-34896127D01*
X93683242Y-34896130D01*
X93748904Y-35098217D01*
X93845375Y-35287550D01*
X93884728Y-35341716D01*
X94517037Y-34709408D01*
X94534075Y-34772993D01*
X94599901Y-34887007D01*
X94692993Y-34980099D01*
X94807007Y-35045925D01*
X94870590Y-35062962D01*
X94238282Y-35695269D01*
X94238282Y-35695270D01*
X94292449Y-35734624D01*
X94481782Y-35831095D01*
X94683870Y-35896757D01*
X94893754Y-35930000D01*
X95106246Y-35930000D01*
X95316127Y-35896757D01*
X95316130Y-35896757D01*
X95518217Y-35831095D01*
X95707554Y-35734622D01*
X95761716Y-35695270D01*
X95761717Y-35695270D01*
X95129408Y-35062962D01*
X95192993Y-35045925D01*
X95307007Y-34980099D01*
X95400099Y-34887007D01*
X95465925Y-34772993D01*
X95482962Y-34709409D01*
X96115270Y-35341717D01*
X96115270Y-35341716D01*
X96154622Y-35287554D01*
X96251095Y-35098217D01*
X96316757Y-34896130D01*
X96316757Y-34896127D01*
X96350000Y-34686246D01*
X96350000Y-34473753D01*
X96316757Y-34263872D01*
X96316757Y-34263869D01*
X96251095Y-34061782D01*
X96154624Y-33872449D01*
X96115270Y-33818282D01*
X96115269Y-33818282D01*
X95482962Y-34450590D01*
X95465925Y-34387007D01*
X95400099Y-34272993D01*
X95307007Y-34179901D01*
X95192993Y-34114075D01*
X95129409Y-34097037D01*
X95765714Y-33460730D01*
X95776940Y-33407289D01*
X95813306Y-33365621D01*
X96010083Y-33222655D01*
X96182655Y-33050083D01*
X96326106Y-32852639D01*
X96436904Y-32635185D01*
X96512321Y-32403076D01*
X96550500Y-32162027D01*
X96550500Y-31917973D01*
X96512321Y-31676924D01*
X96436904Y-31444815D01*
X96326106Y-31227361D01*
X96326104Y-31227358D01*
X96326103Y-31227356D01*
X96230449Y-31095698D01*
X96206969Y-31029891D01*
X96222795Y-30961838D01*
X96266621Y-30916694D01*
X96285185Y-30905472D01*
X96405472Y-30785185D01*
X96493478Y-30639606D01*
X96544086Y-30477196D01*
X96550500Y-30406616D01*
X96550500Y-28593384D01*
X96544086Y-28522804D01*
X96493478Y-28360394D01*
X96405472Y-28214815D01*
X96405470Y-28214813D01*
X96405469Y-28214811D01*
X96285188Y-28094530D01*
X96139606Y-28006522D01*
X95977196Y-27955914D01*
X95977194Y-27955913D01*
X95977192Y-27955913D01*
X95927778Y-27951423D01*
X95906616Y-27949500D01*
X94093384Y-27949500D01*
X94074145Y-27951248D01*
X94022807Y-27955913D01*
X93860393Y-28006522D01*
X93714811Y-28094530D01*
X93594530Y-28214811D01*
X93506522Y-28360393D01*
X93455913Y-28522806D01*
X93452531Y-28560029D01*
X93450105Y-28586723D01*
X93424435Y-28651705D01*
X93367707Y-28692493D01*
X93326615Y-28699500D01*
X88921155Y-28699500D01*
X88766510Y-28730261D01*
X88766498Y-28730264D01*
X88620827Y-28790602D01*
X88620814Y-28790609D01*
X88489711Y-28878210D01*
X88489707Y-28878213D01*
X85605490Y-31762432D01*
X84739711Y-32628211D01*
X84700268Y-32667654D01*
X84628209Y-32739712D01*
X84540609Y-32870814D01*
X84540602Y-32870827D01*
X84480264Y-33016498D01*
X84480261Y-33016510D01*
X84449500Y-33171153D01*
X84449500Y-50117060D01*
X84429815Y-50184099D01*
X84413181Y-50204741D01*
X78454741Y-56163181D01*
X78393418Y-56196666D01*
X78367060Y-56199500D01*
X65171153Y-56199500D01*
X65016510Y-56230260D01*
X65016502Y-56230262D01*
X64870824Y-56290604D01*
X64870814Y-56290609D01*
X64739711Y-56378210D01*
X64739707Y-56378213D01*
X56267778Y-64850144D01*
X53489711Y-67628211D01*
X53452362Y-67665560D01*
X53378209Y-67739712D01*
X53290609Y-67870814D01*
X53290602Y-67870827D01*
X53230264Y-68016498D01*
X53230261Y-68016510D01*
X53199500Y-68171153D01*
X53199500Y-85658846D01*
X53230261Y-85813489D01*
X53230264Y-85813501D01*
X53290602Y-85959172D01*
X53290609Y-85959185D01*
X53378210Y-86090288D01*
X53378213Y-86090292D01*
X57024051Y-89736129D01*
X57057536Y-89797452D01*
X57058843Y-89843208D01*
X57034500Y-89996902D01*
X57034500Y-90233097D01*
X57071446Y-90466368D01*
X57144433Y-90690996D01*
X57235517Y-90869757D01*
X57251657Y-90901433D01*
X57390483Y-91092510D01*
X57557490Y-91259517D01*
X57592127Y-91284683D01*
X57634792Y-91340013D01*
X57640771Y-91409626D01*
X57608165Y-91471421D01*
X57592130Y-91485315D01*
X57574365Y-91498222D01*
X57557488Y-91510484D01*
X57390485Y-91677487D01*
X57390485Y-91677488D01*
X57390483Y-91677490D01*
X57360281Y-91719060D01*
X57251657Y-91868566D01*
X57144433Y-92079003D01*
X57071446Y-92303631D01*
X57034500Y-92536902D01*
X57034500Y-92773097D01*
X57071446Y-93006368D01*
X57144433Y-93230996D01*
X57210031Y-93359738D01*
X57251657Y-93441433D01*
X57390483Y-93632510D01*
X57557490Y-93799517D01*
X57592127Y-93824683D01*
X57634792Y-93880013D01*
X57640771Y-93949626D01*
X57608165Y-94011421D01*
X57592130Y-94025315D01*
X57574365Y-94038222D01*
X57557488Y-94050484D01*
X57390485Y-94217487D01*
X57390485Y-94217488D01*
X57390483Y-94217490D01*
X57380871Y-94230720D01*
X57251657Y-94408566D01*
X57144433Y-94619003D01*
X57071446Y-94843631D01*
X57034500Y-95076902D01*
X57034500Y-95313097D01*
X57071446Y-95546368D01*
X57144433Y-95770996D01*
X57227368Y-95933763D01*
X57251657Y-95981433D01*
X57390483Y-96172510D01*
X57557490Y-96339517D01*
X57592127Y-96364683D01*
X57634792Y-96420013D01*
X57640771Y-96489626D01*
X57608165Y-96551421D01*
X57592130Y-96565315D01*
X57574365Y-96578222D01*
X57557488Y-96590484D01*
X57390485Y-96757487D01*
X57390485Y-96757488D01*
X57390483Y-96757490D01*
X57368792Y-96787345D01*
X57251657Y-96948566D01*
X57144433Y-97159003D01*
X57071446Y-97383631D01*
X57034500Y-97616902D01*
X57034500Y-97853097D01*
X57071446Y-98086368D01*
X57144433Y-98310996D01*
X57197778Y-98415690D01*
X57251657Y-98521433D01*
X57390483Y-98712510D01*
X57390485Y-98712512D01*
X57557490Y-98879517D01*
X57588900Y-98902338D01*
X57631565Y-98957668D01*
X57637543Y-99027282D01*
X57604936Y-99089076D01*
X57594678Y-99098508D01*
X57526160Y-99154739D01*
X57414740Y-99266159D01*
X57326997Y-99373075D01*
X57326987Y-99373088D01*
X57239457Y-99504087D01*
X57239445Y-99504107D01*
X57174252Y-99626073D01*
X57113945Y-99771666D01*
X57073798Y-99904016D01*
X57073798Y-99904018D01*
X57043054Y-100058584D01*
X57039202Y-100097700D01*
X57029500Y-100196207D01*
X57029500Y-100353793D01*
X57033905Y-100398523D01*
X57043054Y-100491415D01*
X57073798Y-100645981D01*
X57073798Y-100645983D01*
X57113945Y-100778333D01*
X57174252Y-100923926D01*
X57239445Y-101045892D01*
X57239457Y-101045912D01*
X57326987Y-101176911D01*
X57326997Y-101176924D01*
X57414740Y-101283840D01*
X57526159Y-101395259D01*
X57526164Y-101395263D01*
X57526166Y-101395265D01*
X57576614Y-101436666D01*
X57594677Y-101451490D01*
X57634012Y-101509236D01*
X57635883Y-101579081D01*
X57599696Y-101638849D01*
X57588902Y-101647660D01*
X57557487Y-101670485D01*
X57390485Y-101837487D01*
X57390485Y-101837488D01*
X57390483Y-101837490D01*
X57368792Y-101867345D01*
X57251657Y-102028566D01*
X57144433Y-102239003D01*
X57071446Y-102463631D01*
X57034500Y-102696902D01*
X57034500Y-102933097D01*
X57071446Y-103166368D01*
X57144433Y-103390996D01*
X57231890Y-103562639D01*
X57251657Y-103601433D01*
X57390483Y-103792510D01*
X57557490Y-103959517D01*
X57592127Y-103984683D01*
X57634792Y-104040013D01*
X57640771Y-104109626D01*
X57608165Y-104171421D01*
X57592130Y-104185315D01*
X57581391Y-104193118D01*
X57557488Y-104210484D01*
X57390485Y-104377487D01*
X57390485Y-104377488D01*
X57390483Y-104377490D01*
X57330862Y-104459550D01*
X57251657Y-104568566D01*
X57144433Y-104779003D01*
X57071446Y-105003631D01*
X57034500Y-105236902D01*
X57034500Y-105473097D01*
X57071446Y-105706368D01*
X57144433Y-105930996D01*
X57251657Y-106141433D01*
X57390483Y-106332510D01*
X57557490Y-106499517D01*
X57592127Y-106524683D01*
X57634792Y-106580013D01*
X57640771Y-106649626D01*
X57608165Y-106711421D01*
X57592130Y-106725315D01*
X57574365Y-106738222D01*
X57557488Y-106750484D01*
X57390485Y-106917487D01*
X57390485Y-106917488D01*
X57390483Y-106917490D01*
X57348100Y-106975825D01*
X57251657Y-107108566D01*
X57144433Y-107319003D01*
X57071446Y-107543631D01*
X57034500Y-107776902D01*
X57034500Y-108013097D01*
X57071446Y-108246368D01*
X57144433Y-108470996D01*
X57251657Y-108681433D01*
X57390483Y-108872510D01*
X57557490Y-109039517D01*
X57592127Y-109064683D01*
X57634792Y-109120013D01*
X57640771Y-109189626D01*
X57608165Y-109251421D01*
X57592130Y-109265315D01*
X57574365Y-109278222D01*
X57557488Y-109290484D01*
X57390485Y-109457487D01*
X57390485Y-109457488D01*
X57390483Y-109457490D01*
X57330862Y-109539550D01*
X57251657Y-109648566D01*
X57144433Y-109859003D01*
X57071446Y-110083631D01*
X57034500Y-110316902D01*
X57034500Y-110553097D01*
X57071446Y-110786368D01*
X57144433Y-111010996D01*
X57251657Y-111221433D01*
X57390483Y-111412510D01*
X57557490Y-111579517D01*
X57748567Y-111718343D01*
X57748573Y-111718347D01*
X57752719Y-111720888D01*
X57751476Y-111722915D01*
X57795145Y-111764263D01*
X57811855Y-111832105D01*
X57811379Y-111838794D01*
X57806085Y-111892534D01*
X58405589Y-112492037D01*
X58342007Y-112509075D01*
X58227993Y-112574901D01*
X58134901Y-112667993D01*
X58069075Y-112782007D01*
X58052037Y-112845588D01*
X57452534Y-112246085D01*
X57452534Y-112246086D01*
X57406158Y-112315493D01*
X57359490Y-112402801D01*
X57299185Y-112548387D01*
X57270444Y-112643135D01*
X57239701Y-112797697D01*
X57239701Y-112797700D01*
X57230000Y-112896210D01*
X57230000Y-113053789D01*
X57239701Y-113152299D01*
X57239701Y-113152302D01*
X57270444Y-113306864D01*
X57299185Y-113401612D01*
X57359490Y-113547198D01*
X57406155Y-113634501D01*
X57406161Y-113634511D01*
X57452534Y-113703912D01*
X58052037Y-113104410D01*
X58069075Y-113167993D01*
X58134901Y-113282007D01*
X58227993Y-113375099D01*
X58342007Y-113440925D01*
X58405589Y-113457962D01*
X57806085Y-114057465D01*
X57811378Y-114111209D01*
X57798358Y-114179854D01*
X57752306Y-114228439D01*
X57752719Y-114229112D01*
X57748573Y-114231652D01*
X57645482Y-114306552D01*
X57557490Y-114370483D01*
X57557488Y-114370485D01*
X57557487Y-114370485D01*
X57390484Y-114537488D01*
X57309912Y-114648386D01*
X57254581Y-114691051D01*
X57209594Y-114699500D01*
X53632940Y-114699500D01*
X53565901Y-114679815D01*
X53545259Y-114663181D01*
X52336819Y-113454741D01*
X52303334Y-113393418D01*
X52300500Y-113367060D01*
X52300500Y-66882940D01*
X52320185Y-66815901D01*
X52336819Y-66795259D01*
X73795259Y-45336819D01*
X73856582Y-45303334D01*
X73882940Y-45300500D01*
X78828844Y-45300500D01*
X78828845Y-45300499D01*
X78983497Y-45269737D01*
X79129179Y-45209394D01*
X79260289Y-45121789D01*
X82863185Y-41518891D01*
X82924506Y-41485408D01*
X82926503Y-41484991D01*
X83041835Y-41462051D01*
X83223914Y-41386632D01*
X83387782Y-41277139D01*
X83527139Y-41137782D01*
X83636632Y-40973914D01*
X83712051Y-40791835D01*
X83750500Y-40598541D01*
X83750500Y-40401459D01*
X83750500Y-40401456D01*
X83712052Y-40208170D01*
X83712051Y-40208169D01*
X83712051Y-40208165D01*
X83712049Y-40208160D01*
X83636635Y-40026092D01*
X83636628Y-40026079D01*
X83527139Y-39862218D01*
X83527136Y-39862214D01*
X83387785Y-39722863D01*
X83387781Y-39722860D01*
X83223920Y-39613371D01*
X83223907Y-39613364D01*
X83041839Y-39537950D01*
X83041829Y-39537947D01*
X82848543Y-39499500D01*
X82848541Y-39499500D01*
X82651459Y-39499500D01*
X82651457Y-39499500D01*
X82458170Y-39537947D01*
X82458160Y-39537950D01*
X82276092Y-39613364D01*
X82276079Y-39613371D01*
X82112218Y-39722860D01*
X82112214Y-39722863D01*
X81972863Y-39862214D01*
X81972860Y-39862218D01*
X81863371Y-40026079D01*
X81863364Y-40026092D01*
X81787950Y-40208160D01*
X81787947Y-40208170D01*
X81765041Y-40323326D01*
X81732656Y-40385237D01*
X81731105Y-40386815D01*
X78454741Y-43663181D01*
X78393418Y-43696666D01*
X78367060Y-43699500D01*
X73421154Y-43699500D01*
X73266509Y-43730261D01*
X73266497Y-43730264D01*
X73223832Y-43747936D01*
X73223833Y-43747937D01*
X73120823Y-43790604D01*
X73120814Y-43790609D01*
X72989712Y-43878209D01*
X72989710Y-43878212D01*
X51051681Y-65816241D01*
X50990358Y-65849726D01*
X50920666Y-65844742D01*
X50864733Y-65802870D01*
X50840316Y-65737406D01*
X50840000Y-65728560D01*
X50840000Y-33732014D01*
X72875000Y-33732014D01*
X72875000Y-33967985D01*
X72905799Y-34201914D01*
X72966870Y-34429837D01*
X73057160Y-34647819D01*
X73057165Y-34647828D01*
X73175144Y-34852171D01*
X73175145Y-34852172D01*
X73237721Y-34933723D01*
X74073958Y-34097487D01*
X74098978Y-34157890D01*
X74170112Y-34264351D01*
X74260649Y-34354888D01*
X74367110Y-34426022D01*
X74427511Y-34451041D01*
X73591275Y-35287277D01*
X73672827Y-35349854D01*
X73672828Y-35349855D01*
X73877171Y-35467834D01*
X73877180Y-35467839D01*
X74095163Y-35558129D01*
X74095161Y-35558129D01*
X74323085Y-35619200D01*
X74557014Y-35649999D01*
X74557029Y-35650000D01*
X74792971Y-35650000D01*
X74792985Y-35649999D01*
X75026914Y-35619200D01*
X75254837Y-35558129D01*
X75472819Y-35467839D01*
X75472828Y-35467834D01*
X75677181Y-35349850D01*
X75758723Y-35287279D01*
X75758723Y-35287276D01*
X74922487Y-34451041D01*
X74982890Y-34426022D01*
X75089351Y-34354888D01*
X75179888Y-34264351D01*
X75251022Y-34157890D01*
X75276041Y-34097487D01*
X76112276Y-34933723D01*
X76112279Y-34933723D01*
X76174850Y-34852181D01*
X76292834Y-34647828D01*
X76292839Y-34647819D01*
X76383129Y-34429837D01*
X76444200Y-34201914D01*
X76474999Y-33967985D01*
X76475000Y-33967971D01*
X76475000Y-33732028D01*
X76474999Y-33732014D01*
X76444200Y-33498085D01*
X76383129Y-33270162D01*
X76292839Y-33052180D01*
X76292834Y-33052171D01*
X76174855Y-32847828D01*
X76174849Y-32847818D01*
X76151661Y-32817599D01*
X76151660Y-32817598D01*
X76112278Y-32766275D01*
X76112277Y-32766275D01*
X75276041Y-33602511D01*
X75251022Y-33542110D01*
X75179888Y-33435649D01*
X75089351Y-33345112D01*
X74982890Y-33273978D01*
X74922488Y-33248958D01*
X75426582Y-32744863D01*
X77674500Y-32744863D01*
X77674500Y-34955136D01*
X77684582Y-35068548D01*
X77737762Y-35254405D01*
X77754933Y-35287277D01*
X77827266Y-35425751D01*
X77874518Y-35483700D01*
X77949428Y-35575571D01*
X78002935Y-35619200D01*
X78099249Y-35697734D01*
X78270594Y-35787237D01*
X78456448Y-35840417D01*
X78569862Y-35850500D01*
X78569870Y-35850500D01*
X80780130Y-35850500D01*
X80780138Y-35850500D01*
X80893552Y-35840417D01*
X81079406Y-35787237D01*
X81250751Y-35697734D01*
X81400571Y-35575571D01*
X81522734Y-35425751D01*
X81612237Y-35254406D01*
X81665417Y-35068552D01*
X81675500Y-34955138D01*
X81675500Y-32744862D01*
X81665417Y-32631448D01*
X81612237Y-32445594D01*
X81522734Y-32274249D01*
X81461652Y-32199339D01*
X81400571Y-32124428D01*
X81308700Y-32049518D01*
X81250751Y-32002266D01*
X81236082Y-31994604D01*
X81079405Y-31912762D01*
X80924845Y-31868537D01*
X80893552Y-31859583D01*
X80893551Y-31859582D01*
X80893548Y-31859582D01*
X80804662Y-31851680D01*
X80780138Y-31849500D01*
X78569862Y-31849500D01*
X78557599Y-31850590D01*
X78456451Y-31859582D01*
X78270594Y-31912762D01*
X78099250Y-32002265D01*
X77949428Y-32124428D01*
X77827265Y-32274250D01*
X77737762Y-32445594D01*
X77684582Y-32631451D01*
X77674500Y-32744863D01*
X75426582Y-32744863D01*
X75758723Y-32412721D01*
X75677172Y-32350145D01*
X75677171Y-32350144D01*
X75472828Y-32232165D01*
X75472819Y-32232160D01*
X75254836Y-32141870D01*
X75254838Y-32141870D01*
X75026914Y-32080799D01*
X74792985Y-32050000D01*
X74557014Y-32050000D01*
X74323085Y-32080799D01*
X74095162Y-32141870D01*
X73877180Y-32232160D01*
X73877171Y-32232165D01*
X73672828Y-32350144D01*
X73672818Y-32350150D01*
X73591275Y-32412720D01*
X73591275Y-32412721D01*
X74427512Y-33248958D01*
X74367110Y-33273978D01*
X74260649Y-33345112D01*
X74170112Y-33435649D01*
X74098978Y-33542110D01*
X74073958Y-33602512D01*
X73237721Y-32766275D01*
X73237720Y-32766275D01*
X73175150Y-32847818D01*
X73175144Y-32847828D01*
X73057165Y-33052171D01*
X73057160Y-33052180D01*
X72966870Y-33270162D01*
X72905799Y-33498085D01*
X72875000Y-33732014D01*
X50840000Y-33732014D01*
X50840000Y-25781362D01*
X50848644Y-25751921D01*
X50855168Y-25721935D01*
X50858922Y-25716919D01*
X50859685Y-25714323D01*
X50876319Y-25693681D01*
X51033181Y-25536819D01*
X51094504Y-25503334D01*
X51120862Y-25500500D01*
X144346000Y-25500500D01*
X144413039Y-25520185D01*
G37*
%TD.AperFunction*%
%TA.AperFunction,Conductor*%
G36*
X122121967Y-71470185D02*
G01*
X122142609Y-71486819D01*
X125013181Y-74357391D01*
X125046666Y-74418714D01*
X125049500Y-74445072D01*
X125049500Y-81111714D01*
X125029815Y-81178753D01*
X124982912Y-81221622D01*
X124924252Y-81252263D01*
X124774428Y-81374428D01*
X124652265Y-81524250D01*
X124562762Y-81695594D01*
X124509582Y-81881451D01*
X124500651Y-81981915D01*
X124499500Y-81994862D01*
X124499500Y-83205138D01*
X124501182Y-83224057D01*
X124509582Y-83318548D01*
X124509582Y-83318551D01*
X124509583Y-83318552D01*
X124512785Y-83329741D01*
X124562762Y-83504405D01*
X124629047Y-83631300D01*
X124652266Y-83675751D01*
X124692889Y-83725571D01*
X124774428Y-83825571D01*
X124823174Y-83865318D01*
X124897095Y-83925592D01*
X124936611Y-83983212D01*
X124938703Y-84053050D01*
X124906414Y-84109374D01*
X122789444Y-86226344D01*
X122728121Y-86259829D01*
X122682369Y-86261137D01*
X122672031Y-86259500D01*
X122672027Y-86259500D01*
X122427973Y-86259500D01*
X122387484Y-86265913D01*
X122186927Y-86297678D01*
X121954812Y-86373097D01*
X121737357Y-86483896D01*
X121539923Y-86627339D01*
X121539918Y-86627343D01*
X121367343Y-86799918D01*
X121367339Y-86799923D01*
X121223896Y-86997357D01*
X121113097Y-87214812D01*
X121037678Y-87446927D01*
X120999500Y-87687973D01*
X120999500Y-87932026D01*
X121034254Y-88151456D01*
X121037679Y-88173076D01*
X121113096Y-88405185D01*
X121220724Y-88616418D01*
X121223896Y-88622642D01*
X121367339Y-88820076D01*
X121367343Y-88820081D01*
X121539918Y-88992656D01*
X121539923Y-88992660D01*
X121736688Y-89135618D01*
X121779354Y-89190948D01*
X121785380Y-89231826D01*
X122420591Y-89867037D01*
X122357007Y-89884075D01*
X122242993Y-89949901D01*
X122149901Y-90042993D01*
X122084075Y-90157007D01*
X122067037Y-90220591D01*
X121434728Y-89588282D01*
X121434727Y-89588282D01*
X121395380Y-89642439D01*
X121298904Y-89831782D01*
X121233242Y-90033869D01*
X121233242Y-90033872D01*
X121200000Y-90243753D01*
X121200000Y-90456246D01*
X121233242Y-90666127D01*
X121233242Y-90666130D01*
X121298904Y-90868217D01*
X121395375Y-91057550D01*
X121434728Y-91111716D01*
X122067037Y-90479408D01*
X122084075Y-90542993D01*
X122149901Y-90657007D01*
X122242993Y-90750099D01*
X122357007Y-90815925D01*
X122420590Y-90832962D01*
X121784283Y-91469268D01*
X121773056Y-91522712D01*
X121736689Y-91564381D01*
X121539918Y-91707343D01*
X121367343Y-91879918D01*
X121367339Y-91879923D01*
X121223896Y-92077357D01*
X121113097Y-92294812D01*
X121113096Y-92294814D01*
X121113096Y-92294815D01*
X121110231Y-92303632D01*
X121037678Y-92526927D01*
X121004180Y-92738422D01*
X120999500Y-92767973D01*
X120999500Y-93012027D01*
X121011021Y-93084769D01*
X121037678Y-93253072D01*
X121037678Y-93253074D01*
X121037679Y-93253076D01*
X121113096Y-93485185D01*
X121217708Y-93690499D01*
X121223896Y-93702642D01*
X121367339Y-93900076D01*
X121367343Y-93900081D01*
X121539581Y-94072319D01*
X121573066Y-94133642D01*
X121568082Y-94203334D01*
X121539581Y-94247681D01*
X121367343Y-94419918D01*
X121367339Y-94419923D01*
X121223896Y-94617357D01*
X121113097Y-94834812D01*
X121113096Y-94834814D01*
X121113096Y-94834815D01*
X121110231Y-94843632D01*
X121037678Y-95066927D01*
X120999500Y-95307973D01*
X120999500Y-95552026D01*
X121036866Y-95787947D01*
X121037679Y-95793076D01*
X121113096Y-96025185D01*
X121171639Y-96140083D01*
X121223896Y-96242642D01*
X121367339Y-96440076D01*
X121367343Y-96440081D01*
X121539581Y-96612319D01*
X121573066Y-96673642D01*
X121568082Y-96743334D01*
X121539581Y-96787681D01*
X121367343Y-96959918D01*
X121367339Y-96959923D01*
X121223896Y-97157357D01*
X121113097Y-97374812D01*
X121113096Y-97374814D01*
X121113096Y-97374815D01*
X121110231Y-97383632D01*
X121037678Y-97606927D01*
X120999500Y-97847973D01*
X120999500Y-98092026D01*
X121034181Y-98310996D01*
X121037679Y-98333076D01*
X121113096Y-98565185D01*
X121223637Y-98782135D01*
X121223896Y-98782642D01*
X121367339Y-98980076D01*
X121367343Y-98980081D01*
X121539581Y-99152319D01*
X121573066Y-99213642D01*
X121568082Y-99283334D01*
X121539581Y-99327681D01*
X121367343Y-99499918D01*
X121367339Y-99499923D01*
X121223896Y-99697357D01*
X121113097Y-99914812D01*
X121037678Y-100146927D01*
X121017393Y-100275000D01*
X120999500Y-100387973D01*
X120999500Y-100632027D01*
X121037679Y-100873076D01*
X121113096Y-101105185D01*
X121191091Y-101258260D01*
X121223896Y-101322642D01*
X121367339Y-101520076D01*
X121367343Y-101520081D01*
X121539581Y-101692319D01*
X121573066Y-101753642D01*
X121568082Y-101823334D01*
X121539581Y-101867681D01*
X121367343Y-102039918D01*
X121367339Y-102039923D01*
X121223896Y-102237357D01*
X121113097Y-102454812D01*
X121113096Y-102454814D01*
X121113096Y-102454815D01*
X121110231Y-102463632D01*
X121037678Y-102686927D01*
X120999500Y-102927973D01*
X120999500Y-103172026D01*
X121034181Y-103390996D01*
X121037679Y-103413076D01*
X121113096Y-103645185D01*
X121222760Y-103860414D01*
X121223896Y-103862642D01*
X121367339Y-104060076D01*
X121367343Y-104060081D01*
X121539918Y-104232656D01*
X121539923Y-104232660D01*
X121736688Y-104375618D01*
X121779354Y-104430948D01*
X121785380Y-104471826D01*
X122420591Y-105107037D01*
X122357007Y-105124075D01*
X122242993Y-105189901D01*
X122149901Y-105282993D01*
X122084075Y-105397007D01*
X122067037Y-105460591D01*
X121434728Y-104828282D01*
X121434727Y-104828282D01*
X121395380Y-104882439D01*
X121298904Y-105071782D01*
X121233242Y-105273869D01*
X121233242Y-105273872D01*
X121200000Y-105483753D01*
X121200000Y-105696246D01*
X121233242Y-105906127D01*
X121233242Y-105906130D01*
X121298904Y-106108217D01*
X121395375Y-106297550D01*
X121434728Y-106351716D01*
X122067037Y-105719408D01*
X122084075Y-105782993D01*
X122149901Y-105897007D01*
X122242993Y-105990099D01*
X122357007Y-106055925D01*
X122420590Y-106072962D01*
X121788282Y-106705269D01*
X121788282Y-106705270D01*
X121842449Y-106744624D01*
X122031782Y-106841095D01*
X122233870Y-106906757D01*
X122443754Y-106940000D01*
X122656246Y-106940000D01*
X122866127Y-106906757D01*
X122866130Y-106906757D01*
X123068217Y-106841095D01*
X123257554Y-106744622D01*
X123311716Y-106705270D01*
X123311717Y-106705270D01*
X122679408Y-106072962D01*
X122742993Y-106055925D01*
X122857007Y-105990099D01*
X122950099Y-105897007D01*
X123015925Y-105782993D01*
X123032962Y-105719408D01*
X123665270Y-106351717D01*
X123665270Y-106351716D01*
X123704622Y-106297554D01*
X123801095Y-106108217D01*
X123866757Y-105906130D01*
X123866757Y-105906127D01*
X123884376Y-105794891D01*
X123914305Y-105731756D01*
X123973617Y-105694825D01*
X124043479Y-105695823D01*
X124094530Y-105726608D01*
X129989707Y-111621786D01*
X129989711Y-111621789D01*
X130120814Y-111709390D01*
X130120827Y-111709397D01*
X130174641Y-111731687D01*
X130266503Y-111769737D01*
X130421153Y-111800499D01*
X130421156Y-111800500D01*
X130421158Y-111800500D01*
X130578843Y-111800500D01*
X138367060Y-111800500D01*
X138434099Y-111820185D01*
X138454741Y-111836819D01*
X140413181Y-113795259D01*
X140446666Y-113856582D01*
X140449500Y-113882940D01*
X140449500Y-116117060D01*
X140429815Y-116184099D01*
X140413181Y-116204741D01*
X138704741Y-117913181D01*
X138643418Y-117946666D01*
X138617060Y-117949500D01*
X132576598Y-117949500D01*
X132509559Y-117929815D01*
X132463804Y-117877011D01*
X132453860Y-117807853D01*
X132482885Y-117744297D01*
X132498237Y-117729398D01*
X132520877Y-117710938D01*
X132625571Y-117625571D01*
X132747734Y-117475750D01*
X132837237Y-117304405D01*
X132890417Y-117118551D01*
X132900500Y-117005137D01*
X132900499Y-114994864D01*
X132890417Y-114881449D01*
X132837237Y-114695595D01*
X132747734Y-114524250D01*
X132698319Y-114463648D01*
X132625571Y-114374428D01*
X132475752Y-114252268D01*
X132475753Y-114252268D01*
X132475750Y-114252266D01*
X132304405Y-114162763D01*
X132118551Y-114109583D01*
X132118550Y-114109582D01*
X132118547Y-114109582D01*
X132051431Y-114103615D01*
X132005137Y-114099500D01*
X132005132Y-114099500D01*
X129994871Y-114099500D01*
X129994863Y-114099501D01*
X129881453Y-114109582D01*
X129881449Y-114109582D01*
X129881449Y-114109583D01*
X129856038Y-114116854D01*
X129695597Y-114162762D01*
X129695595Y-114162762D01*
X129695595Y-114162763D01*
X129524250Y-114252266D01*
X129524248Y-114252267D01*
X129524247Y-114252268D01*
X129374428Y-114374428D01*
X129254556Y-114521441D01*
X129252266Y-114524250D01*
X129202389Y-114619734D01*
X129162759Y-114695602D01*
X129157654Y-114713444D01*
X129120285Y-114772481D01*
X129056930Y-114801942D01*
X128987705Y-114792474D01*
X128940062Y-114754812D01*
X128931935Y-114744220D01*
X128755781Y-114568066D01*
X128755774Y-114568060D01*
X128558126Y-114416400D01*
X128342376Y-114291837D01*
X128342361Y-114291830D01*
X128112207Y-114196498D01*
X128050091Y-114179854D01*
X127871565Y-114132018D01*
X127871564Y-114132017D01*
X127871561Y-114132017D01*
X127624575Y-114099501D01*
X127624570Y-114099500D01*
X127624565Y-114099500D01*
X127375435Y-114099500D01*
X127375429Y-114099500D01*
X127375424Y-114099501D01*
X127128438Y-114132017D01*
X126887792Y-114196498D01*
X126657638Y-114291830D01*
X126657623Y-114291837D01*
X126441873Y-114416400D01*
X126244225Y-114568060D01*
X126244218Y-114568066D01*
X126068066Y-114744218D01*
X126068060Y-114744225D01*
X125916400Y-114941873D01*
X125857387Y-115044088D01*
X125806820Y-115092303D01*
X125738213Y-115105527D01*
X125673348Y-115079559D01*
X125642613Y-115044088D01*
X125583599Y-114941873D01*
X125431939Y-114744225D01*
X125431933Y-114744218D01*
X125255781Y-114568066D01*
X125255774Y-114568060D01*
X125058126Y-114416400D01*
X124842376Y-114291837D01*
X124842361Y-114291830D01*
X124612207Y-114196498D01*
X124550091Y-114179854D01*
X124371565Y-114132018D01*
X124371564Y-114132017D01*
X124371561Y-114132017D01*
X124124575Y-114099501D01*
X124124570Y-114099500D01*
X124124565Y-114099500D01*
X123875435Y-114099500D01*
X123875429Y-114099500D01*
X123875424Y-114099501D01*
X123628438Y-114132017D01*
X123387792Y-114196498D01*
X123157638Y-114291830D01*
X123157623Y-114291837D01*
X122941873Y-114416400D01*
X122744225Y-114568060D01*
X122744218Y-114568066D01*
X122568066Y-114744218D01*
X122568060Y-114744225D01*
X122416400Y-114941873D01*
X122357387Y-115044088D01*
X122306820Y-115092303D01*
X122238213Y-115105527D01*
X122173348Y-115079559D01*
X122142613Y-115044088D01*
X122083599Y-114941873D01*
X121931939Y-114744225D01*
X121931933Y-114744218D01*
X121755781Y-114568066D01*
X121755774Y-114568060D01*
X121558126Y-114416400D01*
X121342376Y-114291837D01*
X121342361Y-114291830D01*
X121112207Y-114196498D01*
X121050091Y-114179854D01*
X120871565Y-114132018D01*
X120871564Y-114132017D01*
X120871561Y-114132017D01*
X120624575Y-114099501D01*
X120624570Y-114099500D01*
X120624565Y-114099500D01*
X120375435Y-114099500D01*
X120375429Y-114099500D01*
X120375424Y-114099501D01*
X120128438Y-114132017D01*
X119887792Y-114196498D01*
X119657638Y-114291830D01*
X119657623Y-114291837D01*
X119441873Y-114416400D01*
X119244225Y-114568060D01*
X119244218Y-114568066D01*
X119068070Y-114744215D01*
X119068067Y-114744218D01*
X119068063Y-114744222D01*
X119068062Y-114744224D01*
X119062872Y-114750986D01*
X119006448Y-114792189D01*
X118964498Y-114799500D01*
X118190915Y-114799500D01*
X118123876Y-114779815D01*
X118103234Y-114763181D01*
X110514045Y-107173991D01*
X110480560Y-107112668D01*
X110485544Y-107042976D01*
X110527416Y-106987043D01*
X110545425Y-106975829D01*
X110662639Y-106916106D01*
X110860083Y-106772655D01*
X111032655Y-106600083D01*
X111176106Y-106402639D01*
X111286904Y-106185185D01*
X111362321Y-105953076D01*
X111400500Y-105712027D01*
X111400500Y-105467973D01*
X111362321Y-105226924D01*
X111286904Y-104994815D01*
X111176106Y-104777361D01*
X111065094Y-104624565D01*
X111032660Y-104579923D01*
X111032656Y-104579918D01*
X110860419Y-104407681D01*
X110826934Y-104346358D01*
X110831918Y-104276666D01*
X110860419Y-104232319D01*
X110944441Y-104148297D01*
X111032655Y-104060083D01*
X111176106Y-103862639D01*
X111286904Y-103645185D01*
X111362321Y-103413076D01*
X111400500Y-103172027D01*
X111400500Y-102927973D01*
X111362321Y-102686924D01*
X111286904Y-102454815D01*
X111176106Y-102237361D01*
X111132106Y-102176800D01*
X111032660Y-102039923D01*
X111032656Y-102039918D01*
X110860419Y-101867681D01*
X110826934Y-101806358D01*
X110831918Y-101736666D01*
X110860419Y-101692319D01*
X110940531Y-101612207D01*
X111032655Y-101520083D01*
X111176106Y-101322639D01*
X111286904Y-101105185D01*
X111362321Y-100873076D01*
X111400500Y-100632027D01*
X111400500Y-100387973D01*
X111362321Y-100146924D01*
X111286904Y-99914815D01*
X111176106Y-99697361D01*
X111150221Y-99661733D01*
X111032660Y-99499923D01*
X111032656Y-99499918D01*
X110860419Y-99327681D01*
X110826934Y-99266358D01*
X110831918Y-99196666D01*
X110860419Y-99152319D01*
X110945741Y-99066997D01*
X111032655Y-98980083D01*
X111176106Y-98782639D01*
X111286904Y-98565185D01*
X111362321Y-98333076D01*
X111400500Y-98092027D01*
X111400500Y-97847973D01*
X111362321Y-97606924D01*
X111286904Y-97374815D01*
X111176106Y-97157361D01*
X111092172Y-97041835D01*
X111032660Y-96959923D01*
X111032656Y-96959918D01*
X110860419Y-96787681D01*
X110826934Y-96726358D01*
X110831918Y-96656666D01*
X110860419Y-96612319D01*
X110930911Y-96541827D01*
X111032655Y-96440083D01*
X111176106Y-96242639D01*
X111286904Y-96025185D01*
X111362321Y-95793076D01*
X111400500Y-95552027D01*
X111400500Y-95307973D01*
X111362321Y-95066924D01*
X111286904Y-94834815D01*
X111176106Y-94617361D01*
X111116131Y-94534812D01*
X111032660Y-94419923D01*
X111032656Y-94419918D01*
X110860419Y-94247681D01*
X110826934Y-94186358D01*
X110831918Y-94116666D01*
X110860419Y-94072319D01*
X110922449Y-94010289D01*
X111032655Y-93900083D01*
X111061777Y-93860000D01*
X111147789Y-93741615D01*
X111203118Y-93698949D01*
X111248107Y-93690500D01*
X114438844Y-93690500D01*
X114438845Y-93690499D01*
X114593497Y-93659737D01*
X114737516Y-93600083D01*
X114739172Y-93599397D01*
X114739172Y-93599396D01*
X114739179Y-93599394D01*
X114870289Y-93511789D01*
X119113186Y-89268891D01*
X119174507Y-89235408D01*
X119176525Y-89234987D01*
X119291835Y-89212051D01*
X119471843Y-89137490D01*
X119473907Y-89136635D01*
X119473907Y-89136634D01*
X119473914Y-89136632D01*
X119637782Y-89027139D01*
X119777139Y-88887782D01*
X119886632Y-88723914D01*
X119889252Y-88717590D01*
X119917775Y-88648727D01*
X119962051Y-88541835D01*
X119988662Y-88408053D01*
X120000500Y-88348543D01*
X120000500Y-88151456D01*
X119962052Y-87958170D01*
X119962051Y-87958169D01*
X119962051Y-87958165D01*
X119962049Y-87958160D01*
X119886635Y-87776092D01*
X119886628Y-87776079D01*
X119777139Y-87612218D01*
X119777136Y-87612214D01*
X119637785Y-87472863D01*
X119637781Y-87472860D01*
X119473920Y-87363371D01*
X119473907Y-87363364D01*
X119291839Y-87287950D01*
X119291829Y-87287947D01*
X119098543Y-87249500D01*
X119098541Y-87249500D01*
X118901459Y-87249500D01*
X118901457Y-87249500D01*
X118708170Y-87287947D01*
X118708160Y-87287950D01*
X118526092Y-87363364D01*
X118526079Y-87363371D01*
X118362218Y-87472860D01*
X118362214Y-87472863D01*
X118222863Y-87612214D01*
X118222860Y-87612218D01*
X118113371Y-87776079D01*
X118113364Y-87776092D01*
X118037950Y-87958160D01*
X118037948Y-87958169D01*
X118015040Y-88073329D01*
X117982654Y-88135239D01*
X117981104Y-88136817D01*
X114064741Y-92053181D01*
X114003418Y-92086666D01*
X113977060Y-92089500D01*
X111248107Y-92089500D01*
X111181068Y-92069815D01*
X111147789Y-92038385D01*
X111032660Y-91879923D01*
X111032656Y-91879918D01*
X110860419Y-91707681D01*
X110826934Y-91646358D01*
X110831918Y-91576666D01*
X110860419Y-91532319D01*
X110939642Y-91453096D01*
X111032655Y-91360083D01*
X111176106Y-91162639D01*
X111286904Y-90945185D01*
X111362321Y-90713076D01*
X111400500Y-90472027D01*
X111400500Y-90227973D01*
X111362321Y-89986924D01*
X111286904Y-89754815D01*
X111176106Y-89537361D01*
X111176104Y-89537358D01*
X111176103Y-89537356D01*
X111080449Y-89405698D01*
X111056969Y-89339891D01*
X111072795Y-89271838D01*
X111116621Y-89226694D01*
X111135182Y-89215474D01*
X111135182Y-89215473D01*
X111135185Y-89215472D01*
X111255472Y-89095185D01*
X111266694Y-89076620D01*
X111318220Y-89029431D01*
X111387079Y-89017590D01*
X111445698Y-89040449D01*
X111577356Y-89136103D01*
X111577358Y-89136104D01*
X111577361Y-89136106D01*
X111794815Y-89246904D01*
X112026924Y-89322321D01*
X112267973Y-89360500D01*
X112267974Y-89360500D01*
X112512026Y-89360500D01*
X112512027Y-89360500D01*
X112753076Y-89322321D01*
X112985185Y-89246904D01*
X113202639Y-89136106D01*
X113400083Y-88992655D01*
X113572319Y-88820419D01*
X113633642Y-88786934D01*
X113703334Y-88791918D01*
X113747681Y-88820419D01*
X113919918Y-88992656D01*
X113919923Y-88992660D01*
X114061034Y-89095182D01*
X114117361Y-89136106D01*
X114334815Y-89246904D01*
X114566924Y-89322321D01*
X114807973Y-89360500D01*
X114807974Y-89360500D01*
X115052026Y-89360500D01*
X115052027Y-89360500D01*
X115293076Y-89322321D01*
X115525185Y-89246904D01*
X115742639Y-89136106D01*
X115940083Y-88992655D01*
X116112655Y-88820083D01*
X116235739Y-88650671D01*
X116291066Y-88608008D01*
X116311849Y-88601945D01*
X116423497Y-88579737D01*
X116550481Y-88527139D01*
X116569172Y-88519397D01*
X116569172Y-88519396D01*
X116569179Y-88519394D01*
X116700289Y-88431789D01*
X120739100Y-84392976D01*
X120800421Y-84359493D01*
X120870113Y-84364477D01*
X120926046Y-84406349D01*
X120937263Y-84424363D01*
X120942185Y-84434023D01*
X121071752Y-84612358D01*
X121071756Y-84612363D01*
X121227636Y-84768243D01*
X121227641Y-84768247D01*
X121285435Y-84810236D01*
X121405978Y-84897815D01*
X121504822Y-84948179D01*
X121602393Y-84997895D01*
X121602396Y-84997896D01*
X121664453Y-85018059D01*
X121812049Y-85066015D01*
X122029778Y-85100500D01*
X122029779Y-85100500D01*
X122250221Y-85100500D01*
X122250222Y-85100500D01*
X122467951Y-85066015D01*
X122677606Y-84997895D01*
X122874022Y-84897815D01*
X123052365Y-84768242D01*
X123208242Y-84612365D01*
X123337815Y-84434022D01*
X123437895Y-84237606D01*
X123506015Y-84027951D01*
X123540500Y-83810222D01*
X123540500Y-83589778D01*
X123506015Y-83372049D01*
X123459196Y-83227952D01*
X123437896Y-83162396D01*
X123437895Y-83162393D01*
X123368978Y-83027139D01*
X123337815Y-82965978D01*
X123293089Y-82904417D01*
X123208247Y-82787641D01*
X123208243Y-82787636D01*
X123052363Y-82631756D01*
X123052358Y-82631752D01*
X122874025Y-82502187D01*
X122874024Y-82502186D01*
X122874022Y-82502185D01*
X122762981Y-82445606D01*
X122677606Y-82402104D01*
X122677603Y-82402103D01*
X122467952Y-82333985D01*
X122336392Y-82313148D01*
X122250222Y-82299500D01*
X122029778Y-82299500D01*
X121957201Y-82310995D01*
X121812047Y-82333985D01*
X121602396Y-82402103D01*
X121602393Y-82402104D01*
X121405974Y-82502186D01*
X121372384Y-82526591D01*
X121360524Y-82530822D01*
X121351011Y-82539066D01*
X121328243Y-82542339D01*
X121306577Y-82550070D01*
X121294314Y-82547218D01*
X121281853Y-82549010D01*
X121260926Y-82539453D01*
X121238523Y-82534243D01*
X121229749Y-82525215D01*
X121218297Y-82519985D01*
X121205860Y-82500633D01*
X121189829Y-82484137D01*
X121186425Y-82470390D01*
X121180523Y-82461207D01*
X121175500Y-82426272D01*
X121175500Y-82265434D01*
X121195185Y-82198395D01*
X121196398Y-82196543D01*
X121216822Y-82165976D01*
X121261632Y-82098914D01*
X121266304Y-82087636D01*
X121322976Y-81950815D01*
X121337051Y-81916835D01*
X121353974Y-81831757D01*
X121375500Y-81723543D01*
X121375500Y-81526456D01*
X121337052Y-81333170D01*
X121337051Y-81333169D01*
X121337051Y-81333165D01*
X121333801Y-81325318D01*
X121261635Y-81151092D01*
X121261628Y-81151079D01*
X121152139Y-80987218D01*
X121152136Y-80987214D01*
X121012785Y-80847863D01*
X121012781Y-80847860D01*
X120848920Y-80738371D01*
X120848907Y-80738364D01*
X120666839Y-80662950D01*
X120666829Y-80662947D01*
X120473543Y-80624500D01*
X120473541Y-80624500D01*
X120276459Y-80624500D01*
X120276457Y-80624500D01*
X120083170Y-80662947D01*
X120083160Y-80662950D01*
X119901092Y-80738364D01*
X119901079Y-80738371D01*
X119737218Y-80847860D01*
X119737214Y-80847863D01*
X119597863Y-80987214D01*
X119597860Y-80987218D01*
X119488371Y-81151079D01*
X119488364Y-81151092D01*
X119412950Y-81333160D01*
X119412947Y-81333170D01*
X119389376Y-81451667D01*
X119356991Y-81513578D01*
X119296274Y-81548152D01*
X119226505Y-81544411D01*
X119180078Y-81515156D01*
X119137785Y-81472863D01*
X119137781Y-81472860D01*
X118973920Y-81363371D01*
X118973907Y-81363364D01*
X118791839Y-81287950D01*
X118791829Y-81287947D01*
X118676672Y-81265041D01*
X118614762Y-81232656D01*
X118613183Y-81231105D01*
X111510292Y-74128213D01*
X111510288Y-74128210D01*
X111379185Y-74040609D01*
X111379172Y-74040602D01*
X111233501Y-73980264D01*
X111233489Y-73980261D01*
X111078845Y-73949500D01*
X111078842Y-73949500D01*
X103140435Y-73949500D01*
X103073396Y-73929815D01*
X103071544Y-73928602D01*
X102973911Y-73863366D01*
X102791839Y-73787950D01*
X102791829Y-73787947D01*
X102614351Y-73752644D01*
X102552440Y-73720259D01*
X102517866Y-73659543D01*
X102521606Y-73589774D01*
X102550860Y-73543348D01*
X104607391Y-71486819D01*
X104668714Y-71453334D01*
X104695072Y-71450500D01*
X122054928Y-71450500D01*
X122121967Y-71470185D01*
G37*
%TD.AperFunction*%
%TA.AperFunction,Conductor*%
G36*
X101893391Y-75547968D02*
G01*
X102026079Y-75636628D01*
X102026092Y-75636635D01*
X102187142Y-75703343D01*
X102241546Y-75747183D01*
X102263611Y-75813477D01*
X102261308Y-75842094D01*
X102254363Y-75877007D01*
X102249500Y-75901459D01*
X102249500Y-76098541D01*
X102249500Y-76098543D01*
X102249499Y-76098543D01*
X102287947Y-76291829D01*
X102287950Y-76291839D01*
X102363364Y-76473907D01*
X102363371Y-76473920D01*
X102472860Y-76637781D01*
X102472863Y-76637785D01*
X102612214Y-76777136D01*
X102612218Y-76777139D01*
X102776079Y-76886628D01*
X102776092Y-76886635D01*
X102839621Y-76912949D01*
X102958165Y-76962051D01*
X103073328Y-76984958D01*
X103135235Y-77017341D01*
X103136815Y-77018893D01*
X105163181Y-79045258D01*
X105196666Y-79106581D01*
X105199500Y-79132939D01*
X105199500Y-86828846D01*
X105230261Y-86983489D01*
X105230264Y-86983501D01*
X105290602Y-87129172D01*
X105290609Y-87129185D01*
X105378210Y-87260288D01*
X105378213Y-87260292D01*
X106913181Y-88795259D01*
X106946666Y-88856582D01*
X106949500Y-88882940D01*
X106949500Y-90428846D01*
X106980261Y-90583489D01*
X106980264Y-90583501D01*
X107040602Y-90729172D01*
X107040609Y-90729185D01*
X107128210Y-90860288D01*
X107128213Y-90860292D01*
X107239707Y-90971786D01*
X107239711Y-90971789D01*
X107370814Y-91059390D01*
X107370827Y-91059397D01*
X107497138Y-91111716D01*
X107516503Y-91119737D01*
X107671153Y-91150499D01*
X107671156Y-91150500D01*
X107671158Y-91150500D01*
X107828842Y-91150500D01*
X108451893Y-91150500D01*
X108518932Y-91170185D01*
X108552211Y-91201615D01*
X108667339Y-91360076D01*
X108667343Y-91360081D01*
X108839581Y-91532319D01*
X108873066Y-91593642D01*
X108868082Y-91663334D01*
X108839581Y-91707681D01*
X108667343Y-91879918D01*
X108667339Y-91879923D01*
X108523896Y-92077357D01*
X108413097Y-92294812D01*
X108413096Y-92294814D01*
X108413096Y-92294815D01*
X108410231Y-92303632D01*
X108337678Y-92526927D01*
X108304180Y-92738422D01*
X108299500Y-92767973D01*
X108299500Y-93012027D01*
X108311021Y-93084769D01*
X108337678Y-93253072D01*
X108337678Y-93253073D01*
X108395876Y-93432187D01*
X108397871Y-93502028D01*
X108361791Y-93561861D01*
X108299090Y-93592689D01*
X108229675Y-93584724D01*
X108190264Y-93558186D01*
X104336819Y-89704741D01*
X104303334Y-89643418D01*
X104300500Y-89617060D01*
X104300500Y-88640434D01*
X104320185Y-88573395D01*
X104321398Y-88571543D01*
X104386632Y-88473914D01*
X104462051Y-88291835D01*
X104489974Y-88151459D01*
X104500500Y-88098543D01*
X104500500Y-87901456D01*
X104462052Y-87708170D01*
X104462051Y-87708169D01*
X104462051Y-87708165D01*
X104439528Y-87653789D01*
X104386635Y-87526092D01*
X104386628Y-87526079D01*
X104277139Y-87362218D01*
X104277136Y-87362214D01*
X104137785Y-87222863D01*
X104137781Y-87222860D01*
X103973920Y-87113371D01*
X103973907Y-87113364D01*
X103791839Y-87037950D01*
X103791829Y-87037947D01*
X103598543Y-86999500D01*
X103598541Y-86999500D01*
X103401459Y-86999500D01*
X103401457Y-86999500D01*
X103208170Y-87037947D01*
X103208160Y-87037950D01*
X103026092Y-87113364D01*
X103026079Y-87113371D01*
X102862218Y-87222860D01*
X102862214Y-87222863D01*
X102722863Y-87362214D01*
X102722860Y-87362218D01*
X102613371Y-87526079D01*
X102613364Y-87526092D01*
X102537950Y-87708160D01*
X102537947Y-87708170D01*
X102499500Y-87901456D01*
X102499500Y-87901459D01*
X102499500Y-88098541D01*
X102499500Y-88098543D01*
X102499499Y-88098543D01*
X102537947Y-88291829D01*
X102537950Y-88291839D01*
X102613364Y-88473907D01*
X102613371Y-88473919D01*
X102678602Y-88571543D01*
X102699480Y-88638220D01*
X102699500Y-88640434D01*
X102699500Y-90078846D01*
X102730261Y-90233489D01*
X102730264Y-90233501D01*
X102790602Y-90379172D01*
X102790609Y-90379185D01*
X102878210Y-90510288D01*
X102878213Y-90510292D01*
X104605741Y-92237819D01*
X104639226Y-92299142D01*
X104634242Y-92368834D01*
X104592370Y-92424767D01*
X104526906Y-92449184D01*
X104518060Y-92449500D01*
X103140435Y-92449500D01*
X103073396Y-92429815D01*
X103071544Y-92428602D01*
X102973911Y-92363366D01*
X102791839Y-92287950D01*
X102791829Y-92287947D01*
X102598543Y-92249500D01*
X102598541Y-92249500D01*
X102401459Y-92249500D01*
X102401457Y-92249500D01*
X102208170Y-92287947D01*
X102208160Y-92287950D01*
X102026092Y-92363364D01*
X102026079Y-92363371D01*
X101862218Y-92472860D01*
X101862214Y-92472863D01*
X101722863Y-92612214D01*
X101722860Y-92612218D01*
X101613371Y-92776079D01*
X101613364Y-92776092D01*
X101537950Y-92958160D01*
X101537947Y-92958170D01*
X101499500Y-93151456D01*
X101499500Y-93151459D01*
X101499500Y-93348541D01*
X101499500Y-93348543D01*
X101499499Y-93348543D01*
X101537947Y-93541829D01*
X101537950Y-93541839D01*
X101613364Y-93723907D01*
X101613371Y-93723920D01*
X101722860Y-93887781D01*
X101722863Y-93887785D01*
X101862214Y-94027136D01*
X101862218Y-94027139D01*
X102026079Y-94136628D01*
X102026092Y-94136635D01*
X102146136Y-94186358D01*
X102208165Y-94212051D01*
X102208169Y-94212051D01*
X102208170Y-94212052D01*
X102401456Y-94250500D01*
X102401459Y-94250500D01*
X102598543Y-94250500D01*
X102728582Y-94224632D01*
X102791835Y-94212051D01*
X102973914Y-94136632D01*
X103069663Y-94072655D01*
X103071544Y-94071398D01*
X103138222Y-94050520D01*
X103140435Y-94050500D01*
X104747060Y-94050500D01*
X104814099Y-94070185D01*
X104834741Y-94086819D01*
X105817460Y-95069538D01*
X105850945Y-95130861D01*
X105845961Y-95200553D01*
X105804089Y-95256486D01*
X105753973Y-95278836D01*
X105708168Y-95287948D01*
X105708160Y-95287950D01*
X105526092Y-95363364D01*
X105526079Y-95363371D01*
X105362218Y-95472860D01*
X105362214Y-95472863D01*
X105222863Y-95612214D01*
X105222860Y-95612218D01*
X105113371Y-95776079D01*
X105113364Y-95776092D01*
X105037950Y-95958160D01*
X105037947Y-95958170D01*
X104999500Y-96151456D01*
X104999500Y-96151459D01*
X104999500Y-96348541D01*
X104999500Y-96348543D01*
X104999499Y-96348543D01*
X105037947Y-96541829D01*
X105037950Y-96541839D01*
X105113364Y-96723907D01*
X105113371Y-96723919D01*
X105178602Y-96821543D01*
X105199480Y-96888220D01*
X105199500Y-96890434D01*
X105199500Y-98569245D01*
X105217028Y-98657366D01*
X105210801Y-98726958D01*
X105167937Y-98782135D01*
X105164317Y-98784649D01*
X105162227Y-98786045D01*
X105162221Y-98786050D01*
X105022859Y-98925411D01*
X104913371Y-99089271D01*
X104913364Y-99089284D01*
X104837950Y-99271352D01*
X104837947Y-99271362D01*
X104800664Y-99458793D01*
X104768279Y-99520704D01*
X104707563Y-99555278D01*
X104637793Y-99551537D01*
X104591366Y-99522282D01*
X101823396Y-96754312D01*
X101823394Y-96754310D01*
X101670519Y-96643240D01*
X101502156Y-96557454D01*
X101322438Y-96499059D01*
X101135806Y-96469500D01*
X101135801Y-96469500D01*
X99702600Y-96469500D01*
X99635561Y-96449815D01*
X99589806Y-96397011D01*
X99579862Y-96327853D01*
X99608887Y-96264297D01*
X99614919Y-96257819D01*
X99630099Y-96242639D01*
X99732655Y-96140083D01*
X99876106Y-95942639D01*
X99986904Y-95725185D01*
X100062321Y-95493076D01*
X100100500Y-95252027D01*
X100100500Y-95007973D01*
X100062321Y-94766924D01*
X99986904Y-94534815D01*
X99876106Y-94317361D01*
X99825237Y-94247345D01*
X99732660Y-94119923D01*
X99732656Y-94119918D01*
X99560419Y-93947681D01*
X99526934Y-93886358D01*
X99531918Y-93816666D01*
X99560419Y-93772319D01*
X99642239Y-93690499D01*
X99732655Y-93600083D01*
X99876106Y-93402639D01*
X99986904Y-93185185D01*
X100062321Y-92953076D01*
X100100500Y-92712027D01*
X100100500Y-92467973D01*
X100062321Y-92226924D01*
X99986904Y-91994815D01*
X99876106Y-91777361D01*
X99822227Y-91703203D01*
X99732660Y-91579923D01*
X99732656Y-91579918D01*
X99560081Y-91407343D01*
X99560076Y-91407339D01*
X99363310Y-91264381D01*
X99320644Y-91209052D01*
X99314617Y-91168170D01*
X98679408Y-90532962D01*
X98742993Y-90515925D01*
X98857007Y-90450099D01*
X98950099Y-90357007D01*
X99015925Y-90242993D01*
X99032962Y-90179408D01*
X99665270Y-90811717D01*
X99665270Y-90811716D01*
X99704622Y-90757554D01*
X99801095Y-90568217D01*
X99866757Y-90366130D01*
X99866757Y-90366127D01*
X99900000Y-90156246D01*
X99900000Y-89943753D01*
X99866757Y-89733872D01*
X99866757Y-89733869D01*
X99801095Y-89531782D01*
X99704624Y-89342449D01*
X99665270Y-89288282D01*
X99665269Y-89288282D01*
X99032962Y-89920590D01*
X99015925Y-89857007D01*
X98950099Y-89742993D01*
X98857007Y-89649901D01*
X98742993Y-89584075D01*
X98679409Y-89567037D01*
X99315714Y-88930730D01*
X99326940Y-88877289D01*
X99363306Y-88835621D01*
X99560083Y-88692655D01*
X99732655Y-88520083D01*
X99876106Y-88322639D01*
X99986904Y-88105185D01*
X100062321Y-87873076D01*
X100100500Y-87632027D01*
X100100500Y-87387973D01*
X100098862Y-87377632D01*
X100107816Y-87308340D01*
X100133651Y-87270556D01*
X101323526Y-86080682D01*
X101323529Y-86080681D01*
X101455923Y-85948287D01*
X101559943Y-85792610D01*
X101559944Y-85792609D01*
X101616202Y-85656789D01*
X101631594Y-85619630D01*
X101658672Y-85483497D01*
X101668121Y-85435996D01*
X101668121Y-85248762D01*
X101668121Y-83988284D01*
X101687806Y-83921245D01*
X101734709Y-83878376D01*
X101793372Y-83847734D01*
X101943192Y-83725571D01*
X102065355Y-83575751D01*
X102154858Y-83404406D01*
X102208038Y-83218552D01*
X102210151Y-83194784D01*
X102235691Y-83129754D01*
X102245982Y-83118083D01*
X102817621Y-82546445D01*
X102817621Y-82552661D01*
X102844880Y-82654394D01*
X102897541Y-82745606D01*
X102972015Y-82820080D01*
X103063227Y-82872741D01*
X103164960Y-82900000D01*
X103171174Y-82900000D01*
X102491697Y-83579474D01*
X102536271Y-83611859D01*
X102718589Y-83704755D01*
X102913203Y-83767990D01*
X103115304Y-83800000D01*
X103319938Y-83800000D01*
X103522038Y-83767990D01*
X103716652Y-83704755D01*
X103898970Y-83611859D01*
X103943542Y-83579474D01*
X103264068Y-82900000D01*
X103270282Y-82900000D01*
X103372015Y-82872741D01*
X103463227Y-82820080D01*
X103537701Y-82745606D01*
X103590362Y-82654394D01*
X103617621Y-82552661D01*
X103617621Y-82546448D01*
X104297095Y-83225922D01*
X104297095Y-83225921D01*
X104329480Y-83181349D01*
X104422376Y-82999031D01*
X104485611Y-82804417D01*
X104517621Y-82602317D01*
X104517621Y-82397682D01*
X104485611Y-82195582D01*
X104422376Y-82000968D01*
X104329480Y-81818650D01*
X104297095Y-81774077D01*
X104297095Y-81774076D01*
X103617621Y-82453551D01*
X103617621Y-82447339D01*
X103590362Y-82345606D01*
X103537701Y-82254394D01*
X103463227Y-82179920D01*
X103372015Y-82127259D01*
X103270282Y-82100000D01*
X103264067Y-82100000D01*
X103943543Y-81420524D01*
X103943542Y-81420523D01*
X103898980Y-81388147D01*
X103898971Y-81388141D01*
X103716652Y-81295244D01*
X103522038Y-81232009D01*
X103319938Y-81200000D01*
X103115304Y-81200000D01*
X102913203Y-81232009D01*
X102718589Y-81295244D01*
X102536265Y-81388143D01*
X102491698Y-81420523D01*
X102491698Y-81420524D01*
X103171175Y-82100000D01*
X103164960Y-82100000D01*
X103063227Y-82127259D01*
X102972015Y-82179920D01*
X102897541Y-82254394D01*
X102844880Y-82345606D01*
X102817621Y-82447339D01*
X102817621Y-82453554D01*
X102245982Y-81881915D01*
X102212497Y-81820592D01*
X102210151Y-81805220D01*
X102208038Y-81781448D01*
X102154858Y-81595594D01*
X102065355Y-81424249D01*
X101984687Y-81325318D01*
X101943192Y-81274428D01*
X101793372Y-81152266D01*
X101767086Y-81138535D01*
X101716780Y-81090047D01*
X101700500Y-81028627D01*
X101700500Y-75651070D01*
X101720185Y-75584031D01*
X101772989Y-75538276D01*
X101842147Y-75528332D01*
X101893391Y-75547968D01*
G37*
%TD.AperFunction*%
%TA.AperFunction,Conductor*%
G36*
X55005703Y-82638227D02*
G01*
X55012181Y-82644259D01*
X57024051Y-84656129D01*
X57057536Y-84717452D01*
X57058843Y-84763208D01*
X57034500Y-84916902D01*
X57034500Y-85153097D01*
X57071446Y-85386368D01*
X57144433Y-85610996D01*
X57220683Y-85760643D01*
X57251657Y-85821433D01*
X57390483Y-86012510D01*
X57557490Y-86179517D01*
X57748567Y-86318343D01*
X57748573Y-86318347D01*
X57752719Y-86320888D01*
X57751476Y-86322915D01*
X57795145Y-86364263D01*
X57811855Y-86432105D01*
X57811379Y-86438794D01*
X57806085Y-86492534D01*
X58405589Y-87092037D01*
X58342007Y-87109075D01*
X58227993Y-87174901D01*
X58134901Y-87267993D01*
X58069075Y-87382007D01*
X58052037Y-87445589D01*
X57452534Y-86846085D01*
X57452534Y-86846086D01*
X57406158Y-86915493D01*
X57359490Y-87002801D01*
X57299185Y-87148387D01*
X57270444Y-87243135D01*
X57239701Y-87397697D01*
X57239701Y-87397702D01*
X57239403Y-87400726D01*
X57213236Y-87465511D01*
X57156198Y-87505865D01*
X57086398Y-87508976D01*
X57028320Y-87476242D01*
X54836819Y-85284741D01*
X54803334Y-85223418D01*
X54800500Y-85197060D01*
X54800500Y-82731940D01*
X54820185Y-82664901D01*
X54872989Y-82619146D01*
X54942147Y-82609202D01*
X55005703Y-82638227D01*
G37*
%TD.AperFunction*%
%TA.AperFunction,Conductor*%
G36*
X77821712Y-70455044D02*
G01*
X77837949Y-70468713D01*
X87203181Y-79833945D01*
X87236666Y-79895268D01*
X87239500Y-79921626D01*
X87239500Y-81687301D01*
X87219815Y-81754340D01*
X87188387Y-81787618D01*
X87127635Y-81831757D01*
X86971756Y-81987636D01*
X86971752Y-81987641D01*
X86842187Y-82165974D01*
X86742104Y-82362393D01*
X86742103Y-82362396D01*
X86673985Y-82572047D01*
X86649932Y-82723914D01*
X86639500Y-82789778D01*
X86639500Y-83010222D01*
X86655351Y-83110304D01*
X86673985Y-83227952D01*
X86742103Y-83437603D01*
X86742104Y-83437606D01*
X86793058Y-83537606D01*
X86840798Y-83631300D01*
X86842187Y-83634025D01*
X86971752Y-83812358D01*
X86971756Y-83812363D01*
X87127636Y-83968243D01*
X87127641Y-83968247D01*
X87244364Y-84053050D01*
X87305978Y-84097815D01*
X87429219Y-84160610D01*
X87502393Y-84197895D01*
X87502396Y-84197896D01*
X87554469Y-84214815D01*
X87712049Y-84266015D01*
X87929778Y-84300500D01*
X87929779Y-84300500D01*
X88150221Y-84300500D01*
X88150222Y-84300500D01*
X88367951Y-84266015D01*
X88577606Y-84197895D01*
X88774022Y-84097815D01*
X88952365Y-83968242D01*
X89108242Y-83812365D01*
X89237815Y-83634022D01*
X89284015Y-83543349D01*
X89331990Y-83492554D01*
X89399811Y-83475759D01*
X89465946Y-83498297D01*
X89509397Y-83553012D01*
X89518500Y-83599645D01*
X89518500Y-84647846D01*
X89549261Y-84802489D01*
X89549264Y-84802501D01*
X89609602Y-84948172D01*
X89609609Y-84948185D01*
X89697210Y-85079288D01*
X89697213Y-85079292D01*
X90460581Y-85842659D01*
X90494066Y-85903982D01*
X90489082Y-85973673D01*
X90447210Y-86029607D01*
X90411220Y-86048270D01*
X90390330Y-86055057D01*
X90334810Y-86073097D01*
X90117357Y-86183896D01*
X89919923Y-86327339D01*
X89919918Y-86327343D01*
X89747681Y-86499581D01*
X89686358Y-86533066D01*
X89616666Y-86528082D01*
X89572319Y-86499581D01*
X89400081Y-86327343D01*
X89400076Y-86327339D01*
X89202642Y-86183896D01*
X89202641Y-86183895D01*
X89202639Y-86183894D01*
X88985185Y-86073096D01*
X88753076Y-85997679D01*
X88753074Y-85997678D01*
X88753072Y-85997678D01*
X88570801Y-85968809D01*
X88512027Y-85959500D01*
X88267973Y-85959500D01*
X88257638Y-85961137D01*
X88026927Y-85997678D01*
X87794812Y-86073097D01*
X87577357Y-86183896D01*
X87445699Y-86279551D01*
X87379893Y-86303031D01*
X87311839Y-86287205D01*
X87266697Y-86243382D01*
X87255474Y-86224817D01*
X87255471Y-86224813D01*
X87135188Y-86104530D01*
X87118621Y-86094515D01*
X86989606Y-86016522D01*
X86827196Y-85965914D01*
X86827194Y-85965913D01*
X86827192Y-85965913D01*
X86777778Y-85961423D01*
X86756616Y-85959500D01*
X84943384Y-85959500D01*
X84924145Y-85961248D01*
X84872807Y-85965913D01*
X84710393Y-86016522D01*
X84564811Y-86104530D01*
X84564810Y-86104531D01*
X84512181Y-86157161D01*
X84492744Y-86167773D01*
X84476011Y-86182274D01*
X84462679Y-86184190D01*
X84450858Y-86190646D01*
X84428771Y-86189066D01*
X84406853Y-86192218D01*
X84394601Y-86186622D01*
X84381166Y-86185662D01*
X84363439Y-86172391D01*
X84343297Y-86163193D01*
X84336014Y-86151861D01*
X84325233Y-86143790D01*
X84317495Y-86123044D01*
X84305523Y-86104415D01*
X84302371Y-86082496D01*
X84300816Y-86078326D01*
X84300500Y-86069480D01*
X84300500Y-85882940D01*
X84320185Y-85815901D01*
X84336819Y-85795259D01*
X86121786Y-84010292D01*
X86121789Y-84010289D01*
X86136492Y-83988284D01*
X86156358Y-83958554D01*
X86156358Y-83958553D01*
X86186689Y-83913159D01*
X86209394Y-83879179D01*
X86269737Y-83733497D01*
X86300500Y-83578842D01*
X86300500Y-80671158D01*
X86292084Y-80628845D01*
X86269737Y-80516502D01*
X86252062Y-80473833D01*
X86209394Y-80370821D01*
X86121789Y-80239711D01*
X86010289Y-80128211D01*
X85261081Y-79379003D01*
X84510292Y-78628213D01*
X84510288Y-78628210D01*
X84379185Y-78540609D01*
X84379172Y-78540602D01*
X84233501Y-78480264D01*
X84233489Y-78480261D01*
X84078845Y-78449500D01*
X84078842Y-78449500D01*
X83882940Y-78449500D01*
X83815901Y-78429815D01*
X83795259Y-78413181D01*
X83518893Y-78136815D01*
X83485408Y-78075492D01*
X83484986Y-78073468D01*
X83462051Y-77958165D01*
X83425871Y-77870817D01*
X83386635Y-77776092D01*
X83386628Y-77776079D01*
X83277139Y-77612218D01*
X83277136Y-77612214D01*
X83137785Y-77472863D01*
X83137781Y-77472860D01*
X82973920Y-77363371D01*
X82973907Y-77363364D01*
X82791839Y-77287950D01*
X82791827Y-77287947D01*
X82783346Y-77286260D01*
X82721435Y-77253876D01*
X82686861Y-77193160D01*
X82685919Y-77188829D01*
X82684233Y-77180351D01*
X82684232Y-77180350D01*
X82684232Y-77180346D01*
X82635888Y-77063632D01*
X82608816Y-76998273D01*
X82608809Y-76998260D01*
X82499320Y-76834399D01*
X82499317Y-76834395D01*
X82359966Y-76695044D01*
X82359962Y-76695041D01*
X82196101Y-76585552D01*
X82196088Y-76585545D01*
X82014020Y-76510131D01*
X82014010Y-76510128D01*
X81820724Y-76471681D01*
X81820722Y-76471681D01*
X81623640Y-76471681D01*
X81623638Y-76471681D01*
X81430351Y-76510128D01*
X81430341Y-76510131D01*
X81248273Y-76585545D01*
X81248260Y-76585552D01*
X81084399Y-76695041D01*
X81084395Y-76695044D01*
X80945044Y-76834395D01*
X80945041Y-76834399D01*
X80835552Y-76998260D01*
X80835545Y-76998273D01*
X80760131Y-77180341D01*
X80760128Y-77180351D01*
X80737222Y-77295507D01*
X80704837Y-77357418D01*
X80703287Y-77358995D01*
X80628212Y-77434071D01*
X80628208Y-77434076D01*
X80540609Y-77565176D01*
X80540602Y-77565189D01*
X80480264Y-77710860D01*
X80480261Y-77710872D01*
X80449500Y-77865515D01*
X80449500Y-82518059D01*
X80429815Y-82585098D01*
X80377011Y-82630853D01*
X80307853Y-82640797D01*
X80244297Y-82611772D01*
X80237819Y-82605740D01*
X79505292Y-81873213D01*
X79505288Y-81873210D01*
X79374185Y-81785609D01*
X79374172Y-81785602D01*
X79228501Y-81725264D01*
X79228489Y-81725261D01*
X79073845Y-81694500D01*
X79073842Y-81694500D01*
X77651304Y-81694500D01*
X77584265Y-81674815D01*
X77550986Y-81643386D01*
X77548018Y-81639301D01*
X77459517Y-81517490D01*
X77292510Y-81350483D01*
X77257872Y-81325317D01*
X77215207Y-81269989D01*
X77209228Y-81200375D01*
X77241833Y-81138580D01*
X77257873Y-81124682D01*
X77292510Y-81099517D01*
X77459517Y-80932510D01*
X77598343Y-80741433D01*
X77705568Y-80530992D01*
X77778553Y-80306368D01*
X77789110Y-80239712D01*
X77815500Y-80073097D01*
X77815500Y-79836902D01*
X77778553Y-79603631D01*
X77705566Y-79379003D01*
X77619074Y-79209254D01*
X77598343Y-79168567D01*
X77459517Y-78977490D01*
X77292510Y-78810483D01*
X77257872Y-78785317D01*
X77215207Y-78729989D01*
X77209228Y-78660375D01*
X77241833Y-78598580D01*
X77257873Y-78584682D01*
X77292510Y-78559517D01*
X77459517Y-78392510D01*
X77598343Y-78201433D01*
X77705568Y-77990992D01*
X77778553Y-77766368D01*
X77793633Y-77671158D01*
X77815500Y-77533097D01*
X77815500Y-77296902D01*
X77778553Y-77063631D01*
X77738682Y-76940923D01*
X77705568Y-76839008D01*
X77705566Y-76839005D01*
X77705566Y-76839003D01*
X77632213Y-76695041D01*
X77598343Y-76628567D01*
X77459517Y-76437490D01*
X77292510Y-76270483D01*
X77101433Y-76131657D01*
X77101432Y-76131656D01*
X77101426Y-76131652D01*
X77097281Y-76129112D01*
X77098408Y-76127272D01*
X77054334Y-76084834D01*
X77038194Y-76016854D01*
X77038620Y-76011206D01*
X77043912Y-75957464D01*
X76444410Y-75357962D01*
X76507993Y-75340925D01*
X76622007Y-75275099D01*
X76715099Y-75182007D01*
X76780925Y-75067993D01*
X76797962Y-75004410D01*
X77397465Y-75603913D01*
X77443837Y-75534515D01*
X77443838Y-75534511D01*
X77490509Y-75447198D01*
X77550814Y-75301612D01*
X77579555Y-75206864D01*
X77610298Y-75052302D01*
X77610298Y-75052299D01*
X77620000Y-74953789D01*
X77620000Y-74796210D01*
X77610298Y-74697700D01*
X77610298Y-74697697D01*
X77579555Y-74543135D01*
X77550814Y-74448387D01*
X77490509Y-74302801D01*
X77443844Y-74215498D01*
X77443838Y-74215488D01*
X77397465Y-74146085D01*
X76797962Y-74745588D01*
X76780925Y-74682007D01*
X76715099Y-74567993D01*
X76622007Y-74474901D01*
X76507993Y-74409075D01*
X76444408Y-74392037D01*
X77043912Y-73792534D01*
X77038619Y-73738794D01*
X77051638Y-73670148D01*
X77097695Y-73621553D01*
X77097285Y-73620884D01*
X77101418Y-73618350D01*
X77101433Y-73618343D01*
X77292510Y-73479517D01*
X77459517Y-73312510D01*
X77598343Y-73121433D01*
X77705568Y-72910992D01*
X77778553Y-72686368D01*
X77815500Y-72453097D01*
X77815500Y-72216902D01*
X77778553Y-71983631D01*
X77705566Y-71759003D01*
X77598342Y-71548566D01*
X77579120Y-71522109D01*
X77459517Y-71357490D01*
X77292510Y-71190483D01*
X77257872Y-71165317D01*
X77215207Y-71109989D01*
X77209228Y-71040375D01*
X77241833Y-70978580D01*
X77257873Y-70964682D01*
X77292510Y-70939517D01*
X77459517Y-70772510D01*
X77598343Y-70581433D01*
X77639785Y-70500097D01*
X77687756Y-70449304D01*
X77755577Y-70432508D01*
X77821712Y-70455044D01*
G37*
%TD.AperFunction*%
%TD*%
M02*
