M48
; DRILL file {KiCad 9.0.6} date 2026-06-24T17:24:45-0700
; FORMAT={-:-/ absolute / metric / decimal}
; #@! TF.CreationDate,2026-06-24T17:24:45-07:00
; #@! TF.GenerationSoftware,Kicad,Pcbnew,9.0.6
; #@! TF.FileFunction,Plated,1,2,PTH
FMAT,2
METRIC
; #@! TA.AperFunction,Plated,PTH,ViaDrill
T1C0.300
; #@! TA.AperFunction,Plated,PTH,ComponentDrill
T2C0.800
; #@! TA.AperFunction,Plated,PTH,ComponentDrill
T3C1.000
; #@! TA.AperFunction,Plated,PTH,ComponentDrill
T4C1.100
; #@! TA.AperFunction,Plated,PTH,ComponentDrill
T5C1.200
; #@! TA.AperFunction,Plated,PTH,ComponentDrill
T6C1.300
%
G90
G05
T1
X53.5Y-99.5
X54.7Y-84.275
X70.225Y-54.0
X70.825Y-58.525
X78.325Y-58.875
X79.8Y-74.2
X81.826Y-74.701
X83.7Y-99.375
X84.45Y-80.725
X85.1Y-103.275
X87.25Y-87.875
X87.25Y-96.4
X88.6Y-37.8
X88.75Y-75.475
X89.575Y-45.075
X94.525Y-84.925
X96.9Y-83.8
X101.4Y-29.85
X103.875Y-65.85
X107.8Y-78.1
X109.0Y-112.8
X110.0Y-107.0
X110.375Y-50.775
X110.45Y-81.975
X112.0Y-69.9
X112.0Y-94.1
X113.0Y-111.0
X113.9Y-77.9
X114.6Y-107.0
X114.875Y-32.275
X114.925Y-42.925
X117.0Y-108.0
X117.35Y-62.725
X127.025Y-99.875
X129.925Y-109.9
T2
X134.0Y-47.325
X134.25Y-33.99
X137.5Y-47.325
X137.75Y-33.99
T3
X58.535Y-69.795
X58.535Y-72.335
X58.535Y-74.875
X58.535Y-77.415
X58.535Y-79.955
X58.535Y-82.495
X58.535Y-85.035
X58.535Y-87.575
X58.535Y-90.115
X58.535Y-92.655
X58.535Y-95.195
X58.535Y-97.735
X58.535Y-100.275
X58.535Y-102.815
X58.535Y-105.355
X58.535Y-107.895
X58.535Y-110.435
X58.535Y-112.975
X58.535Y-115.515
X58.535Y-118.055
X76.315Y-69.795
X76.315Y-72.335
X76.315Y-74.875
X76.315Y-77.415
X76.315Y-79.955
X76.315Y-82.495
X76.315Y-85.035
X76.315Y-87.575
X76.315Y-90.115
X76.315Y-92.655
X76.315Y-95.195
X76.315Y-97.735
X76.315Y-100.275
X76.315Y-102.815
X76.315Y-105.355
X76.315Y-107.895
X76.315Y-110.435
X76.315Y-112.975
X76.315Y-115.515
X76.315Y-118.055
X89.575Y-89.825
X89.575Y-92.365
X89.575Y-94.905
X89.575Y-97.445
X89.575Y-99.985
X89.575Y-102.525
X89.575Y-105.065
X89.575Y-107.605
X95.0Y-29.5
X95.0Y-32.04
X95.0Y-34.58
X104.815Y-89.825
X104.815Y-92.365
X104.815Y-94.905
X104.815Y-97.445
X104.815Y-99.985
X104.815Y-102.525
X104.815Y-105.065
X104.815Y-107.605
X108.275Y-28.945
X108.275Y-31.485
X108.275Y-34.025
X120.0Y-90.0
X120.0Y-92.54
X120.0Y-95.08
X120.0Y-97.62
X120.0Y-100.16
X120.0Y-102.7
X120.0Y-105.24
X120.0Y-107.78
X135.24Y-90.0
X135.24Y-92.54
X135.24Y-95.08
X135.24Y-97.62
X135.24Y-100.16
X135.24Y-102.7
X135.24Y-105.24
X135.24Y-107.78
T4
X96.04Y-55.725
X106.2Y-55.725
X114.24Y-56.375
X124.4Y-56.375
T5
X120.5Y-116.0
X124.0Y-116.0
X127.5Y-116.0
X131.0Y-116.0
X142.0Y-94.0
X142.0Y-97.5
X142.0Y-101.0
X142.0Y-104.5
T6
X74.675Y-33.85
X79.675Y-33.85
X88.847Y-62.65
X88.847Y-67.65
X138.825Y-61.35
X138.825Y-66.35
M30
