M48
; DRILL file {KiCad 9.0.6} date 2026-09-01T17:38:40-0700
; FORMAT={-:-/ absolute / metric / decimal}
; #@! TF.CreationDate,2026-09-01T17:38:40-07:00
; #@! TF.GenerationSoftware,Kicad,Pcbnew,9.0.6
; #@! TF.FileFunction,Plated,1,2,PTH
FMAT,2
METRIC
; #@! TA.AperFunction,Plated,PTH,ViaDrill
T1C0.300
; #@! TA.AperFunction,Plated,PTH,ComponentDrill
T2C0.700
; #@! TA.AperFunction,Plated,PTH,ComponentDrill
T3C0.800
; #@! TA.AperFunction,Plated,PTH,ComponentDrill
T4C1.000
; #@! TA.AperFunction,Plated,PTH,ComponentDrill
T5C1.100
; #@! TA.AperFunction,Plated,PTH,ComponentDrill
T6C1.200
; #@! TA.AperFunction,Plated,PTH,ComponentDrill
T7C1.300
%
G90
G05
T1
X73.75Y-65.25
X73.75Y-66.35
X75.5Y-64.0
X76.25Y-62.25
X79.0Y-60.75
X81.25Y-96.75
X81.722Y-77.472
X82.5Y-78.25
X82.75Y-40.5
X83.0Y-73.0
X84.25Y-72.75
X90.319Y-77.319
X92.4Y-92.233
X92.5Y-85.25
X92.875Y-77.875
X93.5Y-92.25
X93.998Y-84.105
X94.5Y-87.75
X97.25Y-113.25
X102.5Y-74.75
X102.5Y-93.25
X103.25Y-76.0
X103.5Y-88.0
X103.75Y-105.394
X104.5Y-103.25
X105.8Y-99.563
X106.0Y-96.25
X106.75Y-112.5
X107.479Y-107.958
X108.5Y-109.75
X118.5Y-82.25
X119.0Y-88.25
X120.375Y-81.625
T2
X82.96Y-82.9
X88.04Y-82.9
X91.62Y-83.0
X96.7Y-83.0
X108.22Y-83.7
X113.3Y-83.7
X117.06Y-83.7
X122.14Y-83.7
T3
X100.718Y-82.5
X103.218Y-82.5
X126.0Y-82.6
X128.5Y-82.6
T4
X58.535Y-69.795
X58.535Y-72.335
X58.535Y-74.875
X58.535Y-77.415
X58.535Y-79.955
X58.535Y-82.495
X58.535Y-85.035
X58.535Y-87.575
X58.535Y-90.115
X58.535Y-92.655
X58.535Y-95.195
X58.535Y-97.735
X58.535Y-100.275
X58.535Y-102.815
X58.535Y-105.355
X58.535Y-107.895
X58.535Y-110.435
X58.535Y-112.975
X58.535Y-115.515
X58.535Y-118.055
X76.315Y-69.795
X76.315Y-72.335
X76.315Y-74.875
X76.315Y-77.415
X76.315Y-79.955
X76.315Y-82.495
X76.315Y-85.035
X76.315Y-87.575
X76.315Y-90.115
X76.315Y-92.655
X76.315Y-95.195
X76.315Y-97.735
X76.315Y-100.275
X76.315Y-102.815
X76.315Y-105.355
X76.315Y-107.895
X76.315Y-110.435
X76.315Y-112.975
X76.315Y-115.515
X76.315Y-118.055
X85.85Y-87.51
X85.85Y-90.05
X85.85Y-92.59
X85.85Y-95.13
X85.85Y-97.67
X85.85Y-100.21
X85.85Y-102.75
X85.85Y-105.29
X88.39Y-87.51
X90.93Y-87.51
X95.0Y-29.5
X95.0Y-32.04
X95.0Y-34.58
X98.55Y-87.51
X98.55Y-90.05
X98.55Y-92.59
X98.55Y-95.13
X98.55Y-97.67
X98.55Y-100.21
X98.55Y-102.75
X98.55Y-105.29
X108.275Y-28.945
X108.275Y-31.485
X108.275Y-34.025
X109.85Y-87.81
X109.85Y-90.35
X109.85Y-92.89
X109.85Y-95.43
X109.85Y-97.97
X109.85Y-100.51
X109.85Y-103.05
X109.85Y-105.59
X112.39Y-87.81
X114.93Y-87.81
X122.55Y-87.81
X122.55Y-90.35
X122.55Y-92.89
X122.55Y-95.43
X122.55Y-97.97
X122.55Y-100.51
X122.55Y-103.05
X122.55Y-105.59
T5
X96.04Y-55.725
X106.2Y-55.725
X114.24Y-56.375
X124.4Y-56.375
T6
X120.5Y-116.0
X124.0Y-116.0
X127.5Y-116.0
X131.0Y-116.0
X142.0Y-94.0
X142.0Y-97.5
X142.0Y-101.0
X142.0Y-104.5
T7
X74.675Y-33.85
X79.675Y-33.85
X88.847Y-62.65
X88.847Y-67.65
X138.825Y-61.35
X138.825Y-66.35
M30
